<?xml version="1.0" encoding="UTF-8" standalone="no"?>
<svg
   id="svg4444"
   width="231.98"
   height="227.16"
   viewBox="0 0 231.98 227.16"
   version="1.1"
   sodipodi:docname="PIP_tortuga.svg"
   xml:space="preserve"
   inkscape:export-filename="PIP_ClanDiamondShark.svg"
   inkscape:export-xdpi="96"
   inkscape:export-ydpi="96"
   xmlns:inkscape="http://www.inkscape.org/namespaces/inkscape"
   xmlns:sodipodi="http://sodipodi.sourceforge.net/DTD/sodipodi-0.dtd"
   xmlns="http://www.w3.org/2000/svg"
   xmlns:svg="http://www.w3.org/2000/svg"><sodipodi:namedview
     id="namedview13"
     pagecolor="#505050"
     bordercolor="#ffffff"
     borderopacity="1"
     inkscape:showpageshadow="0"
     inkscape:pageopacity="0"
     inkscape:pagecheckerboard="1"
     inkscape:deskcolor="#505050"
     showgrid="false" /><defs
     id="defs4"><style
       id="style2">
      .cls-1 {
        stroke-width: 0px;
      }
    </style></defs><g
     inkscape:groupmode="layer"
     id="layer11"
     inkscape:label="Layer 2"
     style="display:inline"><ellipse
       style="fill:#000618;fill-opacity:1;stroke:none;stroke-width:0.396891;stroke-linejoin:bevel;stroke-dashoffset:28.2467"
       id="path59450"
       cx="118.28013"
       cy="112.09548"
       rx="104.75578"
       ry="105.86594" /></g><g
     inkscape:groupmode="layer"
     id="layer12"
     inkscape:label="Layer 3"
     style="display:inline"><path
       style="display:inline;fill:#1967b3;fill-opacity:1;stroke:#000000;stroke-width:0.39046px;stroke-linecap:butt;stroke-linejoin:miter;stroke-opacity:1"
       d="M 75.796096,88.056285 3.2521074,87.499302 1.0670491,94.962876 -0.6810045,103.31762 v 7.12938 l 0.5462694,14.59296 2.5128188,11.25106 70.7959373,0.11146 3.698238,4.36508 -41.716909,55.1385 4.587255,6.10903 12.017831,10.02569 18.354504,9.80291 8.084722,3.1191 36.709008,-61.93652 33.64992,64.16445 c 0,0 17.04347,-8.68893 18.79151,-8.68893 1.74806,0 18.35451,-11.13967 18.35451,-11.13967 l 5.89965,-4.90146 -34.96095,-65.72399 72.32548,-0.22279 2.62207,-12.47642 0.43702,-7.57497 0.43701,-7.35218 v -7.35218 l -2.62207,-14.704351 -70.14043,0.445586 37.36453,-59.040209 -8.74024,-8.911737 -9.39576,-6.906583 -7.2107,-3.7874915 -7.6477,-4.0102761 L 153.36572,0.83273272 118.18626,62.769255 84.754841,-1.172406 57.660096,9.5216689 49.356871,15.091502 41.272148,21.7753 75.796096,87.276514 Z"
       id="path63802" /></g><g
     inkscape:groupmode="layer"
     id="layer13"
     inkscape:label="Layer 4"
     style="display:inline"><path
       style="fill:#ffffff;stroke:none;stroke-width:0.39046px;stroke-linecap:butt;stroke-linejoin:miter;stroke-opacity:1"
       d="M 30.456101,95.631258 11.664586,119.47013 c 0,0 -7.4292045,11.47386 -5.3533974,10.58268 2.0758068,-0.89118 14.8584104,-11.47386 14.8584104,-11.47386 0,0 -0.109252,21.27676 -0.109252,20.71978 0,-0.55699 5.353391,-9.35731 5.353391,-9.35731 l 8.630989,9.46871 -1.748047,-9.69152 22.943129,-0.55698 5.025636,-5.56983 10.816049,-0.22279 9.177249,-28.406134 -50.256379,-0.33419 z"
       id="path66573" /><path
       style="fill:#ffffff;stroke:none;stroke-width:0.39046px;stroke-linecap:butt;stroke-linejoin:miter;stroke-opacity:1"
       d="M 90.431253,29.613474 61.117457,23.128362 c 0,0 -13.387011,-1.647995 -11.677363,-0.152947 1.709655,1.495057 16.70751,8.424255 16.70751,8.424255 0,0 -18.715864,9.410022 -18.227199,9.161084 0.488667,-0.248946 10.602294,0.700618 10.602294,0.700618 l -4.449684,12.104467 7.721488,-5.926044 10.743132,20.677713 7.132876,2.094488 5.029711,9.765849 L 113.72397,75.65234 91.555002,29.663623 Z"
       id="path66573-2" /><path
       style="fill:#ffffff;stroke:none;stroke-width:0.39046px;stroke-linecap:butt;stroke-linejoin:miter;stroke-opacity:1"
       d="m 174.73948,48.697531 -9.7961,-28.907432 c 0,0 -5.57449,-12.5189188 -5.93904,-10.252699 -0.36456,2.266221 1.6213,18.932446 1.6213,18.932446 0,0 -17.60967,-11.415977 -17.14715,-11.119594 0.4625,0.296374 4.92151,9.600666 4.92151,9.600666 l -12.4553,2.412573 8.97779,3.647913 -11.74584,20.102848 1.95086,7.302345 -5.57035,9.455885 18.70455,23.037883 27.01962,-43.207769 z"
       id="path66573-1" /><path
       style="fill:#ffffff;stroke:none;stroke-width:0.419039px;stroke-linecap:butt;stroke-linejoin:miter;stroke-opacity:1"
       d="m 200.50648,128.91851 22.45357,-23.24378 c 0,0 8.94755,-11.237637 6.5272,-10.411391 -2.42037,0.826252 -17.50007,11.006741 -17.50007,11.006741 0,0 0.85834,-21.263462 0.83917,-20.706734 -0.0192,0.556716 -6.48501,9.186583 -6.48501,9.186583 l -9.60999,-9.732546 1.67867,9.741326 -26.43131,-0.156313 -5.97729,5.411064 -12.4591,-0.113469 -11.54288,28.107719 57.84366,1.89593 z"
       id="path66573-1-7" /><path
       style="fill:#ffffff;stroke:none;stroke-width:0.39046px;stroke-linecap:butt;stroke-linejoin:miter;stroke-opacity:1"
       d="m 57.231739,175.5944 8.188468,29.42275 c 0,0 4.876158,12.81837 5.364955,10.57659 0.4888,-2.24177 -0.575967,-18.99539 -0.575967,-18.99539 0,0 16.953098,12.40629 16.507641,12.08389 -0.44545,-0.32239 -4.384957,-9.86732 -4.384957,-9.86732 l 12.568526,-1.69556 -8.762705,-4.15624 12.834543,-19.39853 -1.54559,-7.40252 6.082397,-9.122 -17.406146,-24.07258 -29.356789,41.59241 z"
       id="path66573-20" /><path
       style="fill:#ffffff;stroke:none;stroke-width:0.39046px;stroke-linecap:butt;stroke-linejoin:miter;stroke-opacity:1"
       d="m 143.20951,200.53434 29.78381,3.63026 c 0,0 13.47987,0.35014 11.63924,-0.97342 -1.84061,-1.32355 -17.4138,-6.77593 -17.4138,-6.77593 0,0 17.75949,-11.17206 17.29611,-10.87712 -0.4634,0.29493 -10.61977,0.32456 -10.61977,0.32456 l 3.30738,-12.47919 -7.13742,6.64384 -12.61233,-19.54947 -7.29514,-1.39751 -5.91273,-9.23725 -28.49265,7.10398 26.33393,43.64566 z"
       id="path66573-20-4" /></g><g
     inkscape:groupmode="layer"
     id="layer14"
     inkscape:label="Layer 5"
     style="display:inline"><path
       style="fill:#aecedc;fill-opacity:1;stroke-width:0.39046"
       d="m 92.511804,75.02288 c 0,0 2.294312,-3.453296 3.38684,-3.453296 1.092533,0 11.471576,1.448156 11.471576,1.448156 l 9.83276,3.898883 21.95985,-4.455866 4.15162,2.116537 6.99219,0.556982 4.58862,3.676089 1.96656,9.914299 -4.15162,6.5724 9.39576,37.540656 -27.641,27.84916 -19.33779,9.24592 -14.31214,-9.02313 -23.489393,-22.50212 -4.697881,-6.79519 11.362315,-38.766021 c 0,0 -2.949832,-3.230502 -3.059087,-3.676088 -0.109253,-0.445587 -0.437011,-4.455865 -0.437011,-5.124244 0,-0.66838 -0.874025,-4.344469 0.546266,-5.569832 1.420287,-1.225362 3.496094,-3.564691 3.933107,-3.676088 0.437012,-0.111402 3.823856,-0.445586 3.823856,-0.445586 z"
       id="path69583" /></g><g
     inkscape:groupmode="layer"
     id="layer15"
     inkscape:label="Layer 6"
     style="display:inline"><path
       style="fill:#141c23;fill-opacity:1;stroke:none;stroke-width:0.39046px;stroke-linecap:butt;stroke-linejoin:miter;stroke-opacity:1"
       d="m 96.958177,82.793285 c 4.789713,-0.787693 17.150293,2.835696 17.150293,2.835696 l 24.25761,-2.678158 -4.94423,9.13724 -14.67817,-3.46585 -18.23184,2.205543 z"
       id="path74082" /><path
       style="fill:#131b22;fill-opacity:1;stroke:none;stroke-width:0.39046px;stroke-linecap:butt;stroke-linejoin:miter;stroke-opacity:1"
       d="m 84.153948,90.451312 -1.201783,-1.782347 -0.710143,-2.116536 -0.437013,-2.840613 c 0,0 0.655517,-3.174803 0.928652,-3.341898 0.273131,-0.167095 1.25641,-2.116536 1.25641,-2.116536 l 1.311033,-0.94687 c 0,0 1.42029,-0.167096 1.693421,-0.222795 0.273132,-0.05569 3.987734,-0.05569 3.987734,-0.05569 z"
       id="path79328" /><path
       style="fill:#131b22;fill-opacity:1;stroke:#000000;stroke-width:0.39046px;stroke-linecap:butt;stroke-linejoin:miter;stroke-opacity:1"
       d="m 143.77877,78.893913 6.63712,13.172651 0.62821,-0.946873 c 0,0 0.87402,-1.726646 0.95595,-1.865894 0.082,-0.139246 0.57359,-1.865894 0.57359,-2.144383 0,-0.278491 -0.30045,-3.508994 -0.30045,-3.508994 0,0 -1.31104,-3.898882 -1.4476,-3.982429 -0.13657,-0.08354 -2.32163,-1.141816 -2.32163,-1.141816 z"
       id="path82788" /></g><g
     inkscape:groupmode="layer"
     id="layer16"
     inkscape:label="Layer 7"
     style="display:inline"><path
       style="fill:#94a7bb;fill-opacity:1;stroke:#000000;stroke-width:0.39046px;stroke-linecap:butt;stroke-linejoin:miter;stroke-opacity:1"
       d="m 108.46274,88.836062 -3.82386,11.585248 -1.96655,10.80547 -0.65552,16.48669 4.47937,22.05654 5.1349,9.02313 c 0,0 11.58081,0.33419 11.79932,-0.22279 0.21851,-0.55699 5.13489,-14.14738 5.68116,-14.14738 0.54626,0 3.38684,-11.02826 3.38684,-12.92201 0,-1.89374 0.65552,-13.0334 0.65552,-13.0334 l -2.29431,-13.92458 -5.24415,-15.595521 c 0,0 -1.09252,-1.670949 -2.07581,-1.559556 -0.98328,0.111402 -14.74915,0.445588 -14.74915,0.445588 z"
       id="path91107" /></g><g
     inkscape:groupmode="layer"
     id="layer17"
     inkscape:label="Layer 8"><path
       style="display:inline;fill:#0d151d;fill-opacity:1;stroke:none;stroke-width:0.39046px;stroke-linecap:butt;stroke-linejoin:miter;stroke-opacity:1"
       d="m 109.06363,102.25935 -0.54626,2.28363 c 0,0 -0.27314,3.06341 -0.2185,3.509 0.0546,0.44558 0.81939,2.45072 0.81939,2.45072 0,0 0.54626,0.33419 0.92865,0.2228 0.38238,-0.11139 5.95428,0.1114 5.95428,0.1114 l -0.38237,8.13194 -4.86176,-0.55697 -5.95429,-3.95458 -0.6009,2.50642 v 10.69407 l 1.58417,11.41815 c 0,0 4.64325,15.09425 4.86176,15.14994 0.21851,0.0558 12.29096,-0.11146 12.29096,-0.11146 l 3.06675,-5.8639 c 0,0 2.93563,-13.31201 2.93563,-13.70585 0,-0.39385 0.54078,-20.08618 0.54078,-20.08618 l -7.18458,3.8597 c 0,0 -4.24895,1.41784 -4.24895,0.63015 0,-0.78769 0.61803,-8.11323 0.61803,-8.11323 l 6.10303,-0.23631 1.31332,-2.59939 -0.54078,-3.85969 -1.0043,-2.44185 -15.2962,0.0788 z"
       id="path93456" /><path
       style="fill:#0f121f;fill-opacity:1;stroke:none;stroke-width:0.39046px;stroke-linecap:butt;stroke-linejoin:miter;stroke-opacity:1"
       d="m 109.31874,89.724984 c 0.84979,-0.07877 14.52367,-0.393847 14.52367,-0.393847 l 2.39487,2.284312 -18.15459,0.07877 0.15451,-1.890464 z"
       id="path98573" /><path
       style="fill:#0f121f;fill-opacity:1;stroke:none;stroke-width:0.39046px;stroke-linecap:butt;stroke-linejoin:miter;stroke-opacity:1"
       d="m 107.38741,92.403141 -0.46353,2.284312 20.16317,0.07877 c 0,0 -0.30901,-2.44185 -0.77253,-2.44185 -0.46352,0 -18.92711,0.07877 -18.92711,0.07877 z"
       id="path98575" /><path
       style="fill:#0f121f;fill-opacity:1;stroke:none;stroke-width:0.39046px;stroke-linecap:butt;stroke-linejoin:miter;stroke-opacity:1"
       d="m 105.2243,98.783456 c 0,0 4.24895,-1.41785 4.63521,-1.41785 0.38628,0 5.71677,-0.236308 6.56656,-0.236308 0.84979,0 5.87127,0.07877 5.87127,0.07877 l 5.09873,1.496614 1.08155,0.157539 0.23177,2.205539 -4.86698,-1.181539 -4.94422,-0.393847 c 0,0 -4.86698,-0.236306 -5.48501,0.07877 -0.61803,0.315075 -5.02147,1.023996 -5.48499,1.023996 -0.46353,0 -3.1674,0.63015 -3.1674,0.63015 z"
       id="path98577" /></g><g
     inkscape:groupmode="layer"
     id="layer18"
     inkscape:label="Layer 9"><path
       style="fill:#fdfa74;fill-opacity:1;stroke:none;stroke-width:0.39046px;stroke-linecap:butt;stroke-linejoin:miter;stroke-opacity:1"
       d="m 107.53409,118.49541 c 0,0 0,5.17995 0.10926,5.20779 0.10925,0.0278 1.01058,3.09126 1.14715,2.86846 0.13656,-0.22279 1.77536,-4.31662 1.82999,-4.14952 0.0546,0.16709 0.62821,0.80762 1.14715,1.05827 0.51895,0.25064 1.96656,0.77978 2.10313,0.77978 0.13657,0 2.86789,0.38989 3.52341,0.27848 0.65551,-0.11135 3.08639,-0.55698 3.65997,-0.64052 0.57357,-0.0836 2.59476,-1.05828 2.70401,-0.94688 0.10925,0.11146 1.66611,4.06598 1.66611,4.06598 l 1.14716,-1.94945 -0.16388,-6.71164 c 0,0 -0.8194,0.72408 -1.0379,0.89118 -0.21851,0.16709 -0.87403,0.30634 -1.33835,0.47343 -0.46433,0.1671 -2.0485,0.94687 -2.2397,0.97472 -0.19119,0.0278 -1.36566,0.13924 -2.04849,0.19495 -0.68283,0.0558 -2.23968,0.13924 -2.62206,0.13924 -0.38239,0 -2.29432,-0.1671 -2.62209,-0.27849 -0.32775,-0.11146 -1.74804,-0.50129 -2.18505,-0.58483 -0.43701,-0.0836 -1.69342,-0.36205 -2.4582,-0.61268 -0.76477,-0.25064 -1.74804,-0.77978 -1.74804,-0.77978 z"
       id="path102175" /><path
       style="fill:#fdfa74;fill-opacity:1;stroke:none;stroke-width:0.39046px;stroke-linecap:butt;stroke-linejoin:miter;stroke-opacity:1"
       d="m 111.99981,147.59777 1.7617,2.00514 5.23049,-0.11146 c 0,0 1.58417,-2.28362 1.55685,-1.99121 -0.0273,0.29242 1.17447,4.88753 1.17447,4.88753 l -10.8297,0.0278 0.91499,-4.90146 z"
       id="path102177" /></g></svg>
