<?xml version="1.0" encoding="UTF-8"?>
<svg id="svg4444" xmlns="http://www.w3.org/2000/svg" width="205.67" height="206.71" viewBox="0 0 205.67 206.71">
  <defs>
    <style>
      .cls-1 {
        fill: #020108;
      }

      .cls-1, .cls-2, .cls-3, .cls-4, .cls-5, .cls-6, .cls-7, .cls-8, .cls-9, .cls-10, .cls-11, .cls-12, .cls-13, .cls-14, .cls-15 {
        stroke-width: 0px;
      }

      .cls-2 {
        fill: #dce7e8;
      }

      .cls-4 {
        fill: #910d0f;
      }

      .cls-5 {
        fill: #e5682e;
      }

      .cls-6 {
        fill: #af191b;
      }

      .cls-7 {
        fill: #b0322e;
      }

      .cls-8 {
        fill: #bca926;
      }

      .cls-9 {
        fill: #a4c140;
      }

      .cls-10 {
        fill: #f3fbbc;
      }

      .cls-11 {
        fill: #cee1e3;
      }

      .cls-12 {
        fill: #cfdfde;
      }

      .cls-13 {
        fill: #8a0b0f;
      }

      .cls-14 {
        fill: #374cdf;
      }

      .cls-15 {
        fill: #eeecae;
      }
    </style>
  </defs>
  <g id="layer11">
    <ellipse id="path531" class="cls-1" cx="102.83" cy="103.35" rx="102.83" ry="103.35"/>
  </g>
  <g id="layer8">
    <ellipse id="path1896" class="cls-13" cx="101.53" cy="96.35" rx="75.11" ry="73.26"/>
  </g>
  <g id="layer9">
    <path id="path4229" class="cls-8" d="m76.06,101.08s-1.13.76-1.88.95-12.74.95-14.8.19-10.11-.19-12.18-1.71c-2.06-1.51-19.13-7.93-19.86-8.14-3.56-1.04,5.8-26.31,5.8-26.31l4.87-9.27,8.33-10.89,13.21-10.79,13.96-7.19,14.33-3.69,13.29-1.89,13.12,1.32,17.79,5.11,14.42,8.14,12.93,11.74,14.23,23.47,4.5,20.63-4.87,5.3s-11.8,4.16-12.74,4.35-12.74,2.84-13.48,2.84-9.55-.19-9.55-.19c0,0-2.62.19-3.75,0-1.13-.19-3.93-2.46-3.93-2.46,0,0-5.44-1.32-6.18-1.32s-5.06.19-6.37.19h-30.91l-4.87-1.32h-3.56l-1.88.95v-.02Z"/>
    <path id="path11469" class="cls-2" d="m84.58,102.6l38.21.19,4.21-.09,6.09,4.83.65,9.18-2.34,7.95-3.37,10.13.19,6.06,2.15,10.89s-.38,7-.46,7.76-2.34,6.06-2.53,6.91-1.22,3.31-1.31,3.69c-.09.37-1.97,3.12-2.62,3.6s-3,2.46-4.02,2.93c-1.03.47-4.5,1.61-5.34,1.89-.84.28-4.87,1.61-5.62,1.71-.75.09-3.09.19-4.31.09-1.22-.09-3.93-.19-5.25-.19s-4.4-.85-5.99-1.23c-1.59-.37-6.55-3.4-7.03-3.69-.46-.28-6.09-2.84-6.09-2.84,0,0-1.88-2.46-1.97-2.93-.09-.47-1.59-5.68-1.69-6.53-.09-.85-1.03-4.16-1.03-5.02s-.65-3.98-.46-5.68c.19-1.71,2.34-7.95,2.81-9.27s1.31-3.6,1.22-5.2c-.09-1.61-3.18-8.71-3.18-8.71,0,0-3.37-10.6-3.37-10.98s-.28-3.98-.28-5.3.65-6.34.84-6.91,2.53-3.12,3-3.5c.46-.37,8.9.28,8.9.28h0Z"/>
  </g>
  <g id="layer10">
    <path id="path17260" class="cls-7" d="m77.34,113.36c.53-.14,6.49,5.89,6.49,5.89,0,0,4.9,4.96,5.43,5.22.53.26,7.42,3.21,7.95,3.21s6.49.67,6.49.67l7.15-1.07s5.03-2.41,6.09-3.21c1.06-.8,11.66-9.9,11.66-9.9,0,0,1.59.26,1.32.94-.27.67-1.98,10.04-1.98,10.04l-3.31,11.24.27,12.59-2.78,12.18-1.73,3.61s-3.71,3.08-4.37,3.21c-.66.14-2.12.54-4.1.94-1.98.4-5.43.94-6.62,1.07-1.19.14-4.24-.14-5.43-.14s-4.1-.54-5.43-1.07c-1.32-.54-3.84-1.34-5.03-2.01-1.19-.67-3.05-2.01-4.24-2.95-1.19-.94-3.05-2.67-3.31-3.21-.27-.54-.93-4.02-.93-4.82s-.53-5.36-.53-5.36c0,0,.66-16.46.66-17s-2.65-10.18-3.31-10.84-2.39-4.96-2.39-4.96c0,0-.53-2.41-.13-2.95.39-.54,2.12-1.34,2.12-1.34h0Z"/>
    <path id="path25954" class="cls-4" d="m96.67,124.46s2.91,1.07,4.77,1.07,5.96-.4,7.95-.94,5.7-2.55,7.29-4.02,3.44-4.28,4.1-5.48c.66-1.2,2.78-6.83,2.51-8.17s-1.19-4.15-2.25-4.15-1.98.26-3.44,0-3.05.8-3.05-1.61.13-8.7.39-9.77c.27-1.07.39-16.87.13-17.4s-5.56-13.92-5.56-13.92c0,0-.53.26-2.12,1.07-1.59.8-7.02.54-7.02.54l-1.73-1.2s-2.78,8.57-3.05,9.37-2.51,8.7-2.51,9.64.39,4.55.66,5.62c.27,1.07,1.46,7.63,1.73,8.3.27.67.8,3.48.8,4.42s.13,2.41-.53,2.67-2.65,2.55-3.97,2.67c-1.32.14-4.63-.67-4.63-.67,0,0-1.85,1.34-1.98,2.14s-1.73,4.02-1.73,4.02l1.32,6.56s.8,3.08,3.31,4.42,6.62,4.28,7.15,4.28,1.46.54,1.46.54h0Z"/>
    <path id="path28770" class="cls-4" d="m63.16,38.8c.93-.54,5.83-4.82,6.76-5.36s11-4.68,12.19-5.22c1.19-.54,9.41-1.87,10.73-2.01,1.32-.14,8.74-.54,9.66-.54s12.19,2.01,12.98,2.14,11.52,2.41,12.32,2.95,8.21,3.21,8.74,3.75c.53.54,6.62,4.15,6.62,4.15,0,0-.93.4-1.59.14-.66-.26-9.41-2.01-10.07-2.01s-11.26,1.2-12.05,1.61-9.14,3.21-9.93,3.48-4.1,1.87-5.56,1.61c-1.46-.26-2.39,0-3.58-.8s-7.29-3.61-7.29-3.61c0,0-4.77-2.14-6.62-2.55s-5.83-.94-5.83-.94c0,0-6.62,1.34-7.81,1.47s-9.66,1.74-9.66,1.74h0Z"/>
    <path id="path28772" class="cls-14" d="m60.38,54.19c.39.8,13.24,15.4,13.24,15.4l4.77-3.35,1.59.8,3.84-3.08,3.44.8,2.25-4.02s3.58-.4,4.63,0c1.06.4,2.39,1.47,2.39,1.47l1.19-3.35-3.05-2.14s.53-.67-1.06,0-4.1,2.14-4.9,2.41-4.63,2.14-5.83,1.34-3.31-2.41-3.97-3.08c-.66-.67-2.39-3.48-2.91-3.48s-5.43,1.07-5.43,1.07c0,0-3.71.14-4.63,0s-4.1-1.07-4.1-1.07l-1.46.26h0Z"/>
    <path id="path31381" class="cls-14" d="m110.99,62.84s-1.5-2.93-1.22-3.5c.28-.57,2.62-2.08,3-2.18.38-.09,3.66.37,4.5,1.23.84.85,6.74,4.07,8.24,3.4,1.5-.67,3.66-1.61,4.4-2.93.75-1.32,3.09-3.5,3.09-3.5,0,0,2.34,2.27,4.96,2.56,2.62.28,4.02,1.8,5.44.19,1.4-1.61,1.78-2.46,2.15-2.75s.19,5.2-.75,6.15-9.18,8.42-9.18,8.42c0,0-1.78,1.8-2.53,1.61s-.94-2.18-1.88-2.56-2.72-1.13-2.72-1.13c0,0,.38.76-1.4-.09s-1.5-.76-2.62-1.51-.09-1.89-2.81-1.42c-2.72.47-3.66.76-3.66.76,0,0,.65-2.65-.56-3.31-1.22-.67-2.06-1.89-3.47-1.61-1.4.28-3,2.18-3,2.18h0Z"/>
    <path id="path31383" class="cls-3" d="m61.16,54.23l-1.03-2.56s1.78-.28,3-.28,6.09-1.32,6.46-1.71c.38-.37,3.84-1.42,3.84-1.42,0,0,2.15-.19,4.31-.47s5.15-.95,7.68-.76,4.77,1.42,6.09,2.75c1.31,1.32,4.77,5.02,5.25,6.06.46,1.04,2.15,2.93,2.15,2.93,0,0,1.31,1.42,2.06,1.42s2.91-.09,4.02-.47c1.13-.37,2.15-1.23,3.66-2.46,1.5-1.23,2.91-3.79,4.59-4.64,1.69-.85,2.24-1.71,3.18-2.08s8.06-2.75,8.06-2.75c0,0,5.15-.37,5.9-.19.75.19,3.09,1.13,5.53,2.36,2.43,1.23,9.18,2.46,9.83,2.08.65-.37,1.4-.37,1.4-.37,0,0-.84,2.46-1.22,3.03s-1.5,1.99-2.15,2.36c-.65.37-1.5,1.61-3.37.95-1.88-.67-2.15-.57-3.75-1.42-1.59-.85-4.02-1.51-4.02-1.51,0,0-1.97,2.36-2.53,2.84s-2.81,2.08-3.56,2.46c-.75.37-3.93.19-4.87.19s-4.77-2.93-4.77-2.93l-3.37-.85s-1.13,0-1.59.28-2.43,2.46-2.43,2.46c0,0,.84.85-.84,1.23s-6.09.85-6.65.85-1.97,0-2.62-.85-1.4-2.27-1.4-2.27c0,0-.94-.95-1.59-1.23-.65-.28-2.62-1.04-2.62-1.04,0,0-2.24,1.23-3.09,1.8-.84.57-5.25,2.36-5.25,2.36,0,0-1.69,0-2.34-.28s-4.87-4.44-4.87-4.44l-2.15-2.08-6.46.85-4.77-.28-3.66.09h0Z"/>
    <path id="path31439" class="cls-11" d="m62.57,51.3c-.94-.19-3.18-2.08-3.18-2.08,0,0,.19-2.93.38-3.98.19-1.04,0-2.84,1.97-3.79s6.55-3.5,6.55-3.5l7.96-1.04,5.15-.47s6.65,1.32,7.58,1.8c.94.47,8.62,3.98,9.92,4.64,1.31.67,2.24,1.42,4.02,1.13,1.78-.28,3.37-.76,4.21-1.04.84-.28,12.36-3.88,12.36-3.88l11.24-1.61s9.83,1.04,10.21,1.32,2.91,1.8,3.28,2.46.94,1.71,1.97,3.69.46,3.79.65,4.74c.19.95,0,1.89,0,1.89,0,0-1.88.95-3.28.57-1.4-.37-1.88-1.23-5.06-2.08s-5.62-1.42-5.62-1.42c0,0-1.88-1.23-3.93-1.32-2.06-.09-5.06.09-6.46.67-1.4.57-3.47,1.42-5.25,2.27s-3.09,1.42-4.68,2.56c-1.59,1.13-1.13.47-3.09,2.36s-1.31,2.93-3.75,3.5c-2.43.57-3.37,1.32-4.21.67-.84-.67-1.03-1.04-2.15-2.46s-5.34-4.35-5.62-4.83c-.28-.47-2.53-3.12-3.47-3.69s-3.75-1.71-5.25-1.8c-1.5-.09-7.87.37-9.55.85-1.69.47-7.77,1.99-8.14,2.08s-4.31,1.8-4.31,1.8l-1.03.19.56-.19h.04Z"/>
    <path id="path33013" class="cls-15" d="m75.96,101.56s-5.53-14.38-5.53-15.05-.09-9.56-.09-9.56l2.06-3.12s.94-1.04,1.22-.19.56,5.87,1.22,7.47,1.03,4.16,2.15,6.15,3.37,6.43,4.21,7.47,3.28,5.02,3.28,5.02c0,0-.46-.09-.84,0-.38.09-7.68,1.8-7.68,1.8Z"/>
    <path id="path33015" class="cls-15" d="m74.37,70.42s1.4,12.87,1.78,13.25c.38.37,3.84,6.63,4.4,7.86s2.72,7,3.47,7.76,3.56,2.08,4.02,1.99,2.81-.19,4.02-.47,2.91.28,1.78-1.99-2.53-3.69-3.75-6.24-4.21-6.53-5.34-9.09-1.88-3.12-2.81-7.1c-.94-3.98-1.97-8.51-1.97-8.51l-1.13-.28s-1.03-.57-1.97.28c-.94.85-3.28,2.93-3.28,2.93l.75-.37h0Z"/>
    <path id="path33017" class="cls-15" d="m83.83,64.74s-1.5,1.13-1.88,1.42c-.38.28-.84-.47-.84.76s1.88,9.46,2.24,10.98c.38,1.51,6.93,13.06,7.3,14.01s2.34,6.91,2.34,6.91c0,0,.19.47.46-.28.28-.76.75-4.54.56-6.63s-1.97-7.86-1.97-10.22.38-3.4-.38-6.24-1.69-6.72-2.43-8.23c-.75-1.51-.65-2.46-1.5-2.46s-2.15-.37-2.15-.37l-1.78.37h0Z"/>
    <path id="path33019" class="cls-15" d="m92.91,61.33l2.62,2.18s-1.4,4.92-1.5,5.39c-.09.47-.65,1.32-.75,2.46-.09,1.13-.38,2.75-.38,2.75l-.09,1.89s-2.53-2.56-2.53-3.31-.94-7.47-.94-7.47l-1.31-1.8s.19-.95.94-1.32c.75-.37,3.93-.76,3.93-.76h0Z"/>
    <path id="path33013-2" class="cls-15" d="m133.38,100.56s4.8-14.65,4.77-15.31c-.04-.67-.38-9.56-.38-9.56l-2.22-3.01s-.98-.99-1.22-.13c-.24.87-.27,5.89-.84,7.53s-.82,4.21-1.84,6.25-3.05,6.6-3.84,7.68c-.79,1.09-3.02,5.17-3.02,5.17,0,0,.46-.12.84-.05.38.07,7.76,1.41,7.76,1.41h0Z"/>
    <path id="path33015-0" class="cls-15" d="m133.42,69.38s-.76,12.92-1.12,13.32-3.5,6.81-4.01,8.07-2.36,7.14-3.08,7.93c-.71.79-3.45,2.26-3.92,2.19s-2.82-.05-4.05-.26-2.89.43-1.88-1.9c1.01-2.33,2.34-3.81,3.43-6.43,1.09-2.61,3.88-6.74,4.88-9.35s1.72-3.21,2.45-7.24c.73-4.02,1.54-8.61,1.54-8.61l1.11-.34s1-.62,1.98.18,3.42,2.77,3.42,2.77l-.77-.34h0Z"/>
    <path id="path33017-3" class="cls-15" d="m123.69,64.19s1.56,1.06,1.94,1.32c.38.26.82-.51.88.71.06,1.23-1.39,9.55-1.7,11.08s-6.27,13.4-6.6,14.36c-.33.97-1.99,7.02-1.99,7.02,0,0-.16.48-.48-.26s-.97-4.5-.89-6.59,1.57-7.95,1.46-10.31c-.12-2.36-.55-3.39.06-6.26s1.35-6.8,2.02-8.35c.67-1.55.53-2.49,1.38-2.54.84-.05,2.14-.48,2.14-.48l1.8.28h0Z"/>
    <path id="path33019-9" class="cls-15" d="m114.45,61.25l-2.51,2.31s1.65,4.85,1.77,5.31c.12.47.72,1.29.87,2.42.15,1.13.51,2.72.51,2.72l.19,1.89s2.4-2.68,2.36-3.44c-.04-.76.56-7.51.56-7.51l1.22-1.86s-.23-.94-1-1.28-3.97-.56-3.97-.56h0Z"/>
    <path id="path35182" class="cls-12" d="m72.4,106.67s-23.98,1.61-24.44,1.71c-.46.09-17.04,3.98-17.04,3.98,0,0-2.62.67-.09.67s3.18.28,7.87-.95c4.68-1.23,13.58-1.89,14.89-1.99,1.31-.09,6.74.09,10.21-.67s7.21-.76,7.21-.76l1.4-1.99h-.02Z"/>
    <path id="path36618" class="cls-12" d="m71.37,110.92s-7.77,1.71-8.81,1.99c-1.03.28-9.18,2.56-9.18,2.56l-13.12,6.63s-3.37,3.12-3.93,3.5c-.56.37.09.85,2.43.28,2.34-.57,7.58-4.26,9.65-5.11s5.62-2.56,9.18-3.6c3.56-1.04,8.33-2.46,9.46-2.75,1.13-.28,3.75-.85,3.75-.85l.56-2.65h0Z"/>
    <path id="path36620" class="cls-12" d="m71.75,119.82l-21.54,14.96s13.77-7.1,14.98-7.86,6.37-4.16,6.37-4.16l.38-2.36-.19-.57h0Z"/>
    <path id="path36622" class="cls-12" d="m134.4,121.15c.94.09,17.33,11.65,17.33,11.65l-18.17-9.94.94-2.36.46.37"/>
    <path id="path36624" class="cls-12" d="m135.34,114.62c.56.19,34.55,13.53,34.55,13.53,0,0-1.78-2.84-3.75-4.16s-7.96-4.07-9.46-4.54c-1.5-.47-7.3-2.18-9.55-3.22-2.24-1.04-4.59-2.46-7.21-2.65-2.62-.19-4.59,1.04-4.59,1.04h0Z"/>
    <path id="path36626" class="cls-12" d="m135.24,109.79c.46.09,40.18,5.68,40.18,5.68,0,0,.46-2.27-.38-2.56-.84-.28-27.72-3.88-29.5-4.16s-8.14-.47-8.71-.37c-.56.09-1.59,1.42-1.59,1.42h0Z"/>
  </g>
  <g id="layer2">
    <path id="path36634" class="cls-5" d="m77.07,47.24s-1.46.87-1.46,2.07.66,4.48.8,4.75c.13.26,1.52,2.14,2.18,2.81.66.67,1.46,2.14,3.25,2.21s1.65.14,3.31.14,4.1-1.14,5.03-1.47c.93-.34,2.45-2.01,2.98-2.95.53-.94,1.26-1,.93-1.94-.33-.94-1.98-2.47-2.45-3.08s-1.46-1.14-2.78-1.67c-1.32-.54-4.7-.94-5.17-1s-6.16,0-6.16,0l-.46.14h0Z"/>
    <path id="path39450" class="cls-5" d="m114.89,52.46s-.72,2.41.53,3.35c1.26.94,3.11,2.47,3.64,2.87.53.4,4.1,1.61,4.84,1.61s2.25-.47,3.25-1.07,2.65-1,3.44-2.67,1.19-3.08,1.46-3.88-.2-2.95-.2-2.95c0,0-.39-.47-.99-.74s.2-.67-1.85-.74c-2.06-.06-2.18-.06-2.91,0-.72.06-3.05.6-3.84.87s-5.17,2.01-5.17,2.01l-2.18,1.34h0Z"/>
    <path id="path39452" class="cls-3" d="m90.38,116.1c-.27-.26-2.45-1.87-2.45-2.47s-.8-3.48-.8-3.48c0,0,3.05-1.2,3.84-.94s2.18.94,2.91,1.41c.72.47,1.32.6,2.18,2.14.86,1.54.99,1.81,1.79,2.95.8,1.14,1.39,2.47,1.65,3.28.27.8.33,2.21.46,2.55.13.34.13,1.27-.46.34-.6-.94-1.32-3.88-1.52-4.35-.2-.47-.39-1.07-1.52-1.61-1.13-.54-2.58-1.47-3.58-.94-.99.54-1.32.74-1.39,1.41-.06.67-1.13-.26-1.13-.26h0Z"/>
    <path id="path39454" class="cls-3" d="m106.8,122.05c0-.8.13-2.95,1.06-3.55s1.46-.6,4.24-1.81,2.58-.47,3.77-1.94c1.19-1.47,1.46-1.81,1.46-2.61s.46-1.07-.13-1.14c-.6-.06-1.46-.74-2.78-.06-1.32.67-1.85,1.27-3.18,2.55-1.32,1.27-2.72,2.35-3.18,3.35-.46,1-1.65,1.41-1.65,3.08s.39,2.14.39,2.14h0Z"/>
    <path id="path39456" class="cls-3" d="m82.7,129.82c.6.26,14.17,4.68,17.75,4.48s18.27-3.75,18.27-3.75l2.72,8.9-6.16,14.79-.13,3.88-27.02-.54-6.55-23.35,1.13-4.42h0Z"/>
  </g>
  <g id="layer3">
    <path id="path39459" class="cls-6" d="m79.1,48.22s-.65,4.12-.42,4.21c.23.09,2.57,2.93,2.85,2.98.28.05,2.15.67,2.91.67s1.31.37,2.67-.24,1.92-.47,2.53-1.61c.61-1.13.75-2.04.75-2.88s-2.01-1.23-2.01-1.23c0,0-.33,1.42-.38,1.61-.04.19.33.95-.75,1.32-1.07.37-2.76.95-3.18.95s-.61-.19-1.03-.47-.84-.95-1.07-1.61c-.23-.67-.46-2.13-.33-2.36.14-.24.8-.76.75-.95s-.04-.71-.89-.67c-.84.05-2.39.28-2.39.28h0Z"/>
    <path id="path42275" class="cls-6" d="m117.73,52.25c-.09.37-.46,1.8-.09,2.27s2.81,1.94,3.28,1.99c.46.05.75-.09,2.34-.15,1.59-.05,2.15.57,2.67-.24.52-.8.42-1.32.75-1.99s.56-1.75.61-2.56c.04-.8-.14-1.94-.14-1.94l-2.01-.05s.14-.28.28.61c.14.9.14,1.94.19,2.51s.75.95-.46,1.04-2.91.15-3.23.09c-.33-.05-.61,0-1.26-.47-.65-.47-1.64-1.51-1.64-1.51l-1.07.15-.19.24h-.03Z"/>
    <path id="path42277" class="cls-10" d="m79.39,116.63s-.66,4.75-.66,5.28.46,5.56.8,6.56,6.16,11.38,6.49,11.71c.33.34,5.3,5.36,5.3,5.36,0,0-.72-2.35-1.13-3.35-.39-1-2.51-6.22-2.65-7.23-.13-1-.46-4.82-.46-5.89v-4.96l-4.84-4.62s-2.85-2.87-2.85-2.87Z"/>
    <path id="path45093" class="cls-10" d="m89.79,130.55s1.26-.94,1.65-.94,2.45.34,2.58.67c.13.34.66,1.14.93,2.67.27,1.54.2,4.35.2,4.35,0,0-4.97.67-5.17.14-.2-.54-.27-6.56-.2-6.89h0Z"/>
    <path id="path45095" class="cls-10" d="m97.8,131.35l-1.19,6.49s.72.34,2.12.6c1.39.26,3.05,1.41,3.05.06s-.27-3.21-.6-4.35c-.33-1.14.27-1-.53-1.81s-2.18-1.41-2.18-1.41l-.66.4h0Z"/>
    <path id="path45097" class="cls-10" d="m104.16,132.09s.53-.87,1.19-1c.66-.14,2.25.2,2.32.47s.8,2.01.93,2.47c.13.47.27.94.33,1.67.06.74,0,1.2.06,1.74s1.65,1.34-.39,1.2c-2.06-.14-4.04-.2-4.04-.2,0,0-1.13-1.34-.93-2.07.2-.74.72-4.02.72-4.02l-.2-.26h0Z"/>
    <path id="path45099" class="cls-10" d="m111.57,138.38c-.13-.34-.93-2.07-.86-2.87.06-.8-.06-1.54.33-2.55.39-1,.8-3.01.8-3.01l2.58-.34s1.59.8,1.59,1.27.2,3.08.2,3.68-.2,1.27-.39,1.87-.33,1.41-.93,1.41-1.73.14-2.06.14-1.26.4-1.26.4h0Z"/>
    <path id="path45101" class="cls-10" d="m92.57,151.51v4.75s.86,1.67,1.26,2.35c.39.67,1.39,2.81,1.39,2.81,0,0,1.46,1.2,1.98-.34.53-1.54.8-2.87.72-4.35-.06-1.47-.6-3.21-.72-3.68-.13-.47-.46-1.34-.46-1.34,0,0-3.11-.2-3.38-.2h-.8Z"/>
    <path id="path45103" class="cls-10" d="m98.66,151.71s2.18-.4,2.45-.2.8,8.83.8,8.83v.54s-1.32.74-1.98.2-1.06-.14-1.13-1c-.06-.87.13-2.55-.06-4.28-.2-1.74-.06-4.08-.06-4.08h0Z"/>
    <path id="path45105" class="cls-10" d="m103.56,151.71c0,.34.13,8.77.13,8.77,0,0-.6.6.72.67,1.32.06,1.26,1.27,1.73,0s1.13-2.21.86-4.08-.33-2.95-.33-3.88-.13-1.47-.13-1.47h-2.98,0Z"/>
    <path id="path45107" class="cls-10" d="m109.06,151.57s-.39,4.42-.27,5.69c.13,1.27.53,2.95.8,3.48.27.54-1.73,1.07.27.54,1.98-.54,3.05-3.21,3.11-4.42.06-1.2.93-4.02.93-4.02l-.2-.87-4.63-.4h0Z"/>
    <path id="path45109" class="cls-10" d="m124.16,136.91c-.06.6-2.65,3.81-2.98,4.68-.33.87-.06.34-.86,2.75s-1.32,3.48-1.73,4.55c-.39,1.07-.72,2.14-1.52,3.15-.8,1-1.73,1.47-1.92,2.21s.53,5.08.8,5.28c.27.2,3.11,1.81,3.38,1.87s2.51.8,3.18-1.27c.66-2.07,1.06-5.69,1.39-7.09.33-1.41.99-6.09.93-7.23s-.53-4.28-.53-5.28-.13-3.61-.13-3.61h-.02Z"/>
    <path id="path45111" class="cls-10" d="m118.19,124.4l8.14-6.16s.46,1.67.53,2.27c.06.6.2.87.13,2.47-.06,1.61-.2,6.02-.2,6.63s-3.31,5.82-3.58,6.36-3.71,5.56-4.43,6.63c-.72,1.07-2.72,4.08-2.72,4.08l-.93.67s.86-2.07,1.39-3.61,2.18-6.96,2.18-8.09.27-4.42.72-6.16c.46-1.74-1.26-5.08-1.26-5.08h0Z"/>
    <path id="path45113" class="cls-10" d="m80.91,134.44c.2.67,2.65,7.49,3.11,8.37.46.87,3.25,5.89,3.77,6.42.53.54,2.18,2.81,2.18,2.81,0,0,.27,2.14.2,2.75-.06.6-.46,2.95-1.19,4.08-.72,1.14-.8,2.14-1.65,2.14s-1.39.47-1.79-.34c-.39-.8-1.92-4.55-2.18-5.36-.27-.8-1.26-3.81-1.39-4.55-.13-.74-1.19-3.75-1.19-3.75l.13-12.59h0Z"/>
    <path id="path45115" class="cls-9" d="m78.79,172.39l.06,8.37,3.44,7.89s-.39-4.22-.46-4.55c-.06-.34-1.06-3.55-.6-5.02.46-1.47.6-4.08.33-4.35s-2.78-2.35-2.78-2.35h0Z"/>
    <path id="path45117" class="cls-9" d="m82.1,175.26l.66,8.43s2.25,5.62,2.18,6.02c-.06.4,3.91,5.22,3.91,5.22,0,0-.33-3.15-1.26-4.35s-2.91-5.62-2.58-7.29.6-6.09.33-6.22c-.27-.14-3.25-1.81-3.25-1.81h0Z"/>
    <path id="path45119" class="cls-9" d="m85.94,177.67l3.51,1.61s-.06,6.49.06,6.83c.13.34,1.26,4.42,1.52,4.75s2.39,3.41,2.78,4.02c.39.6,1.26,2.07.39,1.47-.86-.6-2.91-2.14-3.71-3.21s-1.79-3.21-2.12-4.02c-.33-.8-1.85-5.76-1.92-6.96-.06-1.2-.53-4.48-.53-4.48h0Z"/>
    <path id="path45121" class="cls-9" d="m91.84,180.48s-.13,3.41,0,4.82.66,5.42,1.06,6.29,2.72,4.68,3.38,5.36c.66.67,3.11,1.61,3.11,1.61,0,0-.27-.8-1.39-3.21s-1.79-2.87-1.79-5.02-.06-4.68.2-6.49c.27-1.81.86-1.81.27-2.07-.6-.26-5.23-1.47-5.23-1.47l-.06-.06h.46v.26h0Z"/>
    <path id="path45123" class="cls-9" d="m97.67,183.09l.2,8.5,3.05,7.16.27-16.33s-2.98-.26-3.38-.26-.13.94-.13.94h0Z"/>
    <path id="path45125" class="cls-9" d="m102.43,182.63l.46,15.86s2.32-5.76,2.32-6.42.72-9.84.72-9.84l-3.51.4h0Z"/>
    <path id="path45127" class="cls-9" d="m107.07,182.49l-.27,9.24-2.25,6.02-.53,1.27s2.72-4.28,3.25-4.88,1.79-3.08,2.25-4.42,1.39-4.15,1.46-4.88c.06-.74.06-3.21.06-3.21l-3.97.87h0Z"/>
    <path id="path45129" class="cls-9" d="m112.57,180.62l-.93,8.77-4.51,9.04s5.89-7.16,6.16-7.77c.27-.6,2.45-6.49,2.51-7.29.06-.8.06-3.55.06-3.55l-3.31.8h0Z"/>
    <path id="path45131" class="cls-9" d="m117.8,178.74l-.93,8.17-5.63,9.37s4.97-4.08,5.23-4.35c.27-.26,3.31-8.63,3.31-9.17s-.06-4.55-.06-4.55l-1.92.54h0Z"/>
    <path id="path45133" class="cls-9" d="m120.84,176.67l.46,9.17-2.18,3.75s3.11-4.22,3.44-4.88c.33-.67,1.46-6.36,1.39-6.89-.06-.54.33-2.35-.27-2.14s-2.85,1-2.85,1h0Z"/>
  </g>
  <g id="layer4">
    <path id="path48572" class="cls-3" d="m79.12,47.97v-1s3.77-.26,4.51-.26,5.17.6,5.17.6c0,0,1.39,1,1.65,1.07.27.06.39,1.61.39,1.61,0,0,.27.94-.33.94s-1.92-1-1.92-1c0,0-.66.87-.66,1.27s-.13,1.34-.39,1.54c-.27.2-1.52.87-1.79.94-.27.06-.99.26-1.39.26s-.33.06-.93-.26c-.6-.34-.8-.4-1.06-1s-.6-1.07-.72-1.67c-.13-.6-.2-.8-.2-.8,0,0-.2-.34.06-.6s.8-.67.8-.67l-.2-1.2s.8-.2-.99-.14-1.98.4-1.98.4h0Z"/>
    <path id="path48574" class="cls-3" d="m118,51.78l.27-1.47,3.51-1.54s2.39-.26,3.11-.26,2.32-.06,2.32-.06l.46.54s-.46.4-.72.4h-1.26l-.39.2.33,3.88s.86.14-1.52.34c-2.39.2-2.78-.4-3.05-.54s-1.46-.94-1.46-.94c0,0-.6-.74-.93-.6s-.66.06-.66.06h0Z"/>
    <path id="path51624" class="cls-3" d="m33.43,75.75l2.06,4.02s2.85,4.28,2.91,4.55c.06.26,4.51,4.35,4.51,4.35,0,0,9.66,4.15,10,4.42s13.18,3.21,13.51,3.21,7.29.94,7.29.94l-.39-.67s-6.16-1.27-7.68-1.41c-1.52-.14-12.71-2.87-13.04-3.15-.33-.26-6.55-3.21-6.96-3.55s-4.1-3.01-4.1-3.01c0,0-4.9-5.89-5.17-6.36-.27-.47-2.12-4.35-2.12-4.35l-.8,1h0Z"/>
    <path id="path51626" class="cls-3" d="m71.44,91.21c-.93-.14-4.51-1.07-5.17-1.47s-3.51-1.41-4.24-1.74-3.44-2.07-4.1-2.47c-.66-.4-3.31-1.81-3.58-2.01-.27-.2-2.32-2.07-2.72-2.55-.39-.47-4.77-4.02-4.77-4.02,0,0-2.45-3.88-2.65-4.22-.2-.34-3.58-8.57-3.58-8.57l-1.13-4.48.86-.74s1.46,5.62,1.65,6.16c.2.54,1.52,4.08,2.12,5.36.6,1.27,3.25,5.28,3.84,6.09s3.25,3.61,4.37,4.42c1.13.8,7.29,4.35,8.01,4.82.72.47,7.29,3.48,7.88,3.61.6.14,3.51.54,3.51.54,0,0-.33,1.27-.33,1.27Z"/>
    <path id="path51628" class="cls-3" d="m68.92,80.09s-9.33-6.42-9.74-6.76c-.39-.34-5.83-6.76-5.83-6.76l-2.98-7.89-.99-5.82.13-5.56,1.59-1.34s-.27,3.41-.27,3.95.33,4.15.27,4.82,1.46,6.69,1.46,6.69c0,0,2.58,5.69,2.91,5.96.33.26,4.37,5.16,4.63,5.42.27.26,5.5,3.81,6.16,4.22s2.98,1.87,2.98,1.87l-.33,1.2h0Z"/>
    <path id="path51630" class="cls-3" d="m132.77,99.3l11.39-2.27s10-3.61,10.86-3.95c.86-.34,8.34-3.75,8.34-3.75,0,0,9.74-12.11,10.13-12.05s.86,1.34.86,1.34l-5.5,7.77-5.83,4.55s-5.83,3.35-6.36,3.41-13.37,4.28-13.37,4.28l-12.05,2.21,1.52-1.54h0Z"/>
    <path id="path51632" class="cls-3" d="m135.35,93.48c.27,0,16.62-7.69,16.62-7.69,0,0,8.21-6.42,8.67-7.09s7.42-10.5,7.42-10.5l.93-3.68-1.26-2.27s-4.3,11.51-4.84,11.85c-.53.34-7.09,6.29-7.09,6.29,0,0-6.96,4.96-7.35,5.16s-7.62,3.88-7.95,4.02-4.24,2.01-4.24,2.01l-.93,1.94v-.02Z"/>
    <path id="path51634" class="cls-3" d="m139.92,80.77l10.34-8.43,4.04-5.56,3.38-5.08,1.92-11.44-1.59-2.07s-.6,1.81-.72,2.27-1.19,7.89-1.19,8.37-.13,3.48-.86,4.68c-.72,1.2-5.17,6.29-5.56,6.69s-1.98,2.27-2.51,2.75c-.53.47-3.71,2.95-4.51,3.55-.8.6-2.72,1.67-3.11,2.07s-.99,1.87-.99,1.87l1.39.34h-.03Z"/>
    <path id="path51636" class="cls-3" d="m63.3,39.47c.27-.14,4.24-1.94,5.03-2.35s4.7-2.35,5.83-2.61c1.13-.26,3.51-.6,4.84-.6s10.34,1.94,10.79,2.27c.46.34,6.76,2.47,6.76,2.47,0,0,3.38,2.07,4.77,2.27,1.39.2,4.24.06,6.03-.67,1.79-.74,6.42-1.94,7.68-2.27,1.26-.33,4.7-1.67,6.49-1.81,1.79-.14,5.76-.26,7.02-.4,1.26-.14,4.97-.2,5.23-.2s9.66,3.08,9.66,3.08l1.19,1.34s-3.51-1.2-3.84-1.34c-.33-.14-6.29-1.41-6.96-1.54-.66-.14-7.68-.06-8.01.06-.33.14-11.26,2.75-11.26,2.75l-8.41,2.81s-3.25.4-4.04.14c-.8-.26-4.37-2.41-5.43-2.87-1.06-.47-5.63-1.81-6.29-1.87s-6.76-1.74-6.76-1.74c0,0-5.5-.67-5.89-.67s-4.77.14-5.36.34c-.6.2-6.76,2.81-7.09,2.95s-1.98.47-1.98.47h.02Z"/>
  </g>
</svg>