<?xml version="1.0" encoding="UTF-8"?>
<svg id="svg4444" xmlns="http://www.w3.org/2000/svg" width="230.83" height="206.25" viewBox="0 0 230.83 206.25">
  <defs>
    <style>
      .cls-1 {
        fill: #ffd100;
      }

      .cls-1, .cls-2, .cls-3, .cls-4, .cls-5, .cls-6, .cls-7, .cls-8, .cls-9 {
        stroke-width: 0px;
      }

      .cls-2 {
        fill: #391e55;
      }

      .cls-3 {
        fill: #63379b;
      }

      .cls-5 {
        fill: #429043;
      }

      .cls-6 {
        fill: #f53039;
      }

      .cls-7 {
        fill: #96b6df;
      }

      .cls-8 {
        fill: #fc0;
      }

      .cls-9 {
        fill: #fffdfd;
      }
    </style>
  </defs>
  <g id="layer1">
    <path id="path34724" class="cls-3" d="m80.84,0l-7.93,7.25.42,191.56,6.68,7.44h132.05l6.68-7.25-.83-192.93L211.43,0H80.84Z"/>
  </g>
  <g id="layer5">
    <path id="path36383" class="cls-6" d="m84.8,4.41l-6.99,6.66.42,183.63,7.2,7.15,122.04-.29,6.88-6.86-.1-183.63-7.3-7.05-122.04-.1-.1.49Z"/>
  </g>
  <g id="layer6">
    <path id="path43095" class="cls-2" d="m85.93,5.57l-6.05,5.68-.52,183.1,6.49,6.16,120.52.07,6.05-6.3-.07-182.82-6.2-5.96-120.22.07Z"/>
  </g>
  <g id="layer7">
    <path id="path44555" class="cls-7" d="m85.12,15.18l6.68-6.95,95.96.49,6.68,6.66-19.92,14.4-6.99-6.56-14.92.1-6.78,6.46.52,147,6.47,6.37,14.71-.1,6.68-6.56-.21-146.9,20.13-14.59.1,156.79.1,19.39-7.09,6.76-95.96-.1-6.36-7.05.21-175.6Z"/>
  </g>
  <g id="layer8">
    <path id="path45061" class="cls-5" d="m15.65,13.12l6.36,4.41-10.43,1.37v4.02l5.22,3.33-10.43,2.55v4.41l10.85,4.11L0,43.19l6.68,3.33,5.42,2.45,7.09,1.57-8.97,5.09-.31,4.6,13.98,3.62-.42,5.88,17.11,3.13-.21,4.41,12.31,4.99,1.67,8.03,8.34,2.45,1.67,7.35,6.36,1.37.73,5.29,8.34,2.06.63,6.37,10.01-.69.42,3.82h2.92l-16.17,10.19-21.17,8.23.21,4.51,3.96,2.25-.1,5.48,8.03,2.74-.42,4.51,4.28,1.47,2.19,5.19,6.26-1.47,1.77,5.97,5.01-1.66,4.38,3.53,12.1-5.78,1.04,3.92,6.88-5.88,6.05,7.25,5.84-4.6,8.87,4.7-3.96-19.2-.42-13.71,7.82,20.27,14.71,3.82-.21-14.69s2.19,2.25,3.02,2.35c.83.1,11.37-2.64,11.37-2.64l3.23,4.21,12.31-1.76,6.05,7.05,4.38-2.06,10.33,9.7,3.86-3.04,10.85,10.67-.1-14.79,6.99,1.96.83-7.35h3.65l-.21-4.51-1.04-3.33,4.59,1.37-.63-4.9-7.3-14.69,5.22,1.37.21-4.7-15.24-19.2-9.15-7.96-6.56-4.22-11.73-5.82-10.77-2.7-1.25.9s-1.25.9-1.55,1.18c-.3.28-5.09,2.29-5.09,2.29l-2.73.42s-2.77.03-2.84-.48c-.07-.52-.55-3.98-.55-3.98l.7-1.52.04-2.63-.3-1.94-.77-.9-1.66-1.21-3.5-.93-2.25-.17s-2.32-.07-2.47-.07-3.61.17-3.61.17c0,0-3.43.38-3.8.45-.37.07-3.65.9-3.8.9s-2.18.35-2.95.59c-.77.24-2.32.31-2.69.31h-1.25l-9.74-8.59-7.52-16.2-1.92-8.73-.3-6.51-14.9-10.11-15.78-6.37-18.59-5.12-21.68-2.63-26.11-.55-.36,4.23Z"/>
  </g>
  <g id="layer9">
    <path id="path47548" class="cls-1" d="m156.15,81.68l5.74-2.55,1.88,4.31-1.36,5.39-1.98-3.62-1.98-2.25-2.29-1.27Z"/>
    <path id="path50525" class="cls-4" d="m11.92,86.58l-.83.69s-1.56,1.44-1.64,1.54c-.08.1-.83,1.22-.86,1.42-.03.2-.55.98-.55,1.27s-.37,3.43-.37,3.53.23.54.23.54l13.38,6.12,46.16,21.96-2.01,4.19,5.03,2.06,8.47-16.8-5.03-2.57-1.9,4.16-31.11-14.45-28.79-13.76-.18.1Z"/>
    <path id="path51984" class="cls-9" d="m77.08,116.84l99.51,43.58,50.69,21.55-10.85,5.58-143.94-62.09,4.59-8.62Z"/>
  </g>
  <g id="layer10">
    <path id="path56411" class="cls-8" d="m98.47,132.65l.73-2.11,2.87-3.28,2.4-1.27,1.67-.29,3.23,6.07,8.45-.34.31,1.18.21,2.01-.68,3.87-.94,2.99-1.3-5.29-3.76-1.96-7.93-3.57-1.51.05-.68.73s-1.1.93-1.51,1.08c-.42.15-1.56.15-1.56.15h0Z"/>
    <path id="path56413" class="cls-8" d="m105.72,138.38l-1.3,1.08-.89,2.99.21.54.99.15,1.41-1.13s.31-2.01.31-2.45v-1.32l-.73.15Z"/>
    <path id="path56415" class="cls-8" d="m132.52,147.49l1.15-1.71,1.3-2.4,2.03-1.52,2.35-1.32s.94.1,1.1.44c.16.34,2.82,5.39,2.82,5.39l1.51.54,7.61-.29-.16,4.36-.68,2.94-.37,1.66-.63.2s0-2.4-.16-2.89c-.16-.49-.89-2.3-.89-2.3l-11.58-5.34-2.09.34s-1.25,1.52-1.98,1.71-1.36.2-1.36.2h0Z"/>
    <path id="path56417" class="cls-8" d="m139.93,153.27l-1.51,2.01-.37,1.81v1.27s1.3.24,1.41,0c.1-.24.78-1.22.78-1.47s.1-1.76.1-1.76l.47-1.71-.89-.15Z"/>
  </g>
</svg>