<?xml version="1.0" encoding="UTF-8"?>
<svg id="svg4444" xmlns="http://www.w3.org/2000/svg" width="236.44" height="254.68" viewBox="0 0 236.44 254.68">
  <defs>
    <style>
      .cls-1, .cls-2, .cls-3, .cls-4, .cls-5, .cls-6, .cls-7, .cls-8, .cls-9 {
        stroke-width: 0px;
      }

      .cls-2 {
        fill: #f2100d;
      }

      .cls-3 {
        fill: #fff;
      }

      .cls-4 {
        fill: #102df9;
      }

      .cls-5 {
        fill: #8fb1b7;
      }

      .cls-6 {
        fill: #88c7cb;
      }

      .cls-7 {
        fill: #224254;
      }

      .cls-8 {
        fill: teal;
      }

      .cls-9 {
        fill: #95c0cb;
      }
    </style>
  </defs>
  <path id="path3413" class="cls-4" d="m81.02,32.62l-40.57,34.59,78.57,127.69,77.82-128.08-40.72-35.1-75.1.91h0Z"/>
  <g id="layer1">
    <path id="path10732" class="cls-2" d="m138.04,2.59l33.49,26.79-9.36,7.28,30.17,26.27,9.05-7.81,31.37,29.65-.31-82.71-94.42.53h0Z"/>
    <path id="path13839" class="cls-2" d="m45.44,62.27l30.93-25.22-9.65-9.24L99.03,0,4.76,2.93l-1.7,80.91,31.99-26.85,10.39,5.26h0v.02Z"/>
    <path id="path18533" class="cls-2" d="m99.25,165.87l19.62,29.24,21.12-33.29.86,35.31,46.08.36-67.61,57.19s-71.03-58.48-68.69-57.56c2.34.91,47.13,0,47.13,0v-30.9l1.49-.36h0Z"/>
  </g>
  <path id="path22469" class="cls-8" d="m.79,192.17s1.2.32,2.65.26c1.43-.06,4.97-1.17,4.97-1.17l4.67-1.81,11.3-6.83,9.42-8.9,3.32-3.97,7.62-10.79,3.69-6.44,5.68-14.32,3.52-7.36,5.01-6.89,6.72-5.15,5.44-3.32,8.32-3.77,9.17-1.48,8.54-.19,22.71,1.48,40.85,7.63,13.44,5.61,5.76,3.58,10.99,20.68,10.56,17.2,6.19,5.61,4.26,2.86,4.9,2.21,3.42.19h1.7l.96-1.38-.75-1.38-1.7-1.29-8.43-9.11-3.94-7.36-2.35-5.61-2.13-7.73,1.18-14.63,3.52-9.56,8.75-8.37,6.39-6.34,3.83-4.88,3.2-5.25.64-2.12s3.52-5.52.32-3.5-16.22,12.68-16.22,12.68l-9.92,7.27-5.98,2.29-1.92.84-3.31.64-4.69-.45-3.83-1.57-16.11-6.53-15.8-7.86-17.8-7.54-10.26-2.86-12.66-2.34-13.57-1.81-2.63-6.44-2.77-6.98.1-17.29,2.24-8.82-25.49,19.31-12.8,13.88-7.04,12.88-2.4,1.89-6.88,4.82-11.62,10.52-9.06,11.95-5.07,7.63-5.07,11.91-1.86,12.18-3.14,17.48-2.29,8.59-1.34,4.88-2.77,5.25-1.6,2.48-1.18,2.53-.32,1.32.73.84h0l.07.03h-.05Z"/>
  <path id="path24196" class="cls-6" d="m.71,192.69l1.13,2.66s2.65.98,3.01,1.11c.36.13,6.42,1.49,6.42,1.49h2.87l6.93-1.11,5.13-2.53,4.61-3.58,6.19-7.6,4.53-4.81,9.5-7.36,10.18-6.7,3.09-.59v.66l-2.18,3.38-7.69,10.41-3.09,6.17-.15,1.11s3.77-2.02,3.93-2.34c.15-.32,3.99-4.54,3.99-4.54,0,0,1.2-1.23,2.56-2.08s3.39-3.32,3.99-3.38,5.21-1.17,5.21-1.17l7.24-.59,9.88-.91,5.28-1.23,9.8-3,7.91-3,3.69-2.47,1.74-2.34s-.31-1.04-1.2-1.04-4.97.45-4.97.45l-9.8,1.49h-5.35l-4.3-1.04-6.26-1.36-2.71-2.21-1.29-1.69s.38-5.58.53-5.92c.15-.32,2.05-4.88,2.05-4.88l2.56-2.93,3.47-4.22,6.19-4.42,7.09-2.93,8.98-2.21,5.81-.26,6.55,1.04,11.08,2.41,5.28,1.96,4.83.91s5.43.77,5.81.77,4.37-.39,5.13-.39,5.81-.21,5.81-.21l.07-.98-9.8-2.66-3.93-1.36-1.96-1.3-1.29-2.79,1.58-.59,2.11-.59h13.13l6.93.91,6.71,2.53,3.39.32-14.26-6.17-18.1-3.32-18.4-3.64-6.86-1.17-7.69-.59-15.24-.59-7.62.06-8.75,1.69-18.4,11.19-5.73,7.81-7.31,16.26-3.69,8.13-5.88,9.11-7.46,9.69-4.9,4.88-5.81,4.81-7.02,4.42-5.05,2.34-10.47,1.08.76,1.49h0l-.05.05Z"/>
  <g id="layer3">
    <path id="path27511" class="cls-1" d="m21.44,196.86s5.01-.45,5.33-.45,24.64-11.27,24.64-11.27l4.85-9.29s3.14-4.73,3.56-5.11c.43-.37,4.42-7.04,4.42-7.04l-3.2.64-9.92,6.11-13.5,11.86-5.01,5.7-2.24,2.86-9.92,6.16.96-.19h.02v.02Z"/>
    <path id="path31198" class="cls-1" d="m36.7,174.51l7.68-10.99.91,8.09-8.59,2.89h0Z"/>
  </g>
  <g id="layer4">
    <path id="path27514" class="cls-3" d="m36.77,184.92s1.81.32,2.08.26c.27-.06,1.14-.9,1.38-1s1.14-.39,1.6-.58c.45-.19,1.81-.58,2.35-.58s2.51-.06,2.51-.06c0,0,.02-.55-.21-.81-.24-.26-1.07-1.05-1.36-1.11-.29-.04-1.04-.3-1.2-.35s-1.68-.06-1.81-.06-.99-.13-1.18,0c-.18.13-1.13.67-1.18.76s-.82.81-1.09,1.13-1.47,1.03-1.47,1.03c0,0-.38.21-.43.62-.05.41,0,.76,0,.76h0,.02Z"/>
    <path id="path27516" class="cls-3" d="m41.73,179.35c.02-.12,2.46-2.34,2.46-2.34,0,0,1.68-.36,1.81-.36s1.27-.06,1.52.23c.24.3.51.49.64.55.12.06.48.6.05.6s-1.65.23-1.81.35c-.16.12-1.34,1.2-1.34,1.2h-1.31c-.45,0-1.36-.12-1.36-.12l-.66-.09v-.03h0Z"/>
    <path id="path27518" class="cls-3" d="m49.4,173.5c-.15.08-1.86,1.14-1.86,1.14,0,0-.85.26-.85.42s-.02.91.02,1c.05.09.21.28.33.37.12.09.96.28,1.58.28s1.31.13,1.6-.04c.31-.17.93-.8,1.07-.8s.31.37.31,0,.39-1.22,0-1.39-.91-.69-.91-.69l-1.31-.31h0v.02Z"/>
    <path id="path27520" class="cls-3" d="m50.25,172.69l.82.53s1.43.04,1.8.1c.38.04,1.26.08,1.42.04.15-.04.56-.04.56-.04,0,0,.02-.55,0-.68-.02-.13-.22-.62-.36-.81-.13-.21-.58-.68-.66-.73-.07-.04-.49-.42-.64-.42h-.71c-.15,0-.82.32-.98.44-.15.12-1.15.93-1.2,1.04-.06.12-.06.53-.06.53h.01Z"/>
    <path id="path27522" class="cls-3" d="m54.2,170.5c.02.12,1.2,2.83,1.31,2.87.09.04,1.07.13,1.31.13s.93,0,1.07-.28c.15-.31.66-1.48.71-1.6.06-.12.17-1.14.17-1.22s.07-.13-.51-.17c-.58-.04-4.15-.04-4.15-.04l.09.28h0v.03h0,0Z"/>
    <path id="path27524" class="cls-3" d="m54.97,168.53c-.09.21-.07,1.35-.07,1.35l-.93.6-.91-.26-.76-.21,2.65-1.67.02.21h0v-.03h0Z"/>
    <path id="path27526" class="cls-3" d="m55.28,170.05l.82-1.79s1.62-.08,1.67,0c.04.06.36,1.71.36,1.71l-2.84.1h0v-.03h0Z"/>
    <path id="path27528" class="cls-3" d="m57.95,168c0,.1.66,2.15.66,2.15l1.26.41s.73-1.5.69-1.63c-.06-.12-.36-1.16-.53-1.18-.17-.04-2.07.26-2.07.26h0Z"/>
    <path id="path27530" class="cls-3" d="m58.48,166.77l3.04.58s1-.26.61-.68c-.39-.44-1.68-1.38-1.68-1.38l-1.13.13-.86,1.25v.12h0v-.02Z"/>
    <path id="path27532" class="cls-3" d="m45.97,179.67c.7-.04,5.44-.53,5.46-.23s.16,2.48.16,2.48c0,0-.21.73-.75.62-.54-.12-2.83-.3-3.07-.3s-.56.3-.82,0c-.27-.3-.53-.9-.7-1.08-.16-.19-.91-.53-.8-.87.1-.35.51-.62.51-.62h.01Z"/>
    <path id="path27534" class="cls-3" d="m35.45,186.6c.64-.06,5.05-1,5.28-.77.22.23.42.71.42.85s-1.85,1.72-1.85,1.72c0,0-2.16,1.23-2.56,1.3-.42.06-2,.04-2.41.1-.41.06-1.51.23-1.51.23,0,0-.27-.55-.27-.72s-.15-.28.18-.81.94-1.04,1.09-1.26c.15-.23.6-.55.6-.55l1.02-.06h0v-.03h.01Z"/>
    <path id="path27536" class="cls-3" d="m40.53,184.92s.71-.77,1.02-.81,1.78,0,2.05-.13.53-.26,1.02-.32c.49-.06,1.8-.26,1.8-.26l.98.66s-.8.26-1.07.53c-.27.26-2.07,1.63-2.07,1.63,0,0-.71.28-1.02.28s-1.18-.17-1.43-.23c-.27-.06-1.29-1.32-1.29-1.32h0v-.03h.01Z"/>
    <path id="path27538" class="cls-3" d="m29.26,193.99s2.87-3.28,3.17-3.32c.3-.04,4.67.1,4.83.06.16-.04.69.71-.11,1.11-.8.39-5.66,1.89-6.22,1.96s-1.67.21-1.67.21h0v-.02Z"/>
    <path id="path27540" class="cls-3" d="m38.54,189.41c0,.13,1.07.66,1.07.66l9.47-4.58.22-1.3-1.43.06-3.17,1.81s-1.09.91-1.31.94-1.85-.55-1.85-.55c0,0-.6.72-.69.91-.07.21-2.45,1.85-2.45,1.85l.15.21h-.01Z"/>
    <path id="path27542" class="cls-3" d="m48.26,177.46s1.92,1.32,2.13,1.32h1.65c.27,0,1.92-.09,1.97-.45.05-.36-2.08-2.02-2.08-2.02l-.7-.19-3.2,1,.21.32h0v.02Z"/>
    <path id="path27544" class="cls-3" d="m51.57,174.1c0,.23.7,1.7.7,1.7l1.76.68s.59-.32,1-.73c.43-.41.75-.77.75-1.11s.38-.55-.1-.64-2.88-.19-2.88-.19l-1.6.45.38-.19v.03h-.01Z"/>
    <path id="path28574" class="cls-7" d="m10.53,194.31s-1.29-.45-.69-1.04.82-.77,1.13-1.04c.31-.26,1.8-.91,1.8-.91,0,0,1.43-.26,2.18-.26s1.89.21,1.89.21v1.17h-1.74s-.31.13-.98.72c-.69.59-2.87,1.69-2.87,1.69l-.76-.53h.04,0Z"/>
    <path id="path31201" class="cls-9" d="m37.59,173.91c.64-.36,5.87-8.09,6.07-7.91.21.18.86,4.73.86,4.73l-6.93,3.18Z"/>
    <path id="path31203" class="cls-5" d="m52.68,149.07l3.69,1.49,1.8,2.28s.82,3.06.82,3.51,1.51,6.24,1.51,6.24l1.74.06v-1.04s-.76-4.49-.82-4.75-2.11-4.15-2.11-4.42-1.43-2.53-1.43-2.53l-3.69-1.49-1.74-.06.22.71h.01Z"/>
    <path id="path31205" class="cls-5" d="m57.44,143.41l3.47,3.18s1.51,2.15,1.58,2.41c.07.26,2.11,5.58,2.11,5.58l.82,2.66h1.2v-1.36l-.69-2.86-2.05-3.7-1.07-3-2.34-2.15-2.41-1.63-.69.85.02.03h.05Z"/>
    <path id="path31207" class="cls-5" d="m60.6,135.87l4.83,5.13,1.2,2.08,1.89,4.88.45,4.54-.98-.06-.07-1.63-1.43-3.77-.6-3.32-1.07-1.89-2.71-3-1.67-1.96-.69-.59.82-.45h0l.02.04h.01Z"/>
  </g>
</svg>