<?xml version="1.0" encoding="UTF-8"?>
<svg id="svg4444" xmlns="http://www.w3.org/2000/svg" width="233.38" height="213.03" viewBox="0 0 233.38 213.03">
  <defs>
    <style>
      .cls-1 {
        fill: #856026;
      }

      .cls-1, .cls-2, .cls-3, .cls-4, .cls-5, .cls-6, .cls-7, .cls-8, .cls-9, .cls-10, .cls-11 {
        stroke-width: 0px;
      }

      .cls-2 {
        fill: #050505;
      }

      .cls-3 {
        fill: #fcf694;
      }

      .cls-5 {
        fill: #7c7c33;
      }

      .cls-6 {
        fill: #946a22;
      }

      .cls-7 {
        fill: #72501d;
      }

      .cls-8 {
        fill: #ccaf39;
      }

      .cls-9 {
        fill: #edede9;
      }

      .cls-10 {
        fill: #060403;
      }

      .cls-11 {
        fill: #815e22;
      }
    </style>
  </defs>
  <g id="layer11">
    <ellipse id="path151475" class="cls-9" cx="116.69" cy="106.52" rx="116.69" ry="106.52"/>
  </g>
  <g id="layer24">
    <path id="path152307" class="cls-2" d="m57.41,136.18c0,.24-3.02,4.34-3.02,4.34l-1.12.06s-.46,0-.46-.31-.2-1.28-.2-1.28c0,0-.13-1.16-.85.06-.72,1.22-1.25,1.71-2.04,2.63-.79.92-1.25,1.65-1.51,1.71-.26.06-.99-.43-.99-.43l-.66-1.47s-23.39,4.4-23.72,4.4-8.08-5.07-8.08-5.07l-.33-1.9s.46-1.71.79-2.14c.33-.43,1.45-3.3,1.45-3.3,0,0,.13-1.16,0-2.02-.13-.86-.92-5.56-.92-5.56l-.33-5.32,1.45-10.52s.72-.06.72-.61v-1.71c0-.73-.59-3.24-.59-3.61s-.07-1.9.26-2.38c.33-.49,4.6-7.76,4.6-7.76v-4.16s1.12-.49,1.51-1.1c.39-.61.79-1.16.99-1.96.2-.79.59-2.02,1.12-2.32.53-.31,13.8-25.31,13.8-25.31l8.61-13.08,6.44-8.5,8.28-9.78,6.77-5.81,2.04-1.9,11.63-3.42,15.77-2.45,13.27-.24-.85.92h-4.01c-.66,0-7.42.67-7.42.67,0,0-4.53.98-5.19,1.16-.66.18-6.04.92-6.83,1.28-.79.37-11.96,3.67-12.74,3.97-.79.31-5.26,2.38-5.26,2.38l-10.71,12.72-17.15,24.58-3.28,6.24.59.55s.26.43.99-.18c.72-.61.59-1.96,1.05-2.2.46-.24.99-1.28,1.77-1.9s2.56-1.41,3.15-1.65,1.51-1.1,1.71-1.34c.2-.24,1.12-2.63,1.12-2.63l.53-1.47s1.12-4.34,2.04-4.65c.92-.31,1.84-2.51,3.02-3.3,1.18-.79,5.58-4.89,5.91-5.2s7.55-4.03,7.55-4.03l2.1-1.59,4.99-1.47h4.27l1.71-1.41s.92-1.96,2.56-2.51c1.64-.55,5.85-2.57,5.85-2.57,0,0,4.86-2.02,5.19-2.02s4.01-.73,4.01-.73l11.76-2.93,3.61-1.28,14.72-1.22,8.34,1.41,7.69,2.08,5.85,1.77,3.15,1.34,1.51,1.59s1.58,0,2.36.24,5.98.43,5.98.43l2.3.92,4.47,1.16,2.23,1.16,13.93,10.94s2.36,3.55,2.63,3.73,2.43,2.32,2.43,2.69,0,1.41.33,2.08c.33.67,1.51,1.53,1.51,1.53l5.06,5.38,3.88,8.68,3.22,10.76.72,3.85v2.32c0,.24-.85,1.16-.85,1.47s-.66.55-.66.55l-.66-.18-3.61-13.94s-1.51-4.71-1.77-5.32c-.26-.61-2.1-6.42-2.1-6.42l-1.31.86-.79-.06s.2-2.14.2-2.38-.46-2.02-.59-2.26-1.45-1.04-1.71-1.16c-.26-.12-2.1-1.16-2.1-1.16v.92l-1.25.06s.79.98-1.05,0-6.77-4.46-6.77-4.46c0,0-4.27-2.75-5.65-2.75s-7.16-1.28-7.16-1.28c0,0-.92-.55-1.12-.86s-1.71-5.69-1.71-5.69l-.59-1.65s-1.71-.79-2.1-.67c-.39.12-2.17.61-2.17.61,0,0-.59-.37-1.05.06-.46.43-1.18,2.57-2.04,3.18-.85.61-.26.79-1.31.86-1.05.06-2.43.86-2.43.86,0,0-9.53.37-10.05.31-.53-.06-3.09-1.34-4.27-1.47-1.18-.12-1.97.37-1.97.37l-3.81-.31s-.39-.98-.79-1.71c-.39-.73.26-1.04-.72-1.1-.99-.06-1.84-.06-2.23-.06s-.92-.18-1.38.31c-.46.49-3.28,2.45-3.35,3.06-.07.61,0,1.53-.33,2.08-.33.55-1.31,1.77-1.31,1.77l-6.96,4.52-14.26,8.25s-10.12,5.56-10.45,5.44-1.25-.37-1.25-.37c0,0-.53-1.47-1.05-2.02-.53-.55-.33-.31-.59-.61s-1.77-.67-1.77-.67c0,0,.13.24-.72.24s-2.23,1.47-2.23,1.47c0,0-.72,1.41-.85,1.9-.13.49-.39,1.96-.33,2.45.07.49,1.71,5.93,1.71,5.93l-1.58,6.24s-1.45,4.1-1.45,4.34-1.64,3.06-1.64,3.06l-1.45,1.53-2.82.92s-.33-.06-.79.31c-.46.37-.79,4.4-.79,4.4,0,0,.99,3.91,1.25,4.34.26.43,1.25,3.48,1.25,3.85s.72,3.79.72,4.1.2,1.04.2,1.04l-5.06,8.07-13.36,12.34s-.84,3.11-.93,3.54c-.09.43-1.22,2.95-1.22,2.95h0Z"/>
    <path id="path153490" class="cls-4" d="m120.73,123.03c2.89-.24,9.33-2.81,9.33-2.81l3.15-7.09s-1.45-1.59-2.5-.61c-1.05.98-3.28,4.4-3.28,4.4l.79-4.28s.79-.24-1.97-.24h-3.81l-3.15-.61s-3.28-.37-5.39-.24c-2.1.12-8.54,1.96-8.54,1.96,0,0,.13,1.34-.79,2.57-.92,1.22-3.28,3.06-3.28,3.06l-7.36,2.45-3.42,1.83-4.86-4.03s-1.84,6.36-1.71,7.7c.13,1.34-1.05,9.9-1.05,9.9l2.63-5.62h.92s.53,2.2.53,2.93-2.23,4.4-2.23,4.4l-2.5,2.69s-1.97.49-1.97,0-2.89-5.87-2.89-5.87l-2.1-.49s0,23.48.26,22.13c.26-1.34,1.31-8.8,1.31-8.8,0,0,.92-2.2.92-1.1s1.84,15.9,1.84,15.9l-4.07-1.59,5.52,23.97,3.15,2.57s-1.58-6.11-2.1-7.34c-.53-1.22-.66-6.85-.66-6.85l12.74,14.92s7.36,1.22,8.01,1.83c.66.61,7.88,6.48,8.8,6.72.92.24,7.23.73,8.93.49,1.71-.24,13.4-1.1,13.8-1.59.39-.49,4.6.12,5.52.49.92.37,4.99,1.96,8.15.61,3.15-1.34,10.51-7.21,11.04-7.7.53-.49,5.26-.73,6.57-.49,1.31.24,6.57.49,6.57-.49s-1.84-6.97-1.84-7.46-1.97-1.83,1.71-2.45c3.68-.61,14.58-12.47,14.58-12.47l3.81-8.44,6.7-4.03,5.91-6.97,1.05-6.6s-4.73-4.28-4.73-5.38,1.45-4.77,1.45-4.77c0,0,5.26-18.22,5.26-18.95s3.28-7.58,3.28-7.58l-1.45-16.14-1.31-1.1-1.05,1.34-61.36-26.29-61.36,30.2,2.63,13.57,9.2,16.14,2.23-2.08s3.55-.49,1.71-1.47c-1.84-.98-7.09-14.55-7.09-14.55,0,0,8.54,12.35,7.49,11.37-1.05-.98-3.94-19.44-3.94-19.44l3.55-2.2s8.41,18.95,9.07,18.95,2.5-.24,2.5-.24l-7.23-25.43s1.84-4.52,3.15-4.77c1.31-.24,4.86.24,6.04-.98,1.18-1.22,4.86-.73,4.86-.24s1.58,5.75,1.58,5.75l1.45-7.21,5.26-3.18s-1.05,4.4-.26,7.21c.79,2.81,7.09,20.66,9.07,22.25,1.97,1.59,8.8,13.21,8.41,11.86-.39-1.34-8.54-25.43-8.54-25.43l-1.31-13.82,12.88,10.76s.53.24,1.31-.24c.79-.49,2.23-5.99,2.23-5.99,0,0-1.97-6.24-.92-5.99,1.05.24,10.77,4.52,10.77,4.52l-5.91,17.24s-1.05,18.46-1.05,17,4.07-14.67,4.07-14.67l4.47-11.62s0-.61.53-.61,3.81,3.91,3.81,3.91c0,0,1.31-.61,1.84-1.34.53-.73,1.84.86,1.84.86,0,0,1.18,3.18-.13,4.28s-3.94,5.14-3.94,5.14l-5.39,15.16s4.47-7.95,4.6-8.56,3.94-5.01,3.94-5.01c0,0,2.63-3.18,3.42-3.18h2.5l-.66,7.46-2.76-.86-2.36,1.22-1.18,5.75s-1.45.12-1.45.61-2.36,14.43-2.36,14.43c0,0-1.05,14.18-.92,12.84.13-1.34,5.39-17.61,5.39-17.61l2.36-4.52,1.05-1.22,1.97,2.93-4.34,10.39-1.58,9.17,1.18,4.28s-1.71-.37-2.36.24c-.66.61-3.42,3.06-3.42,3.06l-11.43-2.81,7.36,5.62-4.73,8.56-1.97,7.46-2.76-1.59-7.75-16.75-1.05,1.83,5.78,17-2.89,2.32-6.96-.12-1.05-11.49,1.71-11.62-1.45-.12-4.47,12.35s1.58,11.86-.39,11.86-14.19-1.59-14.19-1.59l9.59-6.85-1.31-1.34-5.91-.12-2.89,1.1.26-5.01,8.8,2.69s-.39-2.45-1.71-3.67c-1.31-1.22-10.91-8.8-11.17-8.31-.26.49-.66,2.32-.66,2.32v1.34s-.26.98-.66.37c-.39-.61-.79-1.59-1.31-2.57-.53-.98-1.84-2.81-1.84-2.81l.79-2.69s0-.12,1.31-.24c1.31-.12,7.36,3.18,7.36,3.18l2.5,2.08.79-.12s.79-.24.13-1.22c-.66-.98-1.58-2.32-2.63-3.42-1.05-1.1-1.71-1.34-2.89-2.32-1.18-.98-3.02-2.69-3.55-3.18-.53-.49-.92-1.1-.92-2.08s-.39-1.22.66-1.22h3.02l4.73,3.3s1.97,0,1.31-1.83c-.66-1.83-4.2-3.3-4.2-3.3l.53-1.59s1.71.37,2.63-1.22.92-2.69.92-2.69v-1.83l1.84-2.08Z"/>
  </g>
  <g id="layer25">
    <path id="path153492" class="cls-8" d="m77.77,105.06s1.71-1.22,2.5-1.59c.79-.37,1.58-1.59,2.23-3.18.66-1.59.92-3.3,1.45-3.42.53-.12,4.47-.12,4.47-.12,0,0,1.45-1.83,2.89-2.69,1.45-.86,6.96-3.3,8.54-5.26,1.58-1.96,2.36-3.67,3.15-4.52.79-.86,1.45-2.81,2.5-3.3,1.05-.49,4.86-.98,6.83-1.59,1.97-.61,3.94-1.22,6.18-3.06s4.99-4.16,5.91-4.89.66,1.71,3.28,2.32,6.04.98,7.62.49,5.78-1.83,7.23-2.2c1.45-.37,6.83-4.03,6.18-3.67s-1.84,2.57-1.84,3.18-.79,2.32.53,3.06c1.31.73,14.85,4.28,14.85,4.28l2.5-.61,3.02,8.68,4.47,7.83s1.71,1.83,1.84,2.32c.13.49-.26,4.65-.26,5.38v3.67c0,2.81-1.05,8.93-1.05,9.66s3.42,5.62,3.42,5.62l-2.76.49s-3.68,5.5-3.94,6.48c-.26.98-2.1,9.66-2.1,10.27s-.79,6.36-.79,6.36c0,0-2.63,1.83-2.63,2.32s-3.42,2.2-3.42,2.2c0,0-2.36,3.91-2.5,4.4-.13.49-2.5,9.9-2.5,9.9l.13,3.91h4.34c1.31,0,4.2-.37,6.18-1.71s5.52-4.28,6.57-5.26c1.05-.98,6.18-3.42,6.96-4.65s1.58-2.69,1.58-2.69l-11.56-5.38,1.97-.98s9.07-.86,10.51-.98c1.45-.12,5.52-1.71,6.7-2.93,1.18-1.22,3.15-.98,4.2-2.45,1.05-1.47,3.15-7.34,3.15-7.34,0,0-3.28-1.96-3.94-2.08-.66-.12-5.65-1.59-5.26-2.45s4.99-.86,6.57-.86,4.86.24,5.52.24,3.28-3.18,3.28-3.18c0,0,8.28-8.8,8.15-6.85-.13,1.96,1.71,6.97,1.71,6.97l-1.18,23.84,3.68-16.51,1.45-15.16-1.45-8.8-3.28-.49-.53,3.67-6.96,6.85,1.45-8.31-.79-7.95-16.95,1.71,17.08-5.26s3.55-7.58,3.81-8.07c.26-.49,5.91-9.29,5.91-9.29l1.45-.24s4.6,30.08,4.73,29.59c.13-.49,1.05-6.36,1.05-6.36v-13.33l-1.45-13.82-1.84-7.09-3.94-1.1-2.63,10.64-2.76,5.99-3.68,2.69-1.58-1.59-6.04-20.05-1.84-3.79-5.19-5.42-6.69-2.25s-6.32-4.5-7.25-4.84c-.93-.35-8.73-1.38-8.73-1.38-2.51-19.84-12.26-2.31-18.4-3.46,0,0-9.29-1.21-11.33-1.21s-7.25-1.9-7.25-1.9c0,0-3.9-1.04-4.83-.17s-5.02,9.16-5.02,9.16l-7.06,3.63s-15.79,8.65-17.47,9.51-7.43.69-7.43.69l-.37-.52s.19-1.04-.56-1.21c-.74-.17-2.6,2.07-2.6,2.07,0,0-3.72,2.25-2.6,3.63s2.97,5.88,2.97,5.88c0,0-.74,2.25-1.67,5.19-.93,2.94-3.16,7.26-3.16,7.26,0,0-.56,1.9-1.67,2.59s-3.53,1.73-3.53,1.73l-.93,1.9,2.52,11.17Z"/>
    <path id="path159290" class="cls-8" d="m199.44,61.04s1.84-1.96,3.28-3.06c1.45-1.1,2.36-3.42,3.55-4.4s3.15-4.89,3.15-4.89c0,0,1.31-1.96,2.1-2.08.79-.12,3.81,3.42,3.81,4.4v5.5c0,.98.53,5.01-.39,6.11-.92,1.1-2.89,7.58-2.89,8.07s-3.42,6.72-3.42,7.7-.92,3.79-.92,3.79c0,0-1.05.73-.92-2.45.13-3.18,1.05-3.55,1.58-5.99.53-2.45.66-2.32.53-4.65-.13-2.32-.66-8.31-.66-8.31,0,0-3.81.49-5.12,1.83-1.31,1.34-2.5,3.18-2.89,2.45s-.79-4.03-.79-4.03h0Z"/>
  </g>
  <g id="layer26">
    <path id="path165311" class="cls-7" d="m88.63,80.41c1.49-1.56,5.2-5.53,5.39-6.22s3.16-6.57,3.16-6.57l5.95-6.57,2.97-2.08s2.6,2.25,2.6,3.63-2.6,33.37-2.6,33.37l5.39-12.28s2.42-15.22,2.6-16.25c.19-1.04.37-11.41.19-12.62-.19-1.21-2.6-6.22-2.6-6.22,0,0-2.79-.86-3.9-.17-1.11.69-2.23,2.94-2.23,3.98s.56.69-2.97,4.32c-3.53,3.63-7.8,8.47-7.8,8.47l-1.67,1.04-4.46-2.07s-2.6.35-3.34,1.04c-.74.69-2.97,5.01-2.97,6.4s6.32,8.82,6.32,8.82Z"/>
    <path id="path168211" class="cls-1" d="m131.74,48.59l7.8-11.41,2.42-5.71.19-.17s2.6-.35,3.53-.35,4.46,3.63,4.65,4.84,4.09,18.16,4.27,19.37c.19,1.21-.37,10.2.37,11.59s1.67,4.67,1.67,4.67c0,0-9.66-26.46-10.22-28.19-.56-1.73-4.46-6.4-4.46-6.4,0,0-6.13,7.09-6.13,8.3s-3.53,4.84-3.53,4.84v-1.9l-.56.52Z"/>
    <path id="path170628" class="cls-11" d="m160.17,55.68l5.76-7.44,4.46-5.53,4.46-2.77,9.85,13.66,7.62,34.58s0-9.68.19-10.37-.93-6.57-.93-7.61-.37-8.13-.74-9.16c-.37-1.04-2.23-5.71-2.23-5.71l-6.13-20.4s-2.42-1.56-2.79-2.77c-.37-1.21-1.3-2.94-1.3-2.94l-5.02.52-1.3,3.8-5.39,9.34-1.3-2.07s-2.42-.52-3.53-.17-4.09,1.21-5.2,2.94c-1.11,1.73-2.79,3.98-2.79,3.98l6.32,8.13Z"/>
    <path id="path173597" class="cls-6" d="m196.03,63.29c.93-.35,4.09-.86,5.57-3.11,1.49-2.25.74-2.77,2.6-3.46,1.86-.69,4.83-3.98,4.83-3.98l1.67-5.01,3.9.86-.93,3.8,2.79,3.46s-1.11,3.11-1.11,3.98-9.1,23-9.1,23c0,0-.56-3.8.37-5.53.93-1.73,2.42-4.32,2.42-6.22v-7.26c0-.86,1.86-3.11,0-2.59-1.86.52-7.99,4.32-7.99,4.32l-4.27,1.38-.74-2.94v-.69Z"/>
  </g>
  <g id="layer27">
    <path id="path179809" class="cls-3" d="m18.78,143.7s-4.14,3.73-4.47,4.46c-.33.73-3.88,4.65-4.34,5.14s-3.28,4.22-3.61,4.89c-.33.67-.59,7.09-.79,7.58-.2.49.39,3.24.39,3.24,0,0,4.34.06,5.26.06s5.52-.61,6.31-1.16c.79-.55,3.22-1.59,4.14-2.08s4.8-4.22,5.06-4.52c.26-.31,2.36-4.16,2.96-4.95.59-.79,1.97-3.55,1.77-3.3-.2.24-2.23,2.08-2.76,2.32-.53.24-4.01,1.22-4.66,1.59-.66.37-2.43,1.04-2.69,1.04s-2.56-.24-2.56-.24c0,0-.46-.31-.26-1.16.2-.86,3.09-4.22,3.22-4.59.13-.37,2.36-3.42,2.63-3.73.26-.31,1.84-1.41,1.84-1.41l-.85-2.69s-.72.49-1.25.86c-.53.37-.85.61-.85.61l-2.82-1.47-1.97-.55.33.06Z"/>
    <path id="path179811" class="cls-3" d="m25.74,143.21l1.84,5.93,1.12-1.9.07-1.04s1.31.49,1.51.92c.2.43,4.01,5.14,4.01,4.4s.07-4.03.07-4.34v-1.16l2.1,1.47s.72-1.77.85-2.51c.13-.73.2-3.18.2-3.18,0,0,.26,2.45.46,3.3.2.86.46,1.71.46,1.71,0,0,2.1.18,2.1-.43s.33-3.61.33-3.61c0,0,.85-.61,1.51,0s.99,2.51.99,2.51l2.23-.92s1.58-1.34,2.04-2.08c.46-.73.33-2.38.2-2.75-.13-.37-1.12-1.34-1.38-1.34s-.59-.31-.92.24-2.17.86-2.17.86c0,0-.72-1.1-1.12-1.96-.39-.86-2.17-3.48-2.17-3.48,0,0,0-.67-.85.37-.85,1.04-1.58,2.51-1.58,3.18v.98s-2.04-1.59-2.89-1.96c-.85-.37-1.51-.73-1.58.06-.07.79-.33,1.16-.33,1.77s-.2.86-.2,1.28-1.25.49-1.25.49c0,0-.46-.67-.79-.67s-.59-.86-1.38.73c-.79,1.59-.46,1.96-.79,2.02-.33.06-1.25-.12-1.77.06-.53.18-.92,1.04-.92,1.04h0Z"/>
    <path id="path179813" class="cls-3" d="m47.03,132.94s.13-2.14,1.12-3.36c.99-1.22,3.74-5.93,3.74-5.93l2.5-2.08s1.05-1.53,2.17-1.65c1.12-.12,14.91-3.85,14.91-3.85,0,0,1.25.55,1.51.86.26.31,1.31,2.81,1.51,3.24.2.43,0,2.63,0,4.03s-1.12,11.92-1.12,11.92c0,0-13.01,11.07-13.53,11.55-.53.49-5.12,2.87-5.45,2.81-.33-.06-12.88,1.59-12.88,1.59,0,0,.66-1.16,2.1-1.59,1.45-.43,2.76-1.53,4.66-2.51,1.91-.98,2.3-1.47,3.88-2.75s5.26-4.03,5.78-4.77,2.23-2.32,3.48-3.42c1.25-1.1,2.96-2.45,3.15-3.42.2-.98,0-4.1,0-4.59s-.59-1.71-.59-1.71c0,0-1.25-.18-1.97.37-.72.55-5.32,3.06-5.32,3.06,0,0-1.77.37-2.04.61-.26.24-2.23,2.26-2.23,2.26,0,0-.39.79-.79,1.04-.39.24-1.71.79-1.71.79h-1.51s-.53-.18-.66-.55c-.13-.37-.66-.98-.66-.98l-.07-.98Z"/>
  </g>
  <g id="layer28">
    <path id="path186233" class="cls-5" d="m23.77,130.49c-.53-.73-2.76-3.18-2.89-4.4-.13-1.22-.26-4.52-.26-5.5s-1.31-8.19-.92-9.17c.39-.98,1.18-5.62,1.58-6.72.39-1.1,4.99-5.62,5.39-6.85.39-1.22,5.78-8.68,6.44-9.05.66-.37,8.15-2.81,8.15-2.81l4.6,2.69s2.1,2.45,2.23,3.79c.13,1.34.26,2.93.13,3.91-.13.98-3.28,5.38-3.28,5.38,0,0-2.5,4.28-3.28,5.14-.79.86-3.28,8.07-3.28,8.56s-1.58,6.11-1.97,6.97c-.39.86-1.71,2.57-3.15,4.28-1.45,1.71-4.6,3.91-5.12,4.28s-4.34-.49-4.34-.49h0Z"/>
    <path id="path186235" class="cls-5" d="m42.3,112.03l-.66-3.06s.13-1.71.79-2.2c.66-.49,2.89-2.45,3.42-2.93.53-.49,2.76-1.83,2.76-1.83,0,0,1.97-.12,2.5,0s1.18,2.81.79,3.67c-.39.86-1.05,1.83-2.23,3.55-1.18,1.71-1.18,2.57-2.76,2.57s-4.6.24-4.6.24Z"/>
    <path id="path186237" class="cls-5" d="m51.76,92.22s1.84-4.16,1.84-4.77,2.5-6.11,2.76-6.72,2.5-2.93,3.15-3.79c.66-.86,2.76-2.57,3.81-2.57s4.07-.49,4.07-.49c0,0,3.15,0,3.42.61s.53,1.47.53,2.2.13,4.4-.13,5.14c-.26.73-4.47,6.72-5.26,7.21-.79.49-5.39,2.93-6.04,3.18-.66.24-3.94,1.47-3.94,1.47l-4.2-1.47Z"/>
    <path id="path186239" class="cls-5" d="m65.03,72.78v-3.55s4.07-1.83,4.73-1.83,4.2,1.47,4.2,1.47c0,0,.66,1.22.66,2.57s-.26,2.45-.26,2.45h-.92c-.66,0-8.41-1.1-8.41-1.1Z"/>
    <path id="path186241" class="cls-5" d="m72.25,63c.13-.49,4.73-7.46,4.73-7.46l7.49-11.49,12.22-13.21,10.25-9.78-1.97,4.77-18.92,24.21-7.23,10.76-1.58,2.81s-2.1,1.34-2.76,1.34-1.84.24-1.97-.24c-.13-.49-.26-1.71-.26-1.71Z"/>
    <path id="path188456" class="cls-10" d="m106.68,21.06s2.23-1.47,3.28-2.32c1.05-.86,5.39-4.77,5.39-4.77l8.54-5.26s9.46-3.18,10.38-3.55c.92-.37,8.54-2.81,9.99-2.81s8.41-.37,10.12-.49c1.71-.12,15.9,3.18,15.9,3.18,0,0,16.16,5.26,17.21,5.5,1.05.24,12.88,5.62,12.88,5.62l9.99,7.58,1.18,2.81.79,9.05-2.76-9.17s-.39-1.96-1.45-2.57c-1.05-.61-16.03-8.93-16.03-8.93l-17.21-6.72s-4.86-.12-5.91-.61-14.58-3.42-15.37-2.69c-.79.73-13.4,2.69-13.4,2.69l-9.07,2.93s-12.48,7.46-13.93,8.68c-1.45,1.22-4.47,4.16-5.26,4.77s-5.26,2.57-5.26,2.57h-1.71l1.71-5.5Z"/>
    <path id="path192383" class="cls-10" d="m32.19,155.41l1.11.26s.37-.04.37.52v1.38l-.79.48s-.56.04-.88,0c-.33-.04-.56-.09-.56-.39v-.86c0-.48.74-1.6.74-1.6v.22Z"/>
    <path id="path192385" class="cls-10" d="m36.19,152.04s1.07-.65,1.25-.69c.19-.04.79-.04,1.02-.09.23-.04,1.3.39,1.3.39,0,0,.23.04.23.3s.05,1.04,0,1.34c-.05.3.14.56-.37.91-.51.35-.93.61-1.35.86-.42.26-.7.39-1.07.35-.37-.04-.98-.61-.98-.61l-.28-1.17v-1.04c0-.22.23-.56.23-.56h0Z"/>
    <path id="path192387" class="cls-10" d="m39.58,158.43s-1.11.73-1.39,1.12c-.28.39-1.53,1.17-1.67,1.69-.14.52-.42.99-.19,1.47.23.48.28,1.77.93,1.82.65.04,1.39-.17,1.77-.35.37-.17.6.04,1.02-.48.42-.52,1.39-1.08,1.53-1.64.14-.56.05-1.04.14-1.34.09-.3.28-.35.23-.78-.05-.43.05-.35-.23-.69-.28-.35-.84-.82-1.07-.82h-1.07Z"/>
    <path id="path192389" class="cls-10" d="m47.15,160.68s-.42-.35-.42-.91-.09-.91.23-1.34c.33-.43-.23-.82.74-.65.98.17,1.11.52,1.35.82.23.3.51,1.47.51,1.47,0,0-.37.56-.6.69-.23.13-1.63-.22-1.63-.22l-.19.13Z"/>
    <path id="path192391" class="cls-10" d="m37.44,174.91s1.02.86,1.21,1.08c.19.22,1.21.73,1.21,1.56s-.09,1.3-.09,1.56-.23.82-.56.82-2.37.82-2.37.82c0,0-.42.13-.79,0-.37-.13-1.63-.26-1.63-.43s-.14-.82,0-1.12c.14-.3.7-1.17.74-1.38.05-.22.09-.43.6-1.08.51-.65.33-.43.51-.65.19-.22.98-.95,1.16-1.17h0Z"/>
    <path id="path192393" class="cls-10" d="m29.54,169.76s-1.11-1.08-1.25-1.3-1.07,1.04-.37-.69c.7-1.73.7-1.51.79-1.86.09-.35,0-.82.37-1.12.37-.3.51-.43,1.21-.22.7.22,1.07.26,1.3.39.23.13,1.35,1.47,1.63,1.82.28.35.37.22-.19.78-.56.56-.88.86-1.02,1.3-.14.43-.37.73-.65.91-.28.17-.51.17-.84.17s-.98-.17-.98-.17Z"/>
    <path id="path192395" class="cls-10" d="m50.68,172.35c-.23-.04-1.02-.48-1.25-.78-.23-.3-.42-.43-.37-.86.05-.43,1.95-2.38,1.95-2.38,0,0,.7-.56.88-.43.19.13.28.69.56.91.28.22.6,1.17.6,1.17,0,0,0,.48-.51.91s-1.72,1.56-1.72,1.56l-.28-.3.14.22Z"/>
  </g>
</svg>