<?xml version="1.0" encoding="UTF-8" standalone="no"?>
<svg
   id="svg4444"
   width="231.98"
   height="227.16"
   viewBox="0 0 231.98 227.16"
   version="1.1"
   sodipodi:docname="PIP_ClanjadeFalcon.svg"
   xml:space="preserve"
   inkscape:export-filename="PIP_ClanjadeFalcon.svg"
   inkscape:export-xdpi="96"
   inkscape:export-ydpi="96"
   xmlns:inkscape="http://www.inkscape.org/namespaces/inkscape"
   xmlns:sodipodi="http://sodipodi.sourceforge.net/DTD/sodipodi-0.dtd"
   xmlns="http://www.w3.org/2000/svg"
   xmlns:svg="http://www.w3.org/2000/svg"><sodipodi:namedview
     id="namedview13"
     pagecolor="#505050"
     bordercolor="#ffffff"
     borderopacity="1"
     inkscape:showpageshadow="0"
     inkscape:pageopacity="0"
     inkscape:pagecheckerboard="1"
     inkscape:deskcolor="#505050"
     showgrid="false" /><defs
     id="defs4"><style
       id="style2">
      .cls-1 {
        stroke-width: 0px;
      }
    </style></defs><g
     inkscape:groupmode="layer"
     id="layer1"
     inkscape:label="Layer 1"><path
       style="fill:#7d4128;fill-opacity:1;stroke:none;stroke-width:0.297803px;stroke-linecap:butt;stroke-linejoin:miter;stroke-opacity:1"
       d="m 85.870253,128.40518 c -0.05845,0.30276 -4.384461,6.29735 -4.384461,6.29735 l -4.676762,8.3561 c 0,0 -4.092172,8.47721 -4.150629,8.77996 -0.05846,0.30276 -3.507577,7.02397 -3.507577,7.02397 l 2.86452,1.57434 2.163004,-5.69183 4.244546,-10.26867 5.342817,-9.77387 3.273738,-4.05694 z"
       id="path116566"
       sodipodi:nodetypes="cccsccccccc" /></g><g
     inkscape:groupmode="layer"
     id="layer19"
     inkscape:label="Layer 2"
     style="display:inline"><path
       style="fill:#e87f23;fill-opacity:1;stroke:none;stroke-width:0.297803px;stroke-linecap:butt;stroke-linejoin:miter;stroke-opacity:1"
       d="M 0.4010907,49.531684 H 232.55046 l -0.99209,67.478556 -231.8186754,-1.37012 z"
       id="path104306" /></g><g
     inkscape:groupmode="layer"
     id="layer20"
     inkscape:label="Layer 3"
     style="display:inline"><path
       style="fill:#fff301;fill-opacity:1;stroke:none;stroke-width:0.297803px;stroke-linecap:butt;stroke-linejoin:miter;stroke-opacity:1"
       d="m 15.447809,59.293812 8.598124,6.336818 -3.306969,12.844902 10.747652,-7.535677 c 0,0 9.920914,8.392004 9.920914,7.364411 0,-1.027588 -4.299062,-12.844901 -4.299062,-12.844901 L 47.19473,57.581157 35.620336,57.238626 30.659879,44.564991 l -3.637668,12.673635 -13.227886,0.685062 2.314881,1.712655 z"
       id="path105346" /><path
       style="fill:#fff301;fill-opacity:1;stroke:none;stroke-width:0.297803px;stroke-linecap:butt;stroke-linejoin:miter;stroke-opacity:1"
       d="m 50.005657,59.160999 8.598126,6.336819 -3.306974,12.844901 10.747658,-7.535677 c 0,0 9.920913,8.392005 9.920913,7.364412 0,-1.027594 -4.299061,-12.844902 -4.299061,-12.844902 L 81.752576,57.448345 70.178179,57.105813 65.217722,44.432179 61.580058,57.105813 48.352174,57.790875 50.667053,59.50353 Z"
       id="path105346-1" /><path
       style="fill:#fff301;fill-opacity:1;stroke:none;stroke-width:0.297803px;stroke-linecap:butt;stroke-linejoin:miter;stroke-opacity:1"
       d="m 85.364219,59.345745 8.598125,6.336818 -3.306973,12.844901 10.747659,-7.535676 c 0,0 9.92091,8.392004 9.92091,7.364411 0,-1.027593 -4.29906,-12.844902 -4.29906,-12.844902 l 10.08625,-7.878207 -11.57439,-0.342531 -4.96045,-12.673635 -3.637679,12.673635 -13.227879,0.685063 2.314879,1.712655 z"
       id="path105346-3" /><path
       style="fill:#fff301;fill-opacity:1;stroke:none;stroke-width:0.297803px;stroke-linecap:butt;stroke-linejoin:miter;stroke-opacity:1"
       d="m 120.53332,59.992354 8.59813,6.336818 -3.30698,12.844901 10.74766,-7.535676 c 0,0 9.92092,8.392004 9.92092,7.364411 0,-1.027587 -4.29907,-12.844902 -4.29907,-12.844902 l 10.08627,-7.878206 -11.5744,-0.342532 -4.96046,-12.673635 -3.63767,12.673635 -13.22789,0.685062 2.31489,1.712655 z"
       id="path105346-9" /><path
       style="fill:#fff301;fill-opacity:1;stroke:none;stroke-width:0.297803px;stroke-linecap:butt;stroke-linejoin:miter;stroke-opacity:1"
       d="m 156.15943,59.622863 8.59812,6.336818 -3.30697,12.844902 10.74767,-7.535676 c 0,0 9.9209,8.392003 9.9209,7.36441 0,-1.027592 -4.29905,-12.844902 -4.29905,-12.844902 l 10.08625,-7.878207 -11.57439,-0.342531 -4.96046,-12.673635 -3.63767,12.673635 -13.22788,0.685062 2.31488,1.712655 z"
       id="path105346-12" /><path
       style="fill:#b43928;fill-opacity:1;stroke:#000000;stroke-width:0.297803px;stroke-linecap:butt;stroke-linejoin:miter;stroke-opacity:1"
       d="m 87.448663,131.53613 -4.209086,5.08632 -5.4952,10.8387 c 0,0 -5.904409,16.7122 -6.138252,16.95441 -0.233833,0.2422 9.236609,8.17445 9.236609,8.17445 l 22.448466,12.35249 3.74141,-0.48441 22.91614,-19.49757 5.02752,-6.60011 -3.44911,-12.4736 -16.36868,0.72662 -7.65819,-1.93764 -10.815022,-4.96522 c 0,0 -3.44911,-3.45143 -3.682948,-3.39088 -0.233837,0.0605 -5.670577,-4.96523 -5.670577,-4.96523 z"
       id="path120581" /><path
       style="fill:#b43928;fill-opacity:1;stroke:#000000;stroke-width:0.297803px;stroke-linecap:butt;stroke-linejoin:miter;stroke-opacity:1"
       d="m 134.45014,147.34006 2.163,8.41664 c 0,0 0.87689,-0.60551 0.99381,-1.57434 0.11692,-0.96882 0.93536,-3.75419 0.93536,-4.35969 0,-0.60552 0,-1.15048 0,-1.15048 z"
       id="path120583" /><path
       style="fill:#b43928;fill-opacity:1;stroke:none;stroke-width:0.297803px;stroke-linecap:butt;stroke-linejoin:miter;stroke-opacity:1"
       d="m 159.23698,141.70877 c 4.03371,0.60551 18.00554,-0.54496 17.53786,-0.0605 -0.46767,0.48441 -6.489,12.17084 -6.489,12.17084 l -9.87967,1.8771 c 0,0 -8.18433,0.2422 -8.41817,0.0605 -0.23384,-0.18165 -2.7476,0.0605 -2.27992,-0.84772 0.46767,-0.90827 9.5289,-13.20021 9.5289,-13.20021 z"
       id="path120664" /><path
       style="display:inline;fill:#b43928;fill-opacity:1;stroke:none;stroke-width:0.297803px;stroke-linecap:butt;stroke-linejoin:miter;stroke-opacity:1"
       d="m 179.80427,98.171057 -9.92091,16.270203 16.03881,3.42531 4.62976,-0.5138 6.61394,-17.64033 -17.52694,-2.226448 z"
       id="path120666" /><path
       style="display:inline;fill:#fff301;fill-opacity:1;stroke:none;stroke-width:0.297803px;stroke-linecap:butt;stroke-linejoin:miter;stroke-opacity:1"
       d="m 193.26258,59.951915 8.59812,6.336818 -3.30697,12.8449 10.74766,-7.535676 c 0,0 9.92092,8.392005 9.92092,7.364411 0,-1.027593 -4.29907,-12.844901 -4.29907,-12.844901 l 10.08625,-7.878207 -11.57439,-0.342532 -4.96045,-12.673635 -3.63767,12.673635 -13.22789,0.685063 2.31488,1.712654 z"
       id="path105346-12-0" /></g><g
     inkscape:groupmode="layer"
     id="layer21"
     inkscape:label="Layer 4"
     style="display:inline"><path
       style="fill:#b43928;fill-opacity:1;stroke:none;stroke-width:0.297803px;stroke-linecap:butt;stroke-linejoin:miter;stroke-opacity:1"
       d="m 42.978346,133.87988 54.482347,-39.990467 9.342187,-10.361552 1.73616,-7.963838 -2.14953,-2.911513 C 93.42855,59.86562 80.588189,47.097333 61.662729,38.142543 l 6.36592,7.792571 19.924499,26.203599 4.299061,7.792578 -12.731836,16.184579 -5.20848,-3.254046 -27.943906,19.267356 -3.30697,11.73168 z"
       id="path107342"
       sodipodi:nodetypes="cccccccccccccc" /><path
       style="display:inline;fill:#7d4025;fill-opacity:1;stroke:none;stroke-width:0.297803px;stroke-linecap:butt;stroke-linejoin:miter;stroke-opacity:1"
       d="m 151.52967,82.414638 12.89718,0.342531 0.16536,-7.193146 -39.68365,-13.358697 26.9518,12.331105 z"
       id="path120668" /><path
       style="fill:#7d4025;fill-opacity:1;stroke:none;stroke-width:0.297803px;stroke-linecap:butt;stroke-linejoin:miter;stroke-opacity:1"
       d="m 62.158777,40.112093 c -0.248024,0.685062 0.165348,41.189317 0.165348,41.189317 L 79.768397,95.430805 91.342793,79.67439 62.572149,39.940828 Z"
       id="path109027" /><path
       style="fill:#783e1d;fill-opacity:1;stroke:none;stroke-width:0.297803px;stroke-linecap:butt;stroke-linejoin:miter;stroke-opacity:1"
       d="m 55.208229,93.994224 c -0.204615,0.363307 -0.935357,3.330326 -0.935357,3.330326 L 69.73542,87.817975 67.484729,85.910607 55.178996,93.721744 v 0.454133 z"
       id="path110271" /><path
       style="fill:#783e1d;fill-opacity:1;stroke:none;stroke-width:0.297803px;stroke-linecap:butt;stroke-linejoin:miter;stroke-opacity:1"
       d="m 50.852991,106.04397 21.80541,-14.895664 1.403028,1.392682 -23.266901,15.925032 z"
       id="path110273" /><path
       style="fill:none;stroke:none;stroke-width:0.297803px;stroke-linecap:butt;stroke-linejoin:miter;stroke-opacity:1"
       d="M 62.252601,82.731656 51.320667,94.963048 66.344768,85.880332 65.877092,84.790404 63.53871,83.276617 62.603358,82.368345 Z"
       id="path112345" /><path
       style="fill:#7f3d27;fill-opacity:1;stroke:none;stroke-width:0.297803px;stroke-linecap:butt;stroke-linejoin:miter;stroke-opacity:1"
       d="M 49.566881,100.83654 C 52.665234,99.322755 69.676963,88.968452 69.676963,88.968452 l 1.636867,1.513789 c 0,0 -22.682302,16.530549 -22.506925,16.288349 0.175381,-0.24221 0.759976,-5.93405 0.759976,-5.93405 z"
       id="path112347" /><path
       style="fill:#7f3d27;fill-opacity:1;stroke:none;stroke-width:0.297803px;stroke-linecap:butt;stroke-linejoin:miter;stroke-opacity:1"
       d="m 140.53399,99.798076 c -8.11803,7.085724 -12.82932,14.759564 -17.03091,22.521394 l 36.54204,18.23976 15.1294,-0.42817 C 166.024,133.07283 157.4847,125.48444 147.06525,120.17865 l -0.99208,-0.42816 2.81093,-5.13796 6.94463,-6.42246 z"
       id="path112351"
       sodipodi:nodetypes="ccccccccc" /><path
       style="fill:#7f3d27;fill-opacity:1;stroke:none;stroke-width:0.297803px;stroke-linecap:butt;stroke-linejoin:miter;stroke-opacity:1"
       d="m 180.63102,87.038802 9.59021,-0.513798 13.22788,3.082779 c 0,0 -3.80301,9.933387 -6.28324,9.933387 -2.48022,0 -5.95254,-1.370113 -5.95254,-1.370113 l -10.74766,-1.19886 1.48813,-4.795436 c 0,0 0,-1.198854 0,-2.226447 0,-1.027592 -1.32278,-2.911512 -1.32278,-2.911512 z"
       id="path112353" /><path
       style="fill:#7d4128;fill-opacity:1;stroke:none;stroke-width:0.297803px;stroke-linecap:butt;stroke-linejoin:miter;stroke-opacity:1"
       d="m 47.754634,132.08109 c 0,0.2422 0.05846,1.57434 -0.409215,2.05875 -0.467675,0.4844 -2.689138,3.57253 -2.689138,3.57253 l 1.753786,1.51378 55.945783,-41.477736 -4.793684,-3.693633 z"
       id="path114770" /><path
       style="fill:#000000;fill-opacity:1;stroke:none;stroke-width:0.297803px;stroke-linecap:butt;stroke-linejoin:miter;stroke-opacity:1"
       d="m 132.22867,146.73454 2.57223,8.65886 1.11072,-0.72662 -2.22146,-7.56893 -0.75997,-0.90828 -0.70152,0.0605 z"
       id="path117534" /><path
       style="fill:#723e27;fill-opacity:1;stroke:none;stroke-width:0.297803px;stroke-linecap:butt;stroke-linejoin:miter;stroke-opacity:1"
       d="m 147.77892,153.39519 0.64305,0.36332 9.41198,-12.29195 -0.64305,-0.66607 h -0.46768 z"
       id="path117538" /><path
       style="fill:#ed1d24;fill-opacity:1;stroke:none;stroke-width:0.297803px;stroke-linecap:butt;stroke-linejoin:miter;stroke-opacity:1"
       d="m 46.673134,139.22615 56.559606,-42.143801 -5.26136,-3.027568 8.18433,-9.688237 1.98763,-4.601909 c 0,0 1.05227,-4.965219 0.5846,-5.691841 -0.46768,-0.726616 -11.691911,-12.110287 -11.691911,-12.110287 0,0 2.922975,-0.968822 3.624491,-0.968822 0.70151,0 3.74141,-1.089927 5.96287,-1.089927 2.22147,0 6.89823,0 6.89823,0 l 8.76892,1.816543 27.82675,12.473598 0.81844,7.266175 c 0,0 -0.46768,0.968821 0.93535,1.332132 1.40303,0.363311 9.00277,2.058748 9.00277,2.058748 l 19.99316,2.906471 c 0,0 -0.11692,2.906471 -0.11692,3.996398 0,1.089924 -3.62449,10.778157 -3.62449,10.778157 l -6.7813,8.84051 -2.10455,2.05875 -27.70982,-14.411243 -9.35353,9.446023 -8.30126,15.01677 13.09494,5.81293 12.39342,5.69184 7.59975,4.3597 -9.11969,12.83691 -14.03029,-7.75059 -6.07979,0.84772 c 0,0 -1.40304,0.36331 -3.6245,0.36331 -2.22146,0 -3.39065,0 -4.32601,0 -0.93535,0 -5.26135,0 -5.96287,0 -0.70151,0 -3.27373,-0.72662 -5.26136,-1.81654 -1.98762,-1.08993 -12.393421,-6.05515 -12.393421,-6.05515 l -8.41817,-10.89925 -4.092167,3.75418 -15.199481,29.79131 -15.199482,-14.53235 z"
       id="path119750" /></g><path
     style="fill:#000000;fill-opacity:1;stroke:none;stroke-width:0.297803px;stroke-linecap:butt;stroke-linejoin:miter;stroke-opacity:1"
     d="m 136.3176,83.0997 c 0,0 0.99209,0.342531 3.30698,0.342531 2.31488,0 2.97627,-0.685062 3.88568,-1.027593 0.90942,-0.342531 4.96047,-0.342531 5.7872,-0.342531 0.82675,0 8.10209,0.171265 8.10209,0.171265 l 5.04313,0.599427 7.93673,2.568983 9.83823,1.113222 -0.74407,0.513798 h -3.88568 -3.80302 c -0.33071,0 -3.63768,-1.027594 -3.63768,-1.027594 l -4.87777,-1.455754 -4.62976,-0.770692 -5.29116,0.342531 c 0,0 -3.72034,1.541384 -4.71243,1.969551 -0.99209,0.42816 -3.30697,1.370124 -3.30697,1.370124 l -0.3307,-0.856328 0.16535,-1.113228 c 0,0 7.35801,-2.055181 7.02732,-2.140817 -0.33071,-0.08563 -16.45219,1.883921 -16.45219,1.883921 l -7.85406,2.911513 c 2.32675,-0.903752 -12.04091,-11.646813 -10.41696,-10.875351 2.49803,1.186691 9.17685,1.455754 9.17685,1.455754 z"
     id="path121509"
     sodipodi:nodetypes="csssccccccsccccscccsccscc"
     inkscape:label="path121509" /><g
     inkscape:groupmode="layer"
     id="layer22"
     inkscape:label="Layer 5"
     style="display:inline"><path
       style="display:inline;fill:#7f3d27;fill-opacity:1;stroke:none;stroke-width:0.297803px;stroke-linecap:butt;stroke-linejoin:miter;stroke-opacity:1"
       d="m 119.78274,78.389901 8.72214,8.392004 8.55679,-2.611797 -7.27534,-4.238817 -2.35621,-1.198859 -1.19878,-0.171265 c 0,0 -8.92882,-1.54139 -8.51545,-1.327309 0.41337,0.214086 2.10819,0.899143 2.10819,0.899143 z"
       id="path112349" /><path
       style="fill:#000000;fill-opacity:1;stroke:none;stroke-width:0.297803px;stroke-linecap:butt;stroke-linejoin:miter;stroke-opacity:1"
       d="m 137.14434,118.7229 c 1.07477,-0.17127 5.04314,-0.0857 5.04314,-0.0857 l 2.5629,0.25691 c 0,0 3.14162,0.2569 3.88569,0.2569 0.74407,0 8.18476,5.73739 8.18476,5.73739 0,0 0.0827,2.05518 -0.74408,2.48333 -0.82674,0.42816 -6.20057,-0.51379 -7.19265,-1.11321 -0.9921,-0.59943 -7.10999,-5.2236 -7.10999,-5.2236 0,0 -2.48023,-0.42816 -2.8936,-0.59943 -0.41338,-0.17125 -1.73617,-1.71264 -1.73617,-1.71264 z"
       id="path129609" /><path
       style="fill:#fff202;fill-opacity:1;stroke:none;stroke-width:0.297803px;stroke-linecap:butt;stroke-linejoin:miter;stroke-opacity:1"
       d="m 156.40746,108.01881 c 0.33069,0.25689 3.96836,3.76783 4.38173,4.11037 0.41337,0.34253 1.65349,1.88392 1.81883,3.16841 0.16535,1.28448 -1.24011,5.99429 -1.32279,6.33682 -0.0827,0.34253 -0.24802,1.37012 -0.24802,1.37012 l 8.26743,-5.65176 9.59022,2.05518 0.0827,5.30924 5.29115,-6.07993 -6.69662,-1.37012 -3.55499,-0.5138 c 0,0 -3.22429,-1.19885 -4.13371,-1.45575 -0.90942,-0.2569 -2.48022,-1.11323 -2.81093,-1.62702 -0.33069,-0.51379 -5.7872,-2.91151 -5.7872,-2.91151 l -4.62976,-3.33969 z"
       id="path129611" /></g><g
     inkscape:groupmode="layer"
     id="layer23"
     inkscape:label="Layer 6"><path
       style="fill:#ec1e24;fill-opacity:1;stroke:none;stroke-width:0.297803px;stroke-linecap:butt;stroke-linejoin:miter;stroke-opacity:1"
       d="m 140.61666,120.69245 c 0,0 -1.81883,0.0856 -2.14953,0 -0.3307,-0.0856 -1.57081,-1.2845 -1.57081,-1.2845 l -0.0827,-0.85632 1.40545,-0.0856 c 0,0 3.2243,0.0856 4.05105,0.34253 0.82674,0.2569 6.69661,4.36727 6.69661,4.36727 l 2.14954,2.65461 0.41337,0.17126 0.82674,-0.0856 v -1.96956 l -1.24011,-0.85632 -5.20848,-3.76784 0.41337,-0.17126 1.73616,-0.0857 c 0,0 2.81093,0.85633 3.14163,1.19886 0.33069,0.34254 3.80301,2.56898 3.80301,2.56898 0,0 1.07476,1.28449 1.57081,1.96955 0.49604,0.68506 4.21639,1.19886 5.1258,1.79829 0.90942,0.59943 5.20849,1.79828 5.70454,1.88391 0.49603,0.0856 0.90941,1.19886 0.90941,1.62702 0,0.42817 0,1.37013 0,1.37013 0,0 -1.48814,1.11322 -2.2322,1.62702 -0.74408,0.51379 -2.48024,0.59943 -3.555,0.59943 -1.07477,0 -5.70452,-1.54139 -5.70452,-1.54139 0,0 -2.64559,-1.45576 -3.47233,-2.05519 -0.82674,-0.59943 -2.39755,-1.54138 -2.72825,-1.71265 -0.33069,-0.17127 -3.30697,-2.05518 -3.72034,-2.31208 -0.41337,-0.2569 -2.2322,-1.71265 -3.555,-2.99714 -1.32278,-1.28449 -2.72825,-2.39772 -2.72825,-2.39772 z"
       id="path127399" /><path
       style="fill:#fff202;fill-opacity:1;stroke:none;stroke-width:0.297803px;stroke-linecap:butt;stroke-linejoin:miter;stroke-opacity:1"
       d="m 151.94304,131.91032 c 0,0 4.62976,1.2845 5.45651,1.37013 0.82673,0.0856 2.64557,0.0856 2.64557,0.0856 l 1.15744,-1.96955 0.74407,2.74024 c 0,0 -0.6614,0.59943 0.16534,0.59943 0.82675,0 0,0.34253 0.90942,0.34253 0.90942,0 2.89361,0.17128 4.46441,0.17128 1.57082,0 2.81093,0.17126 2.89361,-0.17128 0.0827,-0.34253 3.47232,-3.08277 3.47232,-3.08277 l -1.40546,5.22359 -10.83034,-0.17126 c 0,0 -3.47232,-1.0276 -3.80301,-1.37013 -0.33071,-0.34253 -5.86988,-3.76784 -5.86988,-3.76784 z"
       id="path130303" /></g></svg>
