<?xml version="1.0" encoding="UTF-8" standalone="no"?>
<svg
   id="svg4444"
   viewBox="0 0 54289 52775.872"
   version="1.1"
   width="54289"
   height="52775.871"
   xmlns="http://www.w3.org/2000/svg"
   xmlns:svg="http://www.w3.org/2000/svg">
  <defs
     id="defs2509">
    <style
       id="style2507">
      .cls-1 {
        stroke-width: 0px;
      }

      .cls-2 {
        stroke: #fff;
        stroke-miterlimit: 10;
      }
    </style>
  </defs>
  <g
     id="layer33">
    <path
       id="path108687"
       class="cls-2"
       d="m 4.04,227.65 14.74,-34.94 c 0,0 12.4,-7.91 12.92,-7.78 0.52,0.13 -0.52,26.9 -0.52,26.9 l 10.05,-10.81 1.57,-14.9 -7.44,-17.41 29.23,-22.02 h 2.74 l 10.7,16.48 c 0,0 4.31,7.78 4.96,8.97 0.65,1.19 1.04,2.64 0.78,3.3 -0.26,0.66 -2.35,1.85 -3,2.51 -0.65,0.66 -3.39,2.51 -3.91,4.35 -0.52,1.85 -2.35,3.56 -2.22,7.91 0.13,4.35 7.31,8.44 8.87,8.97 1.56,0.53 11.22,3.56 12.26,3.56 1.04,0 9.13,-4.48 10.57,-4.88 1.44,-0.4 5.09,-0.79 5.09,-0.79 l 3.13,-124.22 c 0,0 -6.78,-1.32 -7.05,-0.26 -0.26,1.05 -8.09,13.71 -8.09,13.71 l -3.13,2.64 -1.04,5.01 -10.96,-8.97 -1.04,-5.27 -29.49,8.7 16.7,0.53 6.26,-2.64 c 0,0 -0.26,1.58 1.57,3.96 1.83,2.37 12.26,12.13 12.26,12.13 l -0.52,7.38 -15.4,-13.98 -31.31,8.18 14.09,2.37 14.09,-3.96 c 0,0 16.96,11.87 16.96,12.92 0,1.05 -2.61,11.08 -2.61,11.08 L 65.5,115.04 34.19,130.07 c 0,0 2.61,-0.79 4.44,0 1.83,0.79 21.66,-5.54 21.66,-5.54 l 8.09,-1.05 15.14,9.76 1.04,6.86 c 0,0 -0.52,5.8 -0.26,7.91 0.26,2.11 -0.52,6.86 -0.52,6.86 l 0.26,2.9 -20.62,-26.11 -33.66,34.29 -11.22,2.11 -18.02,16.6 z"
       style="stroke:#ffffff;stroke-width:2;stroke-opacity:1" />
    <path
       id="path108687-9"
       class="cls-2"
       d="m 229.16,227.32 -14.89,-34.88 c 0,0 -12.43,-7.86 -12.95,-7.73 -0.52,0.13 0.63,26.9 0.63,26.9 l -10.09,-10.77 -1.63,-14.89 7.36,-17.44 -29.32,-21.9 h -2.74 l -10.63,16.54 c 0,0 -4.27,7.8 -4.92,8.99 -0.65,1.19 -1.03,2.64 -0.77,3.3 0.26,0.66 2.36,1.84 3.01,2.49 0.66,0.66 3.4,2.49 3.93,4.33 0.53,1.84 2.36,3.55 2.25,7.9 -0.11,4.35 -7.27,8.47 -8.84,9 -1.56,0.53 -11.21,3.61 -12.25,3.61 -1.04,0 -9.15,-4.44 -10.59,-4.83 -1.44,-0.39 -5.09,-0.77 -5.09,-0.77 l -3.65,-124.2 c 0,0 6.78,-1.35 7.04,-0.29 0.27,1.05 8.15,13.68 8.15,13.68 l 3.14,2.62 1.06,5.01 10.92,-9.01 1.02,-5.28 29.52,8.58 -16.7,0.6 -6.27,-2.61 c 0,0 0.27,1.58 -1.55,3.96 -1.82,2.38 -12.21,12.18 -12.21,12.18 l 0.55,7.38 15.34,-14.04 31.35,8.04 -14.08,2.43 -14.11,-3.9 c 0,0 -16.91,11.94 -16.91,12.99 0,1.05 2.66,11.07 2.66,11.07 l 20.31,-11.43 31.38,14.9 c 0,0 -2.61,-0.78 -4.44,0.02 -1.82,0.8 -21.68,-5.45 -21.68,-5.45 l -8.09,-1.02 -15.09,9.82 -1.02,6.86 c 0,0 0.55,5.8 0.29,7.91 -0.25,2.11 0.55,6.85 0.55,6.85 l -0.25,2.9 20.51,-26.2 33.81,34.14 11.23,2.06 18.07,16.54 -3.34,43 z"
       style="stroke:#ffffff;stroke-width:2;stroke-opacity:1" />
    <path
       id="path108711"
       class="cls-2"
       d="m 112.47,73.36 6.26,-0.26 7.31,122.9 c 0,0 11.48,5.27 10.44,5.27 -1.04,0 -6.26,1.05 -6.26,1.05 0,0 -9.39,-0.79 -10.7,-2.11 -1.3,-1.32 -2.87,-3.16 -2.87,-3.16 h -4.96 l -1.3,-113.14 2.09,-10.55 v 0 z"
       style="stroke:#ffffff;stroke-width:2;stroke-opacity:1" />
    <path
       id="path108713"
       class="cls-2"
       d="m 107.93,72.15 c 0,0 2.58,-26.85 1.66,-29.09 -0.92,-2.24 -3.14,-15.85 -3.32,-16.78 -0.18,-0.93 -8.12,-12.12 -8.12,-12.12 0,0 -10.33,-5.97 -11.07,-5.97 -0.74,0 -10.89,-0.93 -10.89,-0.93 L 63.83,10.99 51.1,16.77 c 0,0 -5.35,6.15 -5.72,7.27 -0.37,1.12 -2.21,11.19 -2.21,11.19 0,0 4.8,0.56 5.72,0.75 0.92,0.19 0.74,3.54 3.69,3.54 2.95,0 4.61,0.56 7.38,-0.56 2.77,-1.12 2.21,-2.05 4.8,-1.31 2.58,0.75 5.54,0.93 7.01,2.61 1.48,1.68 4.98,8.21 4.98,8.21 0,0 -2.77,0.93 -5.17,-0.37 -2.4,-1.31 -6.09,-4.1 -9.23,-2.24 -3.14,1.86 -5.35,2.42 -5.72,4.29 -0.37,1.86 -4.61,5.59 -4.61,5.59 0,0 0.55,0.75 -2.58,0 -3.14,-0.75 -9.6,-2.24 -11.07,-3.73 -1.48,-1.49 -4.43,-7.09 -4.8,-10.44 -0.37,-3.35 -0.92,-11.56 0.74,-13.99 1.66,-2.42 4.8,-10.63 7.75,-13.05 2.95,-2.42 6.83,-7.27 12.92,-9.51 6.09,-2.24 9.96,-3.36 16.05,-4.29 6.09,-0.93 17.35,1.12 20.3,2.42 2.95,1.31 17.53,9.88 18.45,11.56 0.92,1.68 10.15,20.14 10.15,20.14 l 3.14,29.47 0.92,9.32 -16.05,-1.49 z"
       style="stroke:#ffffff;stroke-width:2;stroke-opacity:1" />
    <path
       id="path108715"
       class="cls-2"
       d="m 110.37,69.16 c 1.09,0 12.3,-5.47 12.3,-5.47 l 11.48,24.59 -3.01,111.76 H 114.2 c 0,0 -6.83,1.09 -9.29,1.37 -2.46,0.27 -9.84,1.09 -9.84,1.09 0,0 8.47,-113.13 10.93,-119.41 2.46,-6.28 4.37,-13.94 4.37,-13.94 v 0 z"
       style="stroke:#ffffff;stroke-width:2;stroke-opacity:1" />
  </g>
  <path
     class="cls-1"
     d="m 111.56,61.69 -19.49,50.38 v 88.43 c 0,0 38.37,6.55 41.41,-1.23 3.04,-7.78 0.89,-107.28 0.89,-107.28 l -19.39,-40.5 z"
     id="path2517" />
</svg>
