<?xml version="1.0" encoding="UTF-8"?>
<svg id="svg4444" xmlns="http://www.w3.org/2000/svg" width="232.43" height="227.92" viewBox="0 0 232.43 227.92">
  <defs>
    <style>
      .cls-1 {
        fill: #d6c8ba;
      }

      .cls-1, .cls-2, .cls-3, .cls-4, .cls-5, .cls-6, .cls-7, .cls-8, .cls-9 {
        stroke-width: 0px;
      }

      .cls-2 {
        fill: #f4f736;
      }

      .cls-3 {
        fill: #aa7244;
      }

      .cls-4 {
        fill: #180d07;
      }

      .cls-5 {
        fill: #1b37f9;
      }

      .cls-6 {
        fill: #070000;
      }

      .cls-7 {
        fill: #bd8b36;
      }

      .cls-8 {
        fill: #cebeb1;
      }

      .cls-9 {
        fill: #ef3e4b;
      }
    </style>
  </defs>
  <g id="layer2">
    <path id="path27210" class="cls-5" d="m0,13.07l115.6,214.85L232.43,13.49,0,13.07Z"/>
  </g>
  <g id="layer3">
    <path id="path28578" class="cls-1" d="m100.44,183.63l9.16-5.6s-5.96-1.18-6.69-1.47c-.73-.29-4.95-5.31-4.95-5.31l-2.91-6.64-3.05-11.06s-1.31-6.49-1.16-8.41c.15-1.92.15-7.67.58-8.41s1.31-2.8,1.31-3.54-4.8-8.11-4.8-8.11c0,0-3.35.15-3.93.15s-2.04-1.77-2.04-1.77l.58-2.21-1.45-2.36-10.62-7.37-2.33.15-1.6,2.8s.44,1.33,1.02,2.65c.58,1.33.87,6.49,1.16,7.23.29.74.58,4.13.58,4.13l8.87-2.06s1.89,5.31,2.33,6.34c.44,1.03,2.76,9.14,2.76,9.14l2.47,2.65s2.91,6.93,2.91,7.52,3.2,16.96,3.2,16.96l3.93,7.82,4.65,6.78Z"/>
    <path id="path30773" class="cls-1" d="m128.51,178.18c1.45-.15,4.8-4.42,4.8-4.42,0,0,3.2-2.51,3.35-4.13.15-1.62,1.6-10.62,1.6-11.5s.44-9.88.58-11.06c.15-1.18.15-12.83.15-13.42s-1.02-1.47-.15-2.21,15.27-13.27,15.27-13.27l5.96-1.18,3.93.59s2.18,9.88,1.6,9.88-5.24.88-5.24.88l-4.65.15s-2.76,3.54-3.2,4.28c-.44.74-7.42,10.77-7.42,10.77l-1.02,14.75s-1.45,10.18-1.89,10.91c-.44.74-5.09,13.13-5.09,13.13l-2.91,2.06-2.91-1.33s-1.02-.88-2.33-1.92c-1.31-1.03-2.04-2.8-2.04-2.8l1.6-.15Z"/>
    <path id="path30779" class="cls-6" d="m109.74,177.73c-1.02.74-8.58,5.6-8.58,5.6l-2.47,1.18,2.18,3.1-.87,2.51,4.65,5.16s-.44.44.73,0,3.05-2.21,3.05-2.21l1.02-.15s1.89-1.18,2.18.59c.29,1.77,1.6,2.95,2.47,2.8s6.69-.59,6.69-.59l2.47-3.24s.29-.15,1.02-.15,1.89,1.62,2.47,1.62,2.33.15,3.49-1.03c1.16-1.18,2.04-.88,2.04-2.65s1.89-5.75,1.89-5.75v-.74l-7.56-6.19-6.69-1.18-5.38.15-4.8,1.18Z"/>
    <path id="path37459" class="cls-3" d="m23.79,7.67c1.16.44,21.09,47.05,21.09,47.05l-13.67,23.01,8.44-.44s-16.43,21.68-15.85,21.68,9.16-4.28,9.16-4.28c0,0-12.51,21.83-11.49,21.53,1.02-.29,14.4-5.6,14.4-5.6l-1.89,7.67,13.96-2.95,4.51,3.69,14.98-2.18-.87-2.43,1.6-2.77,2.33-.11,10.73,7.34,1.38,2.47-.62,2.1,1.71,1.66h4.25l5.02,8.11-1.53,3.76-.25,1.44-.29,7.93,1.13,6.64,2.62,9.77.69,2.25,2.8,6.34,4.91,5.27,6.33,1.25s.73-.37.91-.37,4.18-1.03,4.18-1.03l5.49-.04s2.18.29,2.33.41c.15.11,4.33.7,4.33.7l.8.7,1.24-.07s.55-.07.69-.22c.15-.15,1.38-1.36,1.38-1.36l2.55-2.91,2.11-1.95,1.02-1.55.33-1.29,1.13-7.71.55-8.33.55-15.08-.04-4.06-.55-1.7.44-.74,15.53-13.42,6.36-1.14,3.64.74.44,3.36,10.73,2.54.51-6.86,15.93,6.53.8-10.8,18.91,6.01-13.24-24.85,7.16.11-9.85-15.52,5.38.52-10.62-21.83,20.98-51.77-2.76-4.87-47.7,23.6-7.71-3.98-10.91-3.1-7.56-.44-13.53,2.95-13.09-3.1-11.49,2.06-11.49,2.8-6.98,4.57L29.61,3.54l-5.82,4.13Z"/>
  </g>
  <g id="layer4">
    <path id="path41036" class="cls-7" d="m74.56,87.12c-1.65.52-31.06,3.44-31.06,3.44,0,0-6.58,13.04-6.17,12.93.41-.1,10.59-3.02,10.59-3.02,0,0,1.34,3.44,1.95,4.38.62.94,2.37,5.94,2.37,5.94l8.95-4.48s-1.85,7.09-.51,6.26c1.34-.83,7.4-4.38,7.4-3.86s-.62,2.5-.62,2.5l10.49-5.63,4.01-2.71-5.14-13.56-2.26-2.19Z"/>
    <path id="path42908" class="cls-7" d="m161.77,86.39c-.41.31-2.67,3.13-2.98,3.55-.31.42-1.44.83-1.85,1.98-.41,1.15-1.85,3.65-2.16,5.21s-1.23,5.21-1.23,5.21l3.5,2.5-.93.94,5.96,8.24,4.53,1.46,3.5-1.98,1.65-3.65s9.26,2.29,9.77,1.25c.51-1.04,2.06-4.59,2.16-5.21.1-.63,1.23-.94,2.67-1.67,1.44-.73,10.59.1,10.59.1l.72-.42-12.14-15.85-23.76-1.67Z"/>
    <path id="path42910" class="cls-4" d="m77.13,86.29l23.04,22.74,8.02-4.59v1.67l-4.83,6.15s.31.42.21.94c-.1.52-1.85,1.98-1.85,1.98,0,0-5.55-4.17-6.58-4.28-1.03-.1-18.31-4.38-18.31-4.38l5.35-3.75-4.32-12.83s-.82-1.67-1.34-2.19-1.13-1.15-1.13-1.15"/>
    <path id="path45243" class="cls-4" d="m163.93,85.56l-2.98,1.04s-2.57,2.61-2.78,3.13-1.44,3.13-1.44,3.55-1.95,4.69-2.26,5.32c-.31.63-.41,3.02-.41,3.02,0,0-.41,1.46.31,1.46s2.16,1.56,2.16,1.56v1.04l-.31.21s-5.55.31-6.68.73c-1.13.42-5.96,3.13-5.96,3.13l-9.36,6.47-8.33-9.7v-1.25s6.89,7.51,7.71,6.99c.82-.52,20.77-26.07,20.77-26.07,0,0,.51-1.88,1.95-1.98,1.44-.1,9.67.21,9.67.21l-2.06,1.15Z"/>
  </g>
  <g id="layer5">
    <path id="path30775" class="cls-1" d="m116.43,116.52l-4.07,5.6s4.95,48.08,4.95,47.2,2.91-46.9,2.91-46.9l-3.78-5.9Z"/>
    <path id="path45247" class="cls-2" d="m151.69,93.59c-.41.31-7.51,8.66-7.51,8.66l-2.98,4.28,9.67-3.86,2.37-9.39-1.54.31Z"/>
    <path id="path47787" class="cls-2" d="m84.02,94.63c2.06,1.15,10.28,11.16,10.28,11.16l-.31.31-10.18-3.86.21-7.61Z"/>
    <path id="path47789" class="cls-9" d="m116.43,25.52c0,.44-2.91,18.22-2.91,18.22l-14.84-7.89,8.87,14.9-12.8,2.95,13.45,4.65-8.22,12.91,12.73-7.74,4.44,34.51s3.64-33.11,4-33.11,14.76,7.67,14.76,7.67l-8.44-14.75,14.76-4.57-14.76-2.95,7.64-14.31-.44-.37-13.53,8.48-3.78-18.81-.95.22Z"/>
    <path id="path51226" class="cls-8" d="m24.22,10.32s2.04-1.47,2.62-1.47,44.94,24.34,44.94,24.34l-14.69,20.5-8.14-6.34-1.45,2.95L24.22,10.32Z"/>
    <path id="path51228" class="cls-8" d="m167.63,37.17L206.75,4.72l2.62,2.06-17.31,43.07s-.15,4.42-.73,4.42-5.38,1.77-5.38,1.77l-18.33-18.88Z"/>
  </g>
</svg>