<?xml version="1.0" encoding="UTF-8" standalone="no"?>
<svg
   id="svg4444"
   width="231.98"
   height="227.16"
   viewBox="0 0 231.98 227.16"
   version="1.1"
   sodipodi:docname="PIP_tortuga.svg"
   xml:space="preserve"
   inkscape:export-filename="PIP_ClanDiamondShark.png"
   inkscape:export-xdpi="96"
   inkscape:export-ydpi="96"
   xmlns:inkscape="http://www.inkscape.org/namespaces/inkscape"
   xmlns:sodipodi="http://sodipodi.sourceforge.net/DTD/sodipodi-0.dtd"
   xmlns="http://www.w3.org/2000/svg"
   xmlns:svg="http://www.w3.org/2000/svg"><sodipodi:namedview
     id="namedview13"
     pagecolor="#505050"
     bordercolor="#ffffff"
     borderopacity="1"
     inkscape:showpageshadow="0"
     inkscape:pageopacity="0"
     inkscape:pagecheckerboard="1"
     inkscape:deskcolor="#505050"
     showgrid="false" /><defs
     id="defs4"><style
       id="style2">
      .cls-1 {
        stroke-width: 0px;
      }
    </style></defs><path
     style="display:inline;fill:#102df9;fill-opacity:1;stroke:none;stroke-width:0.659188px;stroke-linecap:butt;stroke-linejoin:miter;stroke-opacity:1"
     d="M 81.05823,31.115506 41.27587,62.310387 118.32646,177.47341 194.63759,61.958558 154.70735,30.294587 Z"
     id="path3413" /><g
     inkscape:groupmode="layer"
     id="layer1"
     inkscape:label="Layer 1"><path
       style="fill:#f2100d;fill-opacity:1;stroke:none;stroke-width:0.659188px;stroke-linecap:butt;stroke-linejoin:miter;stroke-opacity:1"
       d="m 136.96057,4.0252205 32.83153,24.1584355 -9.16916,6.567342 29.57796,23.689342 8.87339,-7.036437 30.76107,26.738456 -0.29578,-74.5862385 z"
       id="path10732" /><path
       style="fill:#f2100d;fill-opacity:1;stroke:none;stroke-width:0.659188px;stroke-linecap:butt;stroke-linejoin:miter;stroke-opacity:1"
       d="M 46.15623,57.85396 76.47363,35.10282 67.0087,26.776369 98.7066,1.6952205 6.26329,4.3488305 4.59011,77.32302 35.96227,53.108861 Z"
       id="path13839" /><path
       style="fill:#f2100d;fill-opacity:1;stroke:none;stroke-width:0.659188px;stroke-linecap:butt;stroke-linejoin:miter;stroke-opacity:1"
       d="m 98.91575,151.29231 19.24159,26.37021 20.70563,-30.01891 0.83659,31.84327 45.17592,0.33171 -66.29984,51.57947 c 0,0 -69.64621,-52.74043 -67.34558,-51.91118 2.30063,0.82925 46.22165,0 46.22165,0 v -27.86286 z"
       id="path18533" /></g><g
     inkscape:groupmode="layer"
     id="layer2"
     inkscape:label="Layer 2"><path
       style="fill:#5e96a5;fill-opacity:1;stroke:none;stroke-width:0.659188px;stroke-linecap:butt;stroke-linejoin:miter;stroke-opacity:1"
       d="m 2.38085,175.01065 c 0,0 1.18312,0.29319 2.58807,0.23456 1.40496,-0.0586 4.88037,-1.05547 4.88037,-1.05547 l 4.58458,-1.64183 11.09174,-6.15689 9.24311,-8.03326 3.25357,-3.57687 7.46844,-9.73373 3.6233,-5.80506 5.56697,-12.91028 3.45094,-6.63402 4.91497,-6.21938 6.58815,-4.64382 5.33328,-2.98532 8.15675,-3.39992 8.99335,-1.3268 8.36592,-0.16586 22.27423,1.32681 40.0518,6.88279 13.17631,5.05845 5.64698,3.23407 10.77112,18.65817 10.35281,15.50703 6.06529,5.05843 4.18295,2.57068 4.81041,1.99021 3.34636,0.16585 h 1.67317 l 0.94118,-1.24389 -0.73202,-1.24386 -1.67319,-1.16097 -8.26133,-8.20958 -3.86924,-6.63403 -2.30061,-5.05843 -2.09149,-6.96573 1.15031,-13.1851 3.45094,-8.62422 8.57506,-7.5462 6.27443,-5.721835 3.76467,-4.39503 3.13721,-4.726747 0.62744,-1.907281 c 0,0 3.45094,-4.975518 0.31372,-3.151151 -3.13721,1.824347 -15.89522,11.443678 -15.89522,11.443678 l -9.72538,6.551094 -5.85614,2.073122 -1.88232,0.74633 -3.2418,0.58048 -4.60124,-0.41462 -3.76467,-1.40974 -15.79065,-5.887689 -15.49498,-7.08986 -17.45101,-6.801895 -10.05649,-2.580021 -12.42275,-2.110937 -13.31008,-1.641833 -2.58408,-5.813981 -2.71892,-6.302311 0.10453,-15.589936 2.19606,-7.960818 L 74.65456,56.8405 62.1057,69.362188 l -6.90188,11.609536 -2.35291,1.699972 -6.74501,4.353578 -11.39855,9.494935 -8.88879,10.780291 -4.96726,6.88277 -4.96725,10.73883 -1.83005,10.98758 -3.08493,15.7558 -2.24833,7.7535 -1.30718,4.39504 -2.71892,4.72674 -1.56861,2.23897 -1.15031,2.28045 -0.31372,1.20242 z"
       id="path22469" /><path
       style="display:inline;fill:#95c0cb;fill-opacity:1;stroke:none;stroke-width:0.659188px;stroke-linecap:butt;stroke-linejoin:miter;stroke-opacity:1"
       d="m 2.30691,175.47976 1.10917,2.40411 c 0,0 2.58807,0.87955 2.9578,0.99682 0.36972,0.11729 6.28532,1.34866 6.28532,1.34866 h 2.8099 l 6.80293,-0.99683 5.02826,-2.28684 4.51063,-3.22503 6.06349,-6.86053 4.43669,-4.33915 9.31705,-6.62597 9.98257,-6.03961 3.03174,-0.52773 v 0.58637 l -2.14441,3.04911 -7.54238,9.38192 -3.03174,5.57053 -0.14788,0.99682 c 0,0 3.69724,-1.81774 3.84513,-2.11092 0.14789,-0.29319 3.91908,-4.10459 3.91908,-4.10459 0,0 1.18312,-1.1141 2.51413,-1.8764 1.33101,-0.76227 3.32752,-2.99047 3.91908,-3.04911 0.59155,-0.0587 5.1022,-1.05547 5.1022,-1.05547 l 7.0987,-0.52774 9.68679,-0.82092 5.17614,-1.11409 9.61284,-2.69731 7.76421,-2.69729 3.6233,-2.22822 1.70073,-2.11092 c 0,0 -0.29578,-0.93819 -1.18311,-0.93819 -0.88734,0 -4.88037,0.41046 -4.88037,0.41046 l -9.61283,1.34865 h -5.25009 l -4.21487,-0.9382 -6.13742,-1.23138 -2.66202,-1.99366 -1.25705,-1.52456 c 0,0 0.36971,-5.04277 0.51761,-5.33596 0.14788,-0.29319 1.99651,-4.39777 1.99651,-4.39777 l 2.51412,-2.63867 3.40148,-3.8114 6.06347,-3.98731 6.95082,-2.63867 8.79945,-1.99365 5.69376,-0.23456 6.4332,0.93821 10.86991,2.16955 5.17614,1.75912 4.73247,0.82092 c 0,0 5.32403,0.70364 5.69375,0.70364 0.36973,0 4.28881,-0.35183 5.02826,-0.35183 0.73945,0 5.69376,-0.1759 5.69376,-0.1759 l 0.0739,-0.87955 -9.61284,-2.40413 -3.84514,-1.23137 -1.92256,-1.17275 -1.25707,-2.52139 1.55285,-0.52772 2.07046,-0.52773 h 12.86641 l 6.80293,0.82091 6.58109,2.28684 3.32753,0.29318 -13.97559,-5.57051 -17.74678,-2.99048 -18.04255,-3.28367 -6.72899,-1.05547 -7.54237,-0.52774 -14.93688,-0.52772 -7.46844,0.0586 -8.5776,1.52455 -18.04256,10.08557 -5.61981,7.03643 -7.17266,14.65925 -3.6233,7.32963 -5.7677,8.20917 -7.32054,8.73691 -4.80643,4.39778 -5.69375,4.33913 -6.87687,3.98732 -4.95432,2.11093 -10.27834,0.99682 z"
       id="path24196" /></g><g
     inkscape:groupmode="layer"
     id="layer3"
     inkscape:label="Layer 3"><path
       style="display:inline;fill:#000000;stroke:none;stroke-width:0.659188px;stroke-linecap:butt;stroke-linejoin:miter;stroke-opacity:1"
       d="m 22.6291,179.23811 c 0,0 4.91497,-0.41463 5.2287,-0.41463 0.31372,0 24.15656,-10.15834 24.15656,-10.15834 l 4.75811,-8.37545 c 0,0 3.08493,-4.27064 3.50323,-4.60234 0.4183,-0.33171 4.33981,-6.34378 4.33981,-6.34378 l -3.13721,0.58049 -9.72537,5.51451 -13.2286,10.69735 -4.91497,5.14137 -2.19605,2.57068 -9.72537,5.55599 z"
       id="path27511" /><path
       style="fill:#000000;stroke:none;stroke-width:0.659188px;stroke-linecap:butt;stroke-linejoin:miter;stroke-opacity:1"
       d="m 37.58317,159.08728 7.52932,-9.90956 0.88887,7.29742 z"
       id="path31198" /></g><g
     inkscape:groupmode="layer"
     id="layer4"
     inkscape:label="Layer 4"><path
       style="fill:#ffffff;stroke:none;stroke-width:0.659188px;stroke-linecap:butt;stroke-linejoin:miter;stroke-opacity:1"
       d="m 37.6616,168.47856 c 0,0 1.77775,0.29024 2.03919,0.22804 0.26144,-0.0623 1.12417,-0.80851 1.35946,-0.91217 0.23529,-0.10368 1.12417,-0.35243 1.56861,-0.51828 0.44444,-0.16586 1.77776,-0.51829 2.30062,-0.51829 0.52287,0 2.45749,-0.0623 2.45749,-0.0623 0,0 0.0261,-0.49755 -0.20915,-0.7256 -0.23529,-0.22804 -1.04574,-0.95364 -1.33331,-0.9951 -0.28758,-0.0414 -1.0196,-0.26951 -1.17646,-0.31097 -0.15687,-0.0414 -1.64704,-0.0623 -1.77776,-0.0623 -0.13072,0 -0.96731,-0.12438 -1.15031,0 -0.18301,0.12439 -1.09803,0.60121 -1.15031,0.68413 -0.0523,0.083 -0.81045,0.7256 -1.07188,1.01584 -0.26144,0.29024 -1.4379,0.9329 -1.4379,0.9329 0,0 -0.36601,0.18659 -0.41829,0.55976 -0.0523,0.37315 0,0.68412 0,0.68412 z"
       id="path27514" /><path
       style="fill:#ffffff;stroke:none;stroke-width:0.659188px;stroke-linecap:butt;stroke-linejoin:miter;stroke-opacity:1"
       d="m 42.52428,163.44086 c 0.0261,-0.10368 2.4052,-2.11459 2.4052,-2.11459 0,0 1.64704,-0.33171 1.77776,-0.33171 0.13072,0 1.25489,-0.0623 1.49017,0.20731 0.2353,0.26951 0.49673,0.43536 0.62745,0.49756 0.13072,0.0623 0.47059,0.539 0.0523,0.539 -0.41829,0 -1.62089,0.20731 -1.77776,0.31097 -0.15685,0.10368 -1.30716,1.07804 -1.30716,1.07804 0,0 -0.83659,0 -1.28104,0 -0.44444,0 -1.33331,-0.10369 -1.33331,-0.10369 z"
       id="path27516" /><path
       style="fill:#ffffff;stroke:none;stroke-width:0.659188px;stroke-linecap:butt;stroke-linejoin:miter;stroke-opacity:1"
       d="m 50.03834,158.16719 c -0.14789,0.0733 -1.83013,1.02615 -1.83013,1.02615 0,0 -0.83189,0.23454 -0.83189,0.38113 0,0.14659 -0.0185,0.82091 0.0185,0.90887 0.0369,0.088 0.20335,0.24921 0.33275,0.33716 0.12941,0.088 0.9428,0.26387 1.55284,0.24921 0.61005,-0.0147 1.27556,0.11728 1.57134,-0.0292 0.29578,-0.14659 0.90582,-0.7183 1.05371,-0.7183 0.14789,0 0.29578,0.33716 0.29578,0 0,-0.33717 0.38821,-1.09945 0,-1.24605 -0.38821,-0.14659 -0.88734,-0.63034 -0.88734,-0.63034 z"
       id="path27518" /><path
       style="fill:#ffffff;stroke:none;stroke-width:0.659188px;stroke-linecap:butt;stroke-linejoin:miter;stroke-opacity:1"
       d="m 50.87022,157.43423 0.81339,0.48375 c 0,0 1.40496,0.0439 1.77468,0.088 0.36973,0.0439 1.23858,0.0733 1.38647,0.0439 0.14789,-0.0292 0.55459,-0.0292 0.55459,-0.0292 0,0 0.0185,-0.49843 0,-0.61569 -0.0185,-0.11727 -0.22184,-0.55705 -0.35124,-0.73297 -0.12941,-0.17591 -0.57307,-0.61569 -0.64702,-0.65966 -0.074,-0.0439 -0.48064,-0.38114 -0.62853,-0.38114 -0.14789,0 -0.55459,0 -0.70248,0 -0.14789,0 -0.81339,0.29319 -0.96128,0.3958 -0.14789,0.10264 -1.12766,0.83558 -1.18312,0.93819 -0.0554,0.10264 -0.0554,0.4691 -0.0554,0.4691 z"
       id="path27520" /><path
       style="fill:#ffffff;stroke:none;stroke-width:0.659188px;stroke-linecap:butt;stroke-linejoin:miter;stroke-opacity:1"
       d="m 54.75233,155.46988 c 0.0185,0.10264 1.18311,2.55071 1.27555,2.5947 0.0924,0.0439 1.05371,0.11726 1.27555,0.11726 0.22183,0 0.90582,0.0147 1.05371,-0.26386 0.14789,-0.27852 0.64702,-1.334 0.70248,-1.43662 0.0554,-0.10264 0.16637,-1.02614 0.16637,-1.09943 0,-0.0733 0.074,-0.11728 -0.49912,-0.14659 -0.57307,-0.0293 -4.06697,-0.0293 -4.06697,-0.0293 z"
       id="path27522" /><path
       style="fill:#ffffff;stroke:none;stroke-width:0.659188px;stroke-linecap:butt;stroke-linejoin:miter;stroke-opacity:1"
       d="m 55.51027,153.69611 c -0.0924,0.17592 -0.074,1.21673 -0.074,1.21673 l -0.90582,0.54238 -0.88735,-0.23455 -0.73944,-0.19057 2.58807,-1.5099 z"
       id="path27524" /><path
       style="fill:#ffffff;stroke:none;stroke-width:0.659188px;stroke-linecap:butt;stroke-linejoin:miter;stroke-opacity:1"
       d="m 55.80604,155.05943 0.8134,-1.61251 c 0,0 1.58981,-0.0733 1.62678,-0.0147 0.0369,0.0586 0.35124,1.53922 0.35124,1.53922 z"
       id="path27526" /><path
       style="fill:#ffffff;stroke:none;stroke-width:0.659188px;stroke-linecap:butt;stroke-linejoin:miter;stroke-opacity:1"
       d="m 58.43109,153.21235 c 0,0.088 0.64702,1.93504 0.64702,1.93504 l 1.23857,0.36647 c 0,0 0.72096,-1.36331 0.66551,-1.46593 -0.0554,-0.10264 -0.35124,-1.04079 -0.51762,-1.07012 -0.16638,-0.0293 -2.03348,0.23454 -2.03348,0.23454 z"
       id="path27528" /><path
       style="fill:#ffffff;stroke:none;stroke-width:0.659188px;stroke-linecap:butt;stroke-linejoin:miter;stroke-opacity:1"
       d="m 58.94238,152.10083 2.98036,0.51828 c 0,0 0.99345,-0.22804 0.6013,-0.62194 -0.39216,-0.39389 -1.64704,-1.24388 -1.64704,-1.24388 l -1.09802,0.1244 -0.8366,1.11948 v 0.0414 z"
       id="path27530" /><path
       style="fill:#ffffff;stroke:none;stroke-width:0.659188px;stroke-linecap:butt;stroke-linejoin:miter;stroke-opacity:1"
       d="m 46.6811,163.7311 c 0.67973,-0.0414 5.33326,-0.47682 5.35941,-0.20731 0.0261,0.26949 0.15686,2.23897 0.15686,2.23897 0,0 -0.20915,0.6634 -0.73202,0.55974 -0.52287,-0.10368 -2.77121,-0.2695 -3.0065,-0.2695 -0.23529,0 -0.54901,0.2695 -0.81045,0 -0.26143,-0.2695 -0.52287,-0.80852 -0.67972,-0.97438 -0.15687,-0.16584 -0.88889,-0.47681 -0.78431,-0.78778 0.10457,-0.31097 0.49673,-0.55974 0.49673,-0.55974 z"
       id="path27532" /><path
       style="fill:#ffffff;stroke:none;stroke-width:0.659188px;stroke-linecap:butt;stroke-linejoin:miter;stroke-opacity:1"
       d="m 36.35853,169.99719 c 0.62853,-0.0586 4.95432,-0.90887 5.17615,-0.70363 0.22183,0.20522 0.4067,0.64499 0.4067,0.76227 0,0.11728 -1.81166,1.55388 -1.81166,1.55388 0,0 -2.10743,1.1141 -2.51413,1.17274 -0.40669,0.0586 -1.95953,0.0292 -2.36623,0.088 -0.4067,0.0586 -1.4789,0.20524 -1.4789,0.20524 0,0 -0.2588,-0.49842 -0.2588,-0.64501 0,-0.1466 -0.1479,-0.26386 0.18486,-0.73296 0.33275,-0.4691 0.92431,-0.93819 1.0722,-1.14342 0.14789,-0.20524 0.59156,-0.49842 0.59156,-0.49842 z"
       id="path27534" /><path
       style="fill:#ffffff;stroke:none;stroke-width:0.659188px;stroke-linecap:butt;stroke-linejoin:miter;stroke-opacity:1"
       d="m 41.34981,168.47263 c 0,0 0.70248,-0.70363 0.99826,-0.73296 0.29578,-0.0293 1.73771,0 1.99651,-0.11727 0.25881,-0.11728 0.51762,-0.23455 0.99826,-0.29318 0.48064,-0.0586 1.77468,-0.23455 1.77468,-0.23455 l 0.96128,0.58637 c 0,0 -0.77642,0.23455 -1.03523,0.46909 -0.2588,0.23454 -2.03348,1.46592 -2.03348,1.46592 0,0 -0.70248,0.26388 -0.99825,0.26388 -0.29579,0 -1.14615,-0.14659 -1.40496,-0.20524 -0.25881,-0.0586 -1.25707,-1.20206 -1.25707,-1.20206 z"
       id="path27536" /><path
       style="fill:#ffffff;stroke:none;stroke-width:0.659188px;stroke-linecap:butt;stroke-linejoin:miter;stroke-opacity:1"
       d="m 30.29505,176.6525 c 0,0 2.80991,-2.96118 3.10569,-2.99049 0.29578,-0.0293 4.58459,0.088 4.73247,0.0586 0.14789,-0.0294 0.66551,0.64499 -0.11092,0.99681 -0.77642,0.35183 -5.54586,1.70048 -6.10045,1.75912 -0.55459,0.0586 -1.62679,0.17592 -1.62679,0.17592 z"
       id="path27538" /><path
       style="fill:#ffffff;stroke:none;stroke-width:0.659188px;stroke-linecap:butt;stroke-linejoin:miter;stroke-opacity:1"
       d="m 39.39027,172.51858 c 0,0.11728 1.03523,0.58637 1.03523,0.58637 l 9.28009,-4.13391 0.22184,-1.17274 -1.40496,0.0586 -3.10569,1.64184 c 0,0 -1.0722,0.82092 -1.29403,0.85024 -0.22183,0.0294 -1.81165,-0.49842 -1.81165,-0.49842 0,0 -0.59156,0.64501 -0.66551,0.82092 -0.074,0.17592 -2.4032,1.67115 -2.4032,1.67115 z"
       id="path27540" /><path
       style="fill:#ffffff;stroke:none;stroke-width:0.659188px;stroke-linecap:butt;stroke-linejoin:miter;stroke-opacity:1"
       d="m 48.92943,161.74089 c 0,0 1.88233,1.20241 2.09148,1.20241 0.20915,0 1.35946,0 1.6209,0 0.26143,0 1.88233,-0.083 1.93461,-0.41463 0.0523,-0.3317 -2.03919,-1.82435 -2.03919,-1.82435 l -0.67972,-0.16585 -3.13722,0.91218 z"
       id="path27542" /><path
       style="fill:#ffffff;stroke:none;stroke-width:0.659188px;stroke-linecap:butt;stroke-linejoin:miter;stroke-opacity:1"
       d="m 52.17122,158.71412 c 0,0.20732 0.67973,1.53411 0.67973,1.53411 l 1.72547,0.62195 c 0,0 0.57516,-0.29025 0.99345,-0.66341 0.4183,-0.37316 0.73203,-0.70486 0.73203,-0.9951 0,-0.29023 0.366,-0.49755 -0.10458,-0.58047 -0.47058,-0.083 -2.8235,-0.16586 -2.8235,-0.16586 l -1.56861,0.41463 z"
       id="path27544" /><path
       style="fill:#224254;fill-opacity:1;stroke:none;stroke-width:0.659188px;stroke-linecap:butt;stroke-linejoin:miter;stroke-opacity:1"
       d="m 11.91975,176.94568 c 0,0 -1.25707,-0.41047 -0.66551,-0.93819 0.59156,-0.52773 0.81339,-0.70365 1.10918,-0.9382 0.29578,-0.23455 1.77468,-0.82092 1.77468,-0.82092 0,0 1.40494,-0.23454 2.14439,-0.23454 0.73946,0 1.84863,0.17591 1.84863,0.17591 v 1.05547 h -1.70073 c 0,0 -0.29579,0.11727 -0.96129,0.645 -0.66551,0.52774 -2.8099,1.52456 -2.8099,1.52456 z"
       id="path28574" /><path
       style="fill:#95c0cb;fill-opacity:1;stroke:none;stroke-width:0.659188px;stroke-linecap:butt;stroke-linejoin:miter;stroke-opacity:1"
       d="m 38.47205,158.54828 c 0.62744,-0.33171 5.75156,-7.29743 5.96071,-7.13157 0.20915,0.16584 0.83659,4.27064 0.83659,4.27064 z"
       id="path31201" /><path
       style="fill:#8fb1b7;fill-opacity:1;stroke:none;stroke-width:0.659188px;stroke-linecap:butt;stroke-linejoin:miter;stroke-opacity:1"
       d="m 53.25495,136.13434 3.6233,1.34865 1.77467,2.0523 c 0,0 0.8134,2.75593 0.8134,3.16639 0,0.41046 1.47889,5.62914 1.47889,5.62914 l 1.70074,0.0586 v -0.93818 c 0,0 -0.73945,-4.04595 -0.8134,-4.28051 -0.074,-0.23454 -2.07045,-3.75276 -2.07045,-3.98731 0,-0.23455 -1.40496,-2.28684 -1.40496,-2.28684 l -3.6233,-1.34864 -1.70073,-0.0586 z"
       id="path31203" /><path
       style="fill:#8fb1b7;fill-opacity:1;stroke:none;stroke-width:0.659188px;stroke-linecap:butt;stroke-linejoin:miter;stroke-opacity:1"
       d="m 57.91348,131.03292 3.40146,2.87321 c 0,0 1.4789,1.93503 1.55284,2.16957 0.074,0.23455 2.07046,5.04278 2.07046,5.04278 l 0.81339,2.40411 h 1.18312 v -1.23137 l -0.6655,-2.58003 -1.99652,-3.34231 -1.03523,-2.6973 -2.29229,-1.93502 -2.36624,-1.46592 z"
       id="path31205" /><path
       style="fill:#8fb1b7;fill-opacity:1;stroke:none;stroke-width:0.659188px;stroke-linecap:butt;stroke-linejoin:miter;stroke-opacity:1"
       d="m 61.01916,124.23104 4.73247,4.63232 1.18312,1.87637 1.84862,4.39777 0.44368,4.1046 -0.96129,-0.0586 -0.074,-1.46593 -1.40496,-3.40094 -0.59156,-2.99049 -1.03523,-1.70047 -2.66201,-2.6973 -1.62679,-1.7591 -0.6655,-0.52774 z"
       id="path31207" /></g></svg>
