<?xml version="1.0" encoding="UTF-8"?>
<svg id="svg4444" xmlns="http://www.w3.org/2000/svg" width="226.95" height="226.69" viewBox="0 0 226.95 226.69">
  <defs>
    <style>
      .cls-1 {
        fill: #fbeb60;
      }

      .cls-1, .cls-2, .cls-3, .cls-4, .cls-5 {
        stroke-width: 0px;
      }

      .cls-2 {
        fill: #79130f;
      }

      .cls-3 {
        fill: #fbfcf8;
      }

      .cls-4 {
        fill: #de221a;
      }

      .cls-5 {
        fill: #f9754a;
      }
    </style>
  </defs>
  <g id="layer24">
    <ellipse id="path2453" class="cls-5" cx="113.47" cy="113.34" rx="113.47" ry="113.34"/>
  </g>
  <g id="layer25">
    <path id="path3959" class="cls-4" d="m112.88,20.12l-13.51,22.31-15.1,24.7-13.51,24.7-12.12,26.09-4.17,13.74-.4,10.56.99,7.17,2.78,8.76,5.37,12.15,4.97,6.77,14.51,11.55,10.73,4.18s13.12,2.19,13.81,2.19,8.45.6,9.44.6,14.9-2.79,14.9-2.79l15.1-6.87s9.04-8.57,9.44-8.96c.4-.4,7.55-10.66,7.95-11.25.4-.6,3.48-8.07,3.48-8.07l2.38-8.86.7-8.27-.3-8.07-1.09-6.47-6.86-17.93-5.66-11.65-7.45-14.64-16-27.99-13.41-21.21-6.96-12.45Z"/>
    <path id="path9593-7" class="cls-1" d="m47.69,186.55l.72,3.49,1.18-3.8s4.6.75,4.48.45c-.12-.3-2.64-3.85-2.64-3.85l4.24-.66s-3.58-1.74-3.32-1.93c.26-.18,4.39-5.18,4.39-5.18l-6.44,4.05-.92-4.59-1.96,4.14-3.84-1.2,2.01,3.51-4.4,1.39,4.26,1.38-2.47,4.46,4.69-1.66Z"/>
    <path id="path9593-81" class="cls-1" d="m26.54,157.03l-2.83-2.16,3.93.57s1.31-4.48,1.53-4.25c.21.24,2.33,4.05,2.33,4.05l2.42-3.55s.02,3.99.3,3.83c.28-.16,6.56-1.73,6.56-1.73l-6.43,4.07,3.73,2.81-4.57-.02-.58,3.99-2.29-3.34-3.15,3.38.6-4.44-5.08.3,3.52-3.52Z"/>
    <path id="path9593-61" class="cls-1" d="m19.4,133.09l-1.61,3.18,3.3-2.23s3.12,3.47,3.21,3.16c.09-.31.34-4.66.34-4.66l3.72,2.14s-1.7-3.6-1.39-3.58c.32.02,6.66-1.29,6.66-1.29l-7.55-.87,2.15-4.15-4.11,2.01-2.25-3.34-.62,4-4.3-1.68,2.46,3.74-4.71,1.93,4.7,1.64Z"/>
    <path id="path9593-63" class="cls-1" d="m18.92,104.17l-1.95,2.98,3.52-1.85s2.72,3.79,2.84,3.5c.12-.29.86-4.6.86-4.6l3.46,2.54s-1.3-3.77-.98-3.71c.31.06,6.76-.55,6.76-.55l-7.41-1.7,2.59-3.89-4.31,1.54-1.87-3.57-1.05,3.91-4.09-2.14,2.04,3.99-4.89,1.4,4.49,2.15Z"/>
    <path id="path9593-25" class="cls-1" d="m73.24,203.33l1.95,2.98-.28-3.97s4.55-.98,4.34-1.21c-.22-.23-3.86-2.62-3.86-2.62l3.71-2.16s-3.97-.32-3.79-.58c.18-.26,2.2-6.43,2.2-6.43l-4.52,6.13-2.52-3.94-.31,4.57-4.01.29,3.15,2.53-3.6,2.9,4.46-.28-.67,5.05,3.76-3.27Z"/>
    <path id="path9593-9" class="cls-1" d="m104.99,211.98l3,1.92-1.89-3.51s3.75-2.77,3.46-2.89c-.29-.12-4.59-.8-4.59-.8l2.49-3.5s-3.74,1.34-3.69,1.03c.05-.31-.63-6.77-.63-6.77l-1.61,7.45-3.91-2.55,1.59,4.3-3.54,1.92,3.91,1.01-2.09,4.13,3.96-2.09,1.46,4.89,2.09-4.53Z"/>
    <path id="path9593-11" class="cls-1" d="m133.63,209.47l3.35,1.21-2.61-3s3.05-3.53,2.73-3.58c-.31-.05-4.66.23-4.66.23l1.66-3.96s-3.36,2.14-3.37,1.82c-.02-.32-2.1-6.47-2.1-6.47l.07,7.62-4.38-1.62,2.49,3.84-3.03,2.65,4.04.12-1.13,4.49,3.4-2.91,2.5,4.44,1.05-4.88Z"/>
    <path id="path9593-27" class="cls-1" d="m155.28,26.41l-2.1-2.88.49,3.95s-4.5,1.22-4.26,1.44c.23.22,3.99,2.41,3.99,2.41l-3.59,2.36s3.98.1,3.81.38c-.16.27-1.86,6.54-1.86,6.54l4.19-6.36,2.73,3.8.07-4.58,3.99-.5-3.28-2.36,3.44-3.09-4.44.51.4-5.08-3.59,3.46Z"/>
    <path id="path9593-5" class="cls-1" d="m181.21,44.4l-.75-3.49-1.16,3.81s-4.6-.72-4.48-.43c.12.29,2.66,3.84,2.66,3.84l-4.23.68s3.59,1.72,3.33,1.91c-.26.18-4.36,5.21-4.36,5.21l6.42-4.09.95,4.58,1.93-4.16,3.85,1.18-2.04-3.5,4.4-1.41-4.27-1.35,2.44-4.47-4.68,1.69Z"/>
    <path id="path9593-0" class="cls-1" d="m198.53,67.5l.18-3.56-2.1,3.38s-4.26-1.89-4.22-1.57c.04.32,1.58,4.4,1.58,4.4l-4.27-.44s3.02,2.59,2.72,2.7c-.3.11-5.55,3.91-5.55,3.91l7.25-2.29-.27,4.67,2.94-3.52,3.42,2.13-1.07-3.91,4.61-.23-3.77-2.41,3.51-3.69-4.96.42Z"/>
    <path id="path9593-6" class="cls-1" d="m209.47,94.99l1.06-3.4-2.88,2.75s-3.65-2.9-3.69-2.58c-.04.32.44,4.65.44,4.65l-4.02-1.49s2.28,3.27,1.96,3.3c-.32.03-6.35,2.39-6.35,2.39l7.59-.4-1.42,4.46,3.72-2.67,2.78,2.92-.06-4.05,4.52.93-3.05-3.28,4.32-2.7-4.91-.83Z"/>
    <path id="path9593-8" class="cls-1" d="m210.93,124.49l2.02-2.93-3.56,1.76s-2.63-3.86-2.76-3.56c-.13.29-.97,4.57-.97,4.57l-3.4-2.62s1.21,3.8.89,3.73c-.31-.06-6.77.39-6.77.39l7.37,1.88-2.68,3.83,4.34-1.44,1.78,3.62,1.15-3.88,4.04,2.24-1.94-4.04,4.92-1.28-4.44-2.26Z"/>
    <path id="path9593-89" class="cls-1" d="m202.67,154.51l2.96-1.97-3.96.31s-1.01-4.56-1.24-4.34c-.23.22-2.59,3.89-2.59,3.89l-2.18-3.7s-.29,3.98-.55,3.8c-.27-.18-6.43-2.17-6.43-2.17l6.14,4.49-3.91,2.55,4.57.29.31,4.02,2.51-3.18,2.92,3.59-.3-4.47,5.05.64-3.28-3.75Z"/>
    <path id="path9593-20" class="cls-1" d="m188.39,181.43l3.41-1.01-3.88-.87s.37-4.65.09-4.51c-.28.14-3.62,2.95-3.62,2.95l-1-4.18s-1.44,3.72-1.65,3.47-5.51-3.97-5.51-3.97l4.55,6.1-4.49,1.29,4.28,1.62-.88,3.94,3.33-2.3,1.74,4.29,1.02-4.36,4.64,2.1-2.04-4.55Z"/>
    <path id="path9593-02" class="cls-1" d="m164.32,199.97l3.55.14-3.4-2.07s1.84-4.29,1.52-4.25c-.31.04-4.37,1.63-4.37,1.63l.39-4.28s-2.55,3.06-2.67,2.76c-.11-.3-3.95-5.53-3.95-5.53l2.36,7.24-4.66-.22,3.54,2.91-2.09,3.45,3.89-1.11.28,4.62,2.36-3.81,3.72,3.48-.47-4.97Z"/>
    <path id="path9593-1" class="cls-1" d="m126.58,18.81l-2.71-2.31,1.4,3.73s-4.09,2.24-3.81,2.4c.28.16,4.44,1.41,4.44,1.41l-2.94,3.13s3.89-.83,3.8-.52c-.09.3-.28,6.79-.28,6.79l2.59-7.16,3.54,3.05-1-4.47,3.77-1.42-3.74-1.53,2.62-3.81-4.2,1.54-.79-5.04-2.68,4.2Z"/>
    <path id="path9593-2" class="cls-1" d="m68.78,28.73l-3.53-.46,3.19,2.37s-2.22,4.1-1.9,4.09c.32-.02,4.5-1.23,4.5-1.23l-.78,4.23s2.82-2.81,2.91-2.5c.08.31,3.43,5.87,3.43,5.87l-1.69-7.43,4.62.64-3.26-3.22,2.4-3.24-3.97.75.15-4.62-2.7,3.57-3.39-3.8.02,4.99Z"/>
    <path id="path9593-38" class="cls-1" d="m99.44,18.19l-3.22-1.51,2.33,3.23s-3.36,3.24-3.05,3.32c.31.08,4.66.19,4.66.19l-2.02,3.79s3.54-1.82,3.53-1.5c-.01.32,1.5,6.63,1.5,6.63l.63-7.6,4.21,2.01-2.13-4.06,3.26-2.36-4.01-.49,1.53-4.36-3.65,2.59-2.08-4.65-1.49,4.76Z"/>
    <path id="path9593-3" class="cls-1" d="m43.06,51.11l-3.38,1.12,3.91.74s-.22,4.66.06,4.51c.28-.15,3.52-3.07,3.52-3.07l1.14,4.15s1.32-3.76,1.53-3.52c.21.24,5.64,3.78,5.64,3.78l-4.75-5.95,4.44-1.44-4.33-1.47.75-3.96-3.25,2.41-1.88-4.23-.88,4.4-4.7-1.95,2.19,4.48Z"/>
  </g>
  <g id="layer1">
    <path id="path23070" class="cls-2" d="m77.95,137.05c0,.85-1.12,8.31-.98,9.72.14,1.41,1.12,9.16,1.12,9.16,0,0,2.81,3.52,4.08,4.79s3.23,3.1,4.78,4.08c1.55.99,8.15,4.93,8.85,5.07.7.14,5.48,1.41,6.46,1.69.98.28,7.59,2.54,8.57,2.54s7.31-1.83,8.43-2.11c1.12-.28,5.9-.14,7.59-1.55,1.69-1.41,4.64-3.66,6.04-4.08s6.46-2.39,7.31-4.51c.84-2.11,2.95-8.31,2.95-8.31,0,0,.84-10.14.56-11.69-.28-1.55-1.12-5.21-1.41-7.61s-2.39-8.03-3.79-10c-1.41-1.97-4.08-6.9-4.5-7.47-.42-.56-7.59-11.13-7.59-11.13,0,0-2.95-4.37-3.23-5.07-.28-.7-2.95-6.2-3.51-7.04-.56-.85-6.18-4.79-6.18-4.79,0,0-2.11,3.24-2.81,4.65-.7,1.41-6.89,7.75-7.87,8.87-.98,1.13-7.31,7.89-8.01,8.87-.7.99-7.17,9.44-8.29,11.55-1.12,2.11-3.37,5.92-4.64,8.17-1.26,2.25-3.93,6.2-3.93,6.2h0Z"/>
  </g>
  <g id="layer26">
    <path id="path7589" class="cls-3" d="m111.09,59.42c0,.56-11.1,44.09-11.1,44.09l-11.73-6.2,4.78,14.16-28.53,10.85,26.07,11.06-16.51,23.03,25.01-13.87,13.07,45.85,10.75-44.65,12.01,5.92-6.04-15.28,29.16-11.27-24.38-10.99,13.42-21.27s-22.2,12.18-22.48,12.18-12.51-45-12.51-45l-.98,1.41Z"/>
    <path id="path9593" class="cls-1" d="m26.73,73.95l-3.13,1.69,3.97.05s.6,4.63.84,4.43c.25-.2,2.93-3.64,2.93-3.64l1.84,3.88s.65-3.93.89-3.73c.25.2,6.21,2.74,6.21,2.74l-5.71-5.03,4.12-2.19-4.52-.7.05-4.03-2.78,2.94-2.58-3.83-.1,4.48-4.97-1.1,2.93,4.03Z"/>
  </g>
</svg>