<?xml version="1.0" encoding="UTF-8"?>
<svg id="svg4444" xmlns="http://www.w3.org/2000/svg" width="225.04" height="213.64" viewBox="0 0 225.04 213.64">
  <defs>
    <style>
      .cls-1 {
        fill: #e12e34;
      }

      .cls-1, .cls-2, .cls-3, .cls-4, .cls-5, .cls-6, .cls-7, .cls-8, .cls-9 {
        stroke-width: 0px;
      }

      .cls-2 {
        fill: #f7a327;
      }

      .cls-3 {
        fill: #f8a027;
      }

      .cls-4 {
        fill: #95cde1;
      }

      .cls-5 {
        fill: #765f5a;
      }

      .cls-6 {
        fill: #a2cce0;
      }

      .cls-7 {
        fill: #f2e749;
      }

      .cls-8 {
        fill: #4462a3;
      }

      .cls-9 {
        fill: #010204;
      }
    </style>
  </defs>
  <g id="layer7">
    <path id="path109366" class="cls-1" d="m103.09,213.47c-13.27-.94-28.26-4.72-40.34-10.18-11.94-5.4-21.4-11.65-30.79-20.35-12.57-11.65-20.9-24.02-26.5-39.34-2.28-6.23-3.45-10.7-4.65-17.69C.11,121.83,0,120.01,0,111.59c0-10.32.28-13.13,2.15-21.19,7.01-30.27,29.07-56.25,59.52-70.13,12.6-5.74,24.46-8.94,38.95-10.5,5.48-.59,19.33-.5,24.94.16,19.77,2.33,36.94,8.38,52.53,18.53,8.56,5.57,17.93,13.89,24.48,21.72,4.82,5.76,11.22,15.99,14.09,22.49,7.82,17.76,10.17,35.91,7.06,54.55-6.26,37.49-35.78,69.19-75.77,81.34-7.5,2.28-16.78,4.04-25.19,4.78-3.54.31-15.86.38-19.66.12h0Z"/>
  </g>
  <g id="layer11">
    <ellipse id="path109422" class="cls-8" cx="111.93" cy="111.43" rx="104.88" ry="94.39"/>
  </g>
  <g id="layer8">
    <ellipse id="path112513" class="cls-2" cx="144.48" cy="111.27" rx="69.15" ry="64.64"/>
  </g>
  <g id="layer9">
    <path id="path114156" class="cls-9" d="m121.31,99.05s-2.48,1.29-3.18,2.25c-.71.96-1.77,3.7-1.77,3.7,0,0,2.3.8,1.06,1.93-1.24,1.13-3.18,2.57-3.18,2.57l-1.41,3.22-12.56,7.56-15.92,12.38-12.2,11.26-13.09,17.53-15.21,21.39-11.32,10.45-10.61-3.38-11.67-8.2-1.41-1.93,1.77-1.61,13.62-11.42,9.02-16.88,11.32-18.97,19.46-29.75,3.18-14.95-5.31-24.76,1.24-8.04-4.78-16.88,1.24-16.08,6.54-11.74s-1.59,10.45-1.59,11.09,3.89,12.06,3.89,12.06l14.68,22.83s16.27,12.86,17.69,13.83c1.41.96,43.86,24.76,43.86,24.76l31.13,16.24,7.78,11.26s-6.72,11.42-7.78,11.42-15.92-.48-16.98-.8c-1.06-.32-4.95,22.83-4.95,22.83l1.95,7.56,3.54,10.29,4.95,7.24,9.15,8.92-8.31,13.51s-20.47-12.62-21.71-12.78c-1.24-.16-7.07-9-7.07-9l-6.54-15.44-9.73,1.13,1.24-66.57Z"/>
    <path id="path136827" class="cls-5" d="m164.77,201.62s13.94,3.64,14.51,3.41c.56-.23,5-4.95,4.75-5.57-.25-.63,0-7.9,0-7.9,0,0-6.94-2.05-7.19-2.05s-4.63-1.99-4.63-1.99l-8.88,12.17,1.44,1.93Z"/>
  </g>
  <g id="layer10">
    <path id="path120077" class="cls-6" d="m75.68,138.61s-6.37,8.04-7.07,8.04-10.97-2.89-11.67-2.89-5.31-1.45-6.19-2.25c-.88-.8-4.95-3.86-6.37-4.66-1.41-.8-3.36-2.09-5.13-3.7-1.77-1.61-4.07-3.86-5.48-5.47-1.41-1.61-4.95-4.66-5.13-5.63-.18-.96-11.32-11.42-11.32-11.42l14.33,2.41s6.19,4.98,6.9,5.79c.71.8,10.26,10.13,10.26,10.13l7.61,4.66,10.97,3.7,8.31,1.29Z"/>
    <path id="path121720" class="cls-6" d="m20.67,98.57l9.9,7.4,9.55,9.65,15.03,11.58,18.92,7.4s3.71,1.13,4.95.64c1.24-.48,6.54-4.98,6.54-4.98,0,0-8.67-3.06-9.9-3.38s-9.73-3.86-9.73-3.86c0,0-13.62-8.2-14.33-8.2s-7.43-5.47-7.43-5.47l-10.44-7.07-13.09-3.7Z"/>
    <path id="path121722" class="cls-6" d="m19.08,83.29c.88.48,10.61,5.63,10.61,5.63l9.02,6.91,10.08,10.77,7.96,6.75,14.33,8.2,15.21,5.47,4.95.16,3.01-3.54-12.91-7.07-5.13-3.7-9.02-4.02-15.21-12.54-10.08-5.79-7.43-4.02-8.84-2.73-6.54-.48Z"/>
    <path id="path121724" class="cls-6" d="m24.21,73.48l11.5,4.02s9.9,8.68,10.79,9.49c.88.8,13.97,11.26,13.97,11.26l7.61,4.98,17.16,10.77,12.2,6.91,6.19-4.34s-8.84-5.15-9.55-5.79c-.71-.64-11.67-8.68-12.38-9.17-.71-.48-5.13-3.38-5.84-4.18-.71-.8-6.01-6.11-7.78-8.2s-6.9-5.79-6.9-5.79l-6.37-4.18-10.08-4.18s-4.78-1.13-5.84-1.29c-1.06-.16-14.68-.32-14.68-.32Z"/>
    <path id="path121726" class="cls-6" d="m56.04,48.56s1.77,7.4,2.65,8.52c.88,1.13,3.18,5.31,4.24,8.36s6.19,7.88,6.19,7.88l14.15,14.47s12.03,7.88,12.73,8.36c.71.48,18.22,11.42,18.22,11.42l-2.12,4.5-4.42,2.25s-7.25-4.5-8.14-5.15-10.08-7.07-10.08-7.07l-9.55-6.75-8.67-9.49s-3.01-3.86-3.54-4.5c-.53-.64-7.25-11.26-7.25-11.26l-3.89-8.68-.53-12.86Z"/>
    <path id="path121728" class="cls-6" d="m59.23,22.51s2.3,9.49,2.83,10.45c.53.96,7.43,15.28,8.31,16.72s15.56,19.46,16.8,19.78,29.54,22.67,29.54,22.67l5.13,4.98s-.71,1.45-1.41,1.77c-.71.32-3.36,2.25-3.36,2.25,0,0,.35.8-.88.8s-17.69-11.9-17.69-11.9c0,0-5.31-3.86-6.19-4.82-.88-.96-9.55-9-9.55-9,0,0-8.84-7.72-9.37-8.52-.53-.8-8.84-13.51-8.84-13.51l-4.78-7.88-2.3-9.33-.18-9.81,1.95-4.66Z"/>
    <path id="path121730" class="cls-6" d="m76.74,0c-.35.96-2.65,6.11-2.83,7.72s-.35,4.98,0,8.04c.35,3.06,1.06,7.07,2.65,9,1.59,1.93,4.78,9,6.19,10.61,1.41,1.61,9.73,11.74,10.61,12.54.88.8,16.98,12.54,16.98,12.54l15.74,8.36,22.46,11.09,12.91,6.91-10.61,10.29s-2.83-1.29-3.54-2.09c-.71-.8-26.88-12.38-26.88-12.38l-23.17-16.4-15.21-11.9-8.67-11.42-5.31-11.26-2.65-9.81v-6.91l.71-5.79L76.74,0Z"/>
    <path id="path121732" class="cls-4" d="m155.44,69.79l17.86,10.13,14.5,13.99,5.66,9.65,3.71,7.56,2.83,9.49v8.68l-1.06,7.56-1.77,7.07-4.24,7.88-2.43,2.97.04-2.17s-.27-3.5-.27-3.66-.66-2.65-.75-2.89c-.09-.24-.88-2.69-.88-2.69l-.57-2.41s-1.86-1.81-2.08-1.81-2.43-1.17-2.7-1.29c-.27-.12-4.51-1.09-4.51-1.09l-3.49-.2h-8l-6.19.76-8.22,2.25-11.32,6.19-7.16,5.23-9.37,12.14-6.37,9-5.48,15.44s-9.55,3.62-9.9,3.62-30.42,4.26-30.42,4.26l-14.95-.24s-14.15-1.29-15.21-1.29-9.64-1.13-9.64-1.13l1.77-2.41s3.01-2.41,3.89-2.97c.88-.56,9.82-9.73,9.82-9.73l8.84-13.59,9.64-13.43,5.66-6.91s7.16-6.27,7.61-6.67,9.64-8.6,9.64-8.6l11.58-8.2s11.5-6.91,11.85-7.16c.35-.24,1.24-3.22,1.24-3.22l1.5-1.85,2.39-.32s-.35-2.09-.35-2.41.88-5.07,1.33-5.31c.44-.24,1.77-1.29,2.39-.8s6.19,5.87,6.19,5.87c0,0,2.12,2.01,2.56,2.33s5.84,2.89,5.84,2.89l7.78,2.41,7.78,1.29,7.69-.64,7.07.08,4.07.24,3.1.56,2.21,2.41,1.72,2.73.35,1.69v1.77l-.04.96-.44.8s-.4.56-.62.72-1.28.92-1.28.92l-1.41.76-1.9.08-1.68-.16s-1.46-.44-1.64-.52c-.18-.08-.84-.6-.84-.6l-.93-1.17-.49-1.17v-1.25s.27-1,.44-1,1.06-.32,1.06-.32l1.59-.16,1.28.4.88.68.04.68-.13.44-.49.24-.62-.12-.18.44.8.48,1.06-.12.53-.4.75-1-.18-.92s-.4-1.09-.66-1.29c-.27-.2-.57-.44-.88-.52-.31-.08-1.33-.32-1.33-.32l-2.17.2-1.19.56-1.15.88s-.8.88-.84,1.05c-.04.16-.22,1.53-.18,1.89.04.36.4,1.13.57,1.49s.93,1.37,1.15,1.57c.22.2.84.6,1.5.76.66.16,1.95.4,2.56.4s1.46.04,2.17-.12c.71-.16,2.74-.56,2.96-.8.22-.24,1.81-1.29,2.12-1.57.31-.28.88-1.73.97-2.05.09-.32.27-1.77.27-2.37s-.35-1.97-.53-2.29c-.18-.32-1.72-2.73-1.77-2.89-.04-.16-1.72-2.37-1.72-2.37l-3.76-2.85-12.91-8.64-8.94-5.25s.86-1.98,1.47-2.38c.62-.4,1.43-3.09,1.6-3.25.18-.16,10.55-1.25,6.8.08-8.37,2.95-3.06-4.04-3.06-4.04,0,0,5.41-1.73,6.69-1.99,1.26-.25-.18-2.73-.18-3.18s-1.59-3.78-1.86-4.54c-.27-.76-2.52-3.3-2.7-3.5s-2.92-2.41-3.05-2.57c-.13-.16-1.95-1.37-1.95-1.37v-.2l.27-.2,1.37-.08Z"/>
    <path id="path128696" class="cls-4" d="m174.37,138.12l-8.75-.32s-5.48,1.61-5.93,1.61-15.48,5.55-15.48,5.55l-5.93,4.42s-4.07,3.38-4.42,3.7c-.35.32-5.22,5.71-5.22,5.71l-5.93,7.96,19.28-7.07s13.44-5.15,14.95-5.95,9.64-7.07,10.08-7.4c.44-.32,3.54-3.7,4.33-4.34.8-.64,3.01-3.86,3.01-3.86h0Z"/>
    <path id="path128698" class="cls-3" d="m123.68,89.29l6.38,2.84s7.38,4.21,7.82,4.32c.44.11,7,3.52,7.63,3.81.63.28,5.38,2.27,6.07,2.56.69.28,10.63,5.51,10.94,5.63.31.11-.06.91-.63.91s-4.94.11-5.69.17c-.75.06-5.32,0-5.88-.06-.56-.06-6.38-.74-6.38-.74,0,0-4-1.71-4.31-1.82-.31-.11-3.44-1.71-3.94-1.99-.5-.28-3.5-2.05-4.13-2.56s-4.38-4.49-4.38-4.49c0,0-1.88-2.9-2.06-3.41-.19-.51-2.31-5.74-2.31-5.74l.88.57Z"/>
    <path id="path132419" class="cls-4" d="m168.8,185.24l-13.53,10.77,1.77,1.61,6.19,2.97,1.86-.56s3.98-3.62,4.42-4.1c.44-.48,3.8-6.43,3.8-6.43l.71-1.53-3.89-2.25-1.33-.48Z"/>
    <path id="path133456" class="cls-4" d="m183.65,191.67s5.84-.08,6.37-.16c.53-.08,2.3-.96,3.1-1.53s2.12-2.73,2.3-3.14.09-4.34.09-4.34c0,0,1.24-.4-.71-.8-1.95-.4-4.16-.8-4.16-.8l-1.24-1.13s1.77-.8,2.3-.88c.53-.08,6.72,1.45,7.07,1.69.35.24,2.12,1.37,2.39,1.69.27.32,1.86,1.85,2.12,2.25.27.4.62,2.25.8,2.89s-.88,5.63-.97,5.95c-.09.32-1.24,2.49-1.59,3.46-.35.96-2.56,3.62-3.54,3.94s-6.63,2.17-7.34,2.33c-.71.16-3.54,1.77-6.63,1.85-3.1.08-5.04,0-5.04,0l1.15-1.85s1.5-2.09,1.86-2.97c.35-.88,1.15-3.94,1.24-4.74.09-.8.44-3.7.44-3.7h0Z"/>
    <path id="path133458" class="cls-7" d="m134.75,172.69c.35,0,4.07-.72,4.07-.72,0,0,9.2-3.38,9.73-3.7.53-.32,6.72-3.06,6.72-3.06l1.59-.32.62.64s.71.48,0,.88c-.71.4-9.29,4.1-9.29,4.1,0,0-4.07,1.77-4.6,2.01s-5.39,1.37-5.39,1.37l-2.92.64s-1.06.16-1.41.16-.53-.48-.71-.96c-.18-.48.27-.8.27-.8l1.33-.24Z"/>
    <path id="path136757" class="cls-7" d="m141.21,184.43s3.27-.88,4.16-1.37c.88-.48,7.16-3.3,7.96-3.78.8-.48,4.16-3.22,4.86-3.78.71-.56,2.65-1.69,2.65-1.69,0,0,.88-.24.71.08-.18.32-.35.56-.8,1.05-.44.48-4.78,3.78-4.78,3.78,0,0-2.39,1.77-3.18,2.17s-4.42,2.17-5.13,2.49c-.71.32-3.36,1.29-4.24,1.61-.88.32-2.21.72-2.21.72l-.88-.32-.53-.72,1.41-.24Z"/>
    <path id="path136759" class="cls-7" d="m151.82,195.21s.97-1.77,1.33-1.93c.35-.16,4.51-2.89,4.95-3.06.44-.16,4.42-3.86,5.13-4.18.71-.32,2.39-2.33,2.39-2.33l1.77-.88s1.24-.4,1.5-.08c.27.32-1.33,2.81-1.95,3.22s-4.07,3.78-4.07,3.78c0,0-6.81,4.98-7.16,5.23-.35.24-2.92,1.29-2.92,1.29l-.97-1.05Z"/>
    <path id="path136761" class="cls-7" d="m174.55,189.42l1.24.24s-.27,1.45-.53,1.77c-.27.32-1.95,3.78-1.95,3.78,0,0-2.12,2.97-2.65,3.38-.53.4-1.86,2.09-1.86,2.09l-1.24.8s-.62-.72-.35-1.13c.27-.4,1.15-2.41,1.15-2.41,0,0,3.1-3.22,3.36-3.62s2.12-3.46,2.12-3.46l.71-1.45Z"/>
    <path id="path136761-1" class="cls-7" d="m179.23,191.1l1.25.17s-.16,1.46-.41,1.8c-.24.34-1.68,3.88-1.68,3.88,0,0-1.91,3.09-2.41,3.52s-1.71,2.19-1.71,2.19l-1.18.87s-.67-.69-.43-1.1c.24-.42.98-2.47.98-2.47,0,0,2.86-3.39,3.1-3.81.24-.42,1.88-3.57,1.88-3.57l.6-1.49Z"/>
    <path id="path136761-3" class="cls-7" d="m177.01,190.46l1.24.24s-.27,1.45-.53,1.77c-.27.32-1.95,3.78-1.95,3.78,0,0-2.12,2.97-2.65,3.38-.53.4-1.86,2.09-1.86,2.09l-1.24.8s-.62-.72-.35-1.13c.27-.4,1.15-2.41,1.15-2.41,0,0,3.1-3.22,3.36-3.62.27-.4,2.12-3.46,2.12-3.46l.71-1.45Z"/>
    <path id="path136761-30" class="cls-7" d="m181.61,191.58l1.27.04s.02,1.47-.17,1.83c-.2.36-1.17,4.03-1.17,4.03,0,0-1.5,3.27-1.94,3.75-.44.48-1.41,2.36-1.41,2.36l-1.06.99s-.75-.61-.57-1.05c.18-.44.65-2.56.65-2.56,0,0,2.41-3.67,2.59-4.11.18-.44,1.41-3.75,1.41-3.75l.41-1.54Z"/>
  </g>
</svg>