<?xml version="1.0" encoding="UTF-8"?>
<svg id="svg4444" xmlns="http://www.w3.org/2000/svg" width="135.89" height="250.39" viewBox="0 0 135.89 250.39">
  <defs>
    <style>
      .cls-1 {
        fill: red;
      }

      .cls-1, .cls-2 {
        stroke: #000;
        stroke-linejoin: bevel;
        stroke-width: .38px;
      }

      .cls-2 {
        fill: #3771c8;
      }
    </style>
  </defs>
  <g id="layer3">
    <path id="path5154" class="cls-2" d="m1.55,86.92l21.84,27.73-1.3,2.6v5.07l-.47,6.37.47,8.61,1.42,7.67,4.13,11.68,7.32,12.51,6.37,6.25-5.19-2.12-6.49-4.96-8.62-10.27-8.38-13.1-4.84-10.86-5.08-17.82-1.77-16.4-.24-13.1.83.12Z"/>
    <path id="path5156" class="cls-2" d="m.72,81.61l4.25-22.78,6.85-18.06,7.44-12.51h1.42l17.12,56.41-1.53,1.18-6.26,8.85-2.6,7.08-1.06,1.65L.13,82.2l.59-.59Z"/>
    <path id="path5158" class="cls-2" d="m22.68,22.84l13.46-12.27,11.45-6.96s9.92-2.12,10.39-2.24,5.55-1.18,5.55-1.18l-1.42,71.04-5.43.59-2.36,1.06-3.19,1.77-3.42,1.65-.71.24L22.68,22.84Z"/>
    <path id="path5154-4" class="cls-2" d="m134.35,87.04l-21.84,27.73,1.3,2.6v5.07l.47,6.37-.35,8.5-1.42,7.67-4.13,11.68-7.32,12.51-6.37,6.25,5.19-2.12,6.49-4.96,8.62-10.27,8.15-13.1,4.84-10.86,5.08-17.82,1.77-16.4.24-13.1-.71.24Z"/>
    <path id="path5156-3" class="cls-2" d="m135.18,81.73l-4.25-22.78-6.85-18.06-7.44-12.51h-1.3l-17.12,56.41,1.53,1.18,6.26,8.85,2.6,7.08,1.06,1.65,26.09-21.36-.59-.47Z"/>
    <path id="path5158-3" class="cls-2" d="m113.22,22.96l-13.46-12.27-11.45-6.96s-9.92-2.12-10.39-2.24c-.47-.12-5.55-1.18-5.55-1.18l1.53,71.04,5.43.59,2.36,1.06,3.19,1.77,3.42,1.65.71.24,24.2-53.69Z"/>
    <path id="path5203" class="cls-1" d="m37.91,128.23l19.24-4.25-10.27-17.7,15.82,10.03,5.78-18.17,5.19,18.53,16.41-9.32-8.5,15.93,16.88,5.78-17.23,4.96s10.86,17.23,10.03,17.23-15.11-8.85-15.11-8.85l-.83,2.24-1.3,32.57.47,21.48-.59,25.84-.47,24.19v1.65l-2.24-16.29-2.72-58.53-3.42,37.29-.83-9.2-.83-39.65-.35-22.3-1.18.35-14.64,9.09,10.03-16.76-19.36-6.14Z"/>
  </g>
</svg>