<?xml version="1.0" encoding="UTF-8"?>
<svg id="svg4444" xmlns="http://www.w3.org/2000/svg" width="160.82" height="167.41" viewBox="0 0 160.82 167.41">
  <defs>
    <style>
      .cls-1, .cls-2 {
        stroke-width: 0px;
      }

      .cls-2 {
        fill: #fff;
      }
    </style>
  </defs>
  <path id="path502" class="cls-2" d="m50.51,50.26s-.77,0-1.19-.7c-.43-.7-2.21-4.53-2.21-4.53,0,0-1.02-1.05-1.02-1.66s-.17-10.8-.17-10.8l.34-8.62s1.62-4.53,2.21-5.66c.6-1.13,3.74-5.75,4.85-6.62,1.11-.87,6.46-5.92,6.81-6.01.34-.09,4.59-3.05,5.27-3.31.68-.26,3.23-.96,4.25-1.13,1.02-.17,5.36-.87,5.36-.87l13.87-.35s5.7,1.13,5.87,1.48c.17.35,4.76,2.7,5.1,2.79.34.09,6.12,4.18,6.38,4.53s5.78,7.32,5.78,7.32l2.13,5.84s1.28,5.84,1.28,6.53-.17,7.06-.09,8.01c.09.96.09,6.1-.09,6.62-.17.52-1.45,2.96-1.45,3.4s-2.04,2.26-2.47,2.44c-.43.17-1.7.35-1.7.35l.17-5.23s-.17-4.36-.34-4.7-1.19-.78-1.19-.78c0,0-1.62,2.79-1.45,3.4.17.61-.09,3.66-.17,4.7-.09,1.05-.6,5.31-.51,5.66.09.35.51.78,1.11,1.13.6.35,3.06.61,3.66.87.6.26,2.3,1.92,2.3,1.92,0,0,.09,1.39.09,2s-.09,1.92-.43,2.26c-.34.35-2.98,2.44-3.32,2.79-.34.35-4,2.61-5.02,3.14-1.02.52-3.74,1.39-4.59,2.26-.85.87-4.25,4.44-4.25,4.44,0,0-2.13,2.53-3.49,2.79s-4,.52-4.68.44-10.21.17-11.06.17-4.59-.35-4.93-.35-1.79-1.13-2.72-1.31-3.15-1.74-3.15-1.74c0,0-.77-2-1.19-2.53-.43-.52-.77-1.57-2.47-2.09s-5.95-2.35-5.95-2.35l-6.72-3.31s-2.04-1.92-2.04-2.61-.51-3.57-.09-4.01c.43-.44,2.81-1.92,2.81-1.92l2.55-2.09.43-6.18s-.17-7.32-.09-7.93c.09-.61,1.11-5.4,1.11-5.4l2.55-6.18,2.55-6.45.77-2.7-.43-.96s-1.11.87-1.45,1.31c-.34.44-2.89,4.01-3.15,4.53-.26.52-3.15,6.27-3.15,6.27l-1.11,5.14-.09,15.07v1.48Z"/>
  <path id="path558" class="cls-2" d="m57.49,72.04s1.62,1.39,1.96,1.39,4,3.57,4,3.57l1.53,4.97.68,4.27s1.11,3.83,1.45,4.36c.34.52,1.96,2.61,2.72,3.05.77.44,3.57,1.13,4.42,1.22.85.09,5.27.61,5.27.61l7.4-.26s3.4-1.31,3.83-1.66c.43-.35,2.13-1.83,2.13-1.83,0,0,1.19-2.87,1.36-3.31.17-.44.77-2.35.94-3.75.17-1.39-.09-2.09.43-3.83.51-1.74,1.02-3.31,1.36-3.83.34-.52.68-1.83,1.53-2.18s3.15-1.83,3.49-1.92c.34-.09,1.11-.09,1.11-.09,0,0,.43,4.09.26,4.79-.17.7-.17,8.54-.17,8.54,0,0-.43,3.4-.77,3.92-.34.52-1.19,2.61-1.53,3.14-.34.52-3.57,4.01-3.83,4.44-.26.44-3.91,4.62-4.17,4.97-.26.35-.17,1.22-1.36,1.31-1.19.09-2.64.78-4.42.87-1.79.09-5.44.87-6.55.52-1.11-.35-6.98-.09-8.42-.35-1.45-.26-4.59-1.92-4.93-2.35-.34-.44-1.02-2.44-2.81-3.66-1.79-1.22-3.49-3.4-3.83-4.7-.34-1.31-1.87-4.01-1.87-4.01l-1.19-4.44s-.68-8.8-.68-9.15.17-4.01.17-4.01l.51-.61Z"/>
  <path id="path560" class="cls-2" d="m70.93,77.97c-.34-.09-1.11.7-1.11.7,0,0-1.19,2.7-.85,3.14.34.44.77,1.39,1.79,1.31s1.62-.87,1.62-1.74-.43-2.09-.43-2.09l-1.02-1.31Z"/>
  <path id="path562" class="cls-2" d="m75.35,77.62s-.85,1.74-.77,2.09c.09.35,0,3.22,0,3.22l2.3.52s-.43-2.09-.43-2.87v-1.83l-1.11-1.13Z"/>
  <path id="path564" class="cls-2" d="m79.52,78.14l-.94,2.87.6,1.92s.51,0,1.28.09c.77.09.85-.35.85-.35,0,0-.09-1.22,0-2.26.08-1.05.17-1.13-.26-1.57-.43-.44-2.3-.52-2.3-.52l.77-.17Z"/>
  <path id="path566" class="cls-2" d="m84.54,78.23s-1.53,1.57-1.53,2.35.43,1.13.51,1.74c.09.61,1.45.44,1.96.26.51-.17.68-2.26.68-2.26l-1.62-2.09Z"/>
  <path id="path568" class="cls-2" d="m89.05,77.97c-1.11.7-1.96,2.61-1.79,2.96.17.35.34,1.83,1.36,1.83s1.19.52,1.79-.35c.6-.87.77-.26.6-1.39-.17-1.13-.51-1.13-.85-1.57s-.77-1.31-1.11-1.48Z"/>
  <path id="path570" class="cls-2" d="m88.54,89.29l-2.47-.17-.34,2.26s-.94.7.26,1.05c1.19.35,1.28,1.22,1.53.35.26-.87.6-1.92.77-2.26s.26-1.22.26-1.22Z"/>
  <path id="path572" class="cls-2" d="m82.33,89.64c-.43,0-2.89-.35-2.89-.35,0,0-1.36,1.22-1.36,1.74s.68,2.87.68,2.87c0,0-1.53,1.22.43.44,1.96-.78,2.55-1.31,2.55-1.31l-.26-3.14.85-.26Z"/>
  <path id="path574" class="cls-2" d="m76.03,89.38s.51.52.85,1.66c.34,1.13-.26,2-.26,2,0,0,.08.17-.68.17s-.68,1.31-1.02,0c-.34-1.31-.43-2.18-.43-2.18,0,0-.68-.61-.34-1.05.34-.44.51-.78.51-.78l.94-.09.43.26Z"/>
  <path id="path576" class="cls-2" d="m71.27,88.68s-.34-.52-.94.61c-.6,1.13.77,2.87.77,2.87,0,0,.43-.44.68-.87.26-.44.68-.61.26-1.31-.43-.7-.77-1.31-.77-1.31Z"/>
  <path id="path578" class="cls-2" d="m139.14,79.63c-.48.25-3.97,1.97-3.97,2.46s1.32-1.23-.24,1.36c-1.56,2.59-7.7,8.38-8.3,9.61-.6,1.23-8.54,6.41-8.9,6.9-.36.49-32.84,17.25-34.53,17.49-1.68.25-26.47,11.7-27.19,12.2-.72.49-11.07,4.68-11.07,4.68,0,0-5.53,1.48-6.02,1.48s-11.79.99-13.23,1.23c-1.44.25-12.63-.37-13.83-.37s-5.77.99-5.77.99c0,0-4.45,1.36-4.57,1.85-.12.49-1.32,6.04-1.32,6.53s.12,2.83,1.56,3.82c1.44.99,5.89,3.2,6.62,3.2s2.65,6.41,3.49,6.53c.84.12,2.77,2.09,3.73,2.71.96.62,9.02,1.48,9.02,1.48,0,0,6.74-4.19,8.9-5.67,2.17-1.48,4.21-3.82,7.46-5.79,3.25-1.97,11.79-6.04,13.71-6.65,1.92-.62,44.15-21.31,46.32-21.44,2.17-.12,22.02-7.76,22.02-7.76,0,0,11.19-3.45,11.91-3.45s10.11-1.97,10.11-1.97c0,0,8.66-1.36,9.26-1.36s5.41-3.2,5.41-3.2c0,0,1.2-2.46,1.08-3.08-.12-.62.36-4.31-.48-5.54-.84-1.23-2.05-3.33-3.13-4.19-1.08-.86-3.85-3.94-4.57-4.31-.72-.37-1.44-.62-1.44-1.23s-1.44-3.57-1.44-3.57c0,0-.24-.86-1.32-1.36-1.08-.49-8.3-3.57-8.3-3.57h-.96Z"/>
  <path id="path580" class="cls-2" d="m21.6,77.04c-.72.12-6.74,1.36-7.34,2.34s-1.44,1.6-2.05,2.59c-.6.99-.84,1.6-2.05,2.59-1.2.99-1.8.37-3.85,2.22-2.05,1.85-3.37,2.22-3.73,3.82s-3.37,8.01-2.41,8.87c.96.86,0,4.07,3.37,4.8,3.37.74,7.94,1.85,9.86,2.22,1.92.37,13.11,2.83,13.11,2.83l23.58,8.75s35.37,18.36,35.25,18.97c-.12.62,22.98,12.32,23.82,12.81.84.49,19.85,14.78,19.85,14.78,0,0,4.21,1.97,5.29,2.22s1.2.74,2.89.49c1.68-.25,3.01-.86,4.09-2.34,1.08-1.48,3.61-5.3,4.45-5.42.84-.12,2.41-1.23,2.89-1.23s4.57-1.36,5.41-1.97c.84-.62,2.77-2.46,2.89-3.57s1.68-4.93.72-5.42c-.96-.49-1.44-3.33-3.37-3.82-1.92-.49-4.69-3.08-6.02-3.08s-12.51.74-14.08.37-10.23-.49-11.79-1.11c-1.56-.62-5.65-1.85-7.82-2.83-2.17-.99-19.49-9.73-19.73-10.23s-41.02-23.65-41.02-23.65l-14.08-7.76-7.46-8.01-3.37-5.67-3.01-2.83-4.33-1.72Z"/>
  <g id="layer1">
    <path id="path583" class="cls-1" d="m66.11,35.65c-2.41.49-6.14,3.7-6.14,3.7,0,0-1.44,6.04-1.44,6.9s.48,6.04.48,6.04l3.25,3.2,3.25.49s4.09-2.71,5.05-3.33c.96-.62,4.33-3.08,4.45-4.19.12-1.11.72-2.59.72-4.44s0-2.22-.48-2.96c-.48-.74-3.61-4.31-3.61-4.31l-3.37-1.6h-2.05l-.12.49Z"/>
    <path id="path639" class="cls-1" d="m85.72,45.38l-.12-5.3,3.37-3.33s2.29-.86,4.09-1.11,5.53,1.36,5.53,1.36c0,0,3.25,4.44,3.25,4.93s1.08,7.76,1.08,7.76c0,0,0,2.46-1.08,2.96-1.08.49-2.53,1.72-3.73,2.09s-1.56.49-2.53.62c-.96.12-3.13-.99-4.09-1.6-.96-.62-4.93-4.93-4.93-4.93l-.84-3.45Z"/>
    <path id="path643" class="cls-1" d="m79.95,50.8l-3.61,9.73-1.08,5.05,2.17-1.11s1.8-.74,2.29-.74,4.09.74,4.09.74c0,0,.24-2.59,0-3.33-.24-.74-1.68-8.13-1.68-8.13l-1.44-2.34-.72.12Z"/>
  </g>
</svg>