<?xml version="1.0" encoding="UTF-8"?>
<svg id="svg4444" xmlns="http://www.w3.org/2000/svg" width="115.72" height="225.28" viewBox="0 0 115.72 225.28">
  <defs>
    <style>
      .cls-1 {
        fill: #fefefe;
      }

      .cls-1, .cls-2, .cls-3, .cls-4, .cls-5 {
        stroke-width: 0px;
      }

      .cls-2 {
        fill: #2a8088;
      }

      .cls-4 {
        fill: #e2cc59;
      }

      .cls-5 {
        fill: #070707;
      }
    </style>
  </defs>
  <g id="layer11">
    <path id="path117738" class="cls-2" d="m59,0L26.58,91.05l7.68,34.31,25.59,64.3,33.55-77.27-2.27-49.98L59,0Z"/>
  </g>
  <g id="layer8">
    <path id="path119106" class="cls-5" d="m17.5,16.76l27.14,49.1.8,3.82s-1.81.96-2.61,1.72c-.8.76-3.62,1.91-4.22,3.25-.6,1.34-1.81,4.78-2.01,5.54-.2.76-2.41,7.26-1.81,8.41.6,1.15,2.01,3.82,2.81,4.97.8,1.15,2.41,4.01,3.22,4.01s3.02,2.48,3.02,2.48h1.61l.8-3.06,3.02-2.67,1.61-2.29-.4-3.06-4.27-3.13-5.62-1.22-2.42-.27s-1.71-.2-.85-1.01,4.83-2.63,5.62-2.77c.78-.14,4.05-.74,5.19-.74s3.77-.27,3.77-.27l-.57-1.15s-.07-1.22,1.63-1.28c1.71-.07,4.12-.14,5.83,0s3.27.07,4.48.81c1.21.74,4.48,4.86,4.69,5.13.21.27.57,4.39.57,5.47s-.92,5.88-1.28,6.21-.36.74-.5,2.09c-.14,1.35-.14,2.5.21,3.17.36.68.92,1.42,3.06.41,2.13-1.01,1.78-.41,3.48-2.97,1.71-2.57,4.69-6.35,4.98-8.31.28-1.96.36-1.96,1.21-4.86s1.49-4.12.92-5.47-2.49-4.46-2.7-4.73-.57-1.01-2.27-2.09c-1.71-1.08-2.63-1.35-2.63-1.35,0,0-1.78-.81-1.85-1.28-.07-.47.21-1.55.78-2.5.57-.95,11.16-19.92,11.16-19.92l23.6-27.69s1.07,6.01.78,6.28c-.28.27-14.29,17.56-14.29,17.56,0,0,1.78-.14,2.63-.95s12.51-14.12,12.51-14.12l1.42,4.66s-11.66,16.35-10.88,15.8c.78-.54,11.09-12.16,11.09-12.16l-1.71,7.83-8.1,10.27,10.24-10.74-.43,6.55-7.96,11.41,8.96-9.05-.57,6.21-5.9,7.56,7.96-6.28,1.21,10.2,1.42,16.07.64,11.08-6.89,8.04-10.59,8.65-12.15,9.39s-12.15,9.93-12.58,10.2c-.43.27-1.99,1.89-1.99,1.89,0,0-.71.74-1,1.01-.28.27-.57,7.5-.57,7.5l1.63,5.27s3.2,3.92,3.27,4.19c.07.27,3.91,4.32,3.91,4.32l3.2,3.92,1.07,2.9-1.07,4.73-.64,1.35s-1.56.81-1.63-.41c-.07-1.22-2.42-5.27-2.42-5.27,0,0-1.56-2.09-2.27-2.57-.71-.47-1.35-1.22-1.35-1.22l4.83,13.17-2.35,6.01s-.85-2.3-1-2.63-2.56-6.35-2.77-7.09c-.21-.74-.92-2.7-1.21-2.7s-1.07-.41-1.07-.41c0,0,1.21,6.01,1.28,6.42.07.41,1.14,6.28.92,6.55-.21.27-.57,3.11-.92,3.65-.36.54-.71,2.77-1,2.9-.28.14-.36,1.89-.57.2s-1.78-7.77-2.06-8.51c-.28-.74-1.07-1.42-1.07-1.42l.57,10.6-4.12,10.94-4.83-1.55-3.55-4.93-2.63-17.63-1.92,14.66-4.34-5.4s3.48-18.03,3.2-17.56c-.28.47-5.47,13.98-5.47,13.98,0,0-2.91-5-2.91-5.54s5.05-12.29,5.05-12.29l-3.48,4.32-3.98,5.34s-.43.47-.5-.07c-.07-.54.92-6.82,1.21-8.1.28-1.28,10.31-15.13,10.31-15.13l1.21-5.13s-1.28-3.51-1.71-5c-.43-1.49-4.12-5.07-4.12-5.07l-23.6-13.98s-16.35-15.74-16.7-15.74-4.34-6.35-4.34-6.35l2.35-14.79,3.77-20.06,5.9,4.26-4.9-7.97,1.71-4.59,5.69,7.43,3.55,2.16s.57.07.14-.68-2.56-3.24-3.27-4.19c-.71-.95-6.33-8.04-6.26-8.38s1.14-3.58,1.14-3.58l8.89,9.12s-1.92-3.31-2.2-3.71c-.28-.41-5.54-8.51-5.62-8.78-.07-.27.57-4.86.57-4.86,0,0,8.89,12.36,9.17,12.23.28-.14.64-.74-.28-2.3s-8.1-13.71-8.1-14.05,1.49-4.8,1.49-4.8c0,0,6.82,12.63,7.18,12.9s4.9,5.61,4.9,5.61c0,0-.43-2.43-1.42-3.58s-8.74-16.14-8.67-16.95c.07-.81.07-5.67.07-5.67l1.72-5.86Z"/>
  </g>
  <g id="layer10">
    <path id="path120473" class="cls-1" d="m59.62,127.56c-.3.76-3.72,10.7-3.72,10.7l2.01,34.39,2.31,34.96.9,17.67,1.61-28.27,1.61-25.5.8-14.04-.7-20.25-4.83-9.65Z"/>
    <path id="path122096" class="cls-4" d="m57.96,82.05s-1.36-.86-1.16-.91,4.77.53,4.77.53l-1.31,1.05-2.31-.67Z"/>
  </g>
  <g id="layer2">
    <path id="path125955" class="cls-4" d="m55.85,138.79s-1.51.14-1.51.33.1.81.15,1.05c.05.24-.6.48-1.06.38-.45-.1-.85-.38-.9-.81-.05-.43-.25-2.05.25-2.67s1.11-.96,1.11-.96l.9-.1,1.11.72s.35.24-.2.38c-.55.14-1.46.29-1.46.29,0,0-.4.91.2.91s1.41-.05,1.41-.05v.53Z"/>
    <path id="path125957" class="cls-4" d="m63.19,135.3s1.06-.19,1.46.24c.4.43,1.51,1.34,1.66,1.58.15.24.85,1.43.4,1.81s-.9.72-1.26.86c-.35.14-.75.62-1.16.62s-.45.05-1.06-.76c-.6-.81-.7-.96-.5-1.62.2-.67.35-.86.65-1.1.3-.24,1.06-.29,1.06-.29,0,0-.5-.05-1.01-.33-.5-.29-.25-1-.25-1h0Z"/>
    <path id="path125959" class="cls-4" d="m53.19,140.51l-.25.43,1.26.81s1.16.72,1.26.91c.1.19-.6,1.58-.6,1.58,0,0-1.06.57-1.36.57s-.75.05-1.11-.48c-.35-.53-.55-.91-.85-1.67-.3-.76.85-1.81.85-1.81l.5-.14.3-.19Z"/>
    <path id="path125961" class="cls-4" d="m53.09,145.43c.3,0,1.41.62,1.21.72-.2.1-.2.57,0,.62.2.05,1.31-.38,1.31-.38l.8.72s-.65,1.91-1.16,1.91-2.36-.43-2.41-1c-.05-.57-.8-2.05-.45-2.15.35-.1.7-.43.7-.43h0Z"/>
    <path id="path125963" class="cls-4" d="m66.26,140.75c.15.29-1.41.81-1.66.81s-1.11,1-.75,1.48c.35.48.6,1.77,1.16,1.77s.85.72,1.56-.33c.7-1.05,1.26-.53.95-1.24-.3-.72-1.01-2.67-1.01-2.67l-.25.19Z"/>
    <path id="path125965" class="cls-4" d="m66.96,145.47c-.7.53-1.46,1.19-2.01,1-.55-.19-.95-.24-.95-.24l.45.76s-.1,1.39,0,1.72c.1.33.3,1.19.95.76.65-.43,1.61.24,1.91-1.34.3-1.58.15-2.15,0-2.39-.15-.24-.35-.29-.35-.29h0Z"/>
  </g>
  <g id="layer3">
    <path id="path125967" class="cls-3" d="m55.35,139.12s2.36,1.34,2.46,1.53c.1.19.85.67.85.67,0,0,.65,1.1-.5,1.1s-2.61-.72-2.92-1.05c-.3-.33-.8-1-.8-1,0,0-.1-1.34.15-1.34s.75.1.75.1h0Z"/>
    <path id="path125969" class="cls-3" d="m63.59,139.12s-1.51.86-1.91.96c-.4.1-2.06,1.24-2.06,1.24,0,0,.9.24,1.36.19.45-.05,2.81-.57,3.02-.57s.15-1.24.15-1.24l-.25-.43-.3-.14Z"/>
    <path id="path125971" class="cls-3" d="m54.95,143.56c.2.05-.05.29.9.24.95-.05,1.61-.48,1.61-.48,0,0,1.21-.24.5.48-.7.72-.55.86-1.16,1.19-.6.33-1.46,1.05-2.16.57s-.6-.48-.95-.72c-.35-.24-.6-1.05-.6-1.05,0,0,.25-.57.5-.67.25-.1.7,0,.95.05s.4.38.4.38h0Z"/>
    <path id="path125973" class="cls-3" d="m61.08,143.52c.25,0,.55.1.85.1s1.96-.05,1.96-.05c0,0,.3-.48.55-.48s.45-.19.4.38c-.05.57-.35,1.29-.35,1.53s-.2.48-.6.57c-.4.1-1.71-.38-2.11-.62-.4-.24-.8-1.05-.8-1.05l.25-.1-.15-.29Z"/>
    <path id="path125975" class="cls-3" d="m55.15,147.86s-.65.81-.4.86c.25.05-1.11.57.4.05,1.51-.53,1.61-.38,2.11-.81.5-.43,1.26-1.48,1.26-1.48,0,0-.5.43-1.06.86-.55.43-.9.62-1.51.67-.6.05-.8-.14-.8-.14h0Z"/>
    <path id="path125977" class="cls-3" d="m61.08,147.53s.9.33,1.41.38c.5.05,1.66.05,1.66.05,0,0,.35-.57.5-.24.15.33-.45,1.19-.5,1.43-.05.24-1.11.86-1.96.48-.85-.38-1.11-.43-1.26-.96-.15-.53-.3-.67-.05-.81.25-.14.2-.33.2-.33h0Z"/>
  </g>
</svg>