<?xml version="1.0" encoding="UTF-8"?>
<svg id="svg4444" xmlns="http://www.w3.org/2000/svg" width="197.39" height="199.51" viewBox="0 0 197.39 199.51">
  <defs>
    <style>
      .cls-1 {
        fill: #191715;
      }

      .cls-1, .cls-2, .cls-3, .cls-4, .cls-5, .cls-6, .cls-7 {
        stroke-width: 0px;
      }

      .cls-2 {
        fill: #c8c6c7;
      }

      .cls-3 {
        fill: #bf8212;
      }

      .cls-4 {
        fill: #582e18;
      }

      .cls-5 {
        fill: #645656;
      }

      .cls-6 {
        fill: #292929;
      }

      .cls-7 {
        fill: #2d4359;
      }
    </style>
  </defs>
  <g id="layer11">
    <path id="path131563" class="cls-7" d="m0,71.93l1.67,14.87h2.64c.69,0,4.03-.28,5.55-.28s7.08-2.45,7.22-1.13c.14,1.32,6.11,12.61,7.36,13.36,1.25.75,5.55,6.02,5.55,6.02l27.96-4.29,8.44-1.33,11.39,21.56-18.66,53.77,54.99,25.02,3.54-.13-8.05-53.1-.79-27.42,34.76-2.79,1.57-.4,16.5,10.91,11.39-7.72.59-2.4-17.09-9.58,33.39,15.04,2.36-.13,5.11-5.72v-2.53l-59.11-23.69,4.32-7.59,41.83,5.06,2.55-6.39,1.18-13.71-1.57-6.92-2.75-7.72-9.43-14.91-2.55-1.2-2.95-.13-46.54,21.03s-26.71,7.72-26.32,6.65c.39-1.06,7.46-14.51,7.46-14.51L117.26,0l-37.71,6.39,4.91,61.09-46.54,4.92-37.92-.47Z"/>
  </g>
  <g id="layer24">
    <path id="path135085" class="cls-5" d="m33.47,47.51l-3.96-1.27-2.5-1.88s-2.15-1.69-2.43-2.26c-.28-.56-.83-1.46-.83-2.21s-.76-1.98.07-2.68c.83-.71,3.4-1.36,3.4-1.36,0,0,1.46-.52,2.43-.52h4.72s.9-.61,1.04-.8c.14-.19,1.74-1.74,1.74-1.74l7.22-2.96s1.46-.8,3.33-.94c1.87-.14,5.49-.05,5.9-.05s2.15-.8,2.64-.99c.49-.19,1.94-.33,3.06-.66,1.11-.33,5.9-.52,5.9-.52l11.25,1.13,3.68-1.13,3.54-.42,2.99-.19,2.29.66s.76,1.13.76,1.51.21,1.65.07,2.68c-.14,1.04-.69,2.68-1.25,3.25-.56.56-1.04.89-1.53,1.46-.49.56-.69,1.13-.69,1.13,0,0,9.65,8.19,9.65,8.52s-2.43,4.47-2.43,4.47l4.78.99,13.35,8.52,10.21,9.18-.79,2.2,7.56,1.06,7.36,9.12-6.38,11.38,7.56,17.57,4.91,3.53s2.36,8.98,2.36,9.65-1.37,8.72-1.37,8.72l7.76,7.52-.79,2.46s2.36,2.06,2.55,2.53c.2.47,3.04,3.39,3.14,3.99.1.6,3.34,4.99,3.44,5.52.1.53,1.08,4.33.88,4.72-.2.4-.88,1.6-.88,1.6l.88,1.46-1.57.07s-1.37.33-1.37,1.2v1.8c0,.33,1.77,1.4,1.77,1.4l.39.8s-.2.53-.69.67c-.49.13-2.16.67-3.44.73-1.28.07-2.95.33-4.71.33h-6.68l-1.28-.07-.79-.2-12.27-16.97-15.02-2.73-17.28-5.12-11.29-5.72-.09-10.82-7.92-5.6-10.21-11.25-4.37-7.95s-1.11-.66-1.87-.66-1.6-.42-2.22-.09c-.62.33-1.32.99-1.04,2.07.28,1.08,1.6,2.59,1.6,3.01s-.28,1.13-.28,1.13c0,0-.69.47-.69,1.08s.97,1.36.97,1.36c0,0,.97.85.97,1.46s-.07,1.74.07,1.98c.14.24.14.56-.07.99-.21.42-15.28,10.96-15.28,10.96,0,0-1.11.52-1.94.14-.83-.38-2.92-3.34-2.92-3.34,0,0-1.18-.99-1.32-1.32-.14-.33-.21-1.74-.21-1.98s.69-1.36.69-1.36l.14-.66-10.97-11.95s4.93-7.81,5.07-8c.14-.19,1.04-.8,1.04-.8,0,0,.62-1.84.62-2.21s.76-1.65,1.04-1.69c.28-.05.62.24.69-.05.07-.28-1.32-1.18-1.32-1.18l-1.18-.47-.14-12.94,3.61-13.79-5.9-5.08,1.04-11.11Z"/>
    <path id="path138484" class="cls-4" d="m95.47,48.22l-.35,1.74,2.99.75,9.44,5.88,10.35,7.91,2.29-.85s3.4-1.93,3.54-2.35c.14-.42.69-1.98.69-2.4v-.56c0-.56-5.97-4.56-6.25-4.8-.28-.24-7.01-3.15-7.01-3.15l-7.5-1.98-4.51-.19h-3.68Z"/>
  </g>
  <g id="layer25">
    <path id="path139108" class="cls-1" d="m44.78,53.58l1.74,3.15,5.28,8.61,7.01,6.78s.14,0,.97-.33,2.15-1.04,2.71-1.04,4.44-.89,4.44-.89h7.36l2.01-5.04.42-3.58s-.28-11.01-.28-11.2.21-1.04.21-1.04l.14-.28s-.56-.09-1.53,0-3.82.94-3.89,1.13c-.07.19-4.1,1.41-4.1,1.41l-7.15,1.79s-8.26.66-8.54.66-3.89-.38-4.86-.38-1.94.24-1.94.24h0Z"/>
  </g>
  <g id="layer26">
    <path id="path143872" class="cls-3" d="m55.55,62.33s-2.15-1.69-2.43-2.12c-.28-.42-1.87-2.73-1.87-2.73,0,0-.83-.8-.83-1.27v-1.36s7.5-.75,8.47-.75,5-.8,6.25-.85c1.25-.05,5.07-1.04,5.55-1.27s1.81-.71,1.81-.71c0,0,1.04,8.14,1.04,8.33s.28.28-.14.52-2.22.38-2.29.19c-.07-.19.21-.38-.07-1.08-.28-.71-.76-.94-1.6-1.51-.83-.56-1.74-1.93-1.74-1.93l-10.83,1.13.42,4.56s0,.42-.07.61c-.07.19-.56.56-.56.56l-1.11-.33Z"/>
    <path id="path143874" class="cls-3" d="m59.3,68.36l2.5,2.92s1.32-.56,1.6-.61.21-.33,1.53-.38,5.35-.05,5.69-.14c.35-.09.97.09,1.11-.09.14-.19,1.39-2.07,1.39-2.31s-.56-1.6-.56-1.6l-.83-.61s-.9-.42-1.04-.05c-.14.38-.21.8-.35.99s.42.33-.69.52c-1.11.19-2.64.56-3.06.56s-2.36.09-2.36.09c0,0-.35.09-1.18.09s.14-.24-1.67-.28q-1.81-.05-1.94.19c-.14.24-.14.71-.14.71Z"/>
    <path id="path146429" class="cls-2" d="m37.84,40.64l12.64,1.22.42.47-4.79,2.59-4.03-.52-.07-.33v-.42l-4.17-3.01Z"/>
    <path id="path146431" class="cls-2" d="m65.68,39.84l9.79-6.35-.62,5.41-2.01.94h-7.15Z"/>
  </g>
  <g id="layer27">
    <path id="path150377" class="cls-6" d="m100.4,74.8l3.06-1.08,1.81-.38,5.83-.47.49-.28,1.6-.05.35.61v2.16s-1.67.85-2.15.89c-.49.05-.14-.09-.9.14-.76.24-3.68.8-3.68.8l-5.28-.24-.76-.28-.42-.47.07-1.36Z"/>
    <path id="path150379" class="cls-6" d="m104.71,84.12l3.19-2.07s1.18-.99,2.15-1.22c.97-.24,2.5-.66,3.33-.75.83-.09,2.85-.05,2.85-.05l1.67-.19s.28.61.42.94c.14.33.21,2.02.21,2.02,0,0-.76.33-1.25.47-.49.14-2.85,1.18-2.85,1.18,0,0-1.18.28-1.87.42-.69.14-.83.24-2.92.24h-3.12l-1.25-.33-.56-.66Z"/>
    <path id="path150383" class="cls-6" d="m110.75,89.91l.56.75s1.67.33,2.15.38c.49.05,6.46-.75,6.46-.75,0,0,2.64-1.32,2.78-1.6.14-.28.42-.61.42-1.18v-1.6s-.07-.33-.62-.33-1.04-.24-1.94.24c-.9.47-4.79,1.22-4.79,1.22l-5,2.87Z"/>
    <path id="path150385" class="cls-6" d="m117.07,95.37l1.94-1.65s1.11-1.32,2.15-1.65,4.1-1.08,4.58-1.32c.49-.24.21-.28.83-.24.62.05,1.6.56,1.6,1.04v1.69c0,.56.35.99-.07,1.13-.42.14-1.32.66-1.94.66s-5,.85-5.49.85h-1.94c-.35,0-1.67-.52-1.67-.52h0Z"/>
    <path id="path150387" class="cls-6" d="m120.16,128.54l-.49,5.26s.93,2.93,1.18,2.93,16.4,5.86,16.4,5.86c0,0-1.57-5.59-1.62-5.79-.05-.2-2.11-2.5-2.6-2.83-.49-.33-9.97-5.72-9.97-5.72l-2.9.3Z"/>
    <path id="path150389" class="cls-6" d="m53.63,104.81c-.59-.3-1.57-1.03-1.57-1.33s.64-.83,1.52-.9c.88-.07,1.82-.23,2.99-.23s1.91.17,3.68.33c1.77.17,3.34.6,3.34.6,0,0,.34.9.34,1.06s-.34.63-.34.63c0,0-.25.3-.98.4-.74.1-1.03.17-2.06.17s-1.37.03-2.9,0c-1.52-.03-3.29-.43-3.29-.43l-.74-.3Z"/>
    <path id="path150391" class="cls-6" d="m51.57,111.67s1.47-.03,1.82,0,2.7.5,3.04.73c.34.23,2.75.6,3.68,1.13.93.53,3.63,1.63,3.63,1.63,0,0,.05.23.05.57s.15.73-.05.83c-.2.1-.34.3-.88.3h-4.32c-.2,0-.39,0-1.03-.23s-1.28-.53-1.82-.73c-.54-.2-.25.1-1.18-.47-.93-.57-1.18-.63-1.52-1.06-.34-.43-.83-1.3-.83-1.3,0,0-.2-.1-.25-.37-.05-.27-.34-1.03-.34-1.03Z"/>
    <path id="path150393" class="cls-6" d="m46.71,118.02s-.25-.8.44-.83c.69-.03.54-.03,1.67.17,1.13.2.93.17,1.96.4,1.03.23,2.45.87,3.34,1.3.88.43,3.49,1.83,3.49,1.83,0,0-.1-.27.05.17.15.43.15.6.15.96s.64.57,0,.67c-.64.1-.49.1-1.18.1h-3.24c-.39,0,.39.3-1.28-.27-1.67-.57-.39.43-1.96-.8-1.57-1.23-1.33-1.1-1.62-1.26-.29-.17-1.82-2.43-1.82-2.43h0Z"/>
    <path id="path150395" class="cls-6" d="m43.86,123.01s-.15-.77-.25-.96-.54-.8-.25-1.03c.29-.23.49-.43,1.18.03.69.47.98.77,1.47,1.03.49.27,1.28.5,1.96.7.69.2,2.26.63,2.26.63,0,0,.93.3,1.03.47.1.17.64.93.64.93,0,0,.1.07-.54.1-.64.03-2.7.17-3.63.17s-1.08.17-1.42-.03c-.34-.2-1.18-.83-1.18-.83l-1.28-1.2Z"/>
  </g>
</svg>