<?xml version="1.0" encoding="UTF-8"?>
<svg id="svg4444" xmlns="http://www.w3.org/2000/svg" width="45.51" height="225.8" viewBox="0 0 45.51 225.8">
  <defs>
    <style>
      .cls-1 {
        fill: #063858;
      }

      .cls-1, .cls-2, .cls-3, .cls-4, .cls-5 {
        stroke-width: 0px;
      }

      .cls-2 {
        fill: #767471;
      }

      .cls-3 {
        fill: #393056;
      }

      .cls-4 {
        fill: #0e0e17;
      }

      .cls-5 {
        fill: #6c6b68;
      }
    </style>
  </defs>
  <g id="layer11">
    <path id="path137841" class="cls-4" d="m17.9,5.59l-.26,30.67,10.18.36-.88-30.94-9.04-.09Z"/>
    <path id="path140381" class="cls-1" d="m17.46,5.23l-2.63-2.53L17.29.18l10.09-.18,2.11,2.53-2.19,3.07-9.83-.36Z"/>
    <path id="path141679" class="cls-1" d="m2.81,48.17v-3.7l6.67-.99,3.42,2.53,18.25.72,3.33-2.98,7.11.54s-.09,6.04.18,5.32c.26-.72,4.3-6.95,3.69-6.95s-12.9-3.61-12.9-3.61l-3.95-3.07-12.72.54-1.84,2.26-14.04,3.16,2.46,7.58.35-1.35Z"/>
    <path id="path141681" class="cls-2" d="m12.2,46.09l-1.23,1.71-.26,2.71-.09,3.25s1.14,2.71,1.4,3.43,1.23,2.62,1.67,2.98c.44.36,1.4,1.71,1.4,1.71l-1.4,139.09,7.28,24.63,7.81-24.26-.18-139.36v-15.51l-16.41-.36Z"/>
  </g>
  <g id="layer8">
    <path id="path143807" class="cls-3" d="m20.18,40.86s-2.11,1.17-3.25,1.98c-1.14.81-2.46,1.98-3.16,2.71s-1.93.99-2.02,3.79c-.09,2.8-.44,5.86,0,6.22.44.36,2.46,3.7,2.63,4.06.18.36,3.16,2.53,3.16,2.53l2.02,1.26.88,35.81.53-35.27,1.23-.45,2.11,34.73s-1.05-34.91,0-34.91,4.21-1.44,4.21-1.44c0,0,2.54-2.53,3.6-3.88,1.05-1.35,1.75-2.62,2.02-3.88.26-1.26.09-4.42-.09-5.05-.18-.63-2.11-2.98-2.37-3.7-.26-.72-1.23-2.16-1.84-2.71-.61-.54-1.49-.9-2.28-1.17-.79-.27-2.81-.9-3.16-.9s-2.9-.09-2.9-.09l-.88.36h-.44Z"/>
    <path id="path151108" class="cls-5" d="m21.32,100.85c.18.63-.18,123.94-.18,123.94l.18.99s.97.09.61-.09c-.35-.18.26-107.25.26-107.25l-.61-25.53-.26,7.94Z"/>
  </g>
</svg>