<?xml version="1.0" encoding="UTF-8" standalone="no"?>
<svg
   id="svg4444"
   width="231.98"
   height="227.16"
   viewBox="0 0 231.98 227.16"
   version="1.1"
   sodipodi:docname="PIP_tortuga.svg"
   xml:space="preserve"
   inkscape:export-filename="PIP_ClanGhostBear.svg"
   inkscape:export-xdpi="96"
   inkscape:export-ydpi="96"
   xmlns:inkscape="http://www.inkscape.org/namespaces/inkscape"
   xmlns:sodipodi="http://sodipodi.sourceforge.net/DTD/sodipodi-0.dtd"
   xmlns="http://www.w3.org/2000/svg"
   xmlns:svg="http://www.w3.org/2000/svg"><sodipodi:namedview
     id="namedview13"
     pagecolor="#505050"
     bordercolor="#ffffff"
     borderopacity="1"
     inkscape:showpageshadow="0"
     inkscape:pageopacity="0"
     inkscape:pagecheckerboard="1"
     inkscape:deskcolor="#505050"
     showgrid="false" /><defs
     id="defs4"><style
       id="style2">
      .cls-1 {
        stroke-width: 0px;
      }
    </style></defs><g
     inkscape:groupmode="layer"
     id="layer11"
     inkscape:label="Layer 2"
     style="display:inline"><path
       style="display:inline;fill:#2d4359;fill-opacity:1;stroke:none;stroke-width:0.468154px;stroke-linecap:butt;stroke-linejoin:miter;stroke-opacity:1"
       d="M 0.6095534,80.995889 2.5545449,98.05086 c 0,0 2.2691432,0 3.0795556,0 0.8104115,0 4.7003865,-0.32383 6.4832945,-0.32383 1.782899,0 8.266193,-2.806512 8.428277,-1.295317 0.162084,1.511203 7.131615,14.464347 8.590362,15.327887 1.458732,0.86355 6.483287,6.90834 6.483287,6.90834 l 32.63225,-4.92338 9.856417,-1.52655 13.294702,24.73 -21.775803,61.6723 64.181303,28.69901 4.12594,-0.15266 -9.39798,-60.90904 -0.91687,-31.44678 40.57175,-3.20574 1.83375,-0.45795 19.25439,12.51764 13.2947,-8.85395 0.68765,-2.74778 -19.94205,-10.9911 38.96723,17.24993 2.75062,-0.15266 5.9597,-6.56413 v -2.90043 l -68.9949,-27.17245 5.04282,-8.701297 48.82363,5.800867 2.97984,-7.327407 1.37531,-15.723386 -1.83375,-7.938021 -3.20906,-8.853946 -11.00251,-17.097275 -2.97985,-1.373889 -3.43828,-0.152654 -54.32488,24.119371 c 0,0 -31.17378,8.853947 -30.71535,7.632712 0.45845,-1.221234 8.71033,-16.639312 8.71033,-16.639312 L 137.47569,-1.509398 93.465652,5.8180063 99.19613,75.886305 44.871246,81.534512 Z"
       id="path131563" /></g><g
     inkscape:groupmode="layer"
     id="layer24"
     inkscape:label="Layer 3"
     style="display:inline"><path
       style="fill:#645656;fill-opacity:1;stroke:none;stroke-width:0.468154px;stroke-linecap:butt;stroke-linejoin:miter;stroke-opacity:1"
       d="M 39.671372,52.984718 35.052035,51.52749 32.134556,49.368633 c 0,0 -2.512278,-1.942971 -2.836445,-2.590628 -0.32416,-0.647657 -0.972497,-1.673114 -0.972497,-2.536657 0,-0.863543 -0.891453,-2.2668 0.08109,-3.076372 0.972496,-0.809571 3.971017,-1.565171 3.971017,-1.565171 0,0 1.701858,-0.593685 2.836446,-0.593685 1.134572,0 5.510791,0 5.510791,0 0,0 1.053538,-0.701628 1.215613,-0.917517 C 42.10265,37.87272 43.9666,36.09166 43.9666,36.09166 l 8.42827,-3.400194 c 0,0 1.701865,-0.917518 3.889983,-1.079432 2.188101,-0.161913 6.402245,-0.05398 6.888488,-0.05398 0.486244,0 2.512278,-0.917518 3.079563,-1.1334 0.567286,-0.215889 2.269152,-0.377802 3.565808,-0.755604 1.296664,-0.377796 6.888505,-0.593685 6.888505,-0.593685 l 13.128656,1.295313 4.295176,-1.295313 4.133101,-0.48574 3.48477,-0.215889 2.67435,0.755598 c 0,0 0.89146,1.29532 0.89146,1.727091 0,0.431772 0.24312,1.888999 0.081,3.076368 -0.16207,1.187375 -0.8104,3.076374 -1.45873,3.724026 -0.64834,0.647661 -1.21563,1.025463 -1.78291,1.673116 -0.56729,0.647659 -0.81041,1.295315 -0.81041,1.295315 0,0 11.26472,9.391029 11.26472,9.768829 0,0.377799 -2.83644,5.127286 -2.83644,5.127286 l 5.58411,1.130494 15.58689,9.769871 11.91939,10.533143 -0.91687,2.518796 8.82492,1.221234 8.59571,10.456817 -7.44961,13.05194 8.82492,20.15037 5.73047,4.04533 c 0,0 2.75063,10.30415 2.75063,11.06743 0,0.76327 -1.60453,9.99885 -1.60453,9.99885 l 9.05414,8.62496 -0.91687,2.82411 c 0,0 2.75064,2.36615 2.97985,2.90043 0.22922,0.53429 3.55289,3.89268 3.66751,4.57963 0.1146,0.68694 3.89671,5.72453 4.01132,6.33515 0.11461,0.61062 1.2607,4.96126 1.03149,5.41923 -0.22922,0.45796 -1.03149,1.83184 -1.03149,1.83184 l 1.03149,1.6792 -1.83376,0.0763 c 0,0 -1.60453,0.38163 -1.60453,1.37389 0,0.99225 0,1.67919 0,2.06083 0,0.38164 2.06297,1.60286 2.06297,1.60286 l 0.45844,0.91593 c 0,0 -0.22922,0.61062 -0.80226,0.76327 -0.57305,0.15266 -2.52141,0.76327 -4.01134,0.8396 -1.48992,0.0763 -3.43828,0.38164 -5.50125,0.38164 -2.06297,0 -4.01133,0 -4.58438,0 -0.57304,0 -3.20907,0 -3.20907,0 l -1.48992,-0.0763 -0.91687,-0.22898 -14.32618,-19.46342 -17.53526,-3.1294 -20.17126,-5.87719 -13.18009,-6.56414 -0.10532,-12.40851 -9.23869,-6.42261 -11.913044,-12.89917 -5.105588,-9.12116 c 0,0 -1.296664,-0.75561 -2.188118,-0.75561 -0.891445,0 -1.863941,-0.48574 -2.593311,-0.10794 -0.72937,0.37781 -1.539781,1.1334 -1.215614,2.37474 0.32416,1.24134 1.863942,2.96842 1.863942,3.45417 0,0.48574 -0.324168,1.29531 -0.324168,1.29531 0,0 -0.810412,0.53972 -0.810412,1.24135 0,0.70163 1.13458,1.56517 1.13458,1.56517 0,0 1.13458,0.97149 1.13458,1.67312 0,0.70162 -0.08109,1.99694 0.081,2.26679 0.162085,0.26987 0.162085,0.64766 -0.081,1.1334 -0.243127,0.48575 -17.829052,12.57535 -17.829052,12.57535 0,0 -1.296664,0.59368 -2.269152,0.16192 -0.972495,-0.43178 -3.403731,-3.83198 -3.403731,-3.83198 0,0 -1.377697,-1.1334 -1.539781,-1.51121 -0.162085,-0.37779 -0.243127,-1.99694 -0.243127,-2.26678 0,-0.26987 0.81042,-1.56517 0.81042,-1.56517 l 0.162085,-0.75561 -12.804505,-13.70874 c 0,0 5.753916,-8.95926 5.916,-9.17515 0.162084,-0.21587 1.215623,-0.91751 1.215623,-0.91751 0,0 0.729369,-2.10489 0.729369,-2.53666 0,-0.43177 0.891453,-1.88899 1.215613,-1.94297 0.324168,-0.0539 0.729378,0.26986 0.81042,-0.0539 0.081,-0.32382 -1.53979,-1.34927 -1.53979,-1.34927 L 41.292215,102.20669 41.13014,87.364541 45.344274,71.550916 38.455778,65.722002 Z"
       id="path135085" /><path
       style="fill:#582e18;fill-opacity:1;stroke:none;stroke-width:0.468154px;stroke-linecap:butt;stroke-linejoin:miter;stroke-opacity:1"
       d="m 112.0411,53.79429 -0.40521,1.996943 3.48477,0.863543 11.0216,6.746428 12.07513,9.067199 2.67436,-0.971485 c 0,0 3.97101,-2.212829 4.13309,-2.698571 0.16209,-0.485743 0.81041,-2.2668 0.81041,-2.752543 0,-0.485743 0,0 0,-0.647657 0,-0.647657 -6.96953,-5.235228 -7.2937,-5.505086 -0.32416,-0.269857 -8.18515,-3.616085 -8.18515,-3.616085 l -8.75243,-2.2668 -5.26769,-0.215886 z"
       id="path138484" /></g><g
     inkscape:groupmode="layer"
     id="layer25"
     inkscape:label="Layer 4"
     style="display:inline"><path
       style="fill:#191715;fill-opacity:1;stroke:none;stroke-width:0.468154px;stroke-linecap:butt;stroke-linejoin:miter;stroke-opacity:1"
       d="m 52.881078,59.947033 2.026026,3.616086 6.159126,9.87677 8.185153,7.771885 c 0,0 0.162083,0 1.13458,-0.377799 0.972496,-0.377801 2.512269,-1.187372 3.160605,-1.187372 0.648328,0 5.186622,-1.025457 5.186622,-1.025457 h 8.590363 l 2.350193,-5.774943 0.486252,-4.101827 c 0,0 -0.324168,-12.629314 -0.324168,-12.8452 0,-0.215886 0.243126,-1.187371 0.243126,-1.187371 l 0.162076,-0.32383 c 0,0 -0.648319,-0.107943 -1.782899,0 -1.13458,0.107943 -4.457261,1.079429 -4.538304,1.295315 -0.08108,0.215886 -4.781429,1.619143 -4.781429,1.619143 l -8.347227,2.050914 c 0,0 -9.643901,0.7556 -9.968068,0.7556 -0.32416,0 -4.538295,-0.431771 -5.672875,-0.431771 -1.13458,0 -2.269152,0.269857 -2.269152,0.269857 z"
       id="path139108" /></g><g
     inkscape:groupmode="layer"
     id="layer26"
     inkscape:label="Layer 5"><path
       style="fill:#bf8212;fill-opacity:1;stroke:none;stroke-width:0.468154px;stroke-linecap:butt;stroke-linejoin:miter;stroke-opacity:1"
       d="m 65.442449,69.985718 c 0,0 -2.512268,-1.942972 -2.836437,-2.428714 -0.32416,-0.485743 -2.188109,-3.130343 -2.188109,-3.130343 0,0 -0.972496,-0.917514 -0.972496,-1.457229 0,-0.539714 0,-1.565171 0,-1.565171 0,0 8.752446,-0.863543 9.887017,-0.863543 1.13458,0 5.834959,-0.917514 7.293707,-0.971486 1.45874,-0.05397 5.916001,-1.18737 6.483286,-1.457227 0.567286,-0.269857 2.107068,-0.809572 2.107068,-0.809572 0,0 1.215622,9.337057 1.215622,9.552942 0,0.215886 0.32416,0.323829 -0.162084,0.593686 -0.486244,0.269857 -2.59332,0.431772 -2.674362,0.215886 -0.081,-0.215886 0.243126,-0.431772 -0.081,-1.241343 -0.324164,-0.809571 -0.89145,-1.079429 -1.863946,-1.727086 C 80.678219,64.04886 79.624689,62.48369 79.624689,62.48369 l -12.642422,1.295314 0.486253,5.235228 c 0,0 0,0.485743 -0.08108,0.701628 -0.08109,0.215887 -0.648336,0.647658 -0.648336,0.647658 z"
       id="path143872" /><path
       style="fill:#bf8212;fill-opacity:1;stroke:none;stroke-width:0.468154px;stroke-linecap:butt;stroke-linejoin:miter;stroke-opacity:1"
       d="m 69.818668,76.89406 2.917479,3.346229 c 0,0 1.539791,-0.647657 1.863951,-0.701629 0.324167,-0.05397 0.243125,-0.3778 1.782907,-0.431772 1.539782,-0.05397 6.240169,-0.05397 6.645371,-0.161914 0.40521,-0.107943 1.13458,0.107944 1.296655,-0.107943 0.162085,-0.215885 1.620832,-2.374742 1.620832,-2.644599 0,-0.269857 -0.648336,-1.835028 -0.648336,-1.835028 l -0.972496,-0.701629 c 0,0 -1.05353,-0.485742 -1.215614,-0.05397 -0.162075,0.431772 -0.243118,0.917514 -0.405201,1.133399 -0.162084,0.215887 0.486243,0.3778 -0.81042,0.593687 -1.296656,0.215885 -3.079564,0.647656 -3.565808,0.647656 -0.486244,0 -2.755395,0.107943 -2.755395,0.107943 0,0 -0.40521,0.107943 -1.377697,0.107943 -0.972496,0 0.162084,-0.269857 -1.944993,-0.323828 -2.107066,-0.05397 -2.107066,-0.05397 -2.269151,0.215885 -0.162084,0.269858 -0.162084,0.809572 -0.162084,0.809572 z"
       id="path143874" /><path
       style="display:inline;fill:#c8c6c7;fill-opacity:1;stroke:none;stroke-width:0.468154px;stroke-linecap:butt;stroke-linejoin:miter;stroke-opacity:1"
       d="m 44.776969,45.104891 14.74948,1.403256 0.486243,0.539716 -5.591832,2.968427 -4.700386,-0.593685 -0.08109,-0.3778 v -0.485743 z"
       id="path146429" /><path
       style="display:inline;fill:#c8c6c7;fill-opacity:1;stroke:none;stroke-width:0.468154px;stroke-linecap:butt;stroke-linejoin:miter;stroke-opacity:1"
       d="m 77.274459,44.187377 11.426799,-7.286143 -0.729378,6.206714 -2.350185,1.079429 z"
       id="path146431" /></g><g
     inkscape:groupmode="layer"
     id="layer27"
     inkscape:label="Layer 6"><path
       style="fill:#292929;fill-opacity:1;stroke:none;stroke-width:0.468154px;stroke-linecap:butt;stroke-linejoin:miter;stroke-opacity:1"
       d="m 117.79502,84.288146 3.56582,-1.241343 2.10706,-0.431772 6.80745,-0.539714 0.5673,-0.323828 1.86394,-0.05397 0.40521,0.701628 c 0,0 0,1.079429 0,1.349286 0,0.269857 0,1.133399 0,1.133399 0,0 -1.94499,0.971486 -2.51227,1.025457 -0.56729,0.05397 -0.16208,-0.107942 -1.05355,0.161915 -0.89145,0.269858 -4.29517,0.917514 -4.29517,0.917514 l -6.15912,-0.269859 -0.89146,-0.323828 -0.48625,-0.539715 z"
       id="path150377" /><path
       style="fill:#292929;fill-opacity:1;stroke:none;stroke-width:0.468154px;stroke-linecap:butt;stroke-linejoin:miter;stroke-opacity:1"
       d="m 122.81958,94.974485 3.72788,-2.37474 c 0,0 1.37771,-1.133399 2.51227,-1.403261 1.13459,-0.269854 2.91748,-0.755593 3.88999,-0.863536 0.97249,-0.107944 3.32268,-0.05394 3.32268,-0.05394 l 1.94499,-0.215887 c 0,0 0.32416,0.701626 0.48624,1.079423 0.16209,0.377805 0.24312,2.320782 0.24312,2.320782 0,0 -0.89145,0.377787 -1.45873,0.539715 -0.56729,0.161911 -3.32268,1.349276 -3.32268,1.349276 0,0 -1.37771,0.32383 -2.18813,0.48574 -0.8104,0.161919 -0.97248,0.269862 -3.40371,0.269862 -2.43124,0 -3.64686,0 -3.64686,0 l -1.45874,-0.377796 z"
       id="path150379" /><path
       style="fill:#292929;fill-opacity:1;stroke:none;stroke-width:0.468154px;stroke-linecap:butt;stroke-linejoin:miter;stroke-opacity:1"
       d="m 129.87014,101.61297 0.64834,0.86355 c 0,0 1.94499,0.3778 2.51227,0.43177 0.5673,0.0539 7.53683,-0.86354 7.53683,-0.86354 0,0 3.07957,-1.51121 3.24165,-1.83503 0.16208,-0.323836 0.48624,-0.701633 0.48624,-1.349291 0,-0.64765 0,-1.835034 0,-1.835034 0,0 -0.0811,-0.377787 -0.72937,-0.377787 -0.64833,0 -1.21561,-0.269863 -2.26915,0.269853 -1.05353,0.539707 -5.59184,1.403252 -5.59184,1.403252 z"
       id="path150383" /><path
       style="fill:#292929;fill-opacity:1;stroke:none;stroke-width:0.468154px;stroke-linecap:butt;stroke-linejoin:miter;stroke-opacity:1"
       d="m 137.2449,107.87366 2.26915,-1.889 c 0,0 1.29665,-1.5112 2.51227,-1.889 1.21562,-0.3778 4.78143,-1.24134 5.34871,-1.5112 0.56729,-0.26986 0.24313,-0.32383 0.9725,-0.26986 0.72937,0.0539 1.86395,0.64766 1.86395,1.18737 0,0.53972 0,1.29532 0,1.94297 0,0.64766 0.40521,1.13341 -0.081,1.29531 -0.48624,0.16193 -1.53977,0.75561 -2.26914,0.75561 -0.72938,0 -5.83497,0.97149 -6.40226,0.97149 -0.56728,0 -1.86394,0 -2.26914,0 -0.40521,0 -1.94499,-0.59369 -1.94499,-0.59369 z"
       id="path150385" /><path
       style="fill:#292929;fill-opacity:1;stroke:none;stroke-width:0.468154px;stroke-linecap:butt;stroke-linejoin:miter;stroke-opacity:1"
       d="m 140.85667,145.91644 -0.57304,6.02984 c 0,0 1.08878,3.35839 1.37531,3.35839 0.28653,0 19.13978,6.71679 19.13978,6.71679 0,0 -1.83375,-6.41148 -1.89105,-6.64046 -0.0574,-0.22898 -2.46411,-2.86227 -3.03715,-3.2439 -0.57306,-0.38163 -11.63286,-6.56414 -11.63286,-6.56414 z"
       id="path150387" /><path
       style="fill:#292929;fill-opacity:1;stroke:none;stroke-width:0.468154px;stroke-linecap:butt;stroke-linejoin:miter;stroke-opacity:1"
       d="m 63.208755,118.70583 c -0.687653,-0.34349 -1.833746,-1.18308 -1.833746,-1.52655 0,-0.34347 0.744954,-0.95409 1.776447,-1.03042 1.031484,-0.0763 2.120269,-0.26714 3.495585,-0.26714 1.375315,0 2.234885,0.19082 4.297854,0.38163 2.062969,0.19082 3.896724,0.68695 3.896724,0.68695 0,0 0.40113,1.03041 0.40113,1.22123 0,0.19081 -0.40113,0.72511 -0.40113,0.72511 0,0 -0.286523,0.34346 -1.146092,0.45795 -0.859579,0.1145 -1.203401,0.19082 -2.406801,0.19082 -1.2034,0 -1.604531,0.0381 -3.380977,0 -1.776455,-0.0381 -3.839424,-0.49612 -3.839424,-0.49612 z"
       id="path150389" /><path
       style="fill:#292929;fill-opacity:1;stroke:none;stroke-width:0.468154px;stroke-linecap:butt;stroke-linejoin:miter;stroke-opacity:1"
       d="m 60.801963,126.56751 c 0,0 1.719139,-0.0381 2.120269,0 0.401131,0.0381 3.151762,0.57246 3.552902,0.8396 0.40113,0.26715 3.209061,0.68695 4.297846,1.29756 1.088792,0.61062 4.240554,1.87001 4.240554,1.87001 0,0 0.05735,0.26715 0.05735,0.64879 0,0.38163 0.171916,0.83959 -0.05735,0.95408 -0.229223,0.1145 -0.401139,0.34348 -1.031485,0.34348 -0.630353,0 0,0 -1.833753,0 -1.833755,0 -2.979847,0 -3.209071,0 -0.229207,0 -0.45843,0 -1.203392,-0.26715 -0.744961,-0.26715 -1.489923,-0.61062 -2.120277,-0.83959 -0.630354,-0.22899 -0.286523,0.11448 -1.375308,-0.53429 -1.088792,-0.64879 -1.375315,-0.72511 -1.776454,-1.22123 -0.401131,-0.49614 -0.974177,-1.48839 -0.974177,-1.48839 0,0 -0.229223,-0.11449 -0.286523,-0.4198 -0.05735,-0.30531 -0.401131,-1.18307 -0.401131,-1.18307 z"
       id="path150391" /><path
       style="fill:#292929;fill-opacity:1;stroke:none;stroke-width:0.468154px;stroke-linecap:butt;stroke-linejoin:miter;stroke-opacity:1"
       d="m 55.128785,133.85675 c 0,0 -0.286523,-0.91593 0.515747,-0.95409 0.802269,-0.0381 0.630353,-0.0381 1.948362,0.19082 1.318007,0.22898 1.088792,0.19082 2.292184,0.45796 1.203408,0.26715 2.865239,0.99225 3.896724,1.48838 1.031493,0.49613 4.068639,2.099 4.068639,2.099 0,0 -0.114608,-0.30531 0.05735,0.19082 0.171907,0.49612 0.171907,0.68694 0.171907,1.10674 0,0.41979 0.74497,0.64878 0,0.76327 -0.744953,0.11449 -0.573046,0.11449 -1.375316,0.11449 -0.802261,0 -3.323669,0 -3.782107,0 -0.458438,0 0.458438,0.34347 -1.489924,-0.3053 -1.948362,-0.64879 -0.458439,0.49612 -2.292184,-0.91593 -1.833754,-1.41205 -1.547232,-1.2594 -1.891062,-1.45021 -0.343823,-0.19082 -2.120278,-2.78595 -2.120278,-2.78595 z"
       id="path150393" /><path
       style="fill:#292929;fill-opacity:1;stroke:none;stroke-width:0.468154px;stroke-linecap:butt;stroke-linejoin:miter;stroke-opacity:1"
       d="m 51.805116,139.58129 c 0,0 -0.171916,-0.87777 -0.286524,-1.10675 -0.114607,-0.22897 -0.630353,-0.91592 -0.286522,-1.18307 0.343831,-0.26714 0.573046,-0.49612 1.375316,0.0382 0.80226,0.53429 1.146092,0.87775 1.719138,1.18307 0.573045,0.30531 1.489923,0.57245 2.292193,0.80143 0.802269,0.22899 2.636016,0.72511 2.636016,0.72511 0,0 1.088792,0.34347 1.2034,0.53428 0.114607,0.19082 0.744961,1.06859 0.744961,1.06859 0,0 0.114607,0.0763 -0.630354,0.11448 -0.744962,0.0381 -3.151754,0.19082 -4.240547,0.19082 -1.088792,0 -1.260708,0.19082 -1.661839,-0.0381 -0.401138,-0.22898 -1.375315,-0.95408 -1.375315,-0.95408 z"
       id="path150395" /></g></svg>
