<?xml version="1.0" encoding="UTF-8" standalone="no"?>
<svg
   id="svg4444"
   width="231.98"
   height="227.16"
   viewBox="0 0 231.98 227.16"
   version="1.1"
   sodipodi:docname="PIP_tortuga.svg"
   xml:space="preserve"
   inkscape:export-filename="PIP_ClanSmokeJaguar.svg"
   inkscape:export-xdpi="96"
   inkscape:export-ydpi="96"
   xmlns:inkscape="http://www.inkscape.org/namespaces/inkscape"
   xmlns:sodipodi="http://sodipodi.sourceforge.net/DTD/sodipodi-0.dtd"
   xmlns="http://www.w3.org/2000/svg"
   xmlns:svg="http://www.w3.org/2000/svg"><sodipodi:namedview
     id="namedview13"
     pagecolor="#505050"
     bordercolor="#ffffff"
     borderopacity="1"
     inkscape:showpageshadow="0"
     inkscape:pageopacity="0"
     inkscape:pagecheckerboard="1"
     inkscape:deskcolor="#505050"
     showgrid="false" /><defs
     id="defs4"><style
       id="style2">
      .cls-1 {
        stroke-width: 0px;
      }
    </style></defs><g
     inkscape:groupmode="layer"
     id="layer11"
     inkscape:label="Layer 2"
     style="display:inline"><ellipse
       style="display:inline;fill:#edede9;fill-opacity:1;stroke:none;stroke-width:0.760801"
       id="path151475"
       cx="115.86254"
       cy="109.34194"
       rx="116.68791"
       ry="106.51658" /></g><g
     inkscape:groupmode="layer"
     id="layer24"
     inkscape:label="Layer 3"
     style="display:inline"><path
       style="display:inline;fill:#050505;fill-opacity:1;stroke:none;stroke-width:0.634418px;stroke-linecap:butt;stroke-linejoin:miter;stroke-opacity:1"
       d="m 56.581186,139.00343 c 0,0.24454 -3.02189,4.34059 -3.02189,4.34059 l -1.116784,0.0611 c 0,0 -0.459856,0 -0.459856,-0.30568 0,-0.30568 -0.197077,-1.28383 -0.197077,-1.28383 0,0 -0.13139,-1.16158 -0.854015,0.0611 -0.722626,1.22271 -1.248174,1.71179 -2.036491,2.62882 -0.788325,0.91702 -1.248175,1.65066 -1.510949,1.71179 -0.262775,0.0611 -0.9854,-0.42795 -0.9854,-0.42795 l -0.656933,-1.46724 c 0,0 -23.386823,4.40173 -23.715289,4.40173 -0.328467,0 -8.08028,-5.07423 -8.08028,-5.07423 l -0.328466,-1.89519 c 0,0 0.45985,-1.71178 0.788317,-2.13973 0.328467,-0.42794 1.445257,-3.3013 1.445257,-3.3013 0,0 0.131383,-1.16157 0,-2.01747 -0.13139,-0.85588 -0.919708,-5.56329 -0.919708,-5.56329 l -0.328466,-5.31877 1.445249,-10.51525 c 0,0 0.722633,-0.0611 0.722633,-0.61136 0,-0.55022 0,-0.97817 0,-1.71178 0,-0.73363 -0.591242,-3.24017 -0.591242,-3.60699 0,-0.36681 -0.0657,-1.89518 0.262775,-2.38426 0.328467,-0.48909 4.598532,-7.764181 4.598532,-7.764181 v -4.157195 c 0,0 1.116782,-0.489079 1.510941,-1.100431 0.394166,-0.611352 0.788324,-1.16157 0.9854,-1.95633 0.197082,-0.79476 0.591241,-2.017464 1.11679,-2.323141 0.52555,-0.305626 13.795595,-25.309928 13.795595,-25.309928 l 8.605828,-13.082938 6.437947,-8.497795 8.277355,-9.781635 6.766413,-5.807846 2.036498,-1.895192 11.627713,-3.423573 15.766399,-2.445408 13.270048,-0.244541 -0.85401,0.917015 c 0,0 -3.35036,0 -4.00729,0 -0.65694,0 -7.423349,0.672488 -7.423349,0.672488 0,0 -4.53284,0.978163 -5.189772,1.161569 -0.656933,0.183405 -6.043788,0.917029 -6.832105,1.28384 -0.788318,0.366812 -11.956185,3.668113 -12.744502,3.97379 -0.788323,0.305676 -5.255465,2.384273 -5.255465,2.384273 l -10.708018,12.716126 -17.145952,24.576359 -3.284672,6.235792 0.591242,0.550217 c 0,0 0.262773,0.427946 0.985399,-0.183406 0.722632,-0.611352 0.591241,-1.956327 1.051099,-2.200867 0.45985,-0.244541 0.985399,-1.283841 1.773716,-1.895193 0.788317,-0.611351 2.562041,-1.40611 3.153281,-1.650651 0.591241,-0.244541 1.510943,-1.100433 1.708025,-1.344974 C 47.252739,63.745973 48.17244,61.3617 48.17244,61.3617 l 0.52555,-1.467247 c 0,0 1.11679,-4.3406 2.036491,-4.646276 0.919708,-0.305676 1.839415,-2.506544 3.021897,-3.301301 1.182476,-0.794759 5.583931,-4.890818 5.912398,-5.196495 0.328467,-0.305675 7.55473,-4.034925 7.55473,-4.034925 l 2.10219,-1.589514 4.99269,-1.467246 h 4.270065 l 1.708031,-1.40611 c 0,0 0.919701,-1.956328 2.562034,-2.506544 1.642339,-0.550217 5.846711,-2.56768 5.846711,-2.56768 0,0 4.861306,-2.017462 5.189772,-2.017462 0.328467,0 4.007291,-0.733622 4.007291,-0.733622 l 11.7591,-2.93449 3.61314,-1.28384 14.7153,-1.222705 8.34305,1.40611 7.68612,2.078598 5.8467,1.772921 3.15329,1.344975 1.51095,1.589515 c 0,0 1.57663,0 2.36495,0.244541 0.78832,0.244541 5.9781,0.427947 5.9781,0.427947 l 2.29926,0.917029 4.46714,1.161568 2.23358,1.16157 13.92698,10.943204 c 0,0 2.36497,3.545843 2.62774,3.729248 0.26277,0.183407 2.43065,2.323139 2.43065,2.689951 0,0.366811 0,1.406109 0.32847,2.078597 0.32846,0.672487 1.51095,1.52838 1.51095,1.52838 l 5.05838,5.3799 3.87591,8.681201 3.21897,10.759798 0.72262,3.851522 c 0,0 0,2.078592 0,2.323134 0,0.244542 -0.85401,1.161571 -0.85401,1.467246 0,0.305676 -0.65693,0.550218 -0.65693,0.550218 l -0.65693,-0.183408 -3.61313,-13.938828 c 0,0 -1.51095,-4.707412 -1.77372,-5.318764 -0.26278,-0.611352 -2.10219,-6.419198 -2.10219,-6.419198 l -1.31387,0.855893 -0.78832,-0.06113 c 0,0 0.19708,-2.139733 0.19708,-2.384274 0,-0.244541 -0.45986,-2.017462 -0.59124,-2.262003 -0.13139,-0.244541 -1.44525,-1.039299 -1.70802,-1.16157 -0.26278,-0.12227 -2.10219,-1.161569 -2.10219,-1.161569 v 0.917028 l -1.24817,0.06113 c 0,0 0.78831,0.978164 -1.0511,0 -1.83941,-0.978163 -6.76641,-4.462871 -6.76641,-4.462871 0,0 -4.27006,-2.751084 -5.64963,-2.751084 -1.37956,0 -7.16057,-1.283841 -7.16057,-1.283841 0,0 -0.9197,-0.550217 -1.11678,-0.855892 -0.19708,-0.305677 -1.70803,-5.685576 -1.70803,-5.685576 l -0.59124,-1.65065 c 0,0 -1.70803,-0.794758 -2.10219,-0.672487 -0.39416,0.12227 -2.16787,0.611352 -2.16787,0.611352 0,0 -0.59124,-0.366811 -1.0511,0.06113 -0.45986,0.427947 -1.18248,2.56768 -2.0365,3.179032 -0.85401,0.611352 -0.26277,0.794758 -1.31386,0.855893 -1.05109,0.06113 -2.43065,0.855893 -2.43065,0.855893 0,0 -9.52554,0.366811 -10.05107,0.305677 -0.52556,-0.06113 -3.0876,-1.344975 -4.27009,-1.467246 -1.18246,-0.12227 -1.97079,0.366812 -1.97079,0.366812 l -3.81021,-0.305677 c 0,0 -0.39416,-0.978163 -0.78832,-1.711785 -0.39417,-0.733623 0.26277,-1.0393 -0.72263,-1.100435 -0.98539,-0.06113 -1.83941,-0.06113 -2.23357,-0.06113 -0.39416,0 -0.9197,-0.183405 -1.37956,0.305677 -0.45986,0.489081 -3.28466,2.445408 -3.35036,3.056761 -0.0657,0.611351 0,1.52838 -0.32846,2.078598 -0.32848,0.550216 -1.31387,1.772921 -1.31387,1.772921 l -6.96349,4.524006 -14.25545,8.253255 c 0,0 -10.116775,5.563304 -10.445241,5.441033 -0.328466,-0.12227 -1.248174,-0.366811 -1.248174,-0.366811 0,0 -0.525549,-1.467245 -1.051091,-2.017462 -0.52555,-0.550216 -0.328467,-0.305676 -0.591242,-0.611352 -0.262775,-0.305675 -1.773723,-0.672487 -1.773723,-0.672487 0,0 0.131391,0.244541 -0.722625,0.244541 -0.854015,0 -2.233572,1.467245 -2.233572,1.467245 0,0 -0.722626,1.40611 -0.854016,1.895192 -0.131384,0.489081 -0.394159,1.956327 -0.328467,2.445408 0.0657,0.489083 1.708031,5.930117 1.708031,5.930117 l -1.57664,6.23579 c 0,0 -1.445257,4.096063 -1.445257,4.340605 0,0.244536 -1.642332,3.056761 -1.642332,3.056761 l -1.445251,1.528379 -2.824814,0.917029 c 0,0 -0.328467,-0.06114 -0.788317,0.305676 -0.459858,0.36681 -0.788325,4.401738 -0.788325,4.401738 0,0 0.9854,3.912652 1.248175,4.340592 0.262775,0.42795 1.248174,3.48471 1.248174,3.85153 0,0.36681 0.722625,3.79037 0.722625,4.09605 0,0.30568 0.197083,1.0393 0.197083,1.0393 l -5.058389,8.06984 -13.358472,12.33899 c 0,0 -0.83614,3.11249 -0.92904,3.54478 -0.09291,0.4323 -1.216114,2.94589 -1.216114,2.94589 z"
       id="path152307" /><path
       style="display:inline;fill:#000000;fill-opacity:1;stroke:none;stroke-width:0.634418px;stroke-linecap:butt;stroke-linejoin:miter;stroke-opacity:1"
       d="m 119.90955,125.85936 c 2.89051,-0.24454 9.32846,-2.81222 9.32846,-2.81222 l 3.15327,-7.09169 c 0,0 -1.44525,-1.58951 -2.49634,-0.61135 -1.0511,0.97816 -3.28467,4.40174 -3.28467,4.40174 l 0.78832,-4.27947 c 0,0 0.78832,-0.24454 -1.9708,-0.24454 -2.75912,0 -3.81021,0 -3.81021,0 l -3.15329,-0.61136 c 0,0 -3.28465,-0.36681 -5.38684,-0.24453 -2.10219,0.12227 -8.54014,1.95632 -8.54014,1.95632 0,0 0.1314,1.34498 -0.78832,2.56768 -0.9197,1.22271 -3.28466,3.05676 -3.28466,3.05676 l -7.357654,2.44541 -3.41605,1.83406 -4.861304,-4.03493 c 0,0 -1.839416,6.35806 -1.708032,7.70304 0.131391,1.34498 -1.051092,9.9039 -1.051092,9.9039 l 2.627733,-5.62443 h 0.919706 c 0,0 0.525549,2.20086 0.525549,2.93449 0,0.73362 -2.233572,4.40173 -2.233572,4.40173 l -2.496348,2.68995 c 0,0 -1.970799,0.48908 -1.970799,0 0,-0.48908 -2.890507,-5.86897 -2.890507,-5.86897 l -2.102183,-0.48909 c 0,0 0,23.47593 0.262767,22.13095 0.262775,-1.34498 1.313866,-8.80348 1.313866,-8.80348 0,0 0.919708,-2.20086 0.919708,-1.10043 0,1.10043 1.839416,15.89515 1.839416,15.89515 l -4.07299,-1.58951 5.518239,23.96501 3.153282,2.56768 c 0,0 -1.57664,-6.11352 -2.102183,-7.33622 -0.525549,-1.2227 -0.656933,-6.84715 -0.656933,-6.84715 l 12.744501,14.91699 c 0,0 7.35765,1.2227 8.01459,1.83406 0.65693,0.61135 7.88319,6.48033 8.80291,6.72487 0.9197,0.24455 7.22626,0.73362 8.93428,0.48908 1.70803,-0.24453 13.40144,-1.10042 13.7956,-1.58951 0.39415,-0.48909 4.59853,0.12227 5.51824,0.48909 0.91971,0.3668 4.99269,1.95632 8.14597,0.61134 3.15328,-1.34498 10.51093,-7.21395 11.03648,-7.70304 0.52555,-0.48908 5.25547,-0.73361 6.56932,-0.48908 1.31387,0.24454 6.56935,0.48908 6.56935,-0.48908 0,-0.97816 -1.83942,-6.96942 -1.83942,-7.4585 0,-0.48907 -1.9708,-1.83405 1.70803,-2.44541 3.67883,-0.61135 14.58391,-12.47158 14.58391,-12.47158 l 3.81022,-8.43666 6.70072,-4.03493 5.9124,-6.96941 1.05108,-6.60261 c 0,0 -4.7299,-4.27946 -4.7299,-5.37989 0,-1.10043 1.44525,-4.76854 1.44525,-4.76854 0,0 5.25546,-18.21831 5.25546,-18.95192 0,-0.73362 3.28467,-7.58077 3.28467,-7.58077 l -1.44525,-16.139704 -1.31387,-1.10043 -1.0511,1.344972 -61.35756,-26.288143 -61.357564,30.200797 2.627732,13.572018 9.197068,16.1397 2.233567,-2.0786 c 0,0 3.54744,-0.48908 1.708032,-1.46724 -1.839416,-0.97816 -7.09488,-14.55018 -7.09488,-14.55018 0,0 8.540129,12.34931 7.489038,11.37114 -1.051092,-0.97816 -3.941598,-19.440993 -3.941598,-19.440993 l 3.54744,-2.200867 c 0,0 8.408745,18.95191 9.065675,18.95191 0.65694,0 2.49634,-0.24453 2.49634,-0.24453 l -7.22626,-25.432258 c 0,0 1.83942,-4.524006 3.15329,-4.768548 1.31386,-0.244538 4.8613,0.244542 6.04377,-0.978161 1.18249,-1.222704 4.86131,-0.733622 4.86131,-0.244541 0,0.489082 1.57664,5.746708 1.57664,5.746708 l 1.44525,-7.213954 5.25547,-3.17903 c 0,0 -1.05109,4.401736 -0.26277,7.213956 0.78832,2.812218 7.09488,20.663708 9.06568,22.253228 1.97079,1.58951 8.8029,13.2052 8.40875,11.86023 -0.39417,-1.34498 -8.54014,-25.432255 -8.54014,-25.432255 l -1.31387,-13.816562 12.87589,10.759801 c 0,0 0.52555,0.244537 1.31387,-0.244542 0.78832,-0.489084 2.23357,-5.991252 2.23357,-5.991252 0,0 -1.9708,-6.235793 -0.9197,-5.991252 1.05109,0.24454 10.7737,4.524006 10.7737,4.524006 l -5.9124,17.240136 c 0,0 -1.05109,18.46283 -1.05109,16.99559 0,-1.46725 4.07299,-14.67246 4.07299,-14.67246 l 4.46714,-11.615689 c 0,0 0,-0.611353 0.52555,-0.611353 0.52555,0 3.81021,3.912654 3.81021,3.912654 0,0 1.31387,-0.611352 1.83942,-1.344971 0.52554,-0.733626 1.83941,0.855894 1.83941,0.855894 0,0 1.18247,3.179028 -0.13139,4.279464 -1.31386,1.100437 -3.94159,5.135361 -3.94159,5.135361 l -5.38686,15.16153 c 0,0 4.46714,-7.94758 4.59853,-8.55893 0.13139,-0.61135 3.9416,-5.01309 3.9416,-5.01309 0,0 2.62774,-3.17902 3.41605,-3.17902 0.78832,0 2.49636,0 2.49636,0 l -0.65694,7.45849 -2.75912,-0.85589 -2.36497,1.22271 -1.18247,5.74671 c 0,0 -1.44525,0.12226 -1.44525,0.61134 0,0.48908 -2.36497,14.42791 -2.36497,14.42791 0,0 -1.05109,14.18338 -0.9197,12.8384 0.13138,-1.34498 5.38685,-17.60694 5.38685,-17.60694 l 2.36496,-4.524 1.0511,-1.22271 1.97079,2.93449 -4.33575,10.39298 -1.57664,9.17028 1.18248,4.27947 c 0,0 -1.70803,-0.36682 -2.36497,0.24454 -0.65693,0.61135 -3.41606,3.05676 -3.41606,3.05676 l -11.43063,-2.81222 7.35766,5.62445 -4.72992,8.55892 -1.97081,7.4585 -2.75911,-1.58951 -7.75181,-16.75106 -1.05109,1.83406 5.781,16.99559 -2.8905,2.32314 -6.96349,-0.12227 -1.0511,-11.49342 1.70803,-11.6157 -1.44525,-0.12226 -4.46715,12.34932 c 0,0 1.57665,11.86023 -0.39415,11.86023 -1.97081,0 -14.18977,-1.58952 -14.18977,-1.58952 l 9.59122,-6.84715 -1.31386,-1.34496 -5.9124,-0.12228 -2.8905,1.10043 0.26277,-5.01309 8.80291,2.68995 c 0,0 -0.39417,-2.4454 -1.70803,-3.66811 -1.31387,-1.2227 -10.90509,-8.80347 -11.16787,-8.31439 -0.26277,0.48908 -0.65694,2.32314 -0.65694,2.32314 v 1.34497 c 0,0 -0.26276,0.97817 -0.65693,0.36682 -0.39415,-0.61135 -0.78832,-1.58952 -1.31386,-2.56769 -0.52554,-0.97816 -1.83941,-2.81222 -1.83941,-2.81222 l 0.78832,-2.68994 c 0,0 0,-0.12227 1.31386,-0.24455 1.31387,-0.12226 7.35765,3.17904 7.35765,3.17904 l 2.49636,2.0786 0.78831,-0.12228 c 0,0 0.78832,-0.24454 0.13138,-1.2227 -0.65693,-0.97817 -1.57663,-2.32314 -2.62772,-3.42357 -1.0511,-1.10044 -1.70803,-1.34498 -2.89052,-2.32314 -1.18247,-0.97817 -3.02188,-2.68996 -3.54744,-3.17903 -0.52553,-0.48908 -0.91969,-1.10044 -0.91969,-2.07859 0,-0.97818 -0.39416,-1.22271 0.65693,-1.22271 1.0511,0 3.02189,0 3.02189,0 l 4.72992,3.3013 c 0,0 1.9708,0 1.31387,-1.83406 -0.65693,-1.83405 -4.20437,-3.30131 -4.20437,-3.30131 l 0.52554,-1.58951 c 0,0 1.70802,0.36681 2.62773,-1.2227 0.91971,-1.58951 0.91971,-2.68996 0.91971,-2.68996 v -1.83405 z"
       id="path153490" /></g><g
     inkscape:groupmode="layer"
     id="layer25"
     inkscape:label="Layer 4"
     style="display:inline"><path
       style="fill:#ccaf39;fill-opacity:1;stroke:none;stroke-width:0.634418px;stroke-linecap:butt;stroke-linejoin:miter;stroke-opacity:1"
       d="m 76.946118,107.88561 c 0,0 1.708032,-1.22271 2.496349,-1.58952 0.788316,-0.36682 1.57664,-1.58952 2.233574,-3.17904 0.656932,-1.58951 0.919707,-3.301297 1.445249,-3.423564 0.52555,-0.122277 4.467147,-0.122277 4.467147,-0.122277 0,0 1.445257,-1.834054 2.890506,-2.689948 1.445251,-0.855895 6.963489,-3.301302 8.54013,-5.257626 1.576637,-1.956331 2.364967,-3.668113 3.153277,-4.524006 0.78833,-0.855895 1.44526,-2.812225 2.49636,-3.301304 1.05108,-0.489082 4.8613,-0.978163 6.83209,-1.589515 1.9708,-0.611354 3.94161,-1.222706 6.17518,-3.056762 2.23357,-1.834056 4.99269,-4.157195 5.9124,-4.890817 0.91971,-0.733623 0.65694,1.711786 3.28466,2.323137 2.62773,0.611353 6.04379,0.978165 7.62043,0.489082 1.57664,-0.489082 5.78101,-1.834056 7.22626,-2.200867 1.44527,-0.366812 6.83211,-4.034925 6.17517,-3.668114 -0.65693,0.366812 -1.83941,2.56768 -1.83941,3.179032 0,0.611352 -0.78831,2.323138 0.52555,3.056762 1.31386,0.733622 14.8467,4.279464 14.8467,4.279464 l 2.49634,-0.611352 3.02189,8.681203 4.46715,7.825309 c 0,0 1.70802,1.834055 1.8394,2.323133 0.1314,0.48909 -0.26276,4.64628 -0.26276,5.3799 v 3.66811 c 0,2.81223 -1.05109,8.92575 -1.05109,9.65937 0,0.73363 3.41604,5.62444 3.41604,5.62444 l -2.75912,0.48909 c 0,0 -3.67882,5.50216 -3.94159,6.48033 -0.26278,0.97816 -2.10219,9.65935 -2.10219,10.27071 0,0.61135 -0.78832,6.35806 -0.78832,6.35806 0,0 -2.62773,1.83406 -2.62773,2.32314 0,0.48909 -3.41605,2.20086 -3.41605,2.20086 0,0 -2.36496,3.91266 -2.49635,4.40175 -0.13139,0.48908 -2.49635,9.90391 -2.49635,9.90391 l 0.13139,3.91265 h 4.33576 c 1.31386,0 4.20437,-0.36682 6.17517,-1.71179 1.9708,-1.34497 5.51824,-4.27946 6.56934,-5.25763 1.05109,-0.97817 6.17516,-3.42358 6.96348,-4.64628 0.78833,-1.2227 1.57665,-2.68995 1.57665,-2.68995 l -11.56203,-5.3799 1.9708,-0.97816 c 0,0 9.06568,-0.8559 10.51094,-0.97816 1.44525,-0.12228 5.51824,-1.71179 6.70071,-2.93449 1.18248,-1.22271 3.15328,-0.97817 4.20438,-2.44541 1.05109,-1.46725 3.15327,-7.33622 3.15327,-7.33622 0,0 -3.28466,-1.95634 -3.9416,-2.0786 -0.65693,-0.12228 -5.64963,-1.58951 -5.25546,-2.44541 0.39416,-0.85589 4.99269,-0.85589 6.56933,-0.85589 1.57665,0 4.86131,0.24454 5.51824,0.24454 0.65693,0 3.28467,-3.17904 3.28467,-3.17904 0,0 8.27736,-8.80347 8.14596,-6.84714 -0.13138,1.95633 1.70804,6.96942 1.70804,6.96942 l -1.18248,23.84273 3.67882,-16.50651 1.44525,-15.16153 -1.44525,-8.80348 -3.28466,-0.48908 -0.52555,3.66811 -6.96349,6.84716 1.44525,-8.3144 -0.78832,-7.94758 -16.94887,1.71179 17.08025,-5.25763 c 0,0 3.54744,-7.580767 3.81022,-8.069851 0.26277,-0.489078 5.9124,-9.292555 5.9124,-9.292555 l 1.44525,-0.244538 c 0,0 4.59854,30.078534 4.72993,29.589454 0.13138,-0.48909 1.05108,-6.35807 1.05108,-6.35807 V 93.946768 l -1.44525,-13.816556 -1.83941,-7.091685 -3.9416,-1.100435 -2.62774,10.637529 -2.75912,5.991253 -3.67882,2.68995 -1.57664,-1.58952 -6.04379,-20.05235 -1.83941,-3.790384 -5.19386,-5.418001 -6.68912,-2.247914 c 0,0 -6.31749,-4.49583 -7.24653,-4.841663 -0.92906,-0.345832 -8.73302,-1.383332 -8.73302,-1.383332 -2.50769,-19.837188 -12.26338,-2.305554 -18.39507,-3.45833 0,0 -9.29043,-1.210416 -11.33434,-1.210416 -2.0439,0 -7.24654,-1.902081 -7.24654,-1.902081 0,0 -3.90197,-1.037499 -4.83102,-0.172917 -0.92905,0.864583 -5.01684,9.164575 -5.01684,9.164575 l -7.06074,3.631247 c 0,0 -15.79374,8.645826 -17.466016,9.510408 -1.672281,0.864583 -7.432356,0.691666 -7.432356,0.691666 l -0.371614,-0.518749 c 0,0 0.185811,-1.037499 -0.557425,-1.210416 -0.743236,-0.172917 -2.601327,2.074998 -2.601327,2.074998 0,0 -3.716171,2.247915 -2.601321,3.631248 1.11485,1.383332 2.972941,5.879161 2.972941,5.879161 0,0 -0.743234,2.247915 -1.672281,5.187495 -0.929039,2.939582 -3.158746,7.262493 -3.158746,7.262493 0,0 -0.557425,1.902081 -1.672281,2.593747 -1.114851,0.691667 -3.530368,1.729164 -3.530368,1.729164 l -0.92904,1.902082 z"
       id="path153492"
       sodipodi:nodetypes="cssscsssssssssssssccccssssccsscscsccsssscccssscsssscsccccccccccccsccscccccccccccccsccscsccsccscscscsccc" /><path
       style="fill:#ccaf39;fill-opacity:1;stroke:none;stroke-width:0.634418px;stroke-linecap:butt;stroke-linejoin:miter;stroke-opacity:1"
       d="m 198.61016,63.868244 c 0,0 1.83941,-1.956328 3.28466,-3.056762 1.44525,-1.100434 2.36496,-3.423572 3.54744,-4.401736 1.18248,-0.978163 3.15328,-4.890818 3.15328,-4.890818 0,0 1.31387,-1.956326 2.10219,-2.078597 0.78832,-0.12227 3.81021,3.423572 3.81021,4.401736 0,0.978164 0,4.524007 0,5.50217 0,0.978163 0.52555,5.013088 -0.39415,6.113522 -0.91972,1.100434 -2.89051,7.580768 -2.89051,8.069849 0,0.489082 -3.41606,6.724874 -3.41606,7.703037 0,0.978165 -0.91971,3.790385 -0.91971,3.790385 0,0 -1.05109,0.73362 -0.9197,-2.445409 0.13138,-3.179032 1.0511,-3.545843 1.57663,-5.991253 0.52555,-2.445408 0.65694,-2.323137 0.52555,-4.646276 -0.13138,-2.323138 -0.65693,-8.314389 -0.65693,-8.314389 0,0 -3.81021,0.489081 -5.12408,1.834056 -1.31387,1.344974 -2.49634,3.179032 -2.8905,2.445409 -0.39417,-0.733623 -0.78832,-4.034924 -0.78832,-4.034924 z"
       id="path159290" /></g><g
     inkscape:groupmode="layer"
     id="layer26"
     inkscape:label="Layer 5"><path
       style="display:inline;fill:#72501d;fill-opacity:1;stroke:none;stroke-width:0.634418px;stroke-linecap:butt;stroke-linejoin:miter;stroke-opacity:1"
       d="m 87.805413,83.231549 c 1.486471,-1.556248 5.202649,-5.533328 5.38846,-6.224994 0.185804,-0.691666 3.158746,-6.570827 3.158746,-6.570827 l 5.945881,-6.570828 2.97294,-2.074999 c 0,0 2.60132,2.247915 2.60132,3.631247 0,1.383332 -2.60132,33.372886 -2.60132,33.372886 l 5.38845,-12.277073 c 0,0 2.41552,-15.216651 2.60133,-16.25415 0.1858,-1.0375 0.37161,-11.412491 0.1858,-12.622906 -0.1858,-1.210415 -2.60132,-6.224994 -2.60132,-6.224994 0,0 -2.78713,-0.864583 -3.90198,-0.172917 -1.11485,0.691666 -2.2297,2.939581 -2.2297,3.97708 0,1.037499 0.55742,0.691666 -2.97295,4.322913 -3.530366,3.631246 -7.803968,8.472908 -7.803968,8.472908 l -1.672276,1.0375 -4.459413,-2.074999 c 0,0 -2.60132,0.345834 -3.344556,1.037499 -0.743236,0.691666 -2.972942,5.01458 -2.972942,6.397912 0,1.383332 6.317498,8.818742 6.317498,8.818742 z"
       id="path165311" /><path
       style="fill:#856026;fill-opacity:1;stroke:none;stroke-width:0.634418px;stroke-linecap:butt;stroke-linejoin:miter;stroke-opacity:1"
       d="m 130.91305,51.414911 7.80396,-11.412491 2.41552,-5.706245 0.18581,-0.172916 c 0,0 2.60132,-0.345833 3.53037,-0.345833 0.92905,0 4.45941,3.631247 4.64522,4.841662 0.18581,1.210415 4.08779,18.156235 4.2736,19.36665 0.18581,1.210416 -0.37162,10.202074 0.37162,11.585407 0.74323,1.383332 1.67227,4.668746 1.67227,4.668746 0,0 -9.66205,-26.456227 -10.21947,-28.185392 -0.55743,-1.729165 -4.45942,-6.397912 -4.45942,-6.397912 0,0 -6.13169,7.089578 -6.13169,8.299993 0,1.210416 -3.53037,4.841663 -3.53037,4.841663 v -1.383332 -0.51875 z"
       id="path168211" /><path
       style="fill:#815e22;fill-opacity:1;stroke:none;stroke-width:0.634418px;stroke-linecap:butt;stroke-linejoin:miter;stroke-opacity:1"
       d="m 159.3418,58.504488 5.76007,-7.43541 4.4594,-5.533328 4.45941,-2.766666 9.84788,13.660406 7.61815,34.5833 c 0,0 0,-9.683322 0.18581,-10.374989 0.18581,-0.691665 -0.92904,-6.570827 -0.92904,-7.608326 0,-1.037498 -0.37162,-8.127077 -0.74324,-9.164575 -0.37162,-1.0375 -2.2297,-5.706245 -2.2297,-5.706245 l -6.13169,-20.40415 c 0,0 -2.41552,-1.556248 -2.78713,-2.766664 -0.37162,-1.210415 -1.30066,-2.93958 -1.30066,-2.93958 l -5.01685,0.518749 -1.30066,3.804164 -5.38845,9.337492 -1.30066,-2.074998 c 0,0 -2.41551,-0.518751 -3.53036,-0.172917 -1.11486,0.345834 -4.0878,1.210416 -5.20266,2.939581 -1.11485,1.729165 -2.78713,3.97708 -2.78713,3.97708 z"
       id="path170628" /><path
       style="fill:#946a22;fill-opacity:1;stroke:none;stroke-width:0.634418px;stroke-linecap:butt;stroke-linejoin:miter;stroke-opacity:1"
       d="m 195.2029,66.112814 c 0.92904,-0.345833 4.08779,-0.864583 5.57426,-3.112497 1.48646,-2.247915 0.74323,-2.766664 2.60132,-3.45833 1.85808,-0.691667 4.83102,-3.97708 4.83102,-3.97708 l 1.67228,-5.014579 3.90199,0.864583 -0.92905,3.804163 2.78714,3.45833 c 0,0 -1.11485,3.112497 -1.11485,3.97708 0,0.864582 -9.10464,22.997898 -9.10464,22.997898 0,0 -0.55742,-3.804165 0.37162,-5.53333 0.92904,-1.729165 2.41551,-4.322913 2.41551,-6.224994 0,-1.902081 0,-6.397912 0,-7.262494 0,-0.864583 1.85809,-3.112498 0,-2.593748 -1.85809,0.518749 -7.98977,4.322913 -7.98977,4.322913 l -4.2736,1.383332 -0.74323,-2.939581 z"
       id="path173597" /></g><g
     inkscape:groupmode="layer"
     id="layer27"
     inkscape:label="Layer 6"
     style="stroke:none"><path
       style="fill:#fcf694;fill-opacity:1;stroke:none;stroke-width:0.634418px;stroke-linecap:butt;stroke-linejoin:miter;stroke-opacity:1"
       d="m 17.953513,146.52306 c 0,0 -4.13868,3.72924 -4.467147,4.46287 -0.328467,0.73363 -3.8759076,4.64628 -4.3357581,5.13536 -0.4598506,0.48908 -3.2846648,4.21833 -3.6131315,4.89082 -0.3284667,0.67248 -0.5912414,7.09168 -0.7883232,7.58077 -0.1970769,0.48907 0.3941646,3.24016 0.3941646,3.24016 0,0 4.3357568,0.0611 5.2554652,0.0611 0.919707,0 5.518239,-0.61136 6.306556,-1.16158 0.788324,-0.55021 3.218974,-1.58951 4.138681,-2.07859 0.919707,-0.48908 4.795614,-4.21833 5.058388,-4.52401 0.262775,-0.30568 2.364958,-4.1572 2.956199,-4.95196 0.591241,-0.79475 1.970799,-3.54584 1.773716,-3.3013 -0.197076,0.24455 -2.233574,2.0786 -2.759116,2.32315 -0.525549,0.24453 -4.007296,1.2227 -4.66423,1.58951 -0.656933,0.36681 -2.430649,1.0393 -2.693424,1.0393 -0.262775,0 -2.56204,-0.24454 -2.56204,-0.24454 0,0 -0.45985,-0.30568 -0.262774,-1.16157 0.197082,-0.85589 3.087589,-4.21833 3.218973,-4.58514 0.131391,-0.36682 2.364964,-3.42358 2.627732,-3.72925 0.262775,-0.30568 1.839415,-1.40612 1.839415,-1.40612 L 24.52285,147.0121 c 0,0 -0.722631,0.48908 -1.248174,0.85588 -0.525549,0.36682 -0.854016,0.61136 -0.854016,0.61136 l -2.824814,-1.46724 -1.970799,-0.55022 z"
       id="path179809" /><path
       style="fill:#fcf694;fill-opacity:1;stroke:none;stroke-width:0.634418px;stroke-linecap:butt;stroke-linejoin:miter;stroke-opacity:1"
       d="m 24.917009,146.03398 1.839408,5.93011 1.11679,-1.89519 0.0657,-1.0393 c 0,0 1.313867,0.48909 1.510949,0.91703 0.197076,0.42795 4.00729,5.13536 4.00729,4.40174 0,-0.73363 0.0657,-4.03493 0.0657,-4.3406 0,-0.30568 0,-1.16157 0,-1.16157 l 2.10219,1.46724 c 0,0 0.722625,-1.77292 0.85401,-2.50654 0.131389,-0.73362 0.197081,-3.17903 0.197081,-3.17903 0,0 0.262775,2.44541 0.459851,3.3013 0.197083,0.85589 0.459857,1.71179 0.459857,1.71179 0,0 2.102183,0.18341 2.102183,-0.42795 0,-0.61135 0.328467,-3.60698 0.328467,-3.60698 0,0 0.854016,-0.61135 1.510949,0 0.656933,0.61135 0.9854,2.50655 0.9854,2.50655 l 2.233573,-0.91703 c 0,0 1.576641,-1.34497 2.036492,-2.0786 0.459857,-0.73363 0.328466,-2.38428 0.197082,-2.75108 -0.131391,-0.36681 -1.11679,-1.34498 -1.379558,-1.34498 -0.262774,0 -0.591241,-0.30568 -0.919707,0.24454 -0.328467,0.55022 -2.167882,0.85589 -2.167882,0.85589 0,0 -0.722626,-1.10043 -1.116784,-1.95632 -0.394165,-0.8559 -2.167882,-3.48471 -2.167882,-3.48471 0,0 0,-0.67249 -0.854015,0.3668 -0.854009,1.03931 -1.576642,2.50656 -1.576642,3.17905 0,0.67247 0,0.97815 0,0.97815 0,0 -2.036491,-1.58951 -2.890506,-1.95632 -0.854009,-0.36681 -1.510943,-0.73362 -1.576634,0.0611 -0.0657,0.79476 -0.328467,1.16157 -0.328467,1.77292 0,0.61135 -0.197082,0.85589 -0.197082,1.28384 0,0.42794 -1.248175,0.48909 -1.248175,0.48909 0,0 -0.45985,-0.6725 -0.788317,-0.6725 -0.328466,0 -0.59124,-0.85588 -1.379565,0.73363 -0.788316,1.58951 -0.45985,1.95632 -0.788316,2.01747 -0.328467,0.0611 -1.248175,-0.12228 -1.773717,0.0611 -0.525549,0.1834 -0.919707,1.0393 -0.919707,1.0393 z"
       id="path179811" /><path
       style="fill:#fcf694;fill-opacity:1;stroke:none;stroke-width:0.634418px;stroke-linecap:butt;stroke-linejoin:miter;stroke-opacity:1"
       d="m 46.201641,135.76326 c 0,0 0.131391,-2.13973 1.116791,-3.36243 0.985399,-1.2227 3.744515,-5.93013 3.744515,-5.93013 l 2.496349,-2.07859 c 0,0 1.051091,-1.52838 2.167882,-1.65065 1.116783,-0.12227 14.912384,-3.85152 14.912384,-3.85152 0,0 1.248174,0.55022 1.510942,0.8559 0.262775,0.30567 1.313873,2.81221 1.510948,3.24016 0.197083,0.42795 0,2.62882 0,4.03493 0,1.40611 -1.116782,11.92136 -1.116782,11.92136 0,0 -13.007278,11.06548 -13.532827,11.55456 -0.525549,0.48908 -5.12408,2.87336 -5.452547,2.81222 -0.328467,-0.0611 -12.875894,1.58952 -12.875894,1.58952 0,0 0.656934,-1.16157 2.10219,-1.58952 1.44525,-0.42795 2.759117,-1.52838 4.664224,-2.50655 1.905107,-0.97815 2.299266,-1.46724 3.875906,-2.75108 1.576641,-1.28384 5.255464,-4.03493 5.781014,-4.76855 0.525549,-0.73362 2.233573,-2.32314 3.481747,-3.42357 1.248175,-1.10044 2.956199,-2.44541 3.153282,-3.42357 0.197076,-0.97817 0,-4.09606 0,-4.58515 0,-0.48907 -0.591241,-1.71178 -0.591241,-1.71178 0,0 -1.248174,-0.1834 -1.970799,0.36682 -0.722632,0.55022 -5.321163,3.05675 -5.321163,3.05675 0,0 -1.773718,0.36681 -2.036491,0.61136 -0.262775,0.24454 -2.233574,2.262 -2.233574,2.262 0,0 -0.394159,0.79475 -0.788317,1.0393 -0.394166,0.24454 -1.708032,0.79475 -1.708032,0.79475 h -1.510942 c 0,0 -0.525549,-0.1834 -0.656933,-0.55021 -0.13139,-0.36682 -0.656933,-0.97816 -0.656933,-0.97816 z"
       id="path179813" /></g><g
     inkscape:groupmode="layer"
     id="layer28"
     inkscape:label="Layer 7"><path
       style="fill:#7c7c33;fill-opacity:1;stroke:none;stroke-width:0.634418px;stroke-linecap:butt;stroke-linejoin:miter;stroke-opacity:1"
       d="m 22.94621,133.31786 c -0.52555,-0.73362 -2.759124,-3.17904 -2.890507,-4.40174 -0.13139,-1.2227 -0.262774,-4.52401 -0.262774,-5.50217 0,-0.97817 -1.313867,-8.19212 -0.919708,-9.17029 0.394158,-0.97815 1.182482,-5.62444 1.57664,-6.72487 0.394159,-1.10043 4.99269,-5.62444 5.386855,-6.84714 0.394159,-1.222708 5.781007,-8.681205 6.437941,-9.048015 0.656932,-0.366811 8.145978,-2.812225 8.145978,-2.812225 l 4.598531,2.689951 c 0,0 2.102183,2.445407 2.233573,3.790385 0.131385,1.344973 0.262769,2.934493 0.131385,3.912655 -0.131385,0.978159 -3.284666,5.379899 -3.284666,5.379899 0,0 -2.496348,4.27946 -3.284665,5.13536 -0.788324,0.85589 -3.284665,8.06985 -3.284665,8.55892 0,0.48909 -1.576641,6.11353 -1.9708,6.96942 -0.394165,0.85589 -1.708031,2.56768 -3.153281,4.27947 -1.445257,1.71179 -4.598532,3.91266 -5.124081,4.27947 -0.525549,0.36681 -4.335756,-0.48908 -4.335756,-0.48908 z"
       id="path186233" /><path
       style="fill:#7c7c33;fill-opacity:1;stroke:none;stroke-width:0.634418px;stroke-linecap:butt;stroke-linejoin:miter;stroke-opacity:1"
       d="m 41.471726,114.85502 -0.656933,-3.05676 c 0,0 0.131384,-1.71179 0.788317,-2.20087 0.656933,-0.48908 2.890507,-2.44542 3.416056,-2.93449 0.525543,-0.48908 2.759116,-1.83406 2.759116,-1.83406 0,0 1.9708,-0.12227 2.496348,0 0.52555,0.12227 1.182482,2.81222 0.788317,3.66811 -0.394158,0.8559 -1.051092,1.83406 -2.233566,3.54585 -1.182483,1.71178 -1.182483,2.56767 -2.759124,2.56767 -1.57664,0 -4.598531,0.24455 -4.598531,0.24455 z"
       id="path186235" /><path
       style="fill:#7c7c33;fill-opacity:1;stroke:none;stroke-width:0.634418px;stroke-linecap:butt;stroke-linejoin:miter;stroke-opacity:1"
       d="m 50.931564,95.047204 c 0,0 1.839415,-4.157196 1.839415,-4.768548 0,-0.611352 2.496341,-6.11352 2.759116,-6.724872 0.262775,-0.611352 2.496349,-2.934491 3.153281,-3.790383 0.656933,-0.855894 2.759116,-2.56768 3.810214,-2.56768 1.051092,0 4.072983,-0.489082 4.072983,-0.489082 0,0 3.153281,0 3.416056,0.611353 0.262775,0.611352 0.525543,1.467245 0.525543,2.200868 0,0.733622 0.13139,4.401735 -0.131384,5.13536 -0.262775,0.73362 -4.467148,6.724872 -5.255465,7.213957 -0.788323,0.489078 -5.386855,2.934485 -6.043788,3.179027 -0.656934,0.244542 -3.941599,1.467247 -3.941599,1.467247 z"
       id="path186237" /><path
       style="fill:#7c7c33;fill-opacity:1;stroke:none;stroke-width:0.634418px;stroke-linecap:butt;stroke-linejoin:miter;stroke-opacity:1"
       d="m 64.201616,75.606205 v -0.855893 -2.68995 c 0,0 4.072989,-1.834056 4.729921,-1.834056 0.656933,0 4.204373,1.467245 4.204373,1.467245 0,0 0.656933,1.222705 0.656933,2.56768 0,1.344974 -0.262774,2.445408 -0.262774,2.445408 0,0 -0.262775,0 -0.919707,0 -0.656934,0 -8.408746,-1.100434 -8.408746,-1.100434 z"
       id="path186239" /><path
       style="fill:#7c7c33;fill-opacity:1;stroke:none;stroke-width:0.634418px;stroke-linecap:butt;stroke-linejoin:miter;stroke-opacity:1"
       d="m 71.427879,65.82457 c 0.131391,-0.489082 4.729922,-7.458496 4.729922,-7.458496 l 7.489039,-11.493422 12.218958,-13.205208 10.248162,-9.781635 -1.97081,4.768547 -18.91967,24.209547 -7.226264,10.7598 -1.57664,2.812219 c 0,0 -2.10219,1.344975 -2.759124,1.344975 -0.656932,0 -1.839415,0.244542 -1.970799,-0.244541 C 71.55927,67.047274 71.427879,65.82457 71.427879,65.82457 Z"
       id="path186241" /><path
       style="fill:#060403;fill-opacity:1;stroke:none;stroke-width:0.634418px;stroke-linecap:butt;stroke-linejoin:miter;stroke-opacity:1"
       d="m 105.85117,23.885809 c 0,0 2.23359,-1.467245 3.28468,-2.323138 1.0511,-0.855893 5.38685,-4.768547 5.38685,-4.768547 l 8.54014,-5.257629 c 0,0 9.45983,-3.179032 10.37954,-3.5458431 0.9197,-0.3668111 8.54013,-2.8122206 9.98538,-2.8122206 1.44526,0 8.40875,-0.3668111 10.11677,-0.4890811 1.70803,-0.122271 15.89779,3.1790307 15.89779,3.1790307 0,0 16.16055,5.2576291 17.21165,5.5021701 1.05109,0.244541 12.8759,5.62444 12.8759,5.62444 l 9.98538,7.580768 1.18248,2.812219 0.78832,9.048013 -2.75912,-9.170283 c 0,0 -0.39417,-1.956327 -1.44525,-2.567679 -1.05111,-0.611352 -16.02918,-8.925742 -16.02918,-8.925742 l -17.21164,-6.724873 c 0,0 -4.86131,-0.122271 -5.91241,-0.611354 C 167.07736,9.9469793 153.54453,7.0124887 152.75621,7.7461109 151.96789,8.479733 139.35478,10.43606 139.35478,10.43606 l -9.06568,2.934491 c 0,0 -12.48174,7.458497 -13.92699,8.681201 -1.44526,1.222705 -4.46714,4.157196 -5.25546,4.768548 -0.78832,0.611352 -5.25548,2.567678 -5.25548,2.567678 h -1.70802 z"
       id="path188456" /><path
       style="fill:#060403;fill-opacity:1;stroke:none;stroke-width:0.634418px;stroke-linecap:butt;stroke-linejoin:miter;stroke-opacity:1"
       d="m 31.365997,158.23409 1.114856,0.25937 c 0,0 0.371616,-0.0431 0.371616,0.51874 0,0.56199 0,1.38334 0,1.38334 l -0.789685,0.47552 c 0,0 -0.557426,0.0432 -0.882591,0 -0.325172,-0.0431 -0.557432,-0.0865 -0.557432,-0.38906 0,-0.3026 0,-0.38907 0,-0.86458 0,-0.47552 0.743236,-1.59948 0.743236,-1.59948 z"
       id="path192383" /><path
       style="fill:#060403;fill-opacity:1;stroke:none;stroke-width:0.634418px;stroke-linecap:butt;stroke-linejoin:miter;stroke-opacity:1"
       d="m 35.360884,154.86222 c 0,0 1.068401,-0.64844 1.254211,-0.69167 0.185811,-0.0433 0.789692,-0.0433 1.021952,-0.0864 0.23226,-0.0432 1.30066,0.38906 1.30066,0.38906 0,0 0.232261,0.0432 0.232261,0.30261 0,0.25937 0.04643,1.03749 0,1.34009 -0.04643,0.30261 0.139355,0.56199 -0.371615,0.90782 -0.510976,0.34584 -0.929046,0.60521 -1.347116,0.86458 -0.418071,0.25938 -0.696787,0.38906 -1.068402,0.34584 -0.371614,-0.0432 -0.975495,-0.60521 -0.975495,-0.60521 l -0.278716,-1.16719 c 0,0 0,-0.82135 0,-1.0375 0,-0.21614 0.23226,-0.56197 0.23226,-0.56197 z"
       id="path192385" /><path
       style="fill:#060403;fill-opacity:1;stroke:none;stroke-width:0.634418px;stroke-linecap:butt;stroke-linejoin:miter;stroke-opacity:1"
       d="m 38.751897,161.26013 c 0,0 -1.11485,0.73489 -1.393565,1.12395 -0.27871,0.38907 -1.532922,1.16719 -1.672276,1.68594 -0.139361,0.51875 -0.41807,0.99426 -0.18581,1.46979 0.232259,0.47553 0.278709,1.7724 0.929039,1.81562 0.650337,0.0433 1.393566,-0.17291 1.765187,-0.34584 0.371614,-0.17291 0.603881,0.0433 1.021945,-0.47551 0.41807,-0.51874 1.393566,-1.08073 1.532927,-1.64271 0.139354,-0.56198 0.04643,-1.03749 0.139354,-1.3401 0.09291,-0.30261 0.278717,-0.34583 0.232261,-0.77812 -0.04643,-0.43229 0.04643,-0.34583 -0.232261,-0.69167 -0.278715,-0.34583 -0.83614,-0.82135 -1.068401,-0.82135 -0.232259,0 -1.0684,0 -1.0684,0 z"
       id="path192387" /><path
       style="fill:#060403;fill-opacity:1;stroke:none;stroke-width:0.634418px;stroke-linecap:butt;stroke-linejoin:miter;stroke-opacity:1"
       d="m 46.323608,163.50804 c 0,0 -0.418071,-0.34583 -0.418071,-0.90782 0,-0.56197 -0.09291,-0.9078 0.232261,-1.34009 0.325164,-0.43229 -0.232261,-0.82136 0.743235,-0.64844 0.975495,0.17291 1.11485,0.51875 1.34711,0.82135 0.232266,0.30261 0.510976,1.46979 0.510976,1.46979 0,0 -0.371615,0.56198 -0.603875,0.69167 -0.232266,0.12969 -1.625832,-0.21615 -1.625832,-0.21615 z"
       id="path192389" /><path
       style="fill:#060403;fill-opacity:1;stroke:none;stroke-width:0.634418px;stroke-linecap:butt;stroke-linejoin:miter;stroke-opacity:1"
       d="m 36.615095,177.73042 c 0,0 1.021952,0.86459 1.207756,1.08073 0.185811,0.21615 1.207761,0.73489 1.207761,1.55625 0,0.82135 -0.0929,1.29687 -0.0929,1.55624 0,0.25938 -0.232259,0.82136 -0.557424,0.82136 -0.325166,0 -2.369062,0.82135 -2.369062,0.82135 0,0 -0.41807,0.12969 -0.789692,0 -0.371614,-0.12969 -1.625825,-0.25936 -1.625825,-0.43229 0,-0.17291 -0.139355,-0.82135 0,-1.12395 0.139355,-0.30261 0.696786,-1.16719 0.743235,-1.38334 0.04643,-0.21614 0.0929,-0.43229 0.603881,-1.08073 0.51097,-0.64843 0.325166,-0.43229 0.51097,-0.64843 0.18581,-0.21615 0.975495,-0.95104 1.161305,-1.16719 z"
       id="path192391" /><path
       style="fill:#060403;fill-opacity:1;stroke:none;stroke-width:0.634418px;stroke-linecap:butt;stroke-linejoin:miter;stroke-opacity:1"
       d="m 28.718226,172.58616 c 0,0 -1.114857,-1.08073 -1.254211,-1.29688 -0.139355,-0.21614 -1.0684,1.0375 -0.371621,-0.69167 0.696786,-1.72916 0.696786,-1.51302 0.789691,-1.85885 0.0929,-0.34583 0,-0.82135 0.371615,-1.12395 0.371621,-0.3026 0.510975,-0.43229 1.207762,-0.21615 0.696779,0.21615 1.068394,0.25937 1.300661,0.38906 0.23226,0.12969 1.347109,1.4698 1.625825,1.81562 0.27871,0.34584 0.371615,0.21615 -0.18581,0.77813 -0.557425,0.56198 -0.882591,0.86458 -1.021945,1.29687 -0.139361,0.4323 -0.371622,0.7349 -0.650337,0.90782 -0.278709,0.17291 -0.510969,0.17291 -0.836134,0.17291 -0.325166,0 -0.975496,-0.17291 -0.975496,-0.17291 z"
       id="path192393" /><path
       style="fill:#060403;fill-opacity:1;stroke:none;stroke-width:0.634418px;stroke-linecap:butt;stroke-linejoin:miter;stroke-opacity:1"
       d="m 49.853976,175.1799 c -0.232267,-0.0432 -1.021952,-0.47552 -1.254211,-0.77812 -0.232261,-0.3026 -0.418071,-0.43229 -0.371622,-0.86458 0.04643,-0.43229 1.950997,-2.37761 1.950997,-2.37761 0,0 0.69678,-0.56198 0.88259,-0.43228 0.185811,0.12968 0.27871,0.69167 0.557426,0.90781 0.278716,0.21615 0.60388,1.16719 0.60388,1.16719 0,0 0,0.47551 -0.510975,0.9078 -0.510976,0.43229 -1.718731,1.55625 -1.718731,1.55625 l -0.278716,-0.3026 z"
       id="path192395" /></g></svg>
