<?xml version="1.0" encoding="UTF-8"?>
<svg id="svg4444" xmlns="http://www.w3.org/2000/svg" width="223.4" height="228.04" viewBox="0 0 223.4 228.04">
  <defs>
    <style>
      .cls-1 {
        fill: #2cb5cf;
      }

      .cls-1, .cls-2, .cls-3, .cls-4, .cls-5, .cls-6, .cls-7, .cls-8, .cls-9 {
        stroke-width: 0px;
      }

      .cls-2 {
        fill: #9a343e;
      }

      .cls-4 {
        fill: #111f22;
      }

      .cls-5 {
        fill: #fff;
      }

      .cls-6 {
        fill: #f7e333;
      }

      .cls-7 {
        fill: #11191d;
      }

      .cls-8 {
        fill: #05547d;
      }

      .cls-9 {
        fill: #41cdcd;
      }
    </style>
  </defs>
  <g id="layer11">
    <path id="path77948" class="cls-6" d="m0,85.39l67.76,57.06s-26.72,86.62-25.17,84.98c1.55-1.64,69.3-56.24,69.3-56.24,0,0,73.95,60.76,71.63,56.65-2.32-4.11-29.04-87.44-29.04-87.44l68.92-52.55-85.95-2.87L113.06,0s-25.94,86.62-28.26,86.62S0,85.39,0,85.39Z"/>
  </g>
  <g id="layer8">
    <path id="path80419" class="cls-4" d="m84.79,90.93l8.32-4.31,5.81-12.11,10.84-17.86,5.81-8.62,7.74-3.9,12.2,1.85,10.45,6.57s1.94,14.57,1.74,15.39c-.19.82-4.07,12.73-4.84,13.75-.77,1.03-6.97,8.01-6.97,8.01l-7.94,4.72-5.03,1.23s-10.55,5.75-11.91,7.59c-1.36,1.85-7.16,12.21-7.74,13.86-.58,1.64-3.39,7.9-3.39,7.9,0,0,25.75-5.34,27.88-6.36,2.13-1.03,12-6.77,14.52-8.62,2.52-1.85,14.71-15.81,15.29-17.86.58-2.05,4.45-10.26,6.39-13.55,1.94-3.28,6-8.42,6-10.47s.77-12.52.77-14.37-2.13-9.24-2.9-10.47c-.77-1.23-9.29-10.26-9.29-10.26,0,0-5.03-5.13-6.58-5.95s-23.42-4.31-23.42-4.31c0,0-11.03.82-12.78,1.03-1.74.21-16.84,3.49-18.58,3.69-1.74.21-8.52,1.23-10.26,1.23s-7.94.41-7.94.41l-5.03,5.95s.19.62,0,1.44c-.19.82-6.19,4.31-7.36,4.31s-5.42-2.67-6-1.85-2.9,8.42-2.9,8.42l1.74,5.13,13.94,1.03,5.81.21,3.1-.82s2.71,8.83,2.32,9.85c-.39,1.03-3.29,10.88-3.68,11.7-.39.82-1.94,5.34-1.94,5.34,0,0-1.36,5.13-.97,5.95.39.82,4.07,4.52,4.07,4.52l2.71.62Z"/>
    <path id="path97948" class="cls-4" d="m81.69,114.74c0-1.64,9.68-21.14,9.68-21.14l-18-5.95-8.32-2.87s-10.65.21-11.81.21-17.81,6.36-17.81,6.36l-10.45,13.55-2.32,12.93s2.13,13.55,2.9,15.39,12.2,15.19,12.2,15.19c0,0,10.45,7.59,13.55,8.83,3.1,1.23,16.65,5.34,17.81,5.34s4.89-.26,4.89-.26l-.63-2.26s-.97-.77-3.68-2.41c-2.71-1.64-11.81-5.95-14.33-7.18-2.52-1.23-9.68-7.18-11.03-9.24-1.36-2.05-5.61-8.42-5.81-10.26-.19-1.85-1.74-8.42-1.94-9.65-.19-1.23,1.94-9.65,2.9-10.06.97-.41,8.13-3.9,9.29-3.9s12.97.62,15.68,1.44c2.71.82,17.23,5.95,17.23,5.95Z"/>
    <path id="path97950" class="cls-4" d="m144.42,69.99l-2.13,8.42s-2.52,4.72-3.48,5.75c-.97,1.03-3.87,3.08-5.81,4.72-1.94,1.64-4.84,3.49-7.36,5.13-2.52,1.64-5.81,3.49-7.74,4.72-1.94,1.23-3.87,2.26-6.19,4.93-2.32,2.67-6.78,10.26-7.94,12.93s-5.42,14.37-5.81,17.04c-.39,2.67-1.36,15.81-1.55,18.27-.19,2.46,3.68,18.47,3.68,18.47,0,0,3.1,11.29,4.65,12.52,1.55,1.23,8.32,18.68,9.49,20.32,1.16,1.64,10.84,5.13,14.91,6.36,4.07,1.23,18.97,1.44,20.33,1.03,1.36-.41,11.42-3.69,15.49-6.16,4.07-2.46-19.17,12.73-19.17,12.73,0,0-16.45,2.26-18.39,2.26s-12.78-2.87-15.1-3.69c-2.32-.82-14.33-5.54-15.29-6.36-.97-.82-9.49-10.67-9.49-10.67l-10.84-20.94-4.26-22.17,2.9-31.2,12.78-27.71,10.26-12.32,20.52-12.73,11.23-1.44,14.33-.21Z"/>
    <path id="path97952" class="cls-4" d="m96.43,158.68l18.06-4.75s17.07-6.4,19.06-8.25c1.99-1.86,15.09-17.54,16.67-20.22,1.59-2.68,7.74-13.82,8.14-16.51.4-2.68.4-14.24.4-14.24,0,0-.4-4.13-.4-5.16s7.34-11.76,7.34-11.76l7.34,9.29s.79,15.06.79,16.51-4.76,15.06-5.56,15.68c-.79.62-5.96,10.11-5.96,10.11,0,0-15.09,12.79-16.87,13.62s-10.92,5.16-13.1,6.81c-2.18,1.65-16.28,8.46-18.66,8.67-2.38.21-16.08,2.48-16.08,2.48l-1.19-2.27Z"/>
    <path id="path97954" class="cls-8" d="m64.21,110.66c-1.23,0-9.03,1.02-9.58,2.18-.55,1.16-1.23,1.89-1.1,3.34s.41,4.64.96,4.93c.55.29,5.89,3.34,6.43,3.48.55.15,12.73,4.06,12.73,4.06,0,0,.68,2.32.82,3.19.14.87-1.35,23.64-1.42,24.94-.06,1.01,2.01,4.91.77,3.75-1.23-1.16-3.11-1.3-4.61-1.74s-15.29-7.41-16.52-8.57c-1.23-1.16-6.26-6.05-8.18-7.21-1.92-1.16-6.04-10.31-6.17-11.32-.14-1.02-1.92-13.21-1.64-13.79.27-.58,1.42-7.3,2.1-7.88.68-.58,6.35-1.04,6.8-1.99.96-2.04,8.21-.73,9.58-.73s11.38,1.63,10.41,1.63l-1.38,1.71Z"/>
    <path id="path100425" class="cls-8" d="m96.11,133c.71,0,12.05.15,13.75-.45,1.7-.6,11.34-6.01,14.46-7.06,3.12-1.05,10.49-6.31,11.48-7.51.99-1.2,1.28-2.25,1.98-3.16.71-.9,5.95-6.16,7.79-7.66s14.43-20.49,14.43-20.49l-.58,18.67-.76,12.69s-9.44,8.18-8.71,9.93c.83,1.99-11.74,12.82-12.48,15.47-.56,1.99-6.29,5.62-6.29,5.62,0,0-17.01,7.28-18,7.43-.99.15-17.38,2.48-17.38,2.48l.31-25.95Z"/>
    <path id="path100427" class="cls-8" d="m104.18,178.74s4.52,7.98,5.06,7.98,8.35,7.4,9.31,7.11c.96-.29,11.09,3.48,11.09,3.48l11.22,12.77s-7.12,1.31-8.49.44c-1.37-.87-16.02-5.23-16.02-5.23l-2.6-2.9-6.84-15.53-5.34-11.18,2.6,3.05Z"/>
    <path id="path115917" class="cls-9" d="m129.7,197.56c1.26.31,10.84-.62,12.1-1.23,1.26-.62,11.71-4.31,12.97-5.34s5.32-3.8,6.39-5.64,2.71-3.49,3-6.26c.29-2.77.48-6.26.48-7.8s-.77-4.21-1.65-5.75c-.87-1.54-2.61-3.69-3.97-4.62-1.36-.92-.1-.72-2.71-1.85-2.61-1.13-2.13-2.16-6.19-2.16s-7.74.62-8.71,1.33c-.97.72-4.07,3.49-5.23,4.93-1.16,1.44-3.97,5.54-4.07,6.88-.1,1.33-.68,4.93.97,6.36,1.65,1.44,6.19,2.67,8.13,1.64,1.94-1.03,3.68-1.74,4.07-2.77.39-1.03.1-2.57-.77-3.49-.87-.92-2.52-1.64-2.61-2.16-.1-.51-1.26-1.13.68-1.54,1.94-.41,1.74-3.28,4.07-.31,2.32,2.98,3.1,5.44,3.1,6.47s.68,2.26-1.36,4.31c-2.03,2.05-2.52,3.8-5.13,4-2.61.21-6.58,1.13-8.32.31s-6.58-4.62-7.36-5.85c-.77-1.23-2.13-6.26-1.55-7.9.58-1.64,2.61-7.08,3.29-8.21.68-1.13,2.52-3.8,5.03-5.54,2.52-1.74,8.61-4.11,10.94-4.11s11.32,1.03,12,1.44c.68.41,5.61,2.98,6.29,3.59s4.74,5.23,5.32,6.26c.58,1.03,3.39,5.23,3.58,6.98.19,1.74,1.55,10.37,1.65,10.98.1.62-3.19,11.7-3.58,12.93-.39,1.23-1.26,4.93-1.65,5.75s-2.32,3.08-3,3.9-4.36,3.8-6.19,4c-1.84.21-8.13,1.33-10.84,1.85s-8.13,1.74-8.13,1.74c0,0-.48.31-.97-.31-.48-.62-10.07-12.83-10.07-12.83h0Z"/>
  </g>
  <g id="layer10">
    <path id="path100429" class="cls-1" d="m77.08,86.43s6.02,3.19,8.21,1.89c2.19-1.31,4.38-1.31,6.16-4.93,1.78-3.63,7.53-14.95,8.76-18.43s1.78-4.79,1.51-5.95c-.27-1.16-7.8-6.39-9.86-6.82-2.05-.44-15.47-1.89-16.7-1.89s-15.47-1.45-15.47-1.45c0,0-2.05,0-2.05-1.31s-.55-5.95.41-6.1c.96-.15,6.57-1.16,8.49-1.31,1.92-.15,4.93-.58,6.43-2.18,1.51-1.6,4.65-7.11,5.61-7.26.96-.15,6.98-1.31,11.64-1.89,4.65-.58,12.87-2.9,14.78-2.61s10.81-2.18,12.46-1.74c1.64.44,20.26-.44,20.26-.44l11.22,3.48s5.61,4.5,6.84,5.23,4.52,2.32,1.51,4.06c-3.01,1.74-11.5,5.95-12.87,7.11-1.37,1.16-1.92,2.9-3.83,2.9s-7.94-2.47-11.36-2.61c-3.42-.15-8.49,1.16-9.17,1.45-.68.29-9.72,6.68-10.27,7.55s-3.42,8.71-4.38,9.87c-.96,1.16-5.2,11.76-6.02,13.35s-6.84,10.45-8.35,12.05c-1.51,1.6-3.7,3.77-6.3,3.34-2.6-.44-7.67-5.37-7.67-5.37h0Z"/>
    <path id="path103107" class="cls-7" d="m74.89,58.12c2.33-1.45,7.39-5.37,7.39-5.37l12.32,3.92,3.15-.15,3.42,5.08s.82-2.03.55-2.76c-.27-.73-5.61-4.79-6.43-5.37s-7.67-2.03-8.35-2.03-6.57-1.16-8.21-1.16-10.68-1.31-11.36-1.31-9.31-.73-9.31-.73l-.14,3.34,1.1,4.06,2.74,1.16,1.23-2.18s1.51-1.31,2.33-1.89,2.74.29,2.74.29c0,0,1.1,2.61,1.92,3.34s2.6,2.18,2.6,2.18l2.33-.44Z"/>
    <path id="path104336" class="cls-2" d="m83.78,54.93s.27,8.13-.55,9.72c-.82,1.6-3.56,12.34-4.11,13.06-.55.73-1.23,2.18-1.37,3.19-.14,1.02-.14,3.77,1.78,4.64,1.92.87,5.2,2.18,6.84,1.45,1.64-.73,4.79-1.16,4.24-2.9-.55-1.74,4.79-12.05,5.48-12.77.68-.73,3.97-5.81,4.24-7.26.27-1.45-1.92-6.24-1.92-6.24,0,0,2.87-1.02-1.37-1.31-4.24-.29-7.12-.15-9.31-.87-2.19-.73-3.97-.73-3.97-.73Z"/>
  </g>
  <g id="layer2">
    <path id="path106394" class="cls-5" d="m88.58,84.1l-5.06-4.21-1.1-1.02,4.38,6.53,1.37,1.02.41-2.32Z"/>
    <path id="path106396" class="cls-5" d="m82.28,86.43s-3.97-2.76-4.65-3.48c-.68-.73-1.37-2.47-2.74-3.77-1.37-1.31-3.83-6.1-3.83-6.1l-1.51,2.18s3.42,7.26,4.11,7.98c.68.73,7.67,3.19,7.67,3.19h.96Z"/>
    <path id="path106398" class="cls-5" d="m74.61,55.37s-.68,3.05-.96,5.08c-.27,2.03-1.37,4.5-.82,6.24.55,1.74.68,2.32,0,2.18s-1.92-1.16-2.19-2.32c-.27-1.16-.41-4.06-.27-5.66.14-1.6.14-4.5.68-5.08.55-.58,1.92-1.16,1.92-1.16l1.64.73Z"/>
    <path id="path106400" class="cls-5" d="m60.51,54.64s.14,5.23.68,6.97c.55,1.74.55,3.63.55,3.63,0,0-1.64-1.45-2.19-3.05-.55-1.6-.82-3.63-.68-5.23.14-1.6.96-3.92.96-3.92l.96,2.61-.27-1.02Z"/>
    <path id="path115909" class="cls-3" d="m73.93,36.79l5.06.87,1.78-2.47,1.78-1.02v2.03l2.74-2.03s-2.33,2.47-2.33,3.05,3.01,3.77,3.01,3.77c0,0,3.97.73,4.65.44s6.43-4.35,8.08-4.64,2.74-1.02,4.52-1.16c1.78-.15,2.74-.15,2.74-.15l-3.01,3.19s0,2.32-1.92,3.48c-1.92,1.16-.55,1.02-3.83,2.03-3.29,1.02-11.09-.44-11.09-.44,0,0-2.19.29-2.74-1.02s-1.78-3.77-1.78-3.77c0,0-2.19-1.6-3.56-1.74-1.37-.15-3.97.58-5.89,1.16-1.92.58-3.56,1.16-4.52,1.45-.96.29,6.3-3.05,6.3-3.05Z"/>
    <path id="path115911" class="cls-3" d="m75.71,43.17c-1.1,0-2.33-2.47-2.87-2.76-.55-.29-.55-.87-.55-.87l2.74.44,1.23,4.06-.55-.87Z"/>
    <path id="path115913" class="cls-3" d="m116.91,48.4c.55-1.45,1.23-7.26,1.23-7.26l1.51,3.92-2.05,2.18-.68,1.16Z"/>
  </g>
  <g id="layer3">
    <path id="path115915" class="cls-5" d="m93.37,41.87c-.68,0-.96-1.31-.96-1.31l1.37-.15-.41,1.45Z"/>
  </g>
</svg>