<?xml version="1.0" encoding="UTF-8"?>
<svg id="svg4444" xmlns="http://www.w3.org/2000/svg" width="193.08" height="198" viewBox="0 0 193.08 198">
  <defs>
    <style>
      .cls-1 {
        fill: #5e96a5;
      }

      .cls-1, .cls-2, .cls-3, .cls-4, .cls-5, .cls-6, .cls-7, .cls-8 {
        stroke-width: 0px;
      }

      .cls-3 {
        fill: #f2100d;
      }

      .cls-4 {
        fill: #fff;
      }

      .cls-5 {
        fill: #102df9;
      }

      .cls-6 {
        fill: #8fb1b7;
      }

      .cls-7 {
        fill: #224254;
      }

      .cls-8 {
        fill: #95c0cb;
      }
    </style>
  </defs>
  <path id="path3413" class="cls-5" d="m66.19,25.36l-33.12,26.89,64.15,99.27,63.54-99.57-33.25-27.29-61.32.71h0Z"/>
  <g id="layer1">
    <path id="path10732" class="cls-3" d="m112.74,2.01l27.34,20.83-7.64,5.66,24.63,20.42,7.39-6.07,25.61,23.05-.25-64.3-77.09.41h0Z"/>
    <path id="path13839" class="cls-3" d="m37.14,48.41l25.25-19.61-7.88-7.18L80.89,0,3.92,2.28l-1.39,62.9,26.12-20.87s8.48,4.09,8.48,4.09Z"/>
    <path id="path18533" class="cls-3" d="m81.07,128.95l16.02,22.73,17.24-25.88.7,27.45,37.62.28-55.2,44.46s-57.99-45.46-56.08-44.75,38.48,0,38.48,0v-24.02l1.22-.28h0Z"/>
  </g>
  <g id="layer2">
    <path id="path22469" class="cls-1" d="m.68,149.4s.98.25,2.16.2c1.17-.05,4.06-.91,4.06-.91l3.81-1.41,9.23-5.31,7.69-6.92,2.71-3.09,6.22-8.39,3.01-5.01,4.64-11.13,2.87-5.72,4.09-5.36,5.49-4,4.44-2.58,6.79-2.93,7.49-1.15,6.97-.15,18.54,1.15,33.35,5.93,10.97,4.36,4.7,2.78,8.97,16.08,8.62,13.37,5.05,4.36,3.48,2.22,4,1.72,2.79.15h1.39l.78-1.07-.61-1.07-1.39-1-6.88-7.08-3.22-5.72-1.92-4.36-1.74-6.01.96-11.37,2.87-7.43,7.14-6.51,5.22-4.93,3.13-3.79,2.61-4.08.52-1.65s2.87-4.29.26-2.72c-2.61,1.57-13.24,9.86-13.24,9.86l-8.1,5.65-4.88,1.78-1.57.65-2.7.5-3.83-.35-3.13-1.22-13.15-5.08-12.9-6.11-14.53-5.86-8.38-2.22-10.34-1.82-11.08-1.41-2.15-5.01-2.26-5.43.08-13.44,1.83-6.86-20.81,15.01-10.45,10.79-5.75,10.01-1.96,1.47-5.62,3.75-9.49,8.18-7.4,9.29-4.14,5.93-4.14,9.26-1.52,9.47-2.56,13.59-1.87,6.68-1.09,3.79-2.26,4.08-1.31,1.93-.96,1.97-.26,1.03.6.65h0Z"/>
    <path id="path24196" class="cls-8" d="m.62,149.8l.92,2.07s2.16.76,2.46.86,5.24,1.16,5.24,1.16h2.34l5.66-.86,4.19-1.97,3.76-2.78,5.05-5.91,3.7-3.74,7.76-5.72,8.31-5.21,2.52-.46v.51l-1.78,2.63-6.28,8.09-2.52,4.8-.12.86s3.08-1.57,3.21-1.82c.12-.25,3.26-3.53,3.26-3.53,0,0,.98-.96,2.09-1.62,1.11-.66,2.77-2.58,3.26-2.63.49-.05,4.25-.91,4.25-.91l5.91-.46,8.07-.71,4.31-.96,8-2.33,6.46-2.33,3.01-1.92,1.42-1.82s-.25-.81-.98-.81-4.06.35-4.06.35l-8,1.16h-4.37l-3.51-.81-5.11-1.06-2.21-1.72-1.05-1.31s.31-4.34.43-4.6c.12-.25,1.67-3.79,1.67-3.79l2.09-2.28,2.83-3.28,5.05-3.44,5.79-2.28,7.33-1.72,4.74-.2,5.35.81,9.05,1.87,4.31,1.52,3.94.71s4.43.6,4.74.6,3.57-.3,4.19-.3,4.74-.16,4.74-.16l.06-.76-8-2.07-3.21-1.06-1.6-1.01-1.05-2.17,1.29-.46,1.72-.46h10.72l5.66.71,5.48,1.97,2.77.25-11.64-4.8-14.78-2.58-15.02-2.83-5.6-.91-6.28-.46-12.44-.46-6.22.05-7.14,1.31-15.02,8.7-4.68,6.07-5.97,12.64-3.01,6.32-4.8,7.08-6.09,7.53-4,3.79-4.74,3.74-5.73,3.44-4.12,1.82-8.56.86.62,1.16h0Z"/>
  </g>
  <g id="layer3">
    <path id="path27511" class="cls-2" d="m17.54,153.04s4.09-.35,4.35-.35,20.12-8.76,20.12-8.76l3.96-7.22s2.56-3.68,2.91-3.97,3.61-5.47,3.61-5.47l-2.61.5-8.1,4.75-11.02,9.22-4.09,4.43-1.83,2.22-8.1,4.79.78-.15h0Z"/>
    <path id="path31198" class="cls-2" d="m30,135.67l6.27-8.54.74,6.29s-7.01,2.25-7.01,2.25Z"/>
  </g>
  <g id="layer4">
    <path id="path27514" class="cls-4" d="m30.06,143.76s1.48.25,1.7.2c.22-.05.93-.7,1.13-.78s.93-.3,1.31-.45c.37-.15,1.48-.45,1.92-.45s2.05-.05,2.05-.05c0,0,.02-.43-.17-.63-.2-.2-.87-.82-1.11-.86-.24-.03-.85-.23-.98-.27s-1.37-.05-1.48-.05-.81-.1-.96,0-.92.52-.96.59c-.04.07-.67.63-.89.88-.22.25-1.2.8-1.2.8,0,0-.31.16-.35.48s0,.59,0,.59h0Z"/>
    <path id="path27516" class="cls-4" d="m34.11,139.43c.02-.09,2.01-1.82,2.01-1.82,0,0,1.37-.28,1.48-.28s1.04-.05,1.24.18.42.38.52.43.39.47.04.47-1.35.18-1.48.27c-.13.09-1.09.93-1.09.93h-1.07c-.37,0-1.11-.09-1.11-.09l-.54-.07v-.02Z"/>
    <path id="path27518" class="cls-4" d="m40.37,134.88c-.12.06-1.52.89-1.52.89,0,0-.69.2-.69.33s-.02.71.02.78.17.22.27.29.78.22,1.29.22,1.07.1,1.31-.03c.25-.13.76-.62.87-.62s.25.29.25,0,.32-.95,0-1.08-.74-.54-.74-.54l-1.07-.24h0Z"/>
    <path id="path27520" class="cls-4" d="m41.06,134.25l.67.41s1.17.03,1.47.08c.31.03,1.03.06,1.16.03.12-.03.46-.03.46-.03,0,0,.02-.43,0-.53s-.18-.48-.29-.63c-.11-.16-.47-.53-.54-.57-.06-.03-.4-.33-.52-.33h-.58c-.12,0-.67.25-.8.34-.12.09-.94.72-.98.81-.05.09-.05.41-.05.41h0Z"/>
    <path id="path27522" class="cls-4" d="m44.29,132.55c.02.09.98,2.2,1.07,2.23.07.03.87.1,1.07.1s.76,0,.87-.22c.12-.24.54-1.15.58-1.24.05-.09.14-.89.14-.95s.06-.1-.42-.13-3.39-.03-3.39-.03l.07.22h0Z"/>
    <path id="path27524" class="cls-4" d="m44.92,131.02c-.07.16-.06,1.05-.06,1.05l-.76.47-.74-.2-.62-.16,2.16-1.3.02.16h0Z"/>
    <path id="path27526" class="cls-4" d="m45.17,132.2l.67-1.39s1.32-.06,1.36,0c.03.05.29,1.33.29,1.33l-2.32.08h0Z"/>
    <path id="path27528" class="cls-4" d="m47.35,130.61c0,.08.54,1.67.54,1.67l1.03.32s.6-1.17.56-1.27c-.05-.09-.29-.9-.43-.92-.14-.03-1.69.2-1.69.2h0Z"/>
    <path id="path27530" class="cls-4" d="m47.78,129.65l2.48.45s.82-.2.5-.53c-.32-.34-1.37-1.07-1.37-1.07l-.92.1-.7.97v.09h0Z"/>
    <path id="path27532" class="cls-4" d="m37.57,139.68c.57-.03,4.44-.41,4.46-.18.02.23.13,1.93.13,1.93,0,0-.17.57-.61.48s-2.31-.23-2.51-.23-.46.23-.67,0c-.22-.23-.43-.7-.57-.84-.13-.15-.74-.41-.65-.68.08-.27.42-.48.42-.48h0Z"/>
    <path id="path27534" class="cls-4" d="m28.98,145.07c.52-.05,4.12-.78,4.31-.6.18.18.34.55.34.66s-1.51,1.34-1.51,1.34c0,0-1.76.96-2.09,1.01-.34.05-1.63.03-1.97.08s-1.23.18-1.23.18c0,0-.22-.43-.22-.56s-.12-.22.15-.63c.27-.41.77-.81.89-.98.12-.18.49-.43.49-.43l.83-.05h0Z"/>
    <path id="path27536" class="cls-4" d="m33.13,143.76s.58-.6.83-.63,1.45,0,1.67-.1.43-.2.83-.25,1.47-.2,1.47-.2l.8.51s-.65.2-.87.41c-.22.2-1.69,1.27-1.69,1.27,0,0-.58.22-.83.22s-.96-.13-1.17-.18c-.22-.05-1.05-1.03-1.05-1.03h0Z"/>
    <path id="path27538" class="cls-4" d="m23.93,150.81s2.34-2.55,2.59-2.58c.25-.03,3.81.08,3.94.05s.56.55-.09.86c-.65.3-4.62,1.47-5.08,1.52-.46.05-1.36.16-1.36.16h0Z"/>
    <path id="path27540" class="cls-4" d="m31.5,147.25c0,.1.87.51.87.51l7.73-3.56.18-1.01-1.17.05-2.59,1.41s-.89.71-1.07.73-1.51-.43-1.51-.43c0,0-.49.56-.56.71-.06.16-2,1.44-2,1.44l.12.16h0Z"/>
    <path id="path27542" class="cls-4" d="m39.44,137.96s1.57,1.03,1.74,1.03h1.35c.22,0,1.57-.07,1.61-.35s-1.7-1.57-1.7-1.57l-.57-.15-2.61.78.17.25h0Z"/>
    <path id="path27544" class="cls-4" d="m42.14,135.35c0,.18.57,1.32.57,1.32l1.44.53s.48-.25.82-.57c.35-.32.61-.6.61-.86s.31-.43-.08-.5c-.39-.07-2.35-.15-2.35-.15l-1.31.35.31-.15v.02Z"/>
    <path id="path28574" class="cls-7" d="m8.63,151.06s-1.05-.35-.56-.81.67-.6.92-.81c.25-.2,1.47-.71,1.47-.71,0,0,1.17-.2,1.78-.2s1.54.16,1.54.16v.91h-1.42s-.25.1-.8.56c-.56.46-2.34,1.31-2.34,1.31l-.62-.41h0Z"/>
    <path id="path31201" class="cls-8" d="m30.73,135.2c.52-.28,4.79-6.29,4.96-6.15s.7,3.68.7,3.68l-5.66,2.47Z"/>
    <path id="path31203" class="cls-6" d="m43.05,115.89l3.01,1.16,1.47,1.77s.67,2.38.67,2.73,1.23,4.85,1.23,4.85l1.42.05v-.81s-.62-3.49-.67-3.69-1.72-3.23-1.72-3.44-1.17-1.97-1.17-1.97l-3.01-1.16-1.42-.05.18.55h0Z"/>
    <path id="path31205" class="cls-6" d="m46.93,111.49l2.83,2.47s1.23,1.67,1.29,1.87,1.72,4.34,1.72,4.34l.67,2.07h.98v-1.06l-.56-2.22-1.67-2.88-.87-2.33-1.91-1.67-1.97-1.27-.56.66.02.02Z"/>
    <path id="path31207" class="cls-6" d="m49.51,105.63l3.94,3.99.98,1.62,1.54,3.79.37,3.53-.8-.05-.06-1.27-1.17-2.93-.49-2.58-.87-1.47-2.21-2.33-1.36-1.52-.56-.46.67-.35h0Z"/>
  </g>
</svg>