<?xml version="1.0" encoding="UTF-8"?>
<svg id="svg4444" xmlns="http://www.w3.org/2000/svg" viewBox="0 0 249.61 235.68">
  <defs>
    <style>
      .cls-1 {
        fill: #144e91;
      }

      .cls-1, .cls-2, .cls-3, .cls-4, .cls-5, .cls-6, .cls-7, .cls-8, .cls-9, .cls-10, .cls-11 {
        stroke: #fff;
        stroke-miterlimit: 10;
      }

      .cls-2 {
        fill: #b0abb2;
      }

      .cls-3 {
        fill: #234e8b;
      }

      .cls-4 {
        fill: #11569a;
      }

      .cls-5 {
        fill: #6e9872;
      }

      .cls-6 {
        fill: #acaaaf;
      }

      .cls-7 {
        fill: #916029;
      }

      .cls-9 {
        fill: #001d4c;
      }

      .cls-10 {
        fill: #0f5598;
      }

      .cls-11 {
        fill: #011a31;
      }
    </style>
  </defs>
  <g id="layer29">
    <ellipse id="path93559-4" class="cls-1" cx="154.44" cy="136.15" rx="10.18" ry="12.06"/>
    <path id="path81998" class="cls-5" d="m117.19,106.9l.77-.44.99.78,1.34-.26.7-.52.77.87s1.2-.52,1.48-.7c.28-.17.56-.44.56-.44l.63.7,1.06-.61.63-.09s.28.7.56.7,2.04-.96,2.04-.96l1.13.09-2.18,12.89s-1.83,1.92-2.18,2.09-4.51-.61-4.51-.61c0,0-1.69-4.44-2.11-4.53s-1.48-2.26-1.62-2.87-.07-6.09-.07-6.09h.01Z"/>
    <path id="path83986" class="cls-5" d="m118.39,93.75c-.35-.52-.42-1.74-.42-1.74l.99-4.96s1.62-.09,1.9-.17c.28-.09,1.62-1.39,1.69-1.83s.35-3.4.35-3.4v-1.22l2.46.09,1.48,5.4,1.48.09h1.13l.56,3.92-1.2,1.31-.63-1.13-1.62.52-.49.44s.42.52-.07.52-1.13-.87-1.55-.44c-.42.44-.77,1.39-.77,1.39l-1.41-1.04-1.69,2-.49-1.57s-.7-1.04-.77-.17-.92,2-.92,2h-.01Z"/>
    <path id="path83988" class="cls-5" d="m119.59,87.05s1.2-4.61,1.48-5.4c.28-.78,1.76-5.83,1.76-5.83,0,0,.42-1.39.99-1.31.56.09,2.25.52,2.68,1.22.42.7,2.25,10.71,2.25,10.71h.63s.49-.09.42-.78c-.07-.7,0-5.4,0-5.4l13.87-12.8-.07-14.89-18.1,13.06-19.01-12.8-1.2,13.93,14.44,13.06-.85,7.23h.71Z"/>
    <path id="path94813" class="cls-3" d="m91.91,136.77l-.25,1.05.55-.25,1.12-.18,1.37.77-1.37-1.57s-1.42.18-1.42.18Z"/>
    <ellipse id="path93559-4-5" class="cls-1" cx="92.98" cy="137.36" rx="10.18" ry="12.06"/>
  </g>
  <g id="layer28">
    <path id="path79318" class="cls-8" d="m93.78,169.19l55.37,2.22s-25.3,53.69-26.19,53.32c-.9-.37-29.18-55.53-29.18-55.53h0Z"/>
    <ellipse id="path92041-2" class="cls-9" cx="154.09" cy="137.2" rx="7.92" ry="10.32"/>
    <ellipse id="path92041" class="cls-9" cx="92.86" cy="136.89" rx="7.92" ry="10.32"/>
  </g>
  <g id="layer3">
    <path id="path74334" class="cls-10" d="m106.13,52.21l18.92,12.81,18.52-13.18-.1,15.88-13.84,12.93,1.89,50.85,23.8-45.31-7.17-46.91-18.62-17.61-4.68-19.57-4.98,19.82-18.52,16.25-6.37,47.77,9.26,26.84,11.75,18.1,1-34.23,2.39-16.5-14.34-13.18,1.1-14.78v.02Z"/>
    <path id="path74336" class="cls-10" d="m23.86,78.07l32.27,54.3,25.6,3.57,2.99-7.76,1.59-2.09,2.39-2.09,3.68-.49,5.18,1.6,3.49,1.97-13.05-58.73-8.37,13.67-18.42-1.72-22.01,1.35-15.84-4.43.5.86h0Z"/>
    <path id="path74340" class="cls-10" d="m18.29,113.9l17.03-15.15,21.01,34.23,6.97,1.11-10.76,8.99-15.64-11.2-18.62-17.98h0Z"/>
    <path id="path74342" class="cls-10" d="m.06,116.24l48.1,38.29,3.39,1.35h1.89s24.1-18.96,23.6-18.96-12.45-1.72-12.45-1.72l-10.86,9.73-4.58-1.85-18.33-14.28-13.74-14.41L.05,116.24h.01Z"/>
    <path id="path74336-1" class="cls-4" d="m225.74,78.38l-32.27,54.3-25.6,3.57-2.99-7.76-1.59-2.09-2.39-2.09-3.68-.49-5.18,1.6-3.49,1.97,13.05-58.73,8.37,13.67,18.42-1.72,22.01,1.35,15.84-4.43-.5.86h0Z"/>
    <path id="path74340-1" class="cls-4" d="m231.31,114.21l-17.03-15.15-21.01,34.23-6.97,1.11,10.76,8.99,15.64-11.2,18.62-17.98h0Z"/>
    <path id="path74342-8" class="cls-4" d="m249.54,116.55l-48.1,38.29-3.39,1.35h-1.89s-24.1-18.96-23.6-18.96,12.45-1.72,12.45-1.72l10.86,9.73,4.58-1.85,18.33-14.28,13.74-14.41,17.03,1.85h-.01Z"/>
    <path id="path75741" class="cls-4" d="m92.38,85.71l2.19.62,9.76,28.44,10.96,17.61,2.19-.25.1-10.22s2.59,2.71,3.09,2.71,2.39.74,3.29.12c.9-.62,3.29-2.96,3.78-3.2s2.59-1.72,2.59-1.72l.5,13.05s4.38-3.69,4.98-4.56c.6-.86,16.93-33.25,16.93-33.25l2.89-7.39h1.39l-8.76,36.57-3.19,5.17-2.19,7.51,1,4.43s2.79,4.56,3.09,5.05,6.37,3.82,6.37,3.82c0,0,4.08-.37,4.68-.74.6-.37,4.38-4.31,4.98-5.29.6-.99,3.29-7.63,3.29-7.63l17.23,16.13-6.17,19.7-6.57-1.72-5.08-.49-7.37-.12-3.39.62-12.55,3.94-9.46,5.54-10.16,8.74-9.56-9.85-15.04-7.88-12.95-5.05-12.85-22.9,5.68-4.19,3.19.49,4.28,5.29s4.28,4.19,5.08,4.43c.8.25,5.48.62,6.57.12,1.1-.49,4.18-2.59,4.58-3.2.4-.62,1.89-4.31,1.99-5.42s-.1-7.51-.3-8.13c-.2-.62-1.79-6.65-1.79-6.65l-9.26-40.26h0Z"/>
    <path id="path94811" class="cls-3" d="m92.31,137.45l-.72,3.36.8.28.82-.31,1.32-.12s.4-.28.35-.58c-.05-.31-.87-1.66-1.07-1.94s-.57-.77-.57-.77l.25-.22s1.17.92,1.27.95.97.46,1.1.46,1.34-.65,1.34-.65l.35-2.89s.52,1.75.57,2,.95,1.88.95,1.88l.02.77s-.32.74-.75.74-1.47.12-1.47.12c0,0-.3.46-.32.8s-.12,1.63-.12,1.63l.02.46s-5.1,1.11-5.23,1.11-.32-2.52-.62-2.65-2.56-.25-2.74-.25-.55-.25-.55-.49.3-1.32.37-1.6.07-1.91.05-2.25-.15-.89-.27-1.2c-.12-.31-.67-1.45-.67-1.6s.27-1.75.4-1.97,1.49-2.22,1.49-2.22l2.02-1.17s1.07-.15,1.64-.22c.57-.06,2.12.28,2.37.37.25.09,1.32.83,1.59,1.23.27.4,1.1,1.54,1.12,1.72.02.18.3,1.75.3,1.75,0,0-.05.8-.1,1.08-.05.28-.3,1.88-.3,1.88,0,0-.22-.58-.2-.8.02-.22-.3-1.11-.3-1.11,0,0-1.24-.77-1.37-.77s-1.12.22-1.29.46c-.17.25-.65.89-.67,1.11s.07,1.23.07,1.23l-1.05.22-.65-.52-.22-.95-.72-1.05-1.42.09-.95,1.14s-.12,2-.12,2.19.6.95.72,1.05c.12.09.97.25,1.12.15.15-.09.65-.28.8-.58.15-.31.47-.99.47-.99l.77-.37h0Z"/>
    <path id="path75743" class="cls-11" d="m86.31,166.6s35.45,69.08,35.65,68.58c.2-.49,32.07-64.15,31.67-64.27s-4.88.99-5.38,1.6c-.5.62-25.5,52.7-25.5,52.7l-29.48-56.52-6.97-2.09h0Z"/>
  </g>
  <path id="path94811-4" class="cls-3" d="m153.89,137.84l-.72,3.36.8.28.82-.31,1.32-.12s.4-.28.35-.58c-.05-.31-.87-1.66-1.07-1.94-.2-.28-.57-.77-.57-.77l.25-.22s1.17.92,1.27.95.97.46,1.1.46,1.34-.65,1.34-.65l.35-2.89s.52,1.75.57,2,.95,1.88.95,1.88l.02.77s-.32.74-.75.74-1.47.12-1.47.12c0,0-.3.46-.32.8s-.12,1.63-.12,1.63l.02.46s-5.1,1.11-5.23,1.11-.32-2.52-.62-2.65c-.3-.12-2.56-.25-2.74-.25s-.55-.25-.55-.49.3-1.32.37-1.6c.07-.28.07-1.91.05-2.25s-.15-.89-.27-1.2c-.12-.31-.67-1.45-.67-1.6s.27-1.75.4-1.97c.12-.22,1.49-2.22,1.49-2.22l2.02-1.17s1.07-.15,1.64-.22c.57-.06,2.12.28,2.37.37.25.09,1.32.83,1.59,1.23.27.4,1.1,1.54,1.12,1.72.02.18.3,1.75.3,1.75,0,0-.05.8-.1,1.08s-.3,1.88-.3,1.88c0,0-.22-.58-.2-.8s-.3-1.11-.3-1.11c0,0-1.24-.77-1.37-.77s-1.12.22-1.29.46c-.17.25-.65.89-.67,1.11s.07,1.23.07,1.23l-1.05.22-.65-.52-.22-.95-.72-1.05-1.42.09-.95,1.14s-.12,2-.12,2.19.6.95.72,1.05c.12.09.97.25,1.12.15.15-.09.65-.28.8-.58.15-.31.47-.99.47-.99l.77-.37h0Z"/>
  <g id="layer30">
    <path id="path85632" class="cls-7" d="m107.61,59.36l8.1,7.23,3.31,4.09-4.86-.26-4.86-2.61-1.13-1.39-.92-5.92.35-1.13h.01Z"/>
    <path id="path85634" class="cls-7" d="m129.44,70.42s5.35-5.05,5.7-5.4c.35-.35,3.52-4.35,4.08-4.53s2.39-1.13,2.39-1.13l-.7,5.83-1.06,2.26s-3.38,2.35-3.73,2.44-3.52,1.22-4.08,1.22-2.04-.09-2.04-.09l-.56-.61h0Z"/>
    <path id="path85636" class="cls-6" d="m118.9,106.85c-.4-.22-1.12-1.35-1.12-1.6s.1-2.99.1-2.99l2.59.03.07,3.6-.37.71s-.22.28-.55.31c-.32.03-.72-.06-.72-.06h0Z"/>
    <path id="path85638" class="cls-2" d="m121.54,106.79l1-.06s.45-.65.57-.92c.12-.28.17-.4.17-.92s.17-2.89.17-2.89l-2.19.09s-.32.31-.32.43-.17,2.89-.17,2.89l.77,1.39h0Z"/>
    <path id="path89351" class="cls-6" d="m123.8,105.62c-.1-.22.2-4.49.2-4.49l1.57.09.15.92-.12,3.23s-.1.22-.37.43c-.27.22-.5.46-.6.49s-.32.31-.55.03c-.22-.28-.25-.4-.25-.4l-.02-.31h0Z"/>
    <path id="path89353" class="cls-6" d="m126.54,101.47s-.55.89-.55,1.2v.95c0,.58.12,1.72.17,1.88.05.15.05.71.3.8.25.09,1.47-.52,1.47-.52,0,0,.47-.22.42-.52s-.17-.31-.27-1.39c-.1-1.08.02-1.69.02-1.69l-.25-.77-1.32.06h0Z"/>
    <path id="path89355" class="cls-6" d="m128.58,102.45s.95-.34,1.07,0,.05,1.08.05,1.35.1,1.17.02,1.39c-.07.22-.47.62-.47.62,0,0-.47,0-.6-.18-.12-.18-.22.09-.25-.52-.02-.62.07-2.12.15-2.4.07-.28.07-.43.07-.43l-.05.18h0Z"/>
    <path id="path89357" class="cls-6" d="m119.37,92.32c-.1.15-.52.43-.55,1.05-.02.62.03,3.17.03,3.17,0,0-.03.34.12.37.15.03.95.15.95.15,0,0,.4-1.02.4-1.2s.07-.68.07-1.11-.17-1.82-.17-1.82l-.1-.4-.75-.22h0Z"/>
    <path id="path89359" class="cls-6" d="m122.24,91.99s-.85.83-.95,1.32-.12.95-.07,1.39c.05.43-.03,1.32-.03,1.82s.32.89.57.89.85.15,1.05-.06c.2-.22.2-.09.3-.65.1-.55.1-.89.22-1.82.12-.92.17-1.32.12-1.63-.05-.31-.12-.62-.25-.74-.12-.12-.97-.52-.97-.52h0Z"/>
    <path id="path89361" class="cls-6" d="m124.97,91.4c-.25.06-1,1.66-1,1.66l-.17,2.83s-.02.71.27.74c.3.03,1-.06,1-.06,0,0,.55,0,.55-.43s-.17-1.17-.1-1.91c.07-.74.12-1.26.15-1.66.02-.4.02-.92-.2-.99-.22-.06-.5-.18-.5-.18Z"/>
    <path id="path89363" class="cls-6" d="m127.16,90.6c-.17.12-.55.12-.77.74s-.35.77-.42,1.39-.12.83-.15,1.51c-.02.68.05,1.48.17,1.63s1.2.37,1.44.31c.25-.06.67-.22.7-.62.02-.4.35-2.59.32-2.96-.02-.37-.05-1.2-.22-1.35s-.3-.22-.45-.34c-.15-.12-.62-.31-.62-.31h0Z"/>
    <path id="path89365" class="cls-6" d="m128.81,91.09s.02.12-.15,1.26-.02,2.59.1,2.92c.12.34-.22.8.1.95.32.15.95.22.95.03s.25-1.05.22-1.45c-.02-.4-.12-1.17-.1-1.82.02-.65.02-1.63-.05-1.79-.07-.15.22-.4-.15-.28s-.92.15-.92.15h0v.03Z"/>
  </g>
  <path id="path94879" class="cls-3" d="m153.1,138.31c.11-.22.36-1.14.36-1.14,0,0,1.57-.11,1.57.02s.17.51.17.51l1.79,1s-1.22.25-1.26.18c-.04-.06-.85-1.08-.85-1.08l-.62-.08-.5.34-.67.25h0Z"/>
</svg>