<?xml version="1.0" encoding="UTF-8"?>
<svg id="svg4444" xmlns="http://www.w3.org/2000/svg" width="225.61" height="199.07" viewBox="0 0 225.61 199.07">
  <defs>
    <style>
      .cls-1, .cls-2, .cls-3, .cls-4, .cls-5, .cls-6, .cls-7, .cls-8, .cls-9, .cls-10, .cls-11, .cls-12 {
        stroke-width: 0px;
      }

      .cls-2 {
        fill: #301101;
      }

      .cls-3 {
        fill: #f1a05a;
      }

      .cls-4 {
        fill: #f9ee79;
      }

      .cls-5 {
        fill: #350e0a;
      }

      .cls-6 {
        fill: #d71c0d;
      }

      .cls-7 {
        fill: #9e7e0e;
      }

      .cls-8 {
        fill: #280f07;
      }

      .cls-9 {
        fill: #f2461e;
      }

      .cls-10 {
        fill: #feb924;
      }

      .cls-11 {
        fill: #807050;
      }

      .cls-12 {
        fill: #b52b18;
      }
    </style>
  </defs>
  <g id="layer6">
    <path id="path56390" class="cls-1" d="m53.7,0L0,99.68s50.88,98.24,52.93,98.82c2.06.57,122.31.57,122.31.57l50.36-100.25L172.16,1.15,53.7,0Z"/>
  </g>
  <g id="layer7">
    <path id="path56395" class="cls-6" d="m59.49,13.21L14.13,96.95l-.13,6.32,45.87,83.45,109.72-.57,43.3-84.17.13-6.89L168.05,13.36H60.9l.26,1.58,104.58.57,45.1,81.29v4.6l-41.88,82.3-107.54.57L16.19,102.12l.13-3.88L61.16,15.08l-.26-2.3-1.41.43Z"/>
    <path id="path64110" class="cls-7" d="m61.31,19.01L19.34,100.87s42.88,80.84,44.15,80.84,104.3-.41,104.3-.41l42.34-82.26-46.15-81.25-102.66,1.22Z"/>
  </g>
  <g id="layer8">
    <path id="path66217" class="cls-5" d="m43.43,80.86s-1.67.29-1.03-.43c.64-.72,2.44-2.44,2.44-2.44l4.11-3.88,3.6-4.02s2.18-1.58,3.08-1.87,3.73-1.15,4.37-1.29c.64-.14,2.96.14,4.24-.29,1.28-.43,3.21-.57,3.85-.57s2.06.43,3.47,0,1.03-.57,1.03-.57c0,0-1.8-2.01-2.44-2.87-.64-.86-2.06-1.44-2.06-1.44l-19.66.29s1.54-2.3,2.18-2.73c.64-.43,4.63-3.3,6.42-4.02s4.5-2.01,5.78-2.44c1.28-.43,4.63.14,5.52.43.9.29,9.76,7.18,9.76,7.18,0,0,4.88,1.44,7.07,1.87s11.82-.14,11.82-.14l11.31,3.59,16.57,10.05,7.97,8.47,10.15,21.11,3.6,15.94,1.16,13.5-5.27,7.33s-16.32,9.62-16.7,10.2c-.39.57-23.64,9.91-23.64,9.91l-15.55,7.76-6.17,7.61s.39-3.3.39-4.02,3.47-10.2,3.85-10.77c.39-.57,6.04-11.2,6.04-11.2,0,0,3.73-7.76,4.11-8.47.39-.72,2.06-5.31,2.06-5.31l1.28-6.46s-1.28-6.32-1.41-7.04c-.13-.72-1.93-4.6-1.93-4.6,0,0-1.54-1.01-3.08,0-1.54,1.01-3.6,3.73-3.85,4.6-.26.86-.39,5.03-.13,5.89.26.86,1.28,10.05,1.28,11.2s0,4.45-.51,5.89c-.51,1.44-1.03,3.3-1.67,3.3s-2.96,2.15-2.96,2.15c0,0,0,1.44-.51,2.59-.51,1.15-3.73,4.31-3.73,4.31l-4.63,1.29h-3.98l-1.54-1.01-8.87-1.44-7.84-16.66-.9-39.79,5.27-24.56-13.75,3.88Z"/>
    <path id="path83656" class="cls-9" d="m148.43,131.03c1.73-1.02,5.72.61,7.36-.2,1.64-.81,4.09-1.22,5.36-3.15,1.27-1.93,2.09-4.27,3-6.4.91-2.13,2.45-6.2,3.09-6.7s1.73-.61,3.27.1,2.54-.51,1.73-.81c-.82-.3-2.27-1.62-2.82-1.62s-3.45-1.22-4.36-.1c-.91,1.12-2.82,4.37-4.09,5.48s-1.18,1.12-1.73,1.62-3.63,3.45-4.27,3.05c-.64-.41-1.82-2.44-1.82-2.44,0,0,.27-2.34.64-2.95.36-.61,1.09-2.23,2.27-2.95,1.18-.71,4-2.03,6-3.15,2-1.12,4-2.74,4.27-3.15.27-.41-.18-4.27-.18-4.87s.91-4.47,1.09-4.87c.18-.41.64-.71,1.64-.51,1,.2,1.82.71,2.54.71s.91-3.05.64-3.45c-.27-.41-1.27-1.52-2.09-1.93-.82-.41-1.73-1.42-3.63-1.02-1.91.41-1.45-1.32-3.45,1.62-2,2.95-3.72,7.21-3.36,8.43.36,1.22,1.91,2.74-.36,3.05-2.27.3-3.63,1.42-4.91-.61-1.27-2.03-2.09-.91-2.09-3.55s.55-5.79,1.36-7.21c.82-1.42-.09-2.13,2.09-3.66,2.18-1.52,1.82-2.13,4.63-2.13s7.36,1.32,9.27,1.83c1.91.51,3.54,1.22,4.54,1.42,1,.2,4.27,1.93,5.09,1.73.82-.2.73.2,1.91-1.42,1.18-1.62,1.27-1.22,1.91-2.64.64-1.42,1.18-4.77,1.18-5.79s-.27-2.34-1.18-3.25c-.91-.91-1.64-2.03-3-2.03s-2.91.71-2.36,1.32,2.27,1.62,2.73,2.74c.45,1.12,1.18,1.62.18,2.23-1,.61.09,1.02-2,1.12-2.09.1-3.63.61-4.82-.91-1.18-1.52-3-2.44-4.18-3.55-1.18-1.12-1.36-2.03-3.63-2.95-2.27-.91-3.63-1.52-4.45-1.73-.82-.2-5.54-.61-5.54-.61,0,0-.82,1.42-4.27,2.34-3.45.91-5.54.3-5.54.3l-1.18-2.13s.09-2.34,2.27-3.15c2.18-.81,13.54-3.05,14.26-3.76s3.54-3.35,4.36-4.16,3.36-4.67,3.63-5.38c.27-.71,1.45-5.59,1.91-6.91.45-1.32.64-3.66.09-4.27-.55-.61-1.82-1.73-1.82-1.73,0,0-1.27.41-.82,1.32s1.64,3.45,1.09,4.57c-.55,1.12-.91,1.42-2.73,2.95-1.82,1.52-5,3.76-6.63,4.47-1.64.71-.36,1.02-3.36,1.62-3,.61-8.09,1.02-8.09,1.02,0,0-9.45-.51-9.9-.81s-5.27-2.74-5.27-2.74l-5.36-1.52-11.45.1s-1.73,1.12-2.18,1.12h-1.82s1.27-2.34,2.18-2.84,5.63-3.55,8.63-3.76c3-.2,16.99-1.42,17.44-1.83.45-.41,2.73-2.03,4.09-2.74,1.36-.71,8.72-6.91,8.72-6.91l2.18-3.86-.36-4.16s0-1.52-.73-.71c-.73.81-1.36,2.84-2.36,3.86s-2,2.84-3.18,3.15c-1.18.3-5,1.12-5,1.12,0,0-4.36.41-4.72.41s-5.09.1-5.09.1c0,0-7,.81-7.45.81s-4.63-.1-5.72.1c-1.09.2-8.72,1.42-8.72,1.42,0,0-4.63,3.35-5.27,3.86-.64.51-3.18,2.34-4,3.15-.82.81-3.36,3.55-4.63,4.37-1.27.81-1.73,1.83-2.18.91-.45-.91-2-3.35-1-4.98,1-1.62,2.54-3.86,4.18-5.89,1.64-2.03,3.36-4.57,3.54-5.59.18-1.02.18-1.73.27-3.45.09-1.73.45-2.34-.09-3.66-.55-1.32-1.91-4.98-2.73-5.48-.82-.51-2.54-1.52-2.54-1.52,0,0,.45,4.77.45,5.89s0,4.16-1.27,6.7c-1.27,2.54-2.18,3.76-4.54,6.4-2.36,2.64-7.36,6.2-8.18,6.91-.82.71-4.54,3.25-5.63,4.06-1.09.81-.73,4.57-.73,4.57l-.73-.61s6.81,3.25,7.81,2.74,12.96.12,13.35-.3c2.45-2.61,10.05,4.5,9.99,4.57,16.39-6.75,6.6,4.3,10.08,6.09l15.44,11.58s12.55,32.97,12.9,33.31c1.36,1.32.91,14.83.91,14.83h0Z"/>
  </g>
  <g id="layer9">
    <path id="path74158" class="cls-10" d="m61.94,87.06c-.36-.3-1.82-3.05-1.82-3.05,0,0,.27-1.32,1-1.02.73.3.73,2.03,1.27,2.03s.55,1.93.55-.61-.09-4.98.09-5.48c.18-.51.64-2.64.64-2.64,0,0,1.91,2.95,2,3.86s-1.36,3.66.55,2.95c1.91-.71,2.09-.1,3-1.52.91-1.42,1.64-4.27,1.64-4.27,0,0,1.27,1.22,1.27,3.05s-1.27,2.74-.18,2.64,3-1.73,3-2.74-.73-3.55.18-4.57c.91-1.02,1.54-1.32,1.54-1.32,0,0,.91-1.42.27.71-.64,2.13-1.27,6.2-1.27,6.2,0,0,.82.71,1.18.81.36.1,1.64,1.52,1.64,1.52l2.18-5.08,1.09,1.42s-.27,2.23-.55,2.84c-.27.61-1.27,2.84-1.36,3.66-.09.81-.18,5.08-.18,6.8s-.73,7.62-1,8.53c-.27.91-.73,2.84-1.64,4.37-.91,1.52-3.27,4.57-3.63,4.67-.36.1-6.72-.91-6.72-.91,0,0-3.54-2.64-3.72-3.35-.18-.71-2.36-4.37-2.45-5.38-.09-1.02,1.45-14.12,1.45-14.12Z"/>
    <path id="path79320" class="cls-4" d="m76.57,58.31s2.54-3.86,4.36-4.16c1.82-.3,5.54-.1,6.36-.71.82-.61,3.45-2.95,3.91-3.15.45-.2.64,1.32,2.27,2.84,1.64,1.52,5.27,4.98,6,4.98s2.36-1.42,3.18-1.93c.82-.51,3-4.87,4.27-5.48,1.27-.61,5.54-2.44,5.91-2.54.36-.1,2.73-1.02,4.18-1.02s5.27,0,4.63-.1c-.64-.1-7.54,4.27-8.18,4.87-.64.61-3.18,3.66-3.18,4.77s-.73,2.64.18,3.55c.91.91,1.27,2.03,3.27,2.03s8.27-1.62,8.99-1.62,7.27.41,8.27.81c1,.41,5.09,1.73,6.45,2.74s4.27,3.05,4.27,3.05c0,0-4.63,2.23-.27,2.13,4.36-.1,5.72-.71,5.72-.71,0,0-.73,2.03-2.54,2.95-1.82.91-3.54,1.62-4,2.34-.45.71-2.18-.3-.82,2.44,1.36,2.74,3.54,5.48,4.63,5.69,1.09.2,2.91.1,5.36-1.12,2.45-1.22,5.81-1.52,6.45-1.62s1.73,0,2.45.1c.73.1,3.63-.71,1.73,1.12-1.91,1.83-2.27,1.52-5.27,3.96-3,2.44-2.36,1.32-4.27,3.55s-2.63.91-2.73,4.67c-.09,3.76-.73,5.69-.09,6.7.64,1.02,2.36,4.27,2.36,4.67s2.09,3.35,2.82,3.66c.73.3,1.54.71,1.54.71,0,0,1.27-.41-.18,1.32-1.45,1.73-2.91,3.55-3.36,4.67-.45,1.12-.55.71-.45,3.15.09,2.44.45,4.77.91,5.89.45,1.12-1.36,1.22,1.09,1.32,2.45.1,3.63-.2,3.63-.2,0,0-.64,1.93-2.27,3.35-1.64,1.42-4.54,2.34-5,2.44-.45.1-1.64.81-1.64.41s-1.27-13.41-1.27-13.41c0,0-1.45-7.72-1.82-8.23-.36-.51-4-10.46-4-10.46l-4.27-8.73-2.91-6.2-8.36-8.12-11.54-8.33-11.81-5.18-9.18-.81-7.18.3-8.63-3.35Z"/>
    <path id="path86196" class="cls-3" d="m50.95,77.41c0-.61,2.63-2.84,2.63-2.84,0,0,3.63-3.45,4.82-3.55s4.63-1.12,5.09-1.12-2.54,1.93-2.91,2.34c-.36.41-1.82,2.54-1.82,2.54l-4,1.73-3.82.91Z"/>
    <path id="path86198" class="cls-9" d="m55.22,59.74s.18-1.02,1.45-1.52,2.18-.71,3.82-1.02c1.64-.3,3.36.2,4.36.51,1,.3,2.09,1.52,2.09,1.52,0,0,1.18,1.02.45,1.02s-12.72-.41-12.72-.41c0,0,1.45-.2,1.09-.2s-.55.1-.55.1Z"/>
    <path id="path88684" class="cls-3" d="m60.58,59.99c-2.7-.1-4.93-.18-4.95-.19-.02,0,.02-.06.09-.11.11-.08.08-.1-.11-.1-.32,0-.31-.07.02-.53.5-.68,1.7-1.16,4.13-1.66,1.15-.23,1.51-.27,2.27-.22,1.12.08,2.68.47,3.33.83.76.43,2.17,1.76,2.17,2.05,0,.16-.47.16-6.95-.08h0Z"/>
    <path id="path88740" class="cls-1" d="m89.02,83.2c-.05.2-1.04,2.34-1.14,2.74s1.59,2.89,2.18,3.2,1.86,1.42,2.04,1.83c.18.41.14,2.64-.27,3.81s-1.91,8.02-2,8.48c-.09.46-1.68,3-1.95,3.55-.27.56-1,1.52-1.45,1.42-.45-.1-1.04.2-.82-.46.23-.66,1.59-4.21,1.86-5.18.27-.96,1-3.91,1.27-5.13.27-1.22.45-4.21.41-4.67-.05-.46-1.59-1.57-2-2.03-.41-.46-2.54-1.57-2.27-2.44.27-.86,2.32-4.93,2.32-4.93l.36-.76,1.32.05.14.51Z"/>
    <path id="path88742" class="cls-8" d="m101.33,91.07s-.23,2.39-.23,2.74-.45,4.32-.36,4.82c.09.51-.91,4.67-1.04,5.18-.14.51-1.59,4.32-1.91,4.93-.32.61-1.36,3-2,4.01-.64,1.02-1.5,2.69-1.73,3-.23.3-1.77,1.78-1.77,1.78,0,0-.18.66-1.77,1.73s-2.59,1.68-2.82,2.03c-.23.36-1.04.81-.91,1.27.14.46.55,16.5.55,16.71s-.23,5.54-.23,5.89-1.41,3.05-1.45,3.35c-.05.3-.32,1.37-.32,1.37l2.59-2.44s.41-1.98.64-2.74c.23-.76.45-2.13.36-3.61s-.27-4.21-.45-5.28-.5-5.69-.5-6.2-.36-5.43-.36-5.43c0,0,.32-1.83,1.68-2.95,1.36-1.12,3.5-1.73,4.63-2.54,1.14-.81,1.59-1.17,2.41-1.98.82-.81,4-8.07,4.36-8.58.36-.51,1.95-4.93,1.95-4.93,0,0,.64-4.32.68-4.98.05-.66-.45-5.43-.64-5.84-.18-.41-1.23-1.78-1.23-1.78l-.14.46Z"/>
    <path id="path92470" class="cls-8" d="m85.67,108.15s-.08-.1-.08-.15.15-.52.34-1.03c1.55-4.24,1.48-4.04,1.93-5.8.6-2.34.96-3.94,1.05-4.6.11-.83.21-2.13.25-3.09l.03-.74-.15-.21c-.27-.38-1.68-1.64-2.7-2.42-.87-.66-1.28-1.07-1.4-1.41-.07-.22-.07-.24.02-.5.15-.43.88-2,1.78-3.84l.83-1.69h.41c.22,0,.52.02.66.04q.25.03.31.27l.06.23-.52,1.21c-.7,1.63-.67,1.51-.5,1.91.42.99,1.52,2.45,2.17,2.87.72.46,1.75,1.41,1.93,1.76.06.13.08.31.07,1.17,0,1.22-.07,1.69-.38,2.79-.31,1.06-.59,2.25-1.34,5.58-.75,3.32-.57,2.84-1.78,4.93-.39.67-.79,1.37-.89,1.55-.23.4-.76,1.02-.99,1.13-.19.1-.96.12-1.09.03h0Z"/>
    <path id="path92526" class="cls-8" d="m80.7,129.46c-.09.25-1.59,3.61-1.45,4.27.14.66.86,3.91.95,5.18.09,1.27.59,3.76.59,4.16s.32,1.47.32,1.47c0,0,0-.96.05-1.57s-.18-2.08-.18-3.4.18-4.93.27-5.28c.09-.36-.14-2.79-.14-3.1s-.41-1.73-.41-1.73Z"/>
    <path id="path92528" class="cls-11" d="m69.71,129.25c.45-.46,2.13-2.59,2.5-2.95.36-.36.59-.25,2-.3,1.41-.05,2.32-.96,2.73-1.07.41-.1,1.5-.56,1.18-.96-.32-.41-.73-.56-1.23-.81-.5-.25-1.04-.51-2.18-.51s-1.5-.41-2.36,0c-.86.41-2.59,3.96-2.91,4.06-.32.1-1.64,1.57-1.23,1.88.41.3,1.09.76,1.27.76s.23-.1.23-.1Z"/>
    <path id="path97385" class="cls-11" d="m68.03,149.31c.36-.05,1-.46.68-.91-.32-.46-1.41-.86-1.04-1.07.36-.2.41-.3.86-.51.45-.2,1.77-1.17,1.18-1.52-.59-.36-1.5-.96-2.36-.41-.86.56-2.41,2.64-2.41,2.64,0,0-.59.61-.18,1.02.41.41,2.41,1.17,2.59,1.17s.68-.41.68-.41Z"/>
    <path id="path97387" class="cls-11" d="m71.07,150.33s1.5.96,1.91,1.02c.41.05.86.41,1.41-.46.55-.86.86-.91.68-1.78s-.27-1.27-.73-2.03c-.45-.76-.91-.96-.73-1.27.18-.3,1.18.15,1.54.36s.36.3.73-.2c.36-.51.59,0,.64-.96.05-.96-.05-1.62-.41-1.93-.36-.3-.5-.36-1.09-.66-.59-.3-.95-.61-1.41-.61s-.68-.3-1.09,1.22c-.41,1.52-.55,2.08-1,3.15-.45,1.07-1.04,1.42-1.09,2.39-.05.96-.09,1.32.23,1.42.32.1.45.76.45.76l-.05-.41Z"/>
    <path id="path97389" class="cls-11" d="m58.85,103.51l-.27,7.72,1,16.76,2,8.43s-.27-2.44-.36-3.35c-.09-.91-1.09-10.56-1-11.58.09-1.02-1.36-17.98-1.36-17.98h0Z"/>
    <path id="path97391" class="cls-2" d="m107.82,122.91s-.73-.1-.73,1.02-.18,2.64-.18,3.05-1.09,6.5-1.18,7.11c-.09.61-1.54,4.77-1.64,5.38-.09.61-4.72,10.16-4.72,10.16l-4,10.16-.64,4.47s1.18-.1,1.54-.1.09-1.93.55-3.45c.45-1.52,2.82-5.79,3.72-7.41.91-1.62,2.82-8.12,3.54-9.04.73-.91,2.27-5.59,2.82-7.01s1.73-7.52,1.73-7.52l.18-4.98.18-1.73-1.18-.1Z"/>
    <path id="path102415" class="cls-2" d="m101.01,73.04s2.73-.1,3.72-.1,4.36,1.73,4.91,1.93c.55.2,3.54,2.54,4,2.95s4.72,5.28,4.72,5.28l6.9,9.45,6.09,14.73,3.91,12.7,2.91,19.6v3.35l-2.36,1.32s.73-3.96.64-4.67c-.09-.71-1-6.4-1.09-7.41-.09-1.02-1.64-7.82-1.73-8.63-.09-.81-2.63-8.73-2.63-9.75s-3.54-12.19-3.91-12.19-2.91-8.02-2.91-8.02l-4.91-6.8-6.72-6.8-5.36-3.66-5.09-1.52-2.09-1.02,1-.71Z"/>
  </g>
  <g id="layer10">
    <path id="path102418" class="cls-12" d="m69.64,88.4l-1.48,2.08s-.06,1.8-.06,2.51.19,4.38.19,4.74.51,3.23.71,4.02c.19.79.64,1.65.64,1.65l.64.14s1.28-2.66,1.28-3.52.26-3.81-.26-4.81c-.51-1.01-1.22-3.38-1.22-3.95s.06-2.15.06-2.15l-.51-.72Z"/>
  </g>
</svg>