<?xml version="1.0" encoding="UTF-8"?>
<svg id="svg4444" xmlns="http://www.w3.org/2000/svg" width="211.46" height="225.85" viewBox="0 0 211.46 225.85">
  <defs>
    <style>
      .cls-1 {
        fill: #36a336;
      }

      .cls-1, .cls-2, .cls-3, .cls-4, .cls-5, .cls-6, .cls-7, .cls-8 {
        stroke-width: 0px;
      }

      .cls-3 {
        fill: #c07839;
      }

      .cls-4 {
        fill: #4190ae;
      }

      .cls-5 {
        fill: #a1cccc;
      }

      .cls-6 {
        fill: #946d67;
      }

      .cls-7 {
        fill: #cd4e2c;
      }

      .cls-8 {
        fill: #59f31b;
      }
    </style>
  </defs>
  <g id="layer11">
    <path id="path126088" class="cls-8" d="m0,13.52l106.13,212.32L211.46,12.71,0,13.52Z"/>
  </g>
  <g id="layer8">
    <path id="path127662" class="cls-1" d="m105.06,0l-63.09,126.58,126.18-.54L105.06,0Z"/>
  </g>
  <g id="layer10">
    <path id="path128974" class="cls-4" d="m44.11,81.41l4.54.27,4.54,7.03,12.83,20.83,14.44,22.18,9.36,14.34,11.5,3.52s13.1-1.62,14.17-2.16c1.07-.54,4.81-2.16,7.22-3.52,2.41-1.35,4.81-1.89,5.08-3.79.27-1.89,34.22-59.77,34.22-59.77,0,0,5.08-4.33,6.15-4.87,1.07-.54,1.34-11.36,1.34-11.36,0,0-1.6-8.11-2.41-10.01-.8-1.89-5.61-4.87-5.88-6.22-.27-1.35.8-3.79-.8-5.95-1.6-2.16-9.09-11.63-9.89-12.98-.8-1.35-6.95-4.33-6.95-4.33l-8.55,3.79s-8.82.54-10.43.54-4.28,1.89-5.35,1.89-4.81.27-9.36.27-16.84.27-16.84.27l-7.75-2.98-7.49-.27-6.15-7.03-6.15,3.79-6.42,4.6s-.27,1.89-1.34,4.06c-1.07,2.16-3.48,8.93-4.01,10.55-.53,1.62-4.01,6.49-5.61,7.84-1.6,1.35-6.68,5.68-6.68,5.68v10.01l1.07,10.55,1.6,3.25Z"/>
  </g>
  <g id="layer2">
    <path id="path130134" class="cls-2" d="m63.62,38.95l1.07-3.25s1.74-.14,2.81,0,7.35,2.57,8.55,3.52c1.2.95,4.14,2.84,4.14,2.84,0,0,.13,1.35,3.34,1.62,3.21.27,5.48-.41,6.28-.68.8-.27-.13,2.7-1.07,2.84-.94.14-6.28.95-8.82.54-2.54-.41-4.68-.41-5.48-.54s-3.34-.41-4.28-.81c-.94-.41-3.88-2.03-4.14-2.7-.27-.68-2.41-3.38-2.41-3.38Z"/>
    <path id="path130136" class="cls-2" d="m122.3,44.76s3.34.41,4.14.27c.8-.14,4.41-2.03,4.41-2.03,0,0,4.14-3.52,5.35-3.52s6.55-1.49,6.55-1.49c0,0,3.07-.14,3.61.27.53.41,2.14,1.76,2.14,1.76,0,0,2.14,1.35.27,2.3-1.87.95-7.62,5.14-8.29,5.27-.67.14,0,0-3.34.27s-3.74-.27-5.08-.54c-1.34-.27-2.14-.81-4.54-.81s-4.68.41-4.68-.14-.53-1.62-.53-1.62Z"/>
    <path id="path130138" class="cls-2" d="m54.67,75.6l10.29,19.88,15.77,28.81s7.89,12.58,8.55,13.25c.67.68,2.14,2.3,2.81,2.7.67.41,7.89,2.43,7.89,2.43,0,0,5.75.41,6.82.41s6.55-.41,6.55-.41l6.95-2.3,2-2.03,18.71-36.24,14.03-22.99,1.74-3.11-1.74-2.16h-6.42s-5.75,2.16-7.08,2.43c-1.34.27-7.49,1.49-8.69,1.89s-7.08,2.84-7.08,2.84c0,0-1.87.14-3.34,1.49-1.47,1.35-4.28,2.84-4.95,2.98-.67.14-2.81.54-5.61.54s-8.42-.54-8.42-.54c0,0-1.6-.81-3.48-1.62-1.87-.81-3.21-1.62-4.01-2.03-.8-.41-8.69-3.65-9.62-3.92-.94-.27-11.23-3.38-11.76-3.52s-10.43-1.08-10.43-1.08l-6.28.27-3.21,2.03Z"/>
  </g>
  <g id="layer3">
    <path id="path130140" class="cls-3" d="m71.18,39.96s.27-.88.8-.88,3.14,1.62,3.14,1.62c0,0,.2-.07.07.81s-1.4,3.04-1.4,3.04c0,0-.33.27-.53-.14-.2-.41-1.34-3.18-1.34-3.18l-.74-1.28Z"/>
    <path id="path132266" class="cls-3" d="m138.41,39.96s-1.47.88-1.74,1.15-.33.54-.6,1.01.6,3.18.6,3.18l.47,1.08s1.4-.88,1.4-1.15.53-1.83.6-2.7c.07-.88,0-1.42,0-1.42l-.74-1.15Z"/>
    <path id="path132268" class="cls-6" d="m66.96,75.07l-.19,7.94s1.04,14.82.47,14.82-3.02-5.16-3.02-5.83-.09-14.73-.09-14.73c0,0-.28-2.1.19-2.2.47-.1,1.23-.38,1.23-.38l1.42.38Z"/>
    <path id="path134325" class="cls-6" d="m56.21,74.65s-.8.61-.67,1.35c.13.74.33,1.76.53,2.1.2.34,2.41,3.65,2.67,4.06.27.41.4.34.13-.34-.27-.68-.87-4.6-.87-5v-1.89l-.94-.2-.87-.07Z"/>
    <path id="path134327" class="cls-6" d="m59.81,75.67l1.94-1.35s.47.81.47,1.08.47,12.58.47,12.58l-2.14-3.11-.74-9.2Z"/>
    <path id="path134329" class="cls-6" d="m141.28,98.99s4.75-12.24,4.41-12.92c-.33-.68-.13-10.14.13-10.21s3.14-.41,3.41-.41-.13,8.05-.13,8.05c0,0,.94.74,1.34-.61.4-1.35,1-6.22,1.14-6.69.13-.47.67-1.96.67-1.96l1.07-.2s.33,6.56.13,6.83c-.2.27-11.09,18.19-11.09,18.19l-1.07-.07Z"/>
    <path id="path134331" class="cls-7" d="m80.73,87.3c-.07-.34,2.21-2.57,2.21-2.57l.6-.47s1.87,2.77,2.54,3.25c.67.47,1.34,1.89,1.6,1.83.27-.07,3.88-5,3.88-5l2.41-1.62-16.77-7.3h-.8l2.74,3.04s1,4.26,1,4.94.6,3.92.6,3.92Z"/>
    <path id="path135905" class="cls-7" d="m124.31,95.14c0-.27,3.01-3.92,3.14-4.26.13-.34,2.21-2.37,2.21-2.37,0,0,1.14.74,1.4,1.01.27.27.8,1.96.8,1.96h1.2s1.6-3.11,1.8-4.73c.2-1.62.74-6.83.74-6.83,0,0,.4-.88,0-.95-.4-.07-6.42,1.22-6.42,1.22l-5.01,2.5-1.8,1.22s-.2,6.02,0,6.42c.2.41.94,3.04.94,3.31s.8,1.62,1,1.49Z"/>
    <path id="path135907" class="cls-5" d="m83.54,85.2s-2.14,3.25-2.14,3.58.67,7.24.67,7.64,3.14,11.43,3.14,11.43c0,0,1.87,7.51,1.94,7.84.07.34,3.74,7.57,3.88,7.84.13.27,1.14,1.56,1.14,1.56,0,0-.74-4.6-1-6.09-.27-1.49-2.34-9.47-2.54-10.95-.2-1.49-.53-6.76-.67-8.05-.13-1.28-.4-8.72-.4-9.2s-3.68-5.68-3.68-5.68l-.33.07Z"/>
    <path id="path137688" class="cls-5" d="m129.92,90.88l-5.35,4.87.07,8.99-1.07,7.64s-1.74,6.69-1.94,7.37c-.2.68-.8,4.33-.8,4.33,0,0,4.34-10.28,4.75-11.22.4-.95,4.01-8.99,4.21-9.67.2-.68.53-9.13.53-9.13l-.4-2.84v-.34Z"/>
  </g>
</svg>