<?xml version="1.0" encoding="UTF-8"?>
<svg id="Layer_1" data-name="Layer 1" xmlns="http://www.w3.org/2000/svg" width="247.69" height="229.1" viewBox="0 0 247.69 229.1">
  <defs>
    <style>
      .cls-1 {
        fill: #e29d5d;
      }

      .cls-1, .cls-2, .cls-3, .cls-4, .cls-5 {
        stroke-width: 0px;
      }

      .cls-2 {
        fill: #37344f;
      }

      .cls-3 {
        fill: #231108;
      }

      .cls-4 {
        fill: #e9e8d3;
      }

      .cls-5 {
        fill: #5c509b;
      }
    </style>
  </defs>
  <path id="path1217" class="cls-2" d="m170.06,11.53l-11.53,17.56-14.63,34.43,8.61,3.27,11.36-28.92,6.2-26.34Z"/>
  <path id="path2086" class="cls-2" d="m163.35,75.56l28.23-25.13,24.79-15.32-19.62,23.75-28.23,22.38-5.16-5.68Z"/>
  <path id="path2088" class="cls-2" d="m172.47,93.47l67.13-20.83-67.82,28.92.69-8.09Z"/>
  <path id="path2090" class="cls-2" d="m197.78,107.58h19.11l30.81,6.37-31.5,7.57h-19.45l-.17-13.43,1.2-.52Z"/>
  <path id="path2092" class="cls-2" d="m172.99,128.58l45.1,15.49,19.11,12.57-68.34-19.62,3.96-4.65.17-3.79Z"/>
  <path id="path2094" class="cls-2" d="m161.11,143.38l33.91,28.92,12.39,17.73-16.87-11.7-37.18-30.98,7.75-3.96Z"/>
  <path id="path2096" class="cls-2" d="m142.01,163.52l6.71-3.44,16.87,38.9,3.96,13.25-12.91-16.18-14.63-32.53Z"/>
  <path id="path2098" class="cls-2" d="m117.74,180.56c2.07,0,15.66-.17,15.66-.17l.69,21.34-2.58.17-7.06,27.2-3.96-27.37-3.1-1.55.34-19.62Z"/>
  <path id="path2100" class="cls-2" d="m110.51,163.87l-18.76,35.29-10.84,16.7,5.34-24.44,14.63-30.64,9.64,3.1Z"/>
  <path id="path2102" class="cls-2" d="m85.03,146.65l3.27.69,5.34.86-18.59,16.52-14.8,12.39-22.38,15.15,18.93-21.86,12.39-11.7,15.84-12.05Z"/>
  <path id="path2104" class="cls-2" d="m76.94,126.69l-40.45,14.8-21.69,12.22s41.83-10.5,42.52-10.5,18.76-6.2,18.76-6.2l1.38-4.13.69-6.54-1.2.34Z"/>
  <path id="path2106" class="cls-2" d="m0,116.7c1.72,0,29.09-4.99,29.09-4.99l3.96-3.1,21.69-.52,1.03,12.74-5.16,2.93-20.31-.52-3.27-3.27-27.02-3.27Z"/>
  <path id="path2108" class="cls-2" d="m20.66,75.22l23.07,4.65,34.6,13.08.34,8.43-42-16.52-16.01-9.64Z"/>
  <path id="path2110" class="cls-2" d="m41.66,42.17l8.09,12.22,32.19,28.75,6.02-5.85-33.22-27.54-13.08-7.57Z"/>
  <path id="path2112" class="cls-2" d="m81.07,15.84l27.37,48.88-10.5,4.48-17.73-52.67.86-.69Z"/>
  <path id="path2114" class="cls-2" d="m125.65,0c-.17,1.72-2.93,25.13-2.93,25.13l-6.71,2.75,2.58,22.55,13.77.17,1.38-22.72-2.41-2.24L125.65,0Z"/>
  <g id="layer1">
    <path id="path2117" class="cls-4" d="m88.3,77.37l-7.32,6.37-2.15,11.19-.6,28.23-.09,15.23,7.75,6.54s9.73,2.84,10.33,2.84,3.53,1.46,3.53,1.46c0,0,3.44,1.81,3.96,2.07.52.26,3.36.77,4.56.43,1.2-.34,2.84-.6,3.53-.69.69-.09,4.65.69,4.65.69,0,0,5.25.77,5.77.95s7.66-.86,7.66-.86l10.07-.95s.69-1.29,1.2-1.64c.52-.34,4.56-2.15,4.56-2.15l6.8.43,8.43-4.48s-.43-1.29.26-1.46,5.59-3.36,5.59-3.36l2.24-1.64s3.44-3.79,3.44-4.13.09-4.73.09-4.73l-.34-36.75-4.48-9.55-6.02-6.11-8.95-8.86-9.73-3.36-15.15-.52-10.24.6-10.59,2.15-8.86,3.79-9.9,8.26Z"/>
    <path id="path3484" class="cls-4" d="m96.47,147.94c0,.37.85,9.68.85,9.68,0,0,.85,1.4.85.85s.49-9.43.49-9.43l-2.19-1.1Z"/>
    <path id="path3486" class="cls-4" d="m100.97,150.31c-.06.55-.37,9.25-.37,9.25l.67.67s.55-2.07.61-2.37c.06-.3.3-4.2.3-4.5s-.12-2.62-.12-2.62l-1.1-.43Z"/>
    <path id="path3488" class="cls-4" d="m104.08,152.74l-.18,8.22,1.95.12-.3-8.89s-.79-.55-.91-.3c-.12.24-.61,1.4-.61,1.4l.06-.55Z"/>
    <path id="path3490" class="cls-4" d="m108.22,152.5c-.18.67-.18,9.62-.18,9.62,0,0,1.46-1.4,1.58-1.95s1.76-8.03,1.76-8.03l-3.29.85.12-.49Z"/>
    <path id="path3492" class="cls-4" d="m114.54,152.5c-.3.24-1.64,2.01-1.64,2.01l.91,10.77,1.03,1.16s.79.24.79-.49.06-6.82.18-8.28c.12-1.46.3-3.96.3-3.96l.43-.91-2.01-.3Z"/>
    <path id="path3494" class="cls-4" d="m121.06,153.29l-2.68,2.8s2.5,12.84,2.43,12.29c-.06-.55,1.89-6.21,1.89-6.21,0,0-.06-3.83-.06-4.2s-.24-4.26-.24-4.26l-1.34-.43Z"/>
    <path id="path3496" class="cls-4" d="m128.18,153.23c-.37.18-1.76,1.46-1.89,1.76-.12.3-.91,2.62-.91,3.04s.43,2.43.79,3.23c.37.79.37,2.62.85,3.53.49.91.37,1.95.55,1.22s1.03-1.89,1.34-2.62c.3-.73.67-1.76.73-2.07.06-.3.3-2.74.06-3.47-.24-.73-.55-1.1-.67-2.01-.12-.91-.85-2.62-.85-2.62h0Z"/>
    <path id="path3498" class="cls-4" d="m133.84,152.5c-.06.3-1.89,4.38-2.19,5.42-.3,1.03-.91,2.43-.55,2.92.37.49,1.34,1.76,1.95,2.68s1.7,2.37,1.7,2.37c0,0,.85-1.03.49-2.19s-.79-4.32-.55-5.48.61-2.68.61-3.23-.06-1.76-.55-2.01c-.49-.24-.91-.49-.91-.49h0Z"/>
    <path id="path3500" class="cls-4" d="m138.89,152.62c-.12.49-.37,1.64-.06,2.62.3.97.61,1.7,1.58,3.53.97,1.83,1.03-3.71,1.1-4.2.06-.49-.12-3.04-.37-2.92-.24.12-2.25.97-2.25.97h0Z"/>
    <path id="path3502" class="cls-4" d="m142.72,151.1c0,.61.61,7.42.61,7.42,0,0,.79-.12.79-2.62s.24-5.29.24-5.29l-1.64.49Z"/>
    <path id="path3504" class="cls-4" d="m147.29,148.91c-.43,1.89-.61,8.4-.61,8.4,0,0,1.46-.97,1.58-1.89s1.03-3.16,1.28-4.14c.24-.97.49-1.89.49-2.19s-2.37-.85-2.37-.85l-.37.67Z"/>
    <path id="path3507" class="cls-5" d="m115.15,31.16c-1.2.17-14.98,2.93-16.7,3.61-1.72.69-18.07,7.92-18.07,7.92,0,0-18.93,10.67-19.11,11.53s-18.07,23.75-18.07,23.75l-8.43,29.26.86,25.13,9.47,21s9.12,14.8,10.16,15.32c1.03.52,10.33,10.67,10.33,10.67l19.11,11.19,10.84,3.96,21.52,4.13h19.28l18.59-3.61,11.7-4.82,17.56-9.98,4.3-3.61,7.92-7.06,11.88-18.42,1.55-1.89,4.82-13.94,2.58-13.94-.52-19.28-5.51-16.52-3.1-6.37-11.88-17.9-13.94-11.7-13.08-8.78-5.85-1.89-13.25-5.51-15.84-2.41h-18.07l.69,16.18,20.14-.17s9.47,1.55,10.5,2.41c1.03.86,17.56,7.75,17.56,7.75l11.53,7.57,12.39,12.74,5.16,7.75,4.3,11.19,2.07,10.5-.34,21.17-7.4,22.55-16.01,16.7-9.98,7.06-7.75,3.96s-11.36,3.44-13.25,3.96c-1.89.52-12.05,1.55-12.05,1.55h-19.11s-16.7-4.48-17.56-4.48-9.98-3.79-10.84-4.65c-.86-.86-11.53-8.78-11.53-8.78l-11.02-10.67-7.75-10.67-4.82-14.63-1.2-9.98s.86-14.63,1.03-15.49c.17-.86,3.96-13.77,3.96-13.77l5.85-11.19s6.37-7.4,7.06-7.92,8.43-7.06,8.95-7.75,8.78-8.61,10.5-8.95,14.29-6.71,14.29-6.71l17.21-1.55-1.2-15.84-2.41.34Z"/>
  </g>
  <g id="layer2">
    <path id="path3770" class="cls-2" d="m124.45,62.31l.17-6.54,3.44,6.2h-2.93l-.69.34Z"/>
    <path id="path3910" class="cls-2" d="m122.9,67.99c-.69,0-3.1.52-3.1,1.55s-.34,3.79.86,4.48c1.2.69,5.85,1.03,5.85,1.03,0,0,1.2-1.03,1.38-1.72.17-.69.52-1.55-.34-2.58-.86-1.03-2.24-2.41-2.24-2.41l-2.41-.34Z"/>
    <path id="path3912" class="cls-2" d="m124.45,81.93l-4.13,3.1s2.24,4.65,2.93,5.16c.69.52,4.48-1.55,4.48-1.55,0,0,.69-1.2-.17-2.75-.86-1.55-3.1-3.96-3.1-3.96Z"/>
    <path id="path3914" class="cls-3" d="m103.45,111.37s-5.34,1.2-6.54,2.07-5.51,4.99-5.51,4.99c0,0-2.75,4.48-2.75,5.16s2.93,7.23,2.93,7.23c0,0,3.44.86,4.3,1.2.86.34,9.12,1.89,9.98,1.55.86-.34,1.72-.86,3.79-1.38,2.07-.52,7.4-4.99,8.09-5.68.69-.69,1.72-.86,1.89-2.58s-.52-5.16-.52-5.16c0,0-1.03-1.38-2.93-2.75s-4.65-3.1-5.68-3.27c-1.03-.17-7.06-1.38-7.06-1.38Z"/>
    <path id="path3914-9" class="cls-3" d="m146.81,111.08s-5.34,1.2-6.54,2.07c-1.2.86-5.51,4.99-5.51,4.99,0,0-2.75,4.48-2.75,5.16s2.93,7.23,2.93,7.23c0,0,3.44.86,4.3,1.2s9.12,1.89,9.98,1.55c.86-.34,1.72-.86,3.79-1.38,2.07-.52,7.4-4.99,8.09-5.68.69-.69,1.72-.86,1.89-2.58s-.52-5.16-.52-5.16c0,0-1.03-1.38-2.93-2.75s-4.65-3.1-5.68-3.27c-1.03-.17-7.06-1.38-7.06-1.38Z"/>
    <path id="path4897" class="cls-3" d="m122.21,127.72l-5.34,9.98s-1.72,2.58-.86,3.44c.86.86,1.72,1.55,2.58,1.72.86.17,2.07.69,2.07.69l1.72-1.2,1.55-2.93-.34-9.29-1.38-2.41Z"/>
    <path id="path4899" class="cls-3" d="m127.72,128.58l-.86,10.5,3.44,4.65,2.07-1.03s2.41-.34,1.89-1.89c-.52-1.55-.34-1.72-1.03-3.61-.69-1.89-2.07-3.79-2.24-4.48-.17-.69-3.27-4.13-3.27-4.13h0Z"/>
  </g>
  <g id="layer3">
    <path id="path4902" class="cls-1" d="m102.93,116.7c-1.38.17-5.85,4.48-5.85,4.48l-1.2,4.65s-.86,2.75,0,3.27,5.16,2.75,5.85,2.75,7.06-2.07,7.06-2.07c0,0,2.24-2.58,2.24-3.61s.52-2.07-.17-3.1c-.69-1.03-1.89-2.58-2.58-3.1-.69-.52-3.79-3.1-3.79-3.1l-.86-.52-.69.34Z"/>
    <path id="path5372" class="cls-1" d="m147.69,117.05c-.86.17-4.48,2.24-5.16,2.93-.69.69-2.93,4.99-2.93,5.68s.86,3.27,2.24,3.79c1.38.52,7.57,1.38,7.57,1.38,0,0,1.55.69,3.1,0s2.24-.52,2.41-1.38c.17-.86,1.03-2.75,1.03-3.96s.52-2.07-.69-3.61c-1.2-1.55-2.93-3.44-2.93-3.44l-4.65-1.38Z"/>
  </g>
</svg>