<?xml version="1.0" encoding="UTF-8" standalone="no"?>
<svg
   id="svg4444"
   width="231.98"
   height="227.16"
   viewBox="0 0 231.98 227.16"
   version="1.1"
   sodipodi:docname="PIP_tortuga.svg"
   xml:space="preserve"
   inkscape:export-filename="PIP_ClanjadeFalcon.svg"
   inkscape:export-xdpi="96"
   inkscape:export-ydpi="96"
   xmlns:inkscape="http://www.inkscape.org/namespaces/inkscape"
   xmlns:sodipodi="http://sodipodi.sourceforge.net/DTD/sodipodi-0.dtd"
   xmlns="http://www.w3.org/2000/svg"
   xmlns:svg="http://www.w3.org/2000/svg"><sodipodi:namedview
     id="namedview13"
     pagecolor="#505050"
     bordercolor="#ffffff"
     borderopacity="1"
     inkscape:showpageshadow="0"
     inkscape:pageopacity="0"
     inkscape:pagecheckerboard="1"
     inkscape:deskcolor="#505050"
     showgrid="false" /><defs
     id="defs4"><style
       id="style2">
      .cls-1 {
        stroke-width: 0px;
      }
    </style></defs><g
     inkscape:groupmode="layer"
     id="layer1"
     inkscape:label="Layer 1"><path
       style="display:inline;fill:#63379b;fill-opacity:1;stroke:none;stroke-width:0.357726px;stroke-linecap:butt;stroke-linejoin:miter;stroke-opacity:1"
       d="m 79.990877,15.257019 -7.927388,7.247225 0.417231,191.561916 6.675695,7.44311 H 211.20999 l 6.6757,-7.24724 -0.83447,-192.933012 -6.46707,-6.071999 z"
       id="path34724" /></g><g
     inkscape:groupmode="layer"
     id="layer5"
     inkscape:label="Layer 2"
     style="display:inline"><path
       style="display:inline;fill:#f53039;fill-opacity:1;stroke:none;stroke-width:0.357726px;stroke-linecap:butt;stroke-linejoin:miter;stroke-opacity:1"
       d="m 83.954571,19.664119 -6.98862,6.659617 0.41723,183.629134 7.197235,7.14928 122.040034,-0.2938 6.88431,-6.85548 -0.10435,-183.629134 -7.30154,-7.051359 -122.040039,-0.09793 z"
       id="path36383" /></g><g
     inkscape:groupmode="layer"
     id="layer6"
     inkscape:label="Layer 3"
     style="display:inline;fill:#000000;fill-opacity:0"><path
       style="display:inline;fill:#391e55;fill-opacity:1;stroke:none;stroke-width:0.357726px;stroke-linecap:butt;stroke-linejoin:miter;stroke-opacity:1"
       d="m 85.084109,20.824517 -6.048048,5.678577 -0.516298,183.099336 6.490591,6.16333 120.518446,0.0693 6.04806,-6.30182 -0.0737,-182.822344 -6.19557,-5.955575 z"
       id="path43095" /></g><g
     inkscape:groupmode="layer"
     id="layer7"
     inkscape:label="Layer 4"><path
       style="display:inline;fill:#96b6df;fill-opacity:1;stroke:none;stroke-width:0.357726px;stroke-linecap:butt;stroke-linejoin:miter;stroke-opacity:1"
       d="m 84.267494,30.437025 6.675694,-6.953421 95.963112,0.48968 6.67569,6.659617 -19.92278,14.396521 -6.98861,-6.561681 -14.91602,0.09793 -6.77998,6.463746 0.52153,147.001253 6.46708,6.36581 14.70739,-0.0979 6.67569,-6.56167 -0.20862,-146.903312 20.13139,-14.592391 0.10435,156.794803 0.10435,19.39123 -7.09292,6.75755 -95.963113,-0.0979 -6.362772,-7.05136 z"
       id="path44555" /></g><g
     inkscape:groupmode="layer"
     id="layer8"
     inkscape:label="Layer 5"
     style="display:inline"><path
       style="fill:#429043;fill-opacity:1;stroke:none;stroke-width:0.357726px;stroke-linecap:butt;stroke-linejoin:miter;stroke-opacity:1"
       d="m 14.798547,28.380377 6.362773,4.407101 -10.430772,1.371095 v 4.01536 l 5.215382,3.329809 -10.430772,2.546324 v 4.407099 l 10.848005,4.113293 -17.21077012,5.876132 6.67568962,3.329808 5.4239995,2.448389 7.092931,1.566968 -8.9704646,5.092649 -0.3129245,4.602969 13.9772381,3.623615 -0.417233,5.876133 17.10646,3.133937 -0.208607,4.407099 12.308305,4.994711 1.668924,8.030712 8.344623,2.44839 1.668925,7.34517 6.362768,1.37109 0.730154,5.28852 8.344617,2.05665 0.625848,6.36581 10.01354,-0.68554 0.417231,3.81948 h 2.920615 l -16.167696,10.18529 -21.174466,8.22659 0.208615,4.50503 3.963692,2.25253 -0.104305,5.48438 8.031695,2.74219 -0.417232,4.50505 4.276617,1.46903 2.190465,5.19057 6.258463,-1.46903 1.77323,5.97406 5.00677,-1.66489 4.380925,3.52568 12.099695,-5.7782 1.04308,3.91741 6.88431,-5.87613 6.04985,7.24724 5.84123,-4.60297 8.86615,4.7009 -3.96369,-19.19536 -0.41723,-13.71098 7.82309,20.27267 14.70737,3.81947 -0.20861,-14.69032 c 0,0 2.19046,2.25251 3.02492,2.35046 0.83446,0.0979 11.36955,-2.64427 11.36955,-2.64427 l 3.23355,4.21123 12.3083,-1.76285 6.04984,7.05137 4.38093,-2.05666 10.32647,9.69563 3.85939,-3.03601 10.84799,10.67498 -0.10435,-14.78827 6.98862,1.95872 0.83446,-7.34517 h 3.65078 l -0.20862,-4.50504 -1.04307,-3.3298 4.58952,1.3711 -0.62584,-4.89679 -7.30154,-14.69032 5.21538,1.37109 0.20863,-4.7009 -15.24134,-19.20038 -9.14583,-7.96385 -6.56436,-4.2243 -11.72732,-5.817074 -10.76846,-2.700785 -1.25387,0.900265 c 0,0 -1.25386,0.900259 -1.54889,1.177264 -0.29502,0.277001 -5.08921,2.285278 -5.08921,2.285278 l -2.729,0.415502 c 0,0 -2.76588,0.0346 -2.83963,-0.484752 -0.0738,-0.519381 -0.55317,-3.981928 -0.55317,-3.981928 l 0.70068,-1.52352 0.037,-2.631532 -0.29501,-1.939024 -0.77446,-0.900262 -1.65951,-1.21189 -3.50346,-0.934887 -2.24956,-0.173127 c 0,0 -2.32335,-0.06925 -2.47086,-0.06925 -0.14752,0 -3.61408,0.173127 -3.61408,0.173127 0,0 -3.42969,0.38088 -3.79848,0.450131 -0.36877,0.06925 -3.65094,0.900261 -3.79846,0.900261 -0.14751,0 -2.17582,0.346255 -2.95026,0.588634 -0.77445,0.242377 -2.32335,0.311628 -2.69213,0.311628 -0.36879,0 -1.25386,0 -1.25386,0 L 121.96247,80.380277 114.43929,64.17557 112.52161,55.449959 112.22659,48.940376 97.32773,38.829747 81.543796,32.458668 62.957107,27.334101 41.272636,24.702565 15.162769,24.148558 Z"
       id="path45061" /></g><g
     inkscape:groupmode="layer"
     id="layer9"
     inkscape:label="Layer 6"
     style="display:inline"><path
       style="fill:#ffd100;fill-opacity:1;stroke:none;stroke-width:0.357726px;stroke-linecap:butt;stroke-linejoin:miter;stroke-opacity:1"
       d="m 155.30106,96.935257 5.73692,-2.546324 1.87753,4.309163 -1.356,5.386454 -1.98184,-3.62362 -1.98184,-2.25251 z"
       id="path47548" /><path
       style="fill:#000000;fill-opacity:1;stroke:none;stroke-width:0.357726px;stroke-linecap:butt;stroke-linejoin:miter;stroke-opacity:1"
       d="m 11.069551,101.83203 -0.834467,0.68555 c 0,0 -1.5646166,1.44455 -1.6428476,1.54249 -0.078193,0.0979 -0.8344581,1.22419 -0.8605351,1.42006 -0.026035,0.19588 -0.5476193,0.97936 -0.5476193,1.27317 0,0.2938 -0.3650708,3.42774 -0.3650708,3.52567 0,0.0979 0.2346938,0.53866 0.2346938,0.53866 l 13.377465,6.12096 46.156158,21.96205 -2.007918,4.18673 5.032847,2.05665 8.475002,-16.79594 -5.032848,-2.57081 -1.903615,4.16225 L 40.041015,115.49404 11.252082,101.7341 Z"
       id="path50525" /><path
       style="fill:#fffdfd;fill-opacity:1;stroke:none;stroke-width:0.357726px;stroke-linecap:butt;stroke-linejoin:miter;stroke-opacity:1"
       d="m 76.235796,132.09412 99.509574,43.58131 50.69355,21.54581 -10.848,5.58234 -143.944662,-62.09113 z"
       id="path51984" /></g><g
     inkscape:groupmode="layer"
     id="layer10"
     inkscape:label="Layer 7"
     style="display:inline"><path
       style="fill:#ffcc00;fill-opacity:1;stroke:none;stroke-width:0.357726px;stroke-linecap:butt;stroke-linejoin:miter;stroke-opacity:1"
       d="m 97.61888,147.9107 0.730153,-2.10561 2.868467,-3.28084 2.39907,-1.27317 1.66893,-0.29381 3.23354,6.07202 8.44892,-0.34279 0.31293,1.17524 0.20861,2.00767 -0.678,3.86846 -0.93877,2.98703 -1.30385,-5.28852 -3.75507,-1.95872 -7.92739,-3.57465 -1.51246,0.049 -0.678,0.73453 c 0,0 -1.095233,0.93038 -1.512464,1.07729 -0.417232,0.14689 -1.564616,0.14689 -1.564616,0.14689 z"
       id="path56411" /><path
       style="fill:#ffcc00;fill-opacity:1;stroke:none;stroke-width:0.357726px;stroke-linecap:butt;stroke-linejoin:miter;stroke-opacity:1"
       d="m 104.86826,153.63993 -1.30384,1.07729 -0.88662,2.98704 0.20862,0.53864 0.99092,0.14692 1.40816,-1.12628 c 0,0 0.31293,-2.00767 0.31293,-2.44838 0,-0.44072 0,-0.68555 0,-0.88143 0,-0.19586 0,-0.4407 0,-0.4407 z"
       id="path56413" /><path
       style="fill:#ffcc00;fill-opacity:1;stroke:none;stroke-width:0.357726px;stroke-linecap:butt;stroke-linejoin:miter;stroke-opacity:1"
       d="m 131.67536,162.74793 1.14738,-1.71387 1.30386,-2.39942 2.03398,-1.518 2.34693,-1.32213 c 0,0 0.93877,0.0979 1.09523,0.44071 0.15646,0.34278 2.81631,5.38646 2.81631,5.38646 l 1.51246,0.53864 7.61446,-0.29381 -0.15646,4.35813 -0.67799,2.93808 -0.36508,1.6649 -0.62585,0.19587 c 0,0 0,-2.39943 -0.15646,-2.88911 -0.15647,-0.48966 -0.88662,-2.30148 -0.88662,-2.30148 l -11.57815,-5.33748 -2.08617,0.34276 c 0,0 -1.25169,1.51801 -1.98184,1.71388 -0.73015,0.19587 -1.35599,0.19587 -1.35599,0.19587 z"
       id="path56415" /><path
       style="fill:#ffcc00;fill-opacity:1;stroke:none;stroke-width:0.357726px;stroke-linecap:butt;stroke-linejoin:miter;stroke-opacity:1"
       d="m 139.08121,168.52612 -1.51246,2.00769 -0.36508,1.81181 v 1.27316 c 0,0 1.30384,0.24484 1.40814,0 0.10435,-0.24483 0.78232,-1.2242 0.78232,-1.46904 0,-0.24483 0.10435,-1.76284 0.10435,-1.76284 l 0.46939,-1.71386 z"
       id="path56417" /></g></svg>
