<?xml version="1.0" encoding="UTF-8"?>
<svg id="svg4444" xmlns="http://www.w3.org/2000/svg" width="224.49" height="227.51" viewBox="0 0 224.49 227.51">
  <defs>
    <style>
      .cls-1 {
        fill: #613646;
      }

      .cls-1, .cls-2, .cls-3, .cls-4, .cls-5, .cls-6 {
        stroke-width: 0px;
      }

      .cls-2 {
        fill: #715ae9;
      }

      .cls-4 {
        fill: #141a2a;
      }

      .cls-5 {
        fill: #71fcc6;
      }

      .cls-6 {
        fill: #fff;
      }
    </style>
  </defs>
  <g id="layer7">
    <ellipse id="path171204" class="cls-4" cx="112.24" cy="113.75" rx="112.24" ry="113.75"/>
  </g>
  <g id="layer11">
    <path id="path174643" class="cls-5" d="m141.03,95.28l-11.59,11.67-2.7,9.14-4.83,10.69-10.05,30.53-5.6,1.36-10.82-29.75-6.18-18.28-1.55-15.36-25.89-21.39-6.76-7.19-2.51-8.75,8.11-9.14-3.67.78-9.47,9.53-.19,22.17s6.38,24.5,6.95,26.25c.58,1.75,6.38,15.56,6.38,15.56l-19.13-35.97-5.41-24.89,2.32-13.03,5.99-15.95s7.15-6.81,9.08-7.39c1.93-.58,9.08-2.53,12.36-2.33,3.28.19,19.9,3.69,19.9,3.69l19.13,11.28,15.84,10.11,23.76,16.53,8.89,10.31-2.9,4.67-9.47,15.17Z"/>
    <path id="path176286" class="cls-5" d="m73.41,84l11.78,30.63,11.4,18.57,3.09,8.46-.77-.29c-.77-.29-3.96-6.22-3.96-6.22,0,0,.48.39-1.74-1.94-2.22-2.33-5.41-7.68-5.41-7.68,0,0-1.45-3.69-2.13-5.06-.68-1.36-1.84-2.92-2.13-3.79-.29-.88-2.03-5.25-2.03-5.25,0,0-1.45-1.94-1.93-3.01-.48-1.07-2.41-6.03-2.7-6.81-.29-.78-2.03-4.57-2.22-5.54s-2.03-5.35-2.13-6.13c-.1-.78-.77-3.79-.77-3.79l1.64-2.14Z"/>
    <path id="path176288" class="cls-5" d="m113.89,154.69l-3.48,4.38,1.74,5.44s3.57,4.47,4.35,5.06c.77.58,8.5,7.58,9.18,7.88s11.88,7.58,11.88,7.58c0,0,7.44,3.01,8.02,3.01s6.67,1.07,8.4,1.07,6.18.39,8.21.1c2.03-.29,5.99.1,7.63-1.26,1.64-1.36,3.67-3.11,5.22-4.57,1.55-1.46,3.86-5.35,4.64-6.71.77-1.36,1.74-3.89,2.13-5.64.39-1.75.97-3.5,1.16-5.06s-3.96-18.96-3.96-18.96l-14.97-23.82-12.94-17.6-10.14-9.63-10.92,11.38-1.35,8.94,19.32,19.83,11.69,28.88,1.45,8.36s-.97,2.53-1.16,2.92c-.19.39-1.26,1.46-2.51,1.75-1.26.29-4.44,1.17-5.7,1.07-1.26-.1-8.31-2.72-9.95-3.4-1.64-.68-9.37-5.35-10.92-6.42-1.55-1.07-10.05-8.56-11.01-9.33-.97-.78-5.99-5.25-5.99-5.25h0Z"/>
    <path id="path176290" class="cls-5" d="m97.2,33.81c.2-.69,7.04-9.49,7.04-9.49,0,0,8.33-5.84,8.88-5.98.55-.14,5.4-1.72,5.81-1.79.41-.07,6.63-1.58,7.17-1.58s7.45-.34,8.67-.14,7.17,1.51,7.72,1.79c.55.27,6.9,4.12,6.9,4.12l9.49,7.42,9.29,10.45,7.31,15.54,3.07,10.86-.2,19.25-5.05,20.01-7.79,19.32-2.87-4.19,4.37-6.12s1.98-5.84,2.25-6.12c.27-.28,2.66-11.41,3.07-11.62.41-.21,2.66-14.85,2.66-14.85,0,0,.41-9.62.2-9.97-.2-.34-2.8-11.34-2.8-11.34,0,0-3.01-7.77-3.07-8.18s-3.76-7.15-3.76-7.15l-4.85-6.12-7.45-7.15-6.28-4.95-3.89-1.79-6.15-1.44-5.46.82-4.3,1.92-8.67,5.57s-3.35,5.16-3.42,5.5c-.07.34-2.32,6.26-2.32,6.26l-15.57-8.87Z"/>
    <path id="path176292" class="cls-5" d="m149.92,142.24l-23.09,23.72s2.7,3.31,3.57,2.82c.87-.49,21.44-21.78,21.44-21.78l-1.93-4.76Z"/>
    <path id="path176294" class="cls-5" d="m104.81,186.97l-14.78,5.35s-7.34,2.14-8.02,2.24c-.68.1-11.59,1.85-11.59,1.85,0,0-5.41-.29-6.67-.78-1.26-.49-9.85-3.99-9.85-3.99l-11.78-8.94-7.34-12.74,4.44-1.85s5.12,5.35,5.7,6.03c.58.68,5.89,4.86,6.76,5.44.87.58,11.11,5.93,11.98,6.42.87.49,8.21,3.21,9.37,3.4,1.16.19,12.65-1.65,13.72-2.04,1.06-.39,12.94-4.67,12.94-4.67l2.61,1.26,2.51,3.01Z"/>
    <path id="path176296" class="cls-2" d="m51.97,55.81l-4.06,2.82-.29,3.31v8.75l-.1,11.08,3.77,15.36,10.24,28.49,21.83,36.46,16.9,19.45,4.35,5.35,7.34,6.51s15.84,10.21,16.23,10.31c.39.1,12.36,4.47,12.36,4.47,0,0,7.73,1.75,8.5,1.75s4.06.39,5.51.19,6.18-.88,7.15-.88,2.7-.39,4.15-1.46c1.45-1.07,2.03-1.26,2.8-1.94.77-.68,4.15-3.89,4.35-4.28s2.32-3.31,3.19-4.28c.87-.97,3.96-6.03,3.96-6.03l2.9-5.74,1.45-3.5s.39-4.47.39-4.86-.87-7.19-.87-7.19l-1.06-3.31-2.61,8.17-4.06,7-3.96,4.47s-3.09,2.24-3.48,2.24-4.06.29-5.99.39c-1.93.1-10.63-.39-10.63-.39l-9.66-1.75-7.53-3.5-7.24-5.15-9.18-7.39-6.57-7.58-1.35-5.35-4.54.88-7.15-16.04-2.13-3.4-3.77-6.42-1.74-1.85-4.54-7.1-3.38-7.29-3.67-7.49-6.28-15.95-1.93-7.19.39-2.33-.77-1.56-10.14-8.56-6.38-7.1-2.03-8.85-.68-1.75Z"/>
    <path id="path177740" class="cls-2" d="m112.82,43.07c.1-.58,3.09-8.07,3.09-8.07l2.7-4.38s5.02-2.82,5.7-3.31c.68-.49,8.02-4.18,8.02-4.18l4.83-.88,8.79,3.11,5.41,3.4,12.94,13.42,7.05,13.13,4.25,14.78-.77,12.54-5.51,24.6s-.87,5.74-1.45,5.93c-.58.19-5.12,6.51-5.12,6.51l-7.92-9.82,1.74-5.44s2.03-5.64,2.7-7.19c.68-1.56,2.61-6.22,3.09-7.39.48-1.17.97-3.21,1.45-5.35.48-2.14.68-10.21.68-10.69s-.48-7.39-.48-7.97-1.06-7-1.16-7.39c-.1-.39-9.56-14.68-9.56-14.68l-5.89-5.15-5.12-1.75-5.31-1.75-5.41-.1-3.67.39s-5.51,3.99-5.89,4.38-3.48,4.18-3.48,4.18l-1.45,1.56-4.25-2.43Z"/>
    <path id="path177742" class="cls-2" d="m140.64,131.84l-11.98,17.11-8.79,8.65-.48,1.36,7.44,6.42s8.4-8.36,8.69-8.75c.29-.39,13.33-13.9,13.33-13.9,0,0,1.16-1.85,1.06-2.33-.1-.49-3.67-5.93-4.54-6.71-.87-.78-2.9-2.63-2.9-2.63l-1.84.78Z"/>
    <path id="path177744" class="cls-2" d="m94.08,176.08l-10.34,6.22-3.38.29s-8.11,2.72-8.5,2.82c-.39.1-5.8,1.36-5.8,1.36,0,0,5.99,2.72,7.05,2.82,1.06.1,11.88-2.04,12.94-2.24,1.06-.19,10.72-3.11,12.07-4.08,1.35-.97,2.8,0,1.84-1.17-.97-1.17-2.32-3.6-3.28-4.47-.97-.88-2.61-1.56-2.61-1.56h0Z"/>
    <path id="path177746" class="cls-2" d="m33.91,168.78l6.57-2.04s1.74-2.04.97-2.53c-.77-.49-2.03-1.36-2.03-1.36l-5.22.78-1.45.97s-1.16,1.46-.87,2.04c.29.58,2.03,2.14,2.03,2.14Z"/>
    <path id="path177748" class="cls-2" d="m30.72,163.24s4.83-.49,6.28-.88c1.45-.39,2.9-2.33,2.22-3.01-.68-.68-1.84-3.89-2.7-5.15-.87-1.26-1.26-1.36-1.26-3.5s-1.35-5.93-1.45-6.61c-.1-.68-1.16-5.64-1.16-6.13s-.1-2.63-.1-3.89.87-5.64.97-7c.1-1.36-.29-6.32-.29-6.32l-.39-1.65-4.54-.49s-.87.97-.97,2.53c-.1,1.56,0,8.65,0,9.63s-.1,11.18-.19,11.67c-.1.49.97,13.51,1.45,13.71.48.19,2.13,7.1,2.13,7.1h0Z"/>
  </g>
  <g id="layer8">
    <path id="path178384" class="cls-3" d="m87.57,27.97c0,.69-2.87,14.16-2.87,14.16l-1.91-.96-2.46-.14-4.51,1.65s-3.82,3.44-3.96,3.99c-.14.55-.82,3.02-.41,5.5.41,2.47.96,9.21,1.91,10.72.96,1.51,3.42,8.52,4.64,9.9s4.1,6.87,4.78,7.01c.68.14,5.46,5.09,5.46,5.09,0,0,4.23,2.34,4.92,2.34s4.92.82,6.01.27,3.69-2.06,4.37-3.16c.68-1.1,1.5-3.85,1.23-5.64-.27-1.79-.14-7.01-.27-8.39-.14-1.37-2.87-9.21-3.42-10.31-.55-1.1-3.28-4.95-5.19-6.32-1.91-1.37-3.69-4.26-3.69-4.26l-.14-15.95s2.32.41,3.28,1.1c.96.69,5.6,5.09,7.1,7.15,1.5,2.06,5.46,6.32,6.28,7.56.82,1.24,1.5,2.47,1.91,3.57s.55,3.85.96,5.22c.41,1.37,3.82,9.07,3.96,9.62.14.55,5.33,8.94,5.87,9.49.55.55,4.64,4.81,4.92,5.64.27.82,4.51,3.44,5.19,3.44s4.92-.69,5.87-2.61c.96-1.92-.68-10.72-.68-10.72l-2.87-7.7-8.47-11-6.15-4.12s-4.37-.55-4.64-1.1c-.27-.55-7.38-8.94-7.38-8.94l-18.99-12.92-.68.82Z"/>
    <path id="path178386" class="cls-3" d="m96.18,119.68s9.56,35.06,10.38,35.2c.82.14,5.19.82,5.19.82l8.88-25.85s-3.28.96-4.64.96-3.82.69-5.33-.41c-1.5-1.1-3.01-3.16-4.23-4.4-1.23-1.24-7.24-6.05-7.24-6.05l-3.69-2.61.68,2.34Z"/>
    <path id="path178388" class="cls-3" d="m96.59,101.4l9.43,10.04,1.78,1.65-2.19.69-8.2-6.05-.82-6.32Z"/>
    <path id="path178390" class="cls-3" d="m125.41,104.83l-6.83,7.7,2.46,2.75,2.73-3.16,2.19-6.46-.55-.82Z"/>
    <path id="path178392" class="cls-3" d="m107.11,99.33l3.42,4.4-.41,2.75-3.69-5.5.68-1.65Z"/>
    <path id="path178394" class="cls-3" d="m121.73,99.75l-4.37,5.22-.68,3.85s.55-1.65,1.09-1.79c.55-.14,1.64-1.51,2.46-2.89s1.78-2.75,1.78-2.75l-.27-1.65Z"/>
    <path id="path178396" class="cls-3" d="m58.89,38.56s.27-1.65.55-.96,1.37,7.15,1.37,7.15c0,0,3.69-3.02,4.78-4.4,1.09-1.37,3.82-4.26,4.64-4.4.82-.14,3.28.82,3.28.82,0,0-3.82,1.79-4.37,2.2-.55.41-6.01,6.74-6.42,7.42s-1.91,2.89-2.73,3.71c-.82.82-6.01,7.84-6.28,9.07-.27,1.24-3.69,2.2-2.87-.14s.68-3.3,2.32-4.95,4.23-3.44,4.51-3.99c.27-.55.68-.82.68-2.2s-.27-3.16-.41-4.54-.27-3.57-.14-4.12c.14-.55,1.09-.69,1.09-.69Z"/>
    <path id="path178398" class="cls-3" d="m169.26,165.47s-3.82,4.12-3.96,4.81c-.14.69-2.19,3.71-2.73,4.26-.55.55-2.05,2.2-1.78,1.51.27-.69,8.2-8.25,8.2-8.25l.27-2.34Z"/>
  </g>
  <g id="layer9">
    <path id="path178400" class="cls-6" d="m86.07,50.25c-.82-.14-3.14-.82-3.14-.82,0,0-3.42-.82-3.96.14-.55.96-1.78,2.61-1.5,4.12s1.09,7.42,1.5,8.66c.41,1.24,3.55,7.42,4.1,8.11s2.05,3.3,2.87,3.99c.82.69,3.96,3.02,3.96,3.02l3.01.14s1.5.41,2.6-.82c1.09-1.24.96-.55,1.64-2.2.68-1.65.14-3.99.55-5.09.41-1.1-.41-4.26-1.09-5.5-.68-1.24-2.19-4.95-2.6-5.64-.41-.69-2.87-3.71-3.42-4.4-.55-.69-4.51-3.71-4.51-3.71Z"/>
    <path id="path178456" class="cls-6" d="m119.95,54.92l-1.78.55s-1.09,3.3-.27,4.81c.82,1.51,4.23,8.8,4.64,9.35.41.55,3.28,5.77,3.82,6.32.55.55,3.28,4.4,3.96,4.4s1.37.14,1.91-.14c.55-.28,1.64-4.4,1.64-4.4l-1.64-6.32-2.73-4.4-3.55-5.5-2.87-3.16-3.14-1.51Z"/>
    <path id="path178458" class="cls-6" d="m106.77,128.28s-.61,5.77-.27,5.77,1.5,4.88,1.5,4.88c0,0,1.02-10.17.34-10.24-.68-.07-1.57-.41-1.57-.41Z"/>
    <path id="path178460" class="cls-6" d="m115.24,131.37l-1.23,6.6-.41,1.65s-.07-.14.27-.55c.34-.41,1.84-1.65,2.12-2.61.27-.96.48-2.34.61-2.82.14-.48.41-1.44.07-1.51-.34-.07-1.43-.76-1.43-.76Z"/>
    <path id="path178462" class="cls-6" d="m106.22,154.33c-.07-.27.89-2.41.89-2.41l.14,2.61-1.02-.21Z"/>
    <path id="path178464" class="cls-6" d="m110.8,154.26s.82-1.03,1.02-1.86c.2-.82-.27-1.44.2-1.44s.34,2.96.34,2.96c0,0-.07.89-.34.89s-1.09-.62-1.23-.55Z"/>
    <path id="path178466" class="cls-1" d="m99.11,121.14s.48,8.51.19,8.51-3.24-10.21-3.24-10.21l3.04,1.7Z"/>
    <path id="path182800" class="cls-1" d="m104.9,126.59l.63,2.97.68-.68-.05-1.26-1.26-1.02Z"/>
    <path id="path182802" class="cls-6" d="m100.17,106.27l3.57,3.31s.19,1.17-.68.88c-.87-.29-1.93-1.46-1.93-1.46l-.68-2.04"/>
    <path id="path184322" class="cls-6" d="m122.68,109.09l-.97,1.07-.68,1.94,1.74-.58-.1-2.43Z"/>
  </g>
  <g id="layer10">
    <path id="path184324" class="cls-3" d="m84.81,55.52c-.39,0-2.22,2.43-2.22,2.43l.97,6.51,4.44,5.44s3.77,1.56,4.35.88c.58-.68,1.74-1.65,1.26-3.31-.48-1.65-.39-3.89-1.26-5.06-.87-1.17-2.61-4.86-2.61-4.86,0,0-1.06-1.07-1.64-1.26-.58-.19-3.28-.78-3.28-.78Z"/>
    <path id="path184326" class="cls-3" d="m121.61,59.02l1.84.19,5.12,8.46.58,4.76s.77,1.26-.1,1.26-1.45-.1-1.93-.58c-.48-.49-2.9-4.38-3.19-4.86-.29-.49-2.22-3.79-2.22-3.79l-.48-2.92-.58-1.65.97-.88Z"/>
  </g>
</svg>