<?xml version="1.0" encoding="UTF-8"?>
<svg id="svg4444" xmlns="http://www.w3.org/2000/svg" width="218.26" height="226.31" viewBox="0 0 218.26 226.31">
  <defs>
    <style>
      .cls-1 {
        fill: #bacfa0;
      }

      .cls-1, .cls-2, .cls-3, .cls-4, .cls-5, .cls-6 {
        stroke-width: 0px;
      }

      .cls-2 {
        fill: #132d22;
      }

      .cls-3 {
        fill: #246313;
      }

      .cls-5 {
        fill: #e9890a;
      }

      .cls-6 {
        fill: #4e6120;
      }
    </style>
  </defs>
  <g id="layer11">
    <ellipse id="path52162" class="cls-5" cx="106.91" cy="153.64" rx="81.44" ry="48.77"/>
    <path id="path53047" class="cls-5" d="m20.26,152.29l-20.26,6.05s21.61,1.18,20.84.84c-.77-.34-.58-6.9-.58-6.9Z"/>
    <path id="path53049" class="cls-5" d="m22.39,143.04c-1.35,0-19.49-2.86-19.49-2.86l21.61-1.51-2.12,4.37Z"/>
    <path id="path53051" class="cls-5" d="m32.81,129.59c-1.54-1.01-15.25-6.56-15.25-6.56l19.3,2.69-4.05,3.87Z"/>
    <path id="path53053" class="cls-5" d="m47.09,118.49l-9.26-6.56,14.47,4.04-5.21,2.52Z"/>
    <path id="path53055" class="cls-5" d="m145.89,109.74l11-5.89-3.67,7.23-7.33-1.35Z"/>
    <path id="path53057" class="cls-5" d="m164.22,116.97l15.05-4.54-8.88,6.9-6.18-2.35Z"/>
    <path id="path53059" class="cls-5" d="m179.66,127.06l18.53-2.02-12.35,5.55-6.18-3.53Z"/>
    <path id="path53061" class="cls-5" d="m190.66,139.51l2.89,4.54,16.4-1.85-17.95-2.19-1.35-.5Z"/>
    <path id="path53063" class="cls-5" d="m195.29,154.48v5.38l22.96,1.68-23.16-7.9.19.84Z"/>
    <path id="path53065" class="cls-5" d="m191.24,170.96l-2.89,4.2,23.74,6.22-20.07-11.6-.77,1.18Z"/>
    <path id="path53067" class="cls-5" d="m116.17,206.62l11.77-.17v19.51l-11.77-19.34Z"/>
    <path id="path53069" class="cls-5" d="m159.4,210.65l7.33,5.55-3.28-6.56-4.05,1.01Z"/>
    <path id="path53071" class="cls-5" d="m183.33,194.67l13.12,6.22-11.19-8.91-1.93,2.69Z"/>
    <path id="path53073" class="cls-5" d="m85.87,205.94s-1.54,21.02-1.35,20.35c.19-.67,12.35-19,12.35-19l-11-1.35Z"/>
    <path id="path53075" class="cls-5" d="m57.7,207.62l-11.77,9.75,5.98-11.27,5.79,1.51Z"/>
    <path id="path53077" class="cls-5" d="m35.89,192.32l-13.7,6.05,10.03-11.1,3.67,5.05Z"/>
    <path id="path53079" class="cls-5" d="m24.32,169.45l2.89,5.55-25.47,5.05,22.58-10.6Z"/>
  </g>
  <g id="layer8">
    <path id="path53081" class="cls-2" d="m110.58,191.9c1.45.08,7.72,1.68,9.65,2.1,1.93.42,18.24,2.61,18.91,2.61s9.84-1.51,10.61-1.6c.77-.08,5.4-3.95,6.37-4.88.96-.93,2.03-3.78,2.8-4.71.77-.93,2.99-2.35,2.99-2.35,0,0-2.8-1.26-3.38-1.43-.58-.17-3.47-.84-5.02-.59s-10.61,0-10.61,0c0,0-5.69.84-7.04,1.6s-5.69,1.85-5.69,1.85c0,0,.96-3.45,1.45-4.04.48-.59,8.49-7.48,8.49-7.48,0,0,3.86-2.69,4.92-3.03,1.06-.34,9.07-1.85,9.55-1.85s5.5.5,5.5.5l1.93-.42s-3.18-4.54-3.96-5.89-6.37-8.41-6.37-8.41l-2.99-.76,2.32-6.98,2.8-3.53s5.89,2.27,6.66,2.44c.77.17,4.63,1.35,5.02,2.27.39.93.29,2.44.48,3.11.19.67,2.03,2.44,4.05,3.62,2.03,1.18,5.4,4.96,5.89,5.38.48.42,1.16,1.35,1.16,1.35,0,0-4.53,1.01-5.21,1.35-.68.34-2.51,1.01-3.18,1.6-.68.59-1.06,2.61-1.06,2.61,0,0,2.12,1.01,3.47.84,1.35-.17,1.54-.67,2.89-1.01,1.35-.34,2.51-.42,3.96-.59,1.45-.17,2.51.25,3.18.34.68.08,2.41,2.19,2.89,3.03s1.54,2.86,1.74,3.53c.19.67.58,5.97.68,6.48.1.5-1.64,11.6-1.64,11.6l-5.89,9.75-7.53,5.38s-5.79,2.94-8.3,3.28c-2.51.34-8.78.5-10.23.42-1.45-.08-11.39-1.43-12.35-1.51s-7.04-.93-8.3-1.6c-1.25-.67-10.03-3.62-10.03-3.62l-11.58-10.76Z"/>
    <path id="path57415" class="cls-2" d="m100.25,189.12s-10.32,4.54-12.54,4.63c-2.22.08-10.42,0-12.35-.76-1.93-.76-10.61-3.95-11.48-4.71s-6.37-6.31-6.46-6.73c-.1-.42-.68-3.95-.68-3.95l2.51-1.93,10.23,3.45h4.44c1.25,0,6.66,6.14,6.66,6.14,0,0,.77.08.77-.67s-1.64-5.63-2.22-6.73c-.58-1.09-3.76-5.63-4.25-6.14-.48-.5-1.83-2.19-2.61-2.61-.77-.42-2.89-2.19-5.5-2.86-2.61-.67-6.75-1.43-7.43-1.35-.68.08-4.15,1.18-4.15,1.18l-1.74,1.18,4.63,6.14s.39.84.19,1.18c-.19.34-1.54,1.43-1.54,1.43,0,0-.96-.67-1.74-1.18-.77-.5-2.89-2.02-3.09-2.86s-.87-2.86-1.06-3.7c-.19-.84.29-3.78.29-3.78l-2.22-.93-2.22-.67-1.35-.25-6.37,2.19s-2.41,1.26-2.51,1.68c-.1.42-3.28,5.38-3.28,5.38,0,0-1.64,2.44-1.64,3.7s.19,5.38.87,6.98,3.09,7.23,3.47,7.99c.39.76,3.28,4.54,4.15,5.55s2.99,3.2,3.96,4.29c.96,1.09,10.13,4.79,10.13,4.79,0,0,7.33,1.68,8.59,1.93,1.25.25,7.24.5,8.2.42.96-.08,5.02-1.26,6.46-1.6,1.45-.34,8.39-2.35,9.84-2.94,1.45-.59,3.86-1.85,5.11-2.61,1.25-.76,5.4-4.12,6.18-5.38.77-1.26,2.89-4.88,3.09-5.3.19-.42.87-1.26,0-1.18-.87.08-1.35.59-1.35.59h0Z"/>
    <path id="path57417" class="cls-2" d="m32.13,167.85s.29-3.7.29-4.04,3.47-7.4,3.57-7.82c.1-.42,2.7-3.87,3.47-4.71.77-.84,6.75-6.31,7.14-6.48.39-.17,2.8-1.68,2.8-1.68,0,0-.77-.5,1.16-.67,1.93-.17,3.57-1.77,3.57-1.77v-1.18s4.53.76,5.89,1.35c1.35.59,4.25,2.1,4.25,2.1,0,0,.77.76.87,2.1.1,1.35.39,3.95-.19,4.71-.58.76-1.45,1.51-3.28,2.86-1.83,1.35-3.38,2.19-3.38,2.19,0,0-1.93.59-1.93.08s.58-2.94.58-2.94c0,0-1.25-.76-2.12.59-.87,1.35-2.03,3.11-2.03,4.46s-.19,3.36-.29,3.95c-.1.59,0,1.6-1.35,1.26-1.35-.34-8.2-.93-8.2-.93,0,0-3.28-.25-4.25.17-.96.42-2.51,1.26-3.09,1.85-.58.59-1.45,1.51-1.74,3.03-.29,1.51-1.25,1.93-1.25,1.93l-.48-.42Z"/>
    <path id="path57419" class="cls-2" d="m119.65,149.01c-.96-.34-2.32-2.1-2.51-2.69-.19-.59-.68-2.78.58-3.2,1.25-.42,8.3-2.19,9.17-2.19s2.89.34,4.92.67c2.03.34,3.67.34,3.57-.25l-.1-.59,5.79,1.51.58-2.19s1.64-.84,2.99.08c1.35.93,4.25,0,2.12,2.35-2.12,2.35-3.86,3.7-3.86,3.7,0,0,1.45,2.02,1.93,2.44.48.42,1.35.5.68,1.43-.68.93-.68,2.94-4.63,1.43-3.96-1.51-5.31-2.61-8.11-3.11-2.8-.5-6.56-.93-8.68-.08-2.12.84-4.44.67-4.44.67h0Z"/>
    <path id="path57421" class="cls-2" d="m89.16,149.43l3.86-1.85,1.06-2.86s-1.35-2.44-4.15-3.11c-2.8-.67-4.05-1.09-5.89-1.09s-3.18-.08-4.63.08c-1.45.17-3.09.25-3.09.25l-.68-2.35s-1.93-.84-2.51-.67-1.93-.59-3.18-.42c-1.25.17-2.61.67-3.09,1.18s-1.25,2.44-.39,3.2c.87.76,2.99-.17,2.7,2.52-.29,2.69-1.35,4.37.29,4.37s4.34-.76,5.6-1.35c1.25-.59,3.57-1.43,4.63-1.43s1.74-.42,3.76.5,5.21,2.44,5.21,2.44l.48.59Z"/>
    <path id="path57423" class="cls-2" d="m89.44,151.2s3.67,3.28,5.5,3.78c1.83.5,5.4,2.69,5.4,2.69l.96-1.18h1.35l.87-1.26.68,1.09,1.74-.59.48-.67s.39,2.52,1.06,1.77c.68-.76.96-1.51,1.35-1.35.39.17.48,1.26.96,1.26s2.22-.5,2.51-.93c.29-.42.96-.42.96-.42,0,0,1.25-1.35,1.64-2.19.39-.84,3.38-2.1,2.7-3.28-.68-1.18,3.47-8.58,3.47-8.58l-.39-14.72.48-17.32,3.09-8.58.19-7.65,4.34-1.68s1.64-2.1,1.54-3.03-.39-2.27.48-2.86c.87-.59,2.89-1.35,3.96-2.52,1.06-1.18,2.41-3.45,2.7-4.37.29-.93.1-5.21.48-5.63.39-.42,3.38-2.78,4.25-4.37.87-1.6,6.27-10.76,6.27-10.76,0,0,.19-3.28.1-3.87-.1-.59.1-2.52.1-2.52l2.89-5.3s1.45-4.96,1.16-5.97c-.29-1.01-1.64-2.52-1.64-4.71s.19-2.69,0-3.53c-.19-.84-2.89-3.28-2.89-3.28,0,0-4.63-3.78-4.63-4.12s.87-2.61.29-4.46c-.58-1.85-5.02-6.98-5.02-6.98l-.68.67s-1.16.93-1.54.76c-.39-.17-2.7-2.27-2.7-2.27l-9.26-5.8s-4.82,1.85-5.89,1.43c-1.06-.42-1.64-.42-2.12-1.26-.48-.84-.29-1.77-1.64-2.78-1.35-1.01-1.83-1.35-3.96-2.02-2.12-.67-5.02-1.85-5.02-1.85,0,0-2.61.67-4.53.93-1.93.25-11.39.93-11.39.93h-3.09s-2.61.67-3.28,1.18c-.68.5-1.25,1.01-2.41,2.35-1.16,1.35-1.25,2.19-2.03,1.93-.77-.25-5.69-2.19-5.69-2.19,0,0-.96-.08-2.61.76-1.64.84-8.78,3.95-9.17,4.63-.39.67-1.93,4.88-2.22,5.38-.29.5-1.45,2.52-2.03,2.86-.58.34-1.83,1.6-2.8,3.11s-1.16,3.62-2.03,4.71c-.87,1.09-3.76,5.55-4.63,6.81-.87,1.26-1.35,1.93-2.7,5.55-1.35,3.62-.29,11.35-.19,12.03.1.67.87,2.86.48,3.11-.39.25-2.61,2.86-2.12,3.78.48.93,1.74,2.52,2.7,3.2s4.05,2.35,4.63,2.44c.58.08,1.83-.34,2.51.5s.48,3.36.48,4.63-.29,2.44.87,3.45c1.16,1.01,2.32,2.78,3.47,3.7s3.28,2.52,5.31,3.36c2.03.84,4.05,1.43,6.66,1.85,2.61.42,6.95,0,8.97-.25,2.03-.25,7.14-2.19,8.01-2.61s1.35-2.52.87-2.78c-.48-.25,3.09-6.56,3.09-6.56,0,0,.39.08.1-3.7-.29-3.78-.48-4.79-1.16-6.31-.68-1.51,1.45-1.43-2.12-3.95-3.57-2.52-3.67-2.52-4.82-2.86-1.16-.34-3.76-.17-4.63-1.09-.87-.93-2.32-2.52-2.32-2.52,0,0-.39-1.43-1.74-2.1-1.35-.67-3.09-.84-3.47-2.19-.39-1.35-1.45-3.36-1.45-4.79s-.48-3.95-.29-4.46c.19-.5.96-1.35,2.22-2.27,1.25-.93,4.63-2.52,5.4-3.53.77-1.01,1.35-1.85,2.22-2.69.87-.84,2.12-1.85,2.7-2.61.58-.76,1.35-1.93,2.12-2.69.77-.76.58-2.02,2.22-1.51s3.76,2.02,5.21,1.85c1.45-.17,3.09-1.68,4.92-1.68s4.05-.08,4.92-.17c.87-.08,10.81.17,10.81.17,0,0,.87,3.53,1.54,3.95.68.42,1.16.93,2.99,1.6s2.03.25,3.28.76c1.25.5,6.46,2.69,6.56,3.03.1.34.19.84.39,1.18.19.34-.39,1.6,1.35,1.77,1.74.17.87.59,2.7.17s2.32-1.77,2.32-.42.1,2.61-.58,4.37c-.68,1.77-1.35,1.93-1.25,3.7s.39,3.2,1.16,4.63c.77,1.43,1.16,2.78,2.03,3.53.87.76,2.41.84.29,1.77-2.12.93-2.51.59-3.47,1.93-.96,1.35-1.64,1.09-2.32,2.61s-2.8,8.24-2.8,8.24c0,0-1.54,1.93-1.74,2.27-.19.34-1.06,2.19-.39,2.44.68.25-1.35,2.1-1.35,2.1l-14.09,12.45s-.48.76.29,1.18c.77.42.77.93.29,1.85-.48.93-4.44.5-4.44.5,0,0-2.03,1.6-2.22,2.27-.19.67-1.35,3.36-1.45,4.2-.1.84-.58,1.68-1.35,2.61-.77.93-1.35.84-2.22,2.52-.87,1.68-1.06,1.68-1.06,2.86v2.1c0,.59-4.73,7.74-4.73,7.74,0,0-2.61,6.9-2.61,8.16s.48,6.05.48,6.64-.19,9.84-.48,11.18c-.29,1.35,0,4.71,0,4.71l.29,10.93Z"/>
    <path id="path57425" class="cls-2" d="m90.12,112.77c-.87-.59-.96-3.36-.87-4.12.1-.76-.48-6.31-.87-7.23-.39-.93-.96-2.44-.96-2.44l-2.41-.67s-6.37-.5-7.82-.08c-1.45.42-3.18.5-4.05,1.01s-1.83.76-2.32,1.26c-.48.5-1.06,1.68-1.16,2.35s1.74,2.69,1.74,2.69c0,0-2.32,1.68-2.89,2.02s-7.53,3.78-8.49,4.37c-.96.59-3.28,2.02-3.76,2.69-.48.67-1.06,2.94-.77,3.87.29.93,3.28,4.2,3.76,4.46.48.25.1,1.6.1,1.6l-5.89,4.79,9.75,12.19s1.83-.93.96-1.77c-.87-.84-3.28-4.2-4.63-6.98-1.35-2.78-1.93-2.86-1.54-3.78.39-.93,1.83-2.94,3.18-4.2,1.35-1.26,1.35-3.36.58-4.54-.77-1.18-2.32-3.78-1.54-5.05.77-1.26,2.99-3.87,5.6-5.3,2.61-1.43,7.04-2.86,7.82-2.94.77-.08,1.35-4.54,1.35-4.54,0,0,7.04-1.51,7.53-1.18.48.34,3.96.5,3.86,1.77-.1,1.26.19,8.33.48,9.67.29,1.35.77,3.95,1.16,3.87.39-.08-.19-.17.87-1.6,1.06-1.43,1.16-1.77,1.16-1.77l.1-.42Z"/>
    <path id="path57427" class="cls-2" d="m72.46,107.64c.39,0,4.44-.84,4.73,0s4.63,9.08,5.02,9.42c.39.34,2.22,4.29,2.8,5.05.58.76,1.83,1.93,2.61,1.68.77-.25,1.93-3.36.96-4.04-.96-.67-1.83-1.18-2.7-2.1-.87-.93-.77-1.51-1.45-3.2-.68-1.68-3.67-6.73-4.15-8.24s-2.99-1.26-3.47-1.18c-.48.08-4.15,2.27-4.15,2.27l-.19.34Z"/>
    <path id="path57429" class="cls-2" d="m62.33,122.27c.77-1.01,5.79-6.05,6.66-6.56.87-.5,5.4-2.69,6.18-1.18.77,1.51.19,1.77,1.35,3.03,1.16,1.26,4.44,5.13,6.27,6.56,1.83,1.43,4.05,4.79,4.63,4.79s1.16.17,1.35.76c.19.59.19,1.68-.87,2.61-1.06.93-.68,3.03-2.12,1.09s-3.18-3.53-4.53-6.31c-1.35-2.78-6.85-7.82-6.85-7.82,0,0-1.35-1.68-3.47-.42-2.12,1.26-5.02,2.78-5.79,3.7-.77.93-1.64,2.35-.58,3.87,1.06,1.51,3.09,4.37,3.96,5.05.87.67,1.25,1.85,1.25,1.85,0,0-1.64,1.35-2.61.17-.96-1.18-2.7-2.19-3.76-3.95-1.06-1.77-1.64-2.44-1.45-3.95.19-1.51.29-3.11.39-3.28Z"/>
    <path id="path57431" class="cls-2" d="m86.07,139.43c-.39-.08-2.99-2.52-6.18-3.95s-5.69-2.35-5.69-2.35c0,0-2.7-.5-2.8.08-.1.59-1.45.59-2.03.67s-2.03.34-.39,1.26c1.64.93,2.8,1.6,3.47,1.6s1.64-1.35,2.89-1.18.87-.17,2.51,1.18c1.64,1.35,2.89,1.93,4.53,2.19,1.64.25,3.67.5,3.67.5h0Z"/>
    <path id="path57433" class="cls-2" d="m65.42,140.69c-.68,0-1.06-.5-1.54.08-.48.59-2.41.42-.48,1.85s3.86,1.09,3.86,2.86-2.51,5.47-3.28,6.22c-.77.76-4.05,4.88-3.86,5.38.19.5.29.5,2.22,2.27,1.93,1.77,6.56,5.55,7.62,7.06,1.06,1.51,5.02,4.96,5.89,5.21.87.25,4.15-.5,4.34-1.09s-4.63-2.69-5.89-3.95-4.92-5.47-5.89-6.98c-.96-1.51-3.67-3.2-2.99-5.3.68-2.1,2.7-4.46,3.28-5.8.58-1.35.19-4.46.1-4.96-.1-.5-.87-1.51-1.93-2.1-1.06-.59-1.74-1.26-1.74-1.26l.29,1.18v-.67Z"/>
    <path id="path57435" class="cls-2" d="m121.38,109.91c.77-.76,3.18-3.2,3.28-4.88.1-1.68-.48-6.22-.19-6.56.29-.34,2.7-2.27,3.57-2.19.87.08,7.33,3.36,8.88,3.7,1.54.34,4.44.84,4.82,1.6.39.76.58,4.29.58,5.05s-.19,2.19-.19,2.52,3.86,4.29,4.63,4.79,3.96,3.2,5.21,4.29c1.25,1.09,2.61,3.2,2.8,3.53s-1.25,2.27-2.89,3.87c-1.64,1.6.39,1.77,1.06,2.1.68.34,2.41,1.35,2.8,2.44.39,1.09,1.93,1.85.68,4.29-1.25,2.44-2.61,5.63-3.28,6.56-.68.93-1.74,3.11-2.41,1.93-.68-1.18-1.54-3.36-.39-4.46s3.96-2.52,2.99-4.37c-.96-1.85-2.03-2.61-3.09-3.87-1.06-1.26-2.22-1.93-2.22-3.03s-1.93-1.09-1.06-2.19c.87-1.09,2.7-2.61,2.8-3.45.1-.84,2.89-1.68-.48-2.69-3.38-1.01-8.78-6.9-8.78-6.9l-1.45-3.45s.1-2.35,0-3.53c-.1-1.18-.58-2.19-.58-2.19,0,0-2.8-1.6-4.63-1.68s-3.96-.67-4.34-.17c-.39.5-.29,2.27-1.54,4.79-1.25,2.52-3.09,6.05-3.47,6.56-.39.5-2.12,2.35-2.12,2.35,0,0-1.16-.67-1.16-2.02s.19-2.78.19-2.78h0Z"/>
    <path id="path57437" class="cls-2" d="m121.58,120.17c.96-1.68,4.82-7.32,5.6-8.41.77-1.09,3.38-5.21,3.38-5.21l2.22-.5s4.15,1.01,5.6,2.02c1.45,1.01,1.35,1.01,1.93,2.19.58,1.18,0,1.09.87,2.19.87,1.09,1.64-.17.96,1.68-.68,1.85-.48,2.1-.68,2.94-.19.84-1.16,1.51-1.16,1.51,0,0-1.54-.59-1.64-1.35-.1-.76-.19-3.62-.19-4.04s.1-2.1-.58-2.19c-.68-.08-4.82-.42-4.82-.42,0,0-3.09.76-4.05,2.78-.96,2.02-1.35,3.7-2.22,5.47-.87,1.77-1.45,2.94-1.93,3.53-.48.59-1.45,1.68-1.45,1.68,0,0-1.64,1.26-1.83-.17-.19-1.43,0-3.7,0-3.7h0Z"/>
    <path id="path57439" class="cls-2" d="m121.09,132.36s2.89-1.77,5.69-4.29,6.27-5.63,7.72-6.81c1.45-1.18,2.89-2.35,5.02-1.93,2.12.42,3.09,1.09,4.44,2.1,1.35,1.01,3.47,2.35,3.96,2.94.48.59,1.93,1.43,1.93,2.44s-1.45,2.52-2.61,3.45c-1.16.93-.77.67-1.64,1.43s-.96,1.01-1.83,1.68-3.57.17-3.57-.34-1.64.76,1.16-1.93,4.82-3.62,4.53-4.37c-.29-.76.77-1.26-1.74-2.1-2.51-.84-5.4-.93-5.4-.93,0,0,3.09-1.85-3.09,2.02-6.18,3.87-6.18,3.28-6.95,4.29-.77,1.01-3.09,4.2-3.96,5.47-.87,1.26-1.16,2.02-1.93,2.44-.77.42-1.74-.76-1.83-1.09-.1-.34-.87-2.27-.77-2.86.1-.59.87-1.6.87-1.6h0Z"/>
    <path id="path57441" class="cls-2" d="m119.84,141.7s4.92-2.35,5.98-3.2c1.06-.84,3.76-3.62,4.63-4.04.87-.42,9.26-2.86,9.26-2.86,0,0,2.51,1.77,3.28,2.69.77.93,1.06,2.27,2.89,3.62,1.83,1.35,2.12,1.35,3.28,2.78,1.16,1.43,1.54,1.6,1.54,2.1s-.96,3.53-1.35,4.37c-.39.84-.48.84-.68,1.51-.19.67-1.54,2.69-1.54,4.12v2.27c0,.42-6.66,6.73-6.66,6.73,0,0-2.32,3.87-2.8,4.63-.48.76-.96,2.02-.96,2.52s1.83.59,2.41.84-2.51,1.93-4.15,1.43c-1.64-.5-3.38,1.09-2.8-1.26.58-2.35-.77-.84,1.64-4.54,2.41-3.7,4.53-5.63,5.11-6.31.58-.67.39-.67.48-2.69.1-2.02-2.03-1.09,1.06-2.86,3.09-1.77,4.34-2.35,4.82-2.78.48-.42.1-1.85,0-3.03-.1-1.18-.96-1.51.19-2.78,1.16-1.26,2.61-3.87,2.22-3.95-.39-.08-3.76-1.68-3.76-1.68,0,0-3.47-2.61-3.86-2.78-.39-.17-3.09-1.51-3.96-1.18-.87.34-2.32.84-4.34,2.35-2.03,1.51-2.7,1.26-2.51,1.93.19.67-.96,1.77-.96,1.77l-5.6.84-2.89-.59Z"/>
  </g>
  <g id="layer10">
    <path id="path57446" class="cls-3" d="m96.59,146.77c0-1.66,1.91-3.21-.55-4.04-2.46-.83-5.59-3.45-5.59-3.45,0,0,.82-2.5,2.05-2.5s-1.64-2.74-1.64-2.74c0,0,1.23-2.14,2.18-3.45.96-1.31.68-3.09,4.23-5.23,3.55-2.14,2.18-2.26,4.78-2.62,2.59-.36,6.28-.24,8.32,1.43,2.05,1.66,6.28,8.09,7.1,10.11.82,2.02.96,2.85.96,2.85,0,0,2.46,1.9.27,2.38-2.18.48-2.73-.36-3.96.83-1.23,1.19-4.23,3.45-4.91,4.16-.68.71-2.59,2.62-2.59,2.62,0,0-.14,1.55-.82,2.02-.68.48-.96,2.5-3.55,1.19-2.59-1.31-4.64-2.14-5.19-2.5-.55-.36-1.09-1.07-1.09-1.07h0Z"/>
    <path id="path64195" class="cls-3" d="m90.04,129.76c0-.48-.55-4.04-.55-4.04,0,0,9.28-8.8,11.33-9.63,2.05-.83,2.87-1.43,4.37-1.31s3.55.24,5.46,1.31c1.91,1.07,6.41,6.54,7.1,7.14.68.59,2.59,4.52,2.73,4.99.14.48.41,2.97-.41,3.09-.82.12-3.55-.12-5.19-2.74-1.64-2.62-4.09-4.4-5.73-5.59-1.64-1.19-2.73-2.02-4.09-1.78-1.36.24-6.14,1.66-7.51,2.74-1.36,1.07-7.51,5.83-7.51,5.83Z"/>
    <path id="path64197" class="cls-3" d="m89.63,121.32s-1.36-.95-.41-2.14c.96-1.19,9.42-6.78,9.42-6.78,0,0,6.69-4.99,7.37-5.11.68-.12,3.55,1.07,4.64,2.02,1.09.95,5.73,4.99,7.1,6.54,1.36,1.55,2.73,4.52,3,5.23.27.71,3,1.31.41,1.07-2.59-.24-12.55-8.44-12.55-8.44,0,0-6.96-1.19-7.64,0-.68,1.19-3.14,3.69-3.14,3.69l-6.55,2.85-1.64,1.07Z"/>
    <path id="path64199" class="cls-3" d="m91.4,113.71s-.14-4.64.14-5.23c.27-.59,6.28-6.3,7.23-6.78.96-.48,6.96-2.62,6.96-2.62,0,0,7.64,3.33,9.28,4.64,1.64,1.31,5.32,4.04,5.73,4.76.41.71.82,6.42.82,6.42,0,0-2.46-.24-4.5-1.07-2.05-.83-9.55-7.49-9.55-7.49,0,0-5.73-.36-6.41.36-.68.71-4.5,2.5-5.87,3.69-1.36,1.19-3.82,3.33-3.82,3.33Z"/>
    <path id="path64201" class="cls-4" d="m147.21,142.49s-.68,2.02-1.23,2.14c-.55.12-.14,2.38-.14,2.85s-.14.59-.14,2.02-2.05,4.28.96,2.26c3-2.02-.41-4.28,1.5-4.88,1.91-.59,3-1.9,3-1.9,0,0-2.18-1.66-2.73-1.78-.55-.12-1.23-.71-1.23-.71h0Z"/>
    <path id="path64203" class="cls-4" d="m165.22,167.94l1.77-2.26s1.23-4.52,3-4.76c1.77-.24,6.55,1.43,7.64.95s.41-1.78,1.36-.48c.96,1.31,2.05,3.09-.41,3.21-2.46.12-5.46.36-6.55.95-1.09.59-6,2.02-6,2.02l-.82.36Z"/>
    <path id="path64205" class="cls-4" d="m161.27,169.96l3.55,2.62-1.5,7.61-.27,2.26s2.18-1.43,2.18-2.5-.41-3.57-.27-4.52c.14-.95.82-4.52.82-4.52l-3-1.19-1.5.24Z"/>
    <path id="path64207" class="cls-4" d="m51.42,166.63s-.96,2.26.82,4.04c1.77,1.78,5.59,4.88,5.59,4.88,0,0-1.5-2.74-1.77-3.57-.27-.83-1.09-2.26-2.05-3.33-.96-1.07-2.59-2.02-2.59-2.02h0Z"/>
    <path id="path64209" class="cls-4" d="m44.46,162.23s-1.91.12-4.64,1.55c-2.73,1.43-5.05,3.69-5.05,3.69l-2.46-.12,2.18-2.85,5.73-2.26,3.82-.48.41.48Z"/>
    <path id="path64211" class="cls-4" d="m63.43,142.49c.68-.36,1.77-1.19,2.32-1.19s1.5,1.9,2.46,2.5c.96.59,2.32,3.57,1.36,4.04-.96.48-.82,1.19-2.05.48-1.23-.71-1.64-3.33-2.32-3.81-.68-.48-1.77-2.02-1.77-2.02Z"/>
    <path id="path64273" class="cls-4" d="m101.36,99.32l5.05-1.07s5.32,2.02,6.82,3.33c1.5,1.31,4.5,3.45,5.05,3.69s.55.95-1.09-.36c-1.64-1.31-1.91-4.52-2.59-4.64-.68-.12-3.82-2.14-4.5-2.14s-.82-.71-2.59-.71-6.14,1.9-6.14,1.9Z"/>
    <path id="path64275" class="cls-4" d="m114.05,84.09l10.37,6.66,1.36,1.43-1.23-5.95-1.36-2.74-3-1.19s-2.05-.48-3.27,0c-1.23.48-2.87,1.78-2.87,1.78Z"/>
    <path id="path64281" class="cls-4" d="m129.2,67.21l5.05-.24,3.82,3.09,2.59.83-2.87,2.14s-2.18-1.9-3.14-2.74c-.96-.83-5.46-3.09-5.46-3.09h0Z"/>
    <path id="path64283" class="cls-4" d="m135.34,49.61c-.14-.48-.14-1.43.68-2.02s3-1.78,4.09-2.02c1.09-.24,3.41-.36,4.91.71,1.5,1.07,2.05,1.55,2.46,2.62.41,1.07.14.83.82,2.38s.68,2.62.68,3.09-.41,1.78-1.5.48-3.41-5.71-3.41-5.71l-2.73-.36-6,.83Z"/>
    <path id="path64285" class="cls-4" d="m133.02,32.12c-.82,0,3-3.21,3-3.21,0,0-3-.24-1.5-2.5,1.5-2.26,1.64-3.45,3.41-3.57,1.77-.12,2.87-1.07,3.96-.24s3.96,4.04,3.96,4.04c0,0-4.64,1.55-5.73,1.43-1.09-.12-7.1,4.04-7.1,4.04Z"/>
    <path id="path64287" class="cls-4" d="m111.05,19.99c-1.23-2.38,2.32-4.28,2.59-5.71.27-1.43,2.73-4.99,3.68-5.71.96-.71,1.64-.95,0-.83-1.64.12-4.23.12-5.73,1.19-1.5,1.07-3,1.78-2.46,4.16.55,2.38,0,1.9.55,2.38.55.48,1.09.48,1.23,1.43.14.95.14,3.09.14,3.09Z"/>
    <path id="path64289" class="cls-4" d="m81.3,9.88s2.46-2.97,3.68-.95c1.23,2.02,2.18,5.23,2.18,5.83s-1.64,3.92-1.64,3.92c0,0,1.36,1.07,2.18,1.07s4.09.71,3.55.83c-.55.12-6.14-.12-6.82-.71-.68-.59-.55-.95-1.23-3.21s-1.91-6.78-1.91-6.78Z"/>
    <path id="path64291" class="cls-4" d="m57.01,25.23s-1.5-1.55.14-1.9,2.73-.83,4.78-.48c2.05.36,5.32,5.59,5.87,6.54.55.95,1.36,2.62,1.36,2.62,0,0-3-3.45-3.55-3.57-.55-.12-4.23-2.02-4.91-2.14-.68-.12-3.68-1.07-3.68-1.07Z"/>
    <path id="path64293" class="cls-4" d="m52.92,63.28c.55,0,4.64-3.45,5.73-5.95s2.59-3.09,4.5-3.69c1.91-.59,1.09-1.78.41-1.78s-4.09-.24-4.91.36c-.82.59-2.18,1.19-3,3.09-.82,1.9-.68,1.55-1.36,3.45-.68,1.9-1.36,4.52-1.36,4.52Z"/>
    <path id="path64295" class="cls-6" d="m89.63,56.62c3.68,0,5.59-1.43,7.23-2.14,1.64-.71,6.28-18.79,6.28-18.79,0,0,4.37,11.42,4.23,11.89-.14.48-3.55,9.16-4.5,11.42s-6.69,8.44-8.46,9.99c-1.77,1.55-6.41,5.35-6.41,5.35,0,0,.55-3.69,1.36-6.18s3.27-8.09,2.05-9.04-1.77-2.5-1.77-2.5Z"/>
  </g>
  <g id="layer2">
    <path id="path57443" class="cls-2" d="m91.13,65.42s2.39.48,3.27-.18c.89-.65,1.84-1.19,2.93-2.85,1.09-1.66,2.8-3.63,3.34-5.17.55-1.55,1.16-4.1,1.5-5.29.34-1.19.48-2.32.55-4.52.07-2.2-.27-5.23-.41-5.95l-.14-.71s-.07.18.41,1.13c.48.95,1.23,2.62,1.3,3.27.07.65-.61,6.78-.96,7.91-.34,1.13-.89,2.79-1.16,3.92-.27,1.13-1.57,4.22-2.46,5.35-.89,1.13-1.36,1.96-2.93,3.15-1.57,1.19-5.66.95-5.53.71.14-.24.27-.77.27-.77Z"/>
    <path id="path74564" class="cls-6" d="m99.09,151.7c-1.35-.25-3.09-.93-3.57-1.09-.48-.17-1.83-1.35-1.83-1.35l1.45-.76,4.15.34,1.74,2.1-1.45.76h-.48Z"/>
    <path id="path74566" class="cls-1" d="m106.52,151.11s-.77-1.43,0-1.77c.77-.34,2.03-1.09,2.7-1.51.68-.42,1.74-.84,2.12-.93.39-.08,2.12.25,2.22.76.1.5.48.93-.1,1.43-.58.5-2.41,1.18-3.28,1.51-.87.34-3.18.67-3.18.67l-.48-.17Z"/>
    <path id="path77673" class="cls-1" d="m98.18,151.45c-.4-.11-1.19-.37-1.77-.56-.92-.31-1.16-.44-1.86-.98l-.81-.62.72-.37.72-.37,2.04.17c1.12.09,2.05.18,2.06.19,0,.01.35.43.76.93s.77.96.79,1.02c.07.16-1.23.8-1.62.8-.18,0-.64-.1-1.04-.21Z"/>
  </g>
</svg>