<?xml version="1.0" encoding="UTF-8"?>
<svg id="svg4444" xmlns="http://www.w3.org/2000/svg" width="233.54" height="228.87" viewBox="0 0 233.54 228.87">
  <defs>
    <style>
      .cls-1, .cls-2, .cls-3 {
        stroke: #000;
        stroke-width: .39px;
      }

      .cls-1, .cls-4 {
        fill: #131b22;
      }

      .cls-2 {
        fill: #94a7bb;
      }

      .cls-5 {
        fill: #0f121f;
      }

      .cls-5, .cls-6, .cls-7, .cls-8, .cls-4, .cls-9, .cls-10, .cls-11 {
        stroke-width: 0px;
      }

      .cls-6 {
        fill: #fdfa74;
      }

      .cls-7 {
        fill: #141c23;
      }

      .cls-8 {
        fill: #fff;
      }

      .cls-9 {
        fill: #aecedc;
      }

      .cls-10 {
        fill: #0d151d;
      }

      .cls-11 {
        fill: #000618;
      }

      .cls-3 {
        fill: #1967b3;
      }
    </style>
  </defs>
  <g id="layer11">
    <ellipse id="path59450" class="cls-11" cx="119.16" cy="113.51" rx="104.76" ry="105.87"/>
  </g>
  <g id="layer12">
    <path id="path63802" class="cls-3" d="m76.67,89.47l-72.54-.56-2.19,7.46-1.75,8.35v7.13l.55,14.59,2.51,11.25,70.8.11,3.7,4.37-41.72,55.14,4.59,6.11,12.02,10.03,18.35,9.8,8.08,3.12,36.71-61.94,33.65,64.16s17.04-8.69,18.79-8.69,18.35-11.14,18.35-11.14l5.9-4.9-34.96-65.72,72.33-.22,2.62-12.48.44-7.57.44-7.35v-7.35l-2.62-14.7-70.14.45,37.36-59.04-8.74-8.91-9.4-6.91-7.21-3.79-7.65-4.01-10.71-4.01-35.18,61.94L85.63.25l-27.09,10.69-8.3,5.57-8.08,6.68,34.52,65.5v.78Z"/>
  </g>
  <g id="layer13">
    <path id="path66573" class="cls-8" d="m33.33,97.05l-18.79,23.84s-7.43,11.47-5.35,10.58c2.08-.89,14.86-11.47,14.86-11.47,0,0-.11,21.28-.11,20.72s5.35-9.36,5.35-9.36l8.63,9.47-1.75-9.69,22.94-.56,5.03-5.57,10.82-.22,9.18-28.41-50.26-.33-.55,1Z"/>
    <path id="path66573-2" class="cls-8" d="m93.31,31.03l-29.31-6.49s-13.39-1.65-11.68-.15c1.71,1.5,16.71,8.42,16.71,8.42,0,0-18.72,9.41-18.23,9.16.49-.25,10.6.7,10.6.7l-4.45,12.1,7.72-5.93,10.74,20.68,7.13,2.09,5.03,9.77,29.02-4.33-22.17-45.99-1.12-.05Z"/>
    <path id="path66573-1" class="cls-8" d="m177.62,50.12l-9.8-28.91s-5.57-12.52-5.94-10.25c-.36,2.27,1.62,18.93,1.62,18.93,0,0-17.61-11.42-17.15-11.12.46.3,4.92,9.6,4.92,9.6l-12.46,2.41,8.98,3.65-11.75,20.1,1.95,7.3-5.57,9.46,18.7,23.04,27.02-43.21-.54-1.01Z"/>
    <path id="path66573-1-7" class="cls-8" d="m203.38,130.34l22.45-23.24s8.95-11.24,6.53-10.41c-2.42.83-17.5,11.01-17.5,11.01,0,0,.86-21.26.84-20.71-.02.56-6.49,9.19-6.49,9.19l-9.61-9.73,1.68,9.74-26.43-.16-5.98,5.41-12.46-.11-11.54,28.11,57.84,1.9.66-.99Z"/>
    <path id="path66573-20" class="cls-8" d="m60.11,177.01l8.19,29.42s4.88,12.82,5.36,10.58c.49-2.24-.58-19-.58-19,0,0,16.95,12.41,16.51,12.08-.45-.32-4.38-9.87-4.38-9.87l12.57-1.7-8.76-4.16,12.83-19.4-1.55-7.4,6.08-9.12-17.41-24.07-29.36,41.59.49,1.03Z"/>
    <path id="path66573-20-4" class="cls-8" d="m146.09,201.95l29.78,3.63s13.48.35,11.64-.97c-1.84-1.32-17.41-6.78-17.41-6.78,0,0,17.76-11.17,17.3-10.88-.46.29-10.62.32-10.62.32l3.31-12.48-7.14,6.64-12.61-19.55-7.3-1.4-5.91-9.24-28.49,7.1,26.33,43.65,1.12-.06Z"/>
  </g>
  <g id="layer14">
    <path id="path69583" class="cls-9" d="m93.39,76.44s2.29-3.45,3.39-3.45,11.47,1.45,11.47,1.45l9.83,3.9,21.96-4.46,4.15,2.12,6.99.56,4.59,3.68,1.97,9.91-4.15,6.57,9.4,37.54-27.64,27.85-19.34,9.25-14.31-9.02-23.49-22.5-4.7-6.8,11.36-38.77s-2.95-3.23-3.06-3.68c-.11-.45-.44-4.46-.44-5.12s-.87-4.34.55-5.57,3.5-3.56,3.93-3.68c.44-.11,3.82-.45,3.82-.45l3.71.67Z"/>
  </g>
  <g id="layer15">
    <path id="path74082" class="cls-7" d="m97.83,84.21c4.79-.79,17.15,2.84,17.15,2.84l24.26-2.68-4.94,9.14-14.68-3.47-18.23,2.21-3.55-8.03Z"/>
    <path id="path79328" class="cls-4" d="m85.03,91.87l-1.2-1.78-.71-2.12-.44-2.84s.66-3.17.93-3.34,1.26-2.12,1.26-2.12l1.31-.95s1.42-.17,1.69-.22c.27-.06,3.99-.06,3.99-.06l-6.83,13.42Z"/>
    <path id="path82788" class="cls-1" d="m144.65,80.31l6.64,13.17.63-.95s.87-1.73.96-1.87c.08-.14.57-1.87.57-2.14s-.3-3.51-.3-3.51c0,0-1.31-3.9-1.45-3.98-.14-.08-2.32-1.14-2.32-1.14l-4.73.42Z"/>
  </g>
  <g id="layer16">
    <path id="path91107" class="cls-2" d="m109.34,90.25l-3.82,11.59-1.97,10.81-.66,16.49,4.48,22.06,5.13,9.02s11.58.33,11.8-.22c.22-.56,5.13-14.15,5.68-14.15s3.39-11.03,3.39-12.92.66-13.03.66-13.03l-2.29-13.92-5.24-15.6s-1.09-1.67-2.08-1.56c-.98.11-14.75.45-14.75.45l-.33,1Z"/>
  </g>
  <g id="layer17">
    <path id="path93456" class="cls-10" d="m109.94,103.68l-.55,2.28s-.27,3.06-.22,3.51c.05.45.82,2.45.82,2.45,0,0,.55.33.93.22.38-.11,5.95.11,5.95.11l-.38,8.13-4.86-.56-5.95-3.95-.6,2.51v10.69l1.58,11.42s4.64,15.09,4.86,15.15c.22.06,12.29-.11,12.29-.11l3.07-5.86s2.94-13.31,2.94-13.71.54-20.09.54-20.09l-7.18,3.86s-4.25,1.42-4.25.63.62-8.11.62-8.11l6.1-.24,1.31-2.6-.54-3.86-1-2.44-15.3.08-.18.48Z"/>
    <path id="path98573" class="cls-5" d="m110.19,91.14c.85-.08,14.52-.39,14.52-.39l2.39,2.28-18.15.08.15-1.89,1.08-.08Z"/>
    <path id="path98575" class="cls-5" d="m108.26,93.82l-.46,2.28,20.16.08s-.31-2.44-.77-2.44-18.93.08-18.93.08Z"/>
    <path id="path98577" class="cls-5" d="m106.1,100.2s4.25-1.42,4.64-1.42,5.72-.24,6.57-.24,5.87.08,5.87.08l5.1,1.5,1.08.16.23,2.21-4.87-1.18-4.94-.39s-4.87-.24-5.49.08-5.02,1.02-5.48,1.02-3.17.63-3.17.63l.46-2.44Z"/>
  </g>
  <g id="layer18">
    <path id="path102175" class="cls-6" d="m108.41,119.91s0,5.18.11,5.21c.11.03,1.01,3.09,1.15,2.87.14-.22,1.78-4.32,1.83-4.15.05.17.63.81,1.15,1.06.52.25,1.97.78,2.1.78s2.87.39,3.52.28c.66-.11,3.09-.56,3.66-.64.57-.08,2.59-1.06,2.7-.95.11.11,1.67,4.07,1.67,4.07l1.15-1.95-.16-6.71s-.82.72-1.04.89c-.22.17-.87.31-1.34.47-.46.17-2.05.95-2.24.97-.19.03-1.37.14-2.05.19-.68.06-2.24.14-2.62.14s-2.29-.17-2.62-.28c-.33-.11-1.75-.5-2.19-.58-.44-.08-1.69-.36-2.46-.61-.76-.25-1.75-.78-1.75-.78l-.57-.28Z"/>
    <path id="path102177" class="cls-6" d="m112.88,149.02l1.76,2.01,5.23-.11s1.58-2.28,1.56-1.99c-.03.29,1.17,4.89,1.17,4.89l-10.83.03.91-4.9.19.08Z"/>
  </g>
</svg>