<?xml version="1.0" encoding="UTF-8"?>
<svg id="svg4444" xmlns="http://www.w3.org/2000/svg" width="190.49" height="196.61" viewBox="0 0 190.49 196.61">
  <defs>
    <style>
      .cls-1 {
        fill: #070b0f;
      }

      .cls-1, .cls-2, .cls-3, .cls-4, .cls-5, .cls-6, .cls-7, .cls-8 {
        stroke-width: 0px;
      }

      .cls-2 {
        fill: #990f03;
      }

      .cls-3 {
        fill: #ab9e09;
      }

      .cls-4 {
        fill: #adc3c9;
      }

      .cls-5 {
        fill: #8b1000;
      }

      .cls-6 {
        fill: #3d5259;
      }

      .cls-7 {
        fill: #98baba;
      }

      .cls-8 {
        fill: #011b7e;
      }
    </style>
  </defs>
  <g id="layer7">
    <ellipse id="path138043" class="cls-8" cx="95.25" cy="98.3" rx="95.25" ry="98.3"/>
  </g>
  <g id="layer11">
    <path id="path139492" class="cls-3" d="m26.62,73.57l-15.81-11.57,27.19,3.27.21-5.67-16.02-18.55.85-1.31,23.18,11.13,6.74-.22-6.11-11.35-7.59-16.59,22.55,19.64,4-.66-5.69-30.77,21.29,28.38,1.9-35.57,13.91,35.79,9.27-34.7,2.95,34.92,20.03-29.24-5.06,35.57,24.87-23.35-12.44,29.68,30.57-12.87-20.66,29.02,31.2-7.2-31.41,22.26,39.21,1.53-33.52,12.87,34.78,12-36.68,3.49,29.3,20.08-33.94-6.55,22.98,28.16-29.51-12.44,11.59,29.9-26.98-25.31,6.74,37.98-18.13-26.41-5.06,32.95-12.01-33.39-10.33,32.3-3.58-33.17-20.45,28.16,7.59-37.54-28.45,24.67,17.08-32.52-35.84,15.49,33.72-31.87-44.9,10.48,33.72-25.1-40.05.88,40.68-14.85-40.47-10.26,41.74-3.27-19.18-8.3h.03Z"/>
  </g>
  <g id="layer8">
    <path id="path145828" class="cls-2" d="m35.27,88.62l-20.66,8.08,18.97,8.3-15.39,13.09,22.35,2.84-14.33,16.59,22.98-2.62-10.33,20.08,19.6-8.94-3.37,21.61,17.28-13.53,1.9,21.83,14.33-17.9,6.11,20.52,7.59-21.61,11.81,19.64,4-23.35,17.08,15.06-3.37-23.13,20.03,9.82-9.69-20.3s23.61,3.71,22.55,2.62c-1.05-1.09-14.96-15.71-14.96-15.71l22.98-3.05-19.18-13.75,20.87-8.3-18.97-8.08s19.81-12,17.91-13.09-23.4-1.09-23.4-1.09c0,0,16.23-18.55,15.18-18.98-1.05-.44-26.35,6.33-26.35,6.33l12.86-23.57-8.43,3.49-8.64-16.15-16.65,13.31-1.47-21.61-12.23,17.9-8.22-20.74-7.59,21.83-12.64-18.12-1.9,22.04-15.6-13.31-9.69,16.37-9.49-4.81,7.37,12.44-3.37,7.64-16.44-3.49,14.54,18.34-22.76,2.62,16.86,12.87v-.03Z"/>
  </g>
  <g id="layer9">
    <path id="path149679" class="cls-1" d="m55.75,20.37l-16.85,46.46,10.58,8.65-4.92,18.68,11.92,15.13-.75,12.81,16.55,15.59,7.75,34.72,32.35-.16,9.39-35.8,15.65-14.5-.89-12.35,11.77-15.27-4.03-19.45,9.84-7.56-16.7-46.61-1.79-.16-3.58,29.63s-5.52-3.09-6.56-3.24-19.82-2.31-19.82-2.31h-16.1l-29.07,5.56-4.62-29.02-.15-.77.02-.02Z"/>
  </g>
  <g id="layer12">
    <path id="path160101" class="cls-4" d="m69.24,76.93l-1.34.23-.45,2.01s-.89,2.54-.97,2.93c-.07.39-.3,1.39-.3,1.39,0,0,2.61,6.33,2.76,6.94s4.33,4.94,5.15,5.24c.82.31,4.4,1.16,5.44,1.16s3.06-1.08,2.76-2.7-2.83-6.4-3.73-7.94c-.89-1.54-4.03-6.94-4.03-6.94,0,0-2.09-1.24-2.54-1.24s-2.39-.93-2.39-.93l-.37-.16v.02Z"/>
    <path id="path160101-5" class="cls-4" d="m123.72,74.54l1.34.23.45,2.01s.89,2.54.97,2.93c.07.39.3,1.39.3,1.39,0,0-2.61,6.33-2.76,6.94-.15.61-4.33,4.94-5.15,5.24-.82.31-4.4,1.16-5.44,1.16s-3.06-1.08-2.76-2.7,2.83-6.4,3.73-7.94c.89-1.54,4.03-6.94,4.03-6.94,0,0,2.09-1.24,2.54-1.24s2.39-.93,2.39-.93l.37-.16v.02Z"/>
    <path id="path162120" class="cls-5" d="m81.68,117.82s2.16,40.9,2.98,40.9,22.73.39,22.73.39l3.95-42.28-7.75,8.18-14.23.08-7.67-7.25h0Z"/>
  </g>
  <g id="layer10">
    <path id="path155807" class="cls-6" d="m64.39,78.01l-3.5-3.86,5.97-11.19,11.92,7.8,9.84,19.45,4.1-1.08-6.41,8.87-7.52.31s-3.28.23-3.8.31-5.07-1.93-5.07-1.93c0,0-2.09-2.78-2.39-3.17s-2.46-5.87-2.46-5.87l-.07-2.39,1.94-.61,8.64,9.65,5.52.61s.3-2.16.15-2.47c-.15-.31-5.67-10.03-5.67-10.03,0,0-1.94-4.79-2.24-4.71s-1.72,0-1.72,0l-1.72-2.09h-2.46l-2.09,3.09-.97-.69h.02Z"/>
    <path id="path155807-4" class="cls-6" d="m127.85,77.78l3.5-3.86-5.97-11.19-11.92,7.8-9.84,19.45-4.1-1.08,6.41,8.87,7.52.31s3.28.23,3.8.31c.52.08,5.07-1.93,5.07-1.93,0,0,2.09-2.78,2.39-3.17s2.46-5.87,2.46-5.87l.07-2.39-1.94-.61-8.64,9.65-5.52.61s-.3-2.16-.15-2.47c.15-.31,5.67-10.03,5.67-10.03,0,0,1.94-4.79,2.24-4.71s1.72,0,1.72,0l1.72-2.09h2.46l2.09,3.09.97-.69h-.02Z"/>
    <path id="path160094" class="cls-6" d="m95.54,97.15c-.82.16-5.15,1.85-5.15,1.85l-3.06,1.46-2.61,3.09.07,1.85,2.39.16,2.61-1.54,1.04-.31.6.31-.37,2.16s-.89,1.7-1.27,1.85c-.37.16-1.04,1.32-1.04,1.32l.82,3.63,1.19,1.16,1.34,1.08s.82,2.31.82,3.47-.15,5.17-.15,5.17c0,0,6.63.08,5.82-.08s-.67-6.25-.67-6.25c0,0,2.24-1.54,2.54-1.85s1.34-1.93,1.49-3.01c.15-1.08.07-3.63.07-3.63,0,0-.37-1.16-.75-1.24-.37-.08-.97-.39-1.42-1.39s-.45-2.09-.45-2.09c0,0,.3-.61.67-.61s3.36,1.77,3.36,1.77c0,0,1.64.16,1.94.23.3.08,1.72,1.54,1.42-.31s.15-2.78-.52-3.17-.82-.85-1.57-1.16-6.7-3.55-6.7-3.55l-2.46-.39h0Z"/>
    <path id="path160096" class="cls-6" d="m113.95,105.41s-1.12,1.7-.6,2.16c.52.46,7.08,17.52,7.08,17.52,0,0,.89-1.24,1.49-1.62s1.49-2.01,1.72-2.31,1.86,0,.52-1.54-8.34-13.35-8.34-13.35l-1.86-.85h0Z"/>
    <path id="path160098" class="cls-6" d="m76.83,105.71l-2.39,3.31-3.88,6.79-2.39,3.63s-.97,1.39-.07,2.24,3.13,3.55,3.13,3.55c0,0,2.01-2.24,1.94-2.86-.07-.61.37-4.47.6-5.32s3.06-6.17,3.36-6.79.82-1.32,1.19-2.47c.37-1.16.37-1.62.37-1.62l-.67-.39-1.19-.08h0Z"/>
    <path id="path168816" class="cls-5" d="m72.07,79.4l3.8,4.09-1.52,6.91-1.04.54-1.23-11.54h0Z"/>
    <path id="path168818" class="cls-5" d="m117.19,83.56l2.68-3.78,1.23.58s-1.23,10.19-1.52,10.19-2.39-6.98-2.39-6.98h0Z"/>
    <path id="path168820" class="cls-5" d="m72.1,79.48c.15-.19.45-.93.45-.93l3.28,5.02s-2.01-.66-2.31-1.12-1.42-2.97-1.42-2.97h0Z"/>
    <path id="path168822" class="cls-5" d="m84.74,151.93l.15-2.47,1.94-.31,1.79,3.47,14.46.23,1.49-3.94h1.27l1.57,8.02.07,2.31-22.13-.23-.6-7.1h0Z"/>
    <path id="path168824" class="cls-7" d="m82.87,133.8l-1.42-15.74,7.6,7.1,14.46-.16,7.52-8.18s-.82,17.2-1.12,17.2-1.04-3.09-1.04-3.09l-.89,3.17-1.72.46-.45-8.1-3.5,2.62-13.19.08-3.36-2.62.3,7.17s-.3,1.39-.67,1.39-2.24-.61-2.24-.61l-.3-.69h.02Z"/>
    <path id="path171034" class="cls-7" d="m94.59,159.06l-9.19-.06-.25-3.22c-.14-1.77-.25-3.88-.25-4.68,0-1.6-.11-1.46,1.51-1.79.24-.04.6.44,1.21,1.61l.87,1.68,3.01.14c1.66.08,4.95.14,7.34.14h4.34l.73-1.91c.62-1.64.8-1.92,1.26-1.97.52-.06.55-.02,1.23,3.38.39,1.89.76,4.21.84,5.14l.13,1.69-1.8-.05c-.99-.03-5.93-.08-10.98-.11h0Z"/>
  </g>
</svg>