<?xml version="1.0" encoding="utf-8"?>
<!-- Generator: Adobe Illustrator 27.7.0, SVG Export Plug-In . SVG Version: 6.00 Build 0)  -->
<svg version="1.1"
	 id="svg4444" xmlns:sodipodi="http://sodipodi.sourceforge.net/DTD/sodipodi-0.dtd" xmlns:svg="http://www.w3.org/2000/svg" xmlns:inkscape="http://www.inkscape.org/namespaces/inkscape" sodipodi:docname="ComstarPilot.svg"
	 xmlns="http://www.w3.org/2000/svg" xmlns:xlink="http://www.w3.org/1999/xlink" x="0px" y="0px" viewBox="0 0 250 250"
	 style="enable-background:new 0 0 250 250;" xml:space="preserve">
<style type="text/css">
	.st0{fill:#3771C8;stroke:#000000;stroke-width:0.378;stroke-linejoin:bevel;stroke-miterlimit:15.1181;}
	.st1{fill:#FF0000;stroke:#000000;stroke-width:0.378;stroke-linejoin:bevel;stroke-miterlimit:15.1181;}
</style>
<sodipodi:namedview  bordercolor="#000000" borderopacity="0.25" id="namedview4446" inkscape:current-layer="layer3" inkscape:cx="5.9897711" inkscape:cy="37.870811" inkscape:deskcolor="#d1d1d1" inkscape:document-units="mm" inkscape:pagecheckerboard="0" inkscape:pageopacity="0.0" inkscape:showpageshadow="2" inkscape:window-height="1377" inkscape:window-maximized="1" inkscape:window-width="5120" inkscape:window-x="-8" inkscape:window-y="-8" inkscape:zoom="2.5877449" pagecolor="#ffffff" showgrid="false">
	</sodipodi:namedview>
<g id="layer3" inkscape:groupmode="layer" inkscape:label="Layer 3">
	<path id="path5154" class="st0" d="M63.6,93.3l18.5,23.5L81,119v4.3l-0.4,5.4L81,136l1.2,6.5l3.5,9.9l6.2,10.6l5.4,5.3l-4.4-1.8
		l-5.5-4.2l-7.3-8.7L73,142.5l-4.1-9.2l-4.3-15.1l-1.5-13.9l-0.2-11.1L63.6,93.3z"/>
	<path id="path5156" class="st0" d="M62.9,88.8l3.6-19.3l5.8-15.3l6.3-10.6h1.2l14.5,47.8l-1.3,1l-5.3,7.5l-2.2,6l-0.9,1.4l-22.2-18
		L62.9,88.8z"/>
	<path id="path5158" class="st0" d="M81.5,39l11.4-10.4l9.7-5.9c0,0,8.4-1.8,8.8-1.9s4.7-1,4.7-1L114.9,80l-4.6,0.5l-2,0.9l-2.7,1.5
		l-2.9,1.4l-0.6,0.2L81.5,39z"/>
	<path id="path5154-4" class="st0" d="M176.1,93.4l-18.5,23.5l1.1,2.2v4.3l0.4,5.4l-0.3,7.2l-1.2,6.5l-3.5,9.9l-6.2,10.6l-5.4,5.3
		l4.4-1.8l5.5-4.2l7.3-8.7l6.9-11.1l4.1-9.2l4.3-15.1l1.5-13.9l0.2-11.1L176.1,93.4z"/>
	<path id="path5156-3" class="st0" d="M176.8,88.9l-3.6-19.3l-5.8-15.3l-6.3-10.6H160l-14.5,47.8l1.3,1l5.3,7.5l2.2,6l0.9,1.4
		l22.1-18.1L176.8,88.9z"/>
	<path id="path5158-3" class="st0" d="M158.2,39.1l-11.4-10.4l-9.7-5.9c0,0-8.4-1.8-8.8-1.9c-0.4-0.1-4.7-1-4.7-1l1.3,60.2l4.6,0.5
		l2,0.9l2.7,1.5l2.9,1.4l0.6,0.2L158.2,39.1z"/>
	<path id="path5203" class="st1" d="M94.4,128.3l16.3-3.6l-8.7-15l13.4,8.5l4.9-15.4l4.4,15.7l13.9-7.9l-7.2,13.5l14.3,4.9
		l-14.6,4.2c0,0,9.2,14.6,8.5,14.6s-12.8-7.5-12.8-7.5l-0.7,1.9l-1.1,27.6l0.4,18.2l-0.5,21.9l-0.4,20.5v1.4l-1.9-13.8l-2.3-49.6
		l-2.9,31.6l-0.7-7.8l-0.7-33.6l-0.3-18.9l-1,0.3l-12.4,7.7l8.5-14.2L94.4,128.3z"/>
</g>
</svg>
