<?xml version="1.0" encoding="UTF-8" standalone="no"?>
<svg
   id="svg4444"
   width="135.63"
   height="250.17999"
   viewBox="0 0 135.63 250.18"
   version="1.1"
   sodipodi:docname="PIP_Comstar.svg"
   xmlns:inkscape="http://www.inkscape.org/namespaces/inkscape"
   xmlns:sodipodi="http://sodipodi.sourceforge.net/DTD/sodipodi-0.dtd"
   xmlns="http://www.w3.org/2000/svg"
   xmlns:svg="http://www.w3.org/2000/svg">
  <sodipodi:namedview
     id="namedview15"
     pagecolor="#ffffff"
     bordercolor="#000000"
     borderopacity="0.25"
     inkscape:showpageshadow="2"
     inkscape:pageopacity="0.0"
     inkscape:pagecheckerboard="0"
     inkscape:deskcolor="#d1d1d1"
     showgrid="false" />
  <defs
     id="defs4">
    <style
       id="style2">
      .cls-1 {
        fill: red;
      }

      .cls-1, .cls-2 {
        stroke-width: 0px;
      }

      .cls-2 {
        fill: #3771c8;
      }
    </style>
  </defs>
  <g
     id="layer3">
    <path
       id="path5154"
       class="cls-2"
       d="m 1.42,86.73 21.84,27.73 -1.3,2.6 v 5.07 l -0.47,6.37 0.47,8.61 1.42,7.67 4.13,11.68 7.32,12.51 6.37,6.25 -5.19,-2.12 -6.49,-4.96 L 20.9,157.87 12.52,144.77 7.68,133.91 2.6,116.09 0.83,99.69 0.59,86.59 1.42,86.71 Z" />
    <path
       id="path5156"
       class="cls-2"
       d="M 0.59,81.42 4.84,58.64 11.69,40.58 19.13,28.07 h 1.42 l 17.12,56.41 -1.53,1.18 -6.26,8.85 -2.6,7.08 -1.06,1.65 L 0,82.01 c 0,0 0.59,-0.59 0.59,-0.59 z" />
    <path
       id="path5158"
       class="cls-2"
       d="M 22.55,22.65 36.01,10.38 47.46,3.42 c 0,0 9.92,-2.12 10.39,-2.24 C 58.32,1.06 63.4,0 63.4,0 l -1.42,71.04 -5.43,0.59 -2.36,1.06 -3.19,1.77 -3.42,1.65 -0.71,0.24 z" />
    <path
       id="path5154-4"
       class="cls-2"
       d="m 134.22,86.85 -21.84,27.73 1.3,2.6 v 5.07 l 0.47,6.37 -0.35,8.5 -1.42,7.67 -4.13,11.68 -7.32,12.51 -6.37,6.25 5.19,-2.12 6.49,-4.96 8.62,-10.27 8.15,-13.1 4.84,-10.86 5.08,-17.82 1.77,-16.4 0.24,-13.1 -0.71,0.24 h -0.01 z" />
    <path
       id="path5156-3"
       class="cls-2"
       d="M 135.05,81.54 130.8,58.76 123.95,40.7 116.51,28.19 h -1.3 l -17.12,56.41 1.53,1.18 6.26,8.85 2.6,7.08 1.06,1.65 26.09,-21.36 -0.59,-0.47 h 0.01 z" />
    <path
       id="path5158-3"
       class="cls-2"
       d="M 113.09,22.77 99.63,10.5 88.18,3.54 c 0,0 -9.92,-2.12 -10.39,-2.24 C 77.32,1.18 72.24,0.12 72.24,0.12 l 1.53,71.04 5.43,0.59 2.36,1.06 3.19,1.77 3.42,1.65 0.71,0.24 24.2,-53.69 v 0 z" />
    <path
       id="path5203"
       class="cls-1"
       d="m 37.78,128.04 19.24,-4.25 -10.27,-17.7 15.82,10.03 5.78,-18.17 5.19,18.53 16.41,-9.32 -8.5,15.93 16.88,5.78 -17.23,4.96 c 0,0 10.86,17.23 10.03,17.23 -0.83,0 -15.11,-8.85 -15.11,-8.85 l -0.83,2.24 -1.3,32.57 0.47,21.48 -0.59,25.84 -0.47,24.19 v 1.65 l -2.24,-16.29 -2.72,-58.53 -3.42,37.29 -0.83,-9.2 -0.83,-39.65 -0.35,-22.3 -1.18,0.35 -14.64,9.09 10.03,-16.76 -19.36,-6.14 z"
       style="fill:#ff0000;fill-opacity:1" />
  </g>
</svg>
