<?xml version="1.0" encoding="UTF-8"?>
<svg id="svg4444" xmlns="http://www.w3.org/2000/svg" width="232.81" height="146.95" viewBox="0 0 232.81 146.95">
  <defs>
    <style>
      .cls-1 {
        fill: #7d4025;
      }

      .cls-1, .cls-2, .cls-3, .cls-4, .cls-5, .cls-6, .cls-7, .cls-8, .cls-9, .cls-10, .cls-11, .cls-12, .cls-13 {
        stroke-width: 0px;
      }

      .cls-2 {
        fill: #ec1e24;
      }

      .cls-3 {
        fill: #fff202;
      }

      .cls-5 {
        fill: none;
      }

      .cls-6 {
        fill: #7f3d27;
      }

      .cls-7 {
        fill: #783e1d;
      }

      .cls-8 {
        fill: #e87f23;
      }

      .cls-9 {
        fill: #fff301;
      }

      .cls-10 {
        fill: #723e27;
      }

      .cls-11 {
        fill: #7d4128;
      }

      .cls-12, .cls-14 {
        fill: #b43928;
      }

      .cls-13 {
        fill: #ed1d24;
      }

      .cls-14 {
        stroke: #000;
        stroke-width: .3px;
      }
    </style>
  </defs>
  <g id="layer1">
    <path id="path116566" class="cls-11" d="m86.13,90.26c-.06.3-4.38,6.3-4.38,6.3l-4.68,8.36s-4.09,8.48-4.15,8.78c-.06.3-3.51,7.02-3.51,7.02l2.86,1.57,2.16-5.69,4.24-10.27,5.34-9.77,3.27-4.06-1.17-2.24Z"/>
  </g>
  <g id="layer19">
    <path id="path104306" class="cls-8" d="m.66,11.39h232.15l-.99,67.48L0,77.5.66,11.39Z"/>
  </g>
  <g id="layer20">
    <path id="path105346" class="cls-9" d="m15.71,21.15l8.6,6.34-3.31,12.84,10.75-7.54s9.92,8.39,9.92,7.36-4.3-12.84-4.3-12.84l10.09-7.88-11.57-.34-4.96-12.67-3.64,12.67-13.23.69,2.31,1.71-.66-.34Z"/>
    <path id="path105346-1" class="cls-9" d="m50.27,21.02l8.6,6.34-3.31,12.84,10.75-7.54s9.92,8.39,9.92,7.36-4.3-12.84-4.3-12.84l10.09-7.88-11.57-.34-4.96-12.67-3.64,12.67-13.23.69,2.31,1.71-.66-.34Z"/>
    <path id="path105346-3" class="cls-9" d="m85.62,21.2l8.6,6.34-3.31,12.84,10.75-7.54s9.92,8.39,9.92,7.36-4.3-12.84-4.3-12.84l10.09-7.88-11.57-.34-4.96-12.67-3.64,12.67-13.23.69,2.31,1.71-.66-.34Z"/>
    <path id="path105346-9" class="cls-9" d="m120.79,21.85l8.6,6.34-3.31,12.84,10.75-7.54s9.92,8.39,9.92,7.36-4.3-12.84-4.3-12.84l10.09-7.88-11.57-.34-4.96-12.67-3.64,12.67-13.23.69,2.31,1.71-.66-.34Z"/>
    <path id="path105346-12" class="cls-9" d="m156.42,21.48l8.6,6.34-3.31,12.84,10.75-7.54s9.92,8.39,9.92,7.36-4.3-12.84-4.3-12.84l10.09-7.88-11.57-.34-4.96-12.67-3.64,12.67-13.23.69,2.31,1.71-.66-.34Z"/>
    <path id="path120581" class="cls-14" d="m87.71,93.39l-4.21,5.09-5.5,10.84s-5.9,16.71-6.14,16.95c-.23.24,9.24,8.17,9.24,8.17l22.45,12.35,3.74-.48,22.92-19.5,5.03-6.6-3.45-12.47-16.37.73-7.66-1.94-10.82-4.97s-3.45-3.45-3.68-3.39c-.23.06-5.67-4.97-5.67-4.97l.12.18Z"/>
    <path id="path120583" class="cls-14" d="m134.71,109.2l2.16,8.42s.88-.61.99-1.57.94-3.75.94-4.36v-1.15l-4.09-1.33Z"/>
    <path id="path120664" class="cls-12" d="m159.5,103.57c4.03.61,18.01-.54,17.54-.06-.47.48-6.49,12.17-6.49,12.17l-9.88,1.88s-8.18.24-8.42.06c-.23-.18-2.75.06-2.28-.85.47-.91,9.53-13.2,9.53-13.2h0Z"/>
    <path id="path120666" class="cls-12" d="m180.06,60.03l-9.92,16.27,16.04,3.43,4.63-.51,6.61-17.64-17.53-2.23.17.69Z"/>
    <path id="path105346-12-0" class="cls-9" d="m193.52,21.81l8.6,6.34-3.31,12.84,10.75-7.54s9.92,8.39,9.92,7.36-4.3-12.84-4.3-12.84l10.09-7.88-11.57-.34-4.96-12.67-3.64,12.67-13.23.69,2.31,1.71-.66-.34Z"/>
  </g>
  <g id="layer21">
    <path id="path107342" class="cls-12" d="m43.24,95.74l54.48-39.99,9.34-10.36,1.74-7.96-2.15-2.91C93.69,21.72,80.85,8.95,61.92,0l6.37,7.79,19.92,26.2,4.3,7.79-12.73,16.18-5.21-3.25-27.94,19.27-3.31,11.73-.08,10.02Z"/>
    <path id="path120668" class="cls-1" d="m151.79,44.27l12.9.34.17-7.19-39.68-13.36,26.95,12.33-.33,7.88Z"/>
    <path id="path109027" class="cls-1" d="m62.42,1.97c-.25.69.17,41.19.17,41.19l17.44,14.13,11.57-15.76L62.83,1.8l-.41.17Z"/>
    <path id="path110271" class="cls-7" d="m55.47,55.85c-.2.36-.94,3.33-.94,3.33l15.46-9.51-2.25-1.91-12.31,7.81v.45l.03-.18Z"/>
    <path id="path110273" class="cls-7" d="m51.11,67.9l21.81-14.9,1.4,1.39-23.27,15.93.06-2.42Z"/>
    <path id="path112345" class="cls-5" d="m62.51,44.59l-10.93,12.23,15.02-9.08-.47-1.09-2.34-1.51-.94-.91-.35.36Z"/>
    <path id="path112347" class="cls-6" d="m49.83,62.69c3.1-1.51,20.11-11.87,20.11-11.87l1.64,1.51s-22.68,16.53-22.51,16.29c.18-.24.76-5.93.76-5.93Z"/>
    <path id="path112351" class="cls-6" d="m140.79,61.66c-8.12,7.09-12.83,14.76-17.03,22.52l36.54,18.24,15.13-.43c-9.15-7.06-17.69-14.65-28.11-19.95l-.99-.43,2.81-5.14,6.94-6.42-15.29-8.39Z"/>
    <path id="path112353" class="cls-6" d="m180.89,48.9l9.59-.51,13.23,3.08s-3.8,9.93-6.28,9.93-5.95-1.37-5.95-1.37l-10.75-1.2,1.49-4.8v-2.23c0-1.03-1.32-2.91-1.32-2.91h0Z"/>
    <path id="path114770" class="cls-11" d="m48.01,93.94c0,.24.06,1.57-.41,2.06s-2.69,3.57-2.69,3.57l1.75,1.51,55.95-41.48-4.79-3.69-49.81,38.03Z"/>
    <path id="path117534" class="cls-4" d="m132.49,108.59l2.57,8.66,1.11-.73-2.22-7.57-.76-.91-.7.06v.48Z"/>
    <path id="path117538" class="cls-10" d="m148.04,115.25l.64.36,9.41-12.29-.64-.67h-.47l-8.94,12.59Z"/>
    <path id="path119750" class="cls-13" d="m46.93,101.08l56.56-42.14-5.26-3.03,8.18-9.69,1.99-4.6s1.05-4.97.58-5.69c-.47-.73-11.69-12.11-11.69-12.11,0,0,2.92-.97,3.62-.97s3.74-1.09,5.96-1.09h6.9l8.77,1.82,27.83,12.47.82,7.27s-.47.97.94,1.33,9,2.06,9,2.06l19.99,2.91s-.12,2.91-.12,4-3.62,10.78-3.62,10.78l-6.78,8.84-2.1,2.06-27.71-14.41-9.35,9.45-8.3,15.02,13.09,5.81,12.39,5.69,7.6,4.36-9.12,12.84-14.03-7.75-6.08.85s-1.4.36-3.62.36h-10.29c-.7,0-3.27-.73-5.26-1.82-1.99-1.09-12.39-6.06-12.39-6.06l-8.42-10.9-4.09,3.75-15.2,29.79-15.2-14.53-5.58-6.66Z"/>
  </g>
  <path id="path121509" class="cls-4" d="m136.58,44.96s.99.34,3.31.34,2.98-.69,3.89-1.03c.91-.34,4.96-.34,5.79-.34s8.1.17,8.1.17l5.04.6,7.94,2.57,9.84,1.11-.74.51h-7.69c-.33,0-3.64-1.03-3.64-1.03l-4.88-1.46-4.63-.77-5.29.34s-3.72,1.54-4.71,1.97c-.99.43-3.31,1.37-3.31,1.37l-.33-.86.17-1.11s7.36-2.06,7.03-2.14-16.45,1.88-16.45,1.88l-7.85,2.91c2.33-.9-12.04-11.65-10.42-10.88,2.5,1.19,9.18,1.46,9.18,1.46l9.67,4.37Z"/>
  <g id="layer22">
    <path id="path112349" class="cls-6" d="m120.04,40.25l8.72,8.39,8.56-2.61-7.28-4.24-2.36-1.2-1.2-.17s-8.93-1.54-8.52-1.33c.41.21,2.11.9,2.11.9l-.04.26Z"/>
    <path id="path129609" class="cls-4" d="m137.4,80.58c1.07-.17,5.04-.09,5.04-.09l2.56.26s3.14.26,3.89.26,8.18,5.74,8.18,5.74c0,0,.08,2.06-.74,2.48-.83.43-6.2-.51-7.19-1.11-.99-.6-7.11-5.22-7.11-5.22,0,0-2.48-.43-2.89-.6-.41-.17-1.74-1.71-1.74-1.71h0Z"/>
    <path id="path129611" class="cls-3" d="m156.67,69.88c.33.26,3.97,3.77,4.38,4.11.41.34,1.65,1.88,1.82,3.17.17,1.28-1.24,5.99-1.32,6.34-.08.34-.25,1.37-.25,1.37l8.27-5.65,9.59,2.06.08,5.31,5.29-6.08-6.7-1.37-3.55-.51s-3.22-1.2-4.13-1.46-2.48-1.11-2.81-1.63c-.33-.51-5.79-2.91-5.79-2.91l-4.63-3.34-.25.6Z"/>
  </g>
  <g id="layer23">
    <path id="path127399" class="cls-2" d="m140.88,82.55s-1.82.09-2.15,0-1.57-1.28-1.57-1.28l-.08-.86,1.41-.09s3.22.09,4.05.34c.83.26,6.7,4.37,6.7,4.37l2.15,2.65.41.17.83-.09v-1.97l-1.24-.86-5.21-3.77.41-.17,1.74-.09s2.81.86,3.14,1.2c.33.34,3.8,2.57,3.8,2.57,0,0,1.07,1.28,1.57,1.97.5.69,4.22,1.2,5.13,1.8.91.6,5.21,1.8,5.7,1.88.5.09.91,1.2.91,1.63v1.37s-1.49,1.11-2.23,1.63c-.74.51-2.48.6-3.55.6s-5.7-1.54-5.7-1.54c0,0-2.65-1.46-3.47-2.06-.83-.6-2.4-1.54-2.73-1.71-.33-.17-3.31-2.06-3.72-2.31-.41-.26-2.23-1.71-3.55-3-1.32-1.28-2.73-2.4-2.73-2.4h0Z"/>
    <path id="path130303" class="cls-3" d="m152.2,93.77s4.63,1.28,5.46,1.37c.83.09,2.65.09,2.65.09l1.16-1.97.74,2.74s-.66.6.17.6,0,.34.91.34,2.89.17,4.46.17,2.81.17,2.89-.17c.08-.34,3.47-3.08,3.47-3.08l-1.41,5.22-10.83-.17s-3.47-1.03-3.8-1.37c-.33-.34-5.87-3.77-5.87-3.77h0Z"/>
  </g>
</svg>