<?xml version="1.0" encoding="UTF-8"?>
<svg id="svg4444" xmlns="http://www.w3.org/2000/svg" width="242.41" height="241.61" viewBox="0 0 242.41 241.61">
  <defs>
    <style>
      .cls-1 {
        fill: #d29d1e;
      }

      .cls-1, .cls-2, .cls-3, .cls-4, .cls-5, .cls-6 {
        stroke-width: 0px;
      }

      .cls-3 {
        fill: #a1a1a1;
      }

      .cls-4 {
        fill: #fff;
      }

      .cls-5 {
        fill: #9f9f9f;
      }

      .cls-6 {
        fill: #5c301c;
      }
    </style>
  </defs>
  <path id="path14346" class="cls-4" d="m.17,59.31l242.24.19v120.49H0L.17,59.31Z"/>
  <g id="layer5">
    <ellipse id="path14455-2" class="cls-2" cx="193.62" cy="120.96" rx="26.01" ry="28.02"/>
    <ellipse id="path14455" class="cls-2" cx="48.96" cy="120.59" rx="26.01" ry="28.02"/>
  </g>
  <g id="layer6">
    <path id="path17297" class="cls-6" d="m40.67,56.79l.89-1.91.59-.93s1.53-.65,1.78-.7,1.61-.33,1.61-.33c0,0,0-.98-.17-1.03-.17-.05-.13-.51-.98-.56-.85-.05-2.85.61-3.61.89-.76.28-.34-.65-.34-.65,0,0,.93-1.31,1.27-1.54.34-.23.93-.89,1.7-1.03s1.44-.19,1.91-.19,1.74,0,1.91-.42.42-.7-.17-1.12c-.59-.42-3.36-.93-3.36-.93l-.08-.65,2.34-.75,1.95.14s1.66.89,2.17,1.45c.51.56,15.38,12.56,15.47,12.75.08.19,5.48,3.36,6.25,3.6.76.23,21.33,9.62,21.55,9.76.21.14,1.95.79,2.17.84.21.05,2.46.14,2.46.14,0,0,1.19-2.29,1.49-2.94.3-.65,16.83-50.63,16.83-50.63,0,0,1.36-2.48,1.61-2.48s6.88-.23,6.88-.23c0,0,16.49,45.35,16.53,46,.04.65,4.76,9.01,5.4,9.34s4.89.98,5.27.7,22.65-12.1,23.63-12.61c.98-.51,15.13-12.56,15.34-12.8.21-.23,4.08-2.66,4.08-2.66,0,0,2.93-.47,3.14-.47s1.83.56,1.83.56c0,0,.59-.23,0,0-.59.23-3.02,1.26-3.02,1.26,0,0-1.36.61-1.44.79-.09.19-.64,1.35-.64,1.35l2.21-.09s1.66-.14,1.83-.09c.17.05,1.83.89,2.04,1.07.21.19.59,1.21.59,1.21l.3.61-.13.51-1.87-.47-1.61-.05-.93.56s.76.19,1.02.37c.25.19,2.59,1.73,2.8,1.96.21.23.85.89.89,1.26.04.37.04.61.04.93s-.55,1.17-.55,1.17c0,0-1.32.28-1.44-.05-.13-.33.04-1.12-.51-1.49-.55-.37-1.1-.51-1.57-.19-.47.33-1.27.28-1.49,1.26-.21.98-.3,1.73-.59,2.48-.3.75-10.67,15.22-10.67,15.22l-23.2,14.34-14.92,8.78-1.57,50.81,1.78,8.92,12.24,24.75,16.7,33.63.81,5.14s-.04,1.68-.09,1.96c-.04.28-.13,2.29-.25,2.71-.13.42-.51,1.21-.51,1.21,0,0-.72.75-.76.28-.04-.47.47-2.24.51-2.9.04-.65.34-1.03.04-1.03s-1.61-.05-1.61-.05c0,0-.13.23-.42,1.17-.3.93-.93,2.71-1.19,3.18-.25.47-.89.7-1.1.75-.21.05-1.27-.19-.81-1.12.47-.93.93-1.59.93-2.15s-.3-.93-.3-.93c0,0-.51.51-.81.98s-.89,1.87-1.49,2.38c-.59.51-.93.65-1.53.93-.59.28-.38.23-.59.28-.21.05-1.1.05-1.1.05,0,0-.21.23-.21-.14s-.21-.47.34-1.17c.55-.7,1.53-.79,1.74-2.1.21-1.31.55-1.49.13-2.15-.42-.65-2.12-1.77-2.51-1.91-.38-.14-1.95-1.73-2.34-2.29-.38-.56-1.66-2.43-2.12-3.08s-4.46-6.54-4.55-6.82c-.09-.28-4.97-10.98-4.97-10.98,0,0-7.27-14.1-7.48-14.52-.21-.42-1.95-5.04-1.95-5.04,0,0-3.06-5.09-3.23-5.56-.17-.47-2.85-5-2.97-5.28-.13-.28-3.23-2.2-3.23-2.2,0,0-3.44.37-3.78.51-.34.14-2.04.61-2.29.93-.25.33-.38,1.54-.42,1.91s.51,3.36.59,3.55c.09.19,1.61,2.48,1.87,2.71s2.55,3.5,2.59,3.69,1.78,4.48,1.87,4.72c.09.23,2.04,6.68,2.04,6.68,0,0,1.53,6.02,1.36,6.07-.17.05-3.06,7.24-3.06,7.24,0,0-4.46,8.59-4.72,8.78-.25.19-2.63,4.76-2.63,4.76,0,0-1.32,22.88-1.32,23.26s-.21,1.07-.55.93c-.34-.14-1.23.05-1.23-1.35s.13-2.62.13-2.62c0,0-.47-.33-.76-.47s-.51-.14-.51-.14l-1.15,1.17s-.72.75-1.02-.14-.38-1.4-.47-2.71-.81-2.85-.89-3.08c-.08-.23-.81.28-1.15.56s-.51,1.77-1.15.75c-.64-1.03-.98-1.68-.98-2.29s.25-2.24.25-2.24c0,0-.08-.28-.25-.28s-1.7-.19-1.91-.19-.17.05-.13-.89c.04-.93.08-1.82.13-2.2.04-.37.72-.7-.08-.79-.81-.09-1.06-.47-1.53-.51-.47-.05-.34-.09-.81-.09s-1.32-.09-1.32-.09l-1.66-17.75s.93-4.86.98-5.14c.04-.28,1.57-2.52,1.78-3.32.21-.79,4.46-4.72,4.63-5.04.17-.33,2.12-2.57,2.12-2.57,0,0,.13-4.72.13-5.32s-.89-5.04-1.15-5.56c-.25-.51-.55-3.18-.55-3.41s.81-2.34,1.1-2.99c.3-.65,1.78-3.08,2.04-3.64.25-.56.51-1.4.47-1.82-.04-.42-.3-1.31-.51-1.45-.21-.14-8.29-.23-8.58.05-.3.28-6.97,9.39-7.35,9.9-.38.51-14.15,29.52-14.15,29.52l-5.86,10.51-5.48,5.37s-1.74,1.45-1.83,1.68c-.08.23-.64,1.49-.68,1.82-.04.33,1.49,2.24,1.49,2.24l1.74,1.4.04,1.12s-.55.93-.85.51c-.3-.42-2.55-1.35-2.93-1.73-.38-.37-1.06-1.31-1.27-1.63-.21-.33-.21-1.73-.21-1.73l-.42-.51-.89.42.08,3.08.34.84s-.47.84-.98.33c-.51-.51-.76-1.03-1.1-1.82-.34-.79-.38-1.45-.34-2.1.04-.65.25-1.77-.13-1.77s-.68-.37-1.06-.37h-.81s-.68.14-.81,1.26c-.13,1.12-.08,3.36-.08,3.36,0,0-.89-.28-1.23-.79-.34-.51-.38-1.03-.59-2.15-.21-1.12-.08-1.73,0-2.85.08-1.12,1.4-3.5,1.74-4.11.34-.61,14.15-31.2,14.15-31.2,0,0,12.15-22.88,12.15-23.07s3.23-7.94,3.23-7.94c0,0,.21-5.37.25-5.93.04-.56.42-34.42.42-34.42,0,0,.13-14.06,0-14.29-.13-.23-1.78-4.25-2.04-4.25s-19.68-11.58-19.85-11.68c-.17-.09-11.69-6.12-11.69-6.12l-9.05-9.29-6.46-9.85-1.06-2.94-.64-1.03-.81-.51-1.36.14s-.81.05-1.23.42c-.42.37-1.23,1.03-1.23,1.03l-1.32.14.64-.23Z"/>
  </g>
  <g id="layer7">
    <path id="path17300" class="cls-1" d="m116.57,30.3l-3.25,6.14-.09,7.46,2.43-.3,1.83-3.83.45-9.41-1.38-.07Z"/>
    <path id="path19288" class="cls-1" d="m125.74,30.59s.57.13.63.33c.06.2,3.4,6.31,3.43,6.54.03.23.27,5.98.27,5.98,0,0-2.07.03-2.37-.07-.3-.1-2.34-3.93-2.34-3.93l-.06-8.85h.45Z"/>
    <path id="path19290" class="cls-5" d="m96.17,121.7l-45.8,59.05-.54,2.91.04,2.12s.32,1.7.4,1.8c.08.09.68,1.47.68,1.47l1.4,2.31s3.27,1.24,3.42,1.35c.15.12,2.59.84,2.85.82.25-.02,1.95-.61,2.15-.68.19-.07,1.89-1.19,2.19-1.59.3-.4,10.39-14.27,10.39-14.27l21.21-27.13,1.87-2.2.32-26.74-.59.91.02-.14Z"/>
    <path id="path19292" class="cls-3" d="m142.11,63.52c1.02-.47,7.99-11.49,7.99-11.49l15.21-18.59,9.86-12.33,5.18-6.82s.68-.84.68-1.31.51-12.98.51-12.98l5.44,5.98,3.14,6.63,1.27,9.62s-1.36,6.73-1.61,7.47c-.25.75-7.73,11.3-7.73,11.3l-18.61,21.76-7.48,8.41-3.74,2.34-5.69-.93-5.01-8.41.59-.65Z"/>
    <path id="path21978" class="cls-5" d="m62.15,32.74l33.54,40.29,1.92.59,1.74-2.11-.36-1.59-32.63-41.87-13.58-17.37s-1.86-.2-2.1-.07c-.24.13-.9.66-1.2,1.06-.3.4-.54.86-.66,1.19-.12.33-.36.59-.36,1.12s-.12,1.19.42,1.72c.54.53,13.28,17.04,13.28,17.04Z"/>
    <path id="path21980" class="cls-5" d="m146.77,130.55l22.66,28.47-1.32,1.25-2.04,1.25s-.72.99-.96.92c-.24-.07-19.17-24.57-19.17-24.57l.42-7.4.42.07Z"/>
  </g>
  <g id="layer8">
    <path id="path21983" class="cls-2" d="m169.82,159.21s-3.99,2.57-3.99,3.04-.34,5.6-.34,5.6c0,0,17.51,21.25,17.51,20.97s1.36-2.34,1.87-2.85c.51-.51,1.4-1.68,2.38-2.34.98-.65,1.91-1.54,1.91-1.73s-.51-3.32-.51-3.32l-15.13-19.33-3.7-.05Z"/>
    <path id="path21985" class="cls-2" d="m188.44,182.93c.59.33,4.04,4.76,4.04,4.76l-.25,2.01s-.34.93-.59,1.03c-.25.09-.98,1.21-1.27,1.21h-1.36l-1.53-.28-2.63-3.04-.93-1.35,1.06-1.45,1.61-1.73,1.19-.93.68-.23Z"/>
    <path id="path23636" class="cls-2" d="m70.21,19.15c-.76.28-5.44,3.92-5.61,4.39-.17.47-2.97,2.52-3.57,3.36-.59.84-4.33,4.02-4.59,4.48-.25.47-1.53,1.77-1.87,2.15-.34.37-1.19,1.68-1.19,1.68l.85,1.4s1.36,1.03,2.38.56,1.36-.84,1.7-1.12,2.46-1.87,3.14-2.52c.68-.65,6.37-7.19,6.97-7.57s3.23-3.18,3.23-3.18c0,0,.85-.93.85-1.68s.25-.84-.17-1.21-.34-1.03-.85-1.03-1.27.28-1.27.28Z"/>
  </g>
</svg>