<?xml version="1.0" encoding="UTF-8"?>
<svg id="svg4444" xmlns="http://www.w3.org/2000/svg" width="246.62" height="245.15" viewBox="0 0 246.62 245.15">
  <defs>
    <style>
      .cls-1 {
        fill: #e8f959;
        stroke-width: 0px;
      }
    </style>
  </defs>
  <path id="path46701" class="cls-1" d="m68.7,1.1l-15.3,8.03-12.44,9.7-11.24,11.31-8.06,11.31-9.14,15.1-7.62,16.32L.89,89.51l-.89,29.49.13,17.86,2.48,14.84,13.78,29.49,10.6,14.33,14.22,16.26,19.37,14.07s1.65,1.67,2.03,1.67,2.35-.06,2.73-.13c.38-.06,2.73-.64,2.79-1.03.06-.39,84.75-153.67,84.75-153.67l24.96-5.27-92.49,163.55-.72,4.72,3.23,3.45,13.11,3.09,12.93,2.91,37.53-.18,32.33-10.9,32.68-23.26,18.5-22.17,11.67-26.35-19.75,28.53-25.86,24.35-22.99,10.36-17.96,6.54-10.78,3.27-20.65.55-17.06-.73-14.73-4L196.52,54.7l-51.18,11.09L62.73,216.26l-6.47-5.45-23.35-21.99-8.8-15.99-7.18-16.54-6.82-21.81-1.62-20.54,3.23-28.71,5.21-17.63,6.64-16.36,9.88-13.81,11.85-13.45L72.79,0l-4.09,1.1Z"/>
  <path id="path46703" class="cls-1" d="m59.68,35.07h136.84l11.31-.18,4.13-7.27-1.08-2.91-163.24.18.18,33.8,86.74-.36,66.09-12.9,7.18-11.45-11.85.55-.54,1.64-56.93,12.36-80.63-.36.36-13.08h1.44Z"/>
</svg>