<?xml version="1.0" encoding="UTF-8"?>
<svg id="svg4444" xmlns="http://www.w3.org/2000/svg" width="231.98" height="227.16" viewBox="0 0 231.98 227.16">
  <defs>
    <style>
      .cls-1 {
        stroke-width: 0px;
      }
    </style>
  </defs>
  <g id="layer33">
    <path id="path108687" class="cls-1" d="m3.52,227.16l14.74-34.94s12.4-7.91,12.92-7.78c.52.13-.52,26.9-.52,26.9l10.05-10.81,1.57-14.9-7.44-17.41,29.23-22.02h2.74l10.7,16.48s4.31,7.78,4.96,8.97c.65,1.19,1.04,2.64.78,3.3s-2.35,1.85-3,2.51c-.65.66-3.39,2.51-3.91,4.35-.52,1.85-2.35,3.56-2.22,7.91.13,4.35,7.31,8.44,8.87,8.97s11.22,3.56,12.26,3.56,9.13-4.48,10.57-4.88c1.44-.4,5.09-.79,5.09-.79l3.13-124.22s-6.78-1.32-7.05-.26c-.26,1.05-8.09,13.71-8.09,13.71l-3.13,2.64-1.04,5.01-10.96-8.97-1.04-5.27-29.49,8.7,16.7.53,6.26-2.64s-.26,1.58,1.57,3.96c1.83,2.37,12.26,12.13,12.26,12.13l-.52,7.38-15.4-13.98-31.31,8.18,14.09,2.37,14.09-3.96s16.96,11.87,16.96,12.92-2.61,11.08-2.61,11.08l-20.35-11.34-31.31,15.03s2.61-.79,4.44,0c1.83.79,21.66-5.54,21.66-5.54l8.09-1.05,15.14,9.76,1.04,6.86s-.52,5.8-.26,7.91c.26,2.11-.52,6.86-.52,6.86l.26,2.9-20.62-26.11-33.66,34.29-11.22,2.11L0,184.17l3.52,42.99Z"/>
    <path id="path108687-9" class="cls-1" d="m228.64,226.83l-14.89-34.88s-12.43-7.86-12.95-7.73c-.52.13.63,26.9.63,26.9l-10.09-10.77-1.63-14.89,7.36-17.44-29.32-21.9h-2.74s-10.63,16.54-10.63,16.54c0,0-4.27,7.8-4.92,8.99s-1.03,2.64-.77,3.3,2.36,1.84,3.01,2.49c.66.66,3.4,2.49,3.93,4.33.53,1.84,2.36,3.55,2.25,7.9-.11,4.35-7.27,8.47-8.84,9-1.56.53-11.21,3.61-12.25,3.61-1.04,0-9.15-4.44-10.59-4.83-1.44-.39-5.09-.77-5.09-.77l-3.65-124.2s6.78-1.35,7.04-.29c.27,1.05,8.15,13.68,8.15,13.68l3.14,2.62,1.06,5.01,10.92-9.01,1.02-5.28,29.52,8.58-16.7.6-6.27-2.61s.27,1.58-1.55,3.96c-1.82,2.38-12.21,12.18-12.21,12.18l.55,7.38,15.34-14.04,31.35,8.04-14.08,2.43-14.11-3.9s-16.91,11.94-16.91,12.99c0,1.05,2.66,11.07,2.66,11.07l20.31-11.43,31.38,14.9s-2.61-.78-4.44.02c-1.82.8-21.68-5.45-21.68-5.45l-8.09-1.02-15.09,9.82-1.02,6.86s.55,5.8.29,7.91c-.25,2.11.55,6.85.55,6.85l-.25,2.9,20.51-26.2,33.81,34.14,11.23,2.06,18.07,16.54-3.34,43Z"/>
    <path id="path108711" class="cls-1" d="m111.95,72.87l6.26-.26,7.31,122.9s11.48,5.27,10.44,5.27-6.26,1.05-6.26,1.05c0,0-9.39-.79-10.7-2.11-1.3-1.32-2.87-3.16-2.87-3.16h-4.96l-1.3-113.14,2.09-10.55Z"/>
    <path id="path108713" class="cls-1" d="m107.41,71.66s2.58-26.85,1.66-29.09c-.92-2.24-3.14-15.85-3.32-16.78-.18-.93-8.12-12.12-8.12-12.12,0,0-10.33-5.97-11.07-5.97s-10.89-.93-10.89-.93l-12.36,3.73-12.73,5.78s-5.35,6.15-5.72,7.27-2.21,11.19-2.21,11.19c0,0,4.8.56,5.72.75s.74,3.54,3.69,3.54,4.61.56,7.38-.56c2.77-1.12,2.21-2.05,4.8-1.31,2.58.75,5.54.93,7.01,2.61,1.48,1.68,4.98,8.21,4.98,8.21,0,0-2.77.93-5.17-.37-2.4-1.31-6.09-4.1-9.23-2.24-3.14,1.86-5.35,2.42-5.72,4.29-.37,1.86-4.61,5.59-4.61,5.59,0,0,.55.75-2.58,0-3.14-.75-9.6-2.24-11.07-3.73-1.48-1.49-4.43-7.09-4.8-10.44s-.92-11.56.74-13.99c1.66-2.42,4.8-10.63,7.75-13.05,2.95-2.42,6.83-7.27,12.92-9.51,6.09-2.24,9.96-3.36,16.05-4.29,6.09-.93,17.35,1.12,20.3,2.42,2.95,1.31,17.53,9.88,18.45,11.56.92,1.68,10.15,20.14,10.15,20.14l3.14,29.47.92,9.32-16.05-1.49Z"/>
    <path id="path108715" class="cls-1" d="m109.85,68.67c1.09,0,12.3-5.47,12.3-5.47l11.48,24.59-3.01,111.76h-16.94s-6.83,1.09-9.29,1.37c-2.46.27-9.84,1.09-9.84,1.09,0,0,8.47-113.13,10.93-119.41,2.46-6.28,4.37-13.94,4.37-13.94Z"/>
  </g>
</svg>