<?xml version="1.0" encoding="UTF-8"?>
<svg id="svg4444" xmlns="http://www.w3.org/2000/svg" width="246.01" height="248.99" viewBox="0 0 246.01 248.99">
  <defs>
    <style>
      .cls-1, .cls-2, .cls-3, .cls-4 {
        stroke-width: 0px;
      }

      .cls-2 {
        fill: #fff;
      }

      .cls-3 {
        fill: #93a501;
      }

      .cls-4 {
        fill: #fcad00;
      }
    </style>
  </defs>
  <g id="layer29">
    <ellipse id="path96742" class="cls-3" cx="123" cy="124.49" rx="123" ry="124.49"/>
  </g>
  <g id="layer31">
    <path id="path99199" class="cls-4" d="m43.37,158.67l1.66-10.26s6.65-7.18,7.98-8.55c1.33-1.37,13.3-11.28,16.3-12.31,2.99-1.03,42.24-21.88,46.57-22.56,4.32-.68,35.59-13.67,35.59-13.67l10.31-1.71,14.3,2.39,11.64,12.31s6.65,9.91,6.98,11.62c.33,1.71,3.99,20.85,3.99,20.85l.33,7.86v4.44l-17.3,18.12-14.63,10.26s-14.3,5.47-16.96,5.81c-2.66.34-10.98,1.71-10.98,1.71l-5.65-3.76,1-21.54-.33-17.09s-2-9.91-2.33-11.62c-.33-1.71-5.65-14.7-5.65-14.7h-2l1,20.17v17.78l-2.33,16.75-6.32,14.7-3.99,4.44h-21.95l-27.94-8.55-10.64-6.5-8.65-16.41Z"/>
    <path id="path99201" class="cls-1" d="m51.35,174.82l11.64,7.09,28.19,8.63,22.04.17s3.74-2.39,4.16-2.56c.42-.17,2.58-3.33,2.99-3.93.42-.6,2.33-6.15,2.33-6.15l2.99-17.09.25-24.27-.5-17.95s.58.17,1.33,1.28c.75,1.11,2.49,4.44,2.66,4.87.17.43,2.58,8.55,2.58,8.89s.5,13.5.5,13.85-.08,33.93.08,35.04c.17,1.11,4.16,3.33,4.57,3.5.42.17,5.32.68,5.99.51.67-.17,8.32-1.79,8.32-1.79,0,0,8.73-3.25,9.06-3.33.33-.09,14.63-8.8,15.3-9.14.67-.34,10.89-8.97,11.39-9.32.5-.34,9.9-12.05,9.9-12.05l-5.07,9.06s-5.16,6.58-5.65,7.18c-.5.6-10.56,8.29-10.56,8.29l-9.65,5.56s-8.56,4.79-8.9,4.96c-.33.17-18.96,4.7-18.96,4.7l-7.57,1.37-24.53,1.97-17.55-.6-12.89-3.68-16.3-5.81-4.99-3.33-3.16-5.9Z"/>
    <path id="path99203" class="cls-1" d="m46.86,190.12c-1.5-1.03-6.32-9.57-6.32-9.57,0,0-3.66-14.02-3.66-15.38s4.16-13.85,4.16-13.85l5.65-9.91,10.48-9.74,34.76-17.78,53.38-22.05,17.13-5.64,18.63-1.2,16.13,1.71,12.14,3.08,10.81,8.2,7.65,7.18,4.16,12.31-.67,13.5-15.3,35.38-18.96,23.59-13.64,13.16-27.94,15.21s10.48-4.44,12.14-5.13,21.29-12.48,22.12-13.33c.83-.85,25.94-26.84,27.61-28.72,1.66-1.88,10.81-14.53,10.81-14.53l8.65-21.71,5.65-11.97-.67-15.55-4.32-17.26s-2.49-3.59-4.16-4.1-10.48-5.81-11.64-5.81-16.63-2.56-17.63-2.73c-1-.17-12.64-1.37-12.64-1.37l-15.13,2.05-16.46,5.47-42.41,14.53-60.37,26.84-35.92,19.32-12.47,10.09s1.5,7.01,2.66,7.35c1.16.34,13.47,7.69,13.47,7.69,0,0,7.98,9.74,9.31,10.26,1.33.51,11.31,11.28,11.31,11.28l1.5-.85Z"/>
  </g>
  <g id="layer32">
    <path id="path100657" class="cls-2" d="m157.13,119.25c.67.34,5.99,7.86,5.99,7.86,0,0-2.49,1.88-3.16,1.88s-6.82-.17-6.82-.17l.5-3.76,3.49-5.81Z"/>
    <path id="path100659" class="cls-2" d="m163.78,108.99c.17.68,8.81,20.34,8.81,20.34,0,0,1.83-.51,2.66-1.03.83-.51-.67-11.11-1.66-11.79-1-.68-6.65-8.38-6.65-8.38l-3.16.85Z"/>
    <path id="path100661" class="cls-2" d="m63,147.97s-4.49,5.47-4.49,6.15.33,4.96.33,4.96h2.16c.67,0,2.16-.17,2.16-.17l1.5-8.72-1.66-2.22Z"/>
  </g>
</svg>