<?xml version="1.0" encoding="UTF-8"?>
<svg id="svg4444" xmlns="http://www.w3.org/2000/svg" width="243.55" height="195.91" viewBox="0 0 243.55 195.91">
  <defs>
    <style>
      .cls-1 {
        fill: #eeedc9;
      }

      .cls-1, .cls-2, .cls-3, .cls-4, .cls-5 {
        stroke-width: 0px;
      }

      .cls-2 {
        fill: #8a7461;
      }

      .cls-3 {
        fill: #f2bb3f;
      }

      .cls-4 {
        fill: #583e2c;
      }

      .cls-5 {
        fill: #a11d21;
      }
    </style>
  </defs>
  <path id="path23719" class="cls-4" d="m6.3,124.11l1.99.18s1.69.64,2.07.74c.38.09,2.45,1.84,2.45,1.84l2.15,1.93,1.23,3.77,1.23,3.22,1.3,4.14.46,6.72,2.84,17.95,5.13,15.46,8.43,11.78s2.07,3.13,2.45,3.13,1.61.37,2.07.55c.46.18.69.37,1.23.37h3.6l177.17-1.1,6.9-5.89s4.21-4.23,4.52-4.51c.31-.28,3.14-3.96,3.45-4.42.31-.46,3.37-7.27,3.37-7.27l2.68-10.59.54-7-1.07-9.39s-.92-11.6-1.53-12.98c-.61-1.38-9.89-23.38-9.89-23.38l-1-.92,3.07,29.18-2.07,8.19-1.84,4.33-9.35,4.51s-12.95,2.21-13.26,2.21h-2.45s-161.38-.55-161.92-.55-6.67-2.76-6.67-2.76l-6.67-8.56-5.59-12.06-5.06-9.94-2.68-3.41-4.83-1.01s-.92,0-1.53.46c-.61.46-2.15,2.39-2.15,2.39,0,0-1.99,2.85-1.69,2.76.31-.09.92-.09.92-.09h0Z"/>
  <g id="layer9">
    <path id="path26191" class="cls-3" d="m242.82,87.16s-6.21,1.01-6.51,1.1c-.31.09-3.53,2.67-3.53,2.67l-.23,3.22s3.45,2.3,4.06,2.49c.61.18,3.53,1.84,3.53,1.84l-.15,1.56s-.92.18-2.38.55c-1.46.37-4.44.37-4.44.37l-2.61,1.29.31,5.71,2.53,15.19.08,14.82-1,7.73-3.07,6.26-3.98,3.04-10.5,2.58-10.5.28-114.26-.09-47.05.09s-5.06-.64-5.44-.64-3.6-3.68-3.91-3.77c-.31-.09-5.21-9.39-5.21-9.39l-3.3-8.38-5.29-8.74-2.15-4.42-2.22-1.66-3.37-.64s-1.15-.55-1.84,0c-.69.55-2.45,2.3-2.91,3.31-.46,1.01-3.6,6.63-3.6,6.63l-.84,2.03s-.46.83-1,.83-1.15.18-1.3-.64c-.15-.83-.61-2.76-.69-3.87-.08-1.1-.08-4.23.08-5.06.15-.83,1.69-4.14,1.92-5.06.23-.92,2.76-4.05,2.76-4.05,0,0,1.23-1.29,2.53-1.66,1.3-.37,5.13-.83,5.75-.74.61.09,4.44,2.21,4.9,2.58.46.37,5.98,6.08,5.98,6.08l3.83,7.27,3.83,8.47s4.44,6.08,4.37,6.44c-.08.37,7.82,7.36,7.82,7.36l1.15,1.2,163.45-.28,9.5-1.2,4.67-2.95,2.76-2.39,2.15-2.85.92-3.04.31-2.58s-.61-2.76-.69-3.13c-.08-.37-7.05-29.46-7.05-29.46l-.77-5.52s.31-4.88.77-5.89c.46-1.01,2.22-5.06,2.22-5.06l2.99-3.68s4.06-2.12,4.37-2.21c.31-.09,6.28.74,6.28.74l5.98,3.31v2.03Z"/>
    <path id="path32604" class="cls-2" d="m127.45,9.37h4.33v141.38l-4.33.26V9.37Z"/>
    <path id="path33765" class="cls-5" d="m82.15,0c1.08.26,94.72,39.58,94.72,39.58l5.03,15.18,1,9.3.08,13.72-.46,10.03-10.8,25.04-94.18,13.62s3.45-9.57,3.68-9.94c.23-.37,2.76-12.33,2.76-12.33l2.22-14.27,1.46-13.16-.08-24.67-1.61-18.41-3.22-25.87-1.07-7.73.49-.08Z"/>
  </g>
  <g id="layer10">
    <path id="path34650" class="cls-1" d="m93.77,4.87c1,.37,15.33,6.81,15.33,6.81l1.23,5.98,2.45,12.8,1.61,17.67.46,23.93-.46,9.11-2.38,14.64-5.59,25.77-15.86,3.31s2.53-7.18,2.84-7.73c.31-.55,4.21-13.81,4.21-13.81l2.99-14.45,1.76-11.87.46-24.85s-1.99-21.26-2.22-22.09c-.23-.83-5.06-18.23-5.06-18.23l-1.76-7Z"/>
    <path id="path34652" class="cls-1" d="m119.75,17.02l5.06,23.66.69,16.85-.84,21.63-10.12,41.7,13.64-1.2,5.67-20.71,1.92-12.61,1.38-10.4v-21.63l-1.3-18.23-1.99-13.99-14.41-6.54.31,1.47Z"/>
    <path id="path34654" class="cls-1" d="m141.51,26.5l4.37,19.52.38,21.45-2.15,21.45-2.07,12.24-6.9,16.02,11.26-1.2,2.61-7.27,4.29-18.59s2.15-15.83,2.15-16.2.23-23.01.23-23.01l-1.46-12.89-1.69-7.92-11.57-5.34.54,1.75Z"/>
    <path id="path34656" class="cls-1" d="m158.91,33.13l1.92,5.34,1.69,4.6,1.3,6.26,1,7,.15,8.19.38,14.27-1.84,11.23-4.6,12.61-4.29,11.97,9.12-1.2,1.76-4.05s4.44-10.31,4.6-10.95c.15-.64,2.45-8.74,2.45-8.74l1.3-15.19.15-14.91-2.53-15.1-.38-6.9-12.18-4.42Z"/>
  </g>
</svg>