<?xml version="1.0" encoding="UTF-8"?>
<svg id="svg4444" xmlns="http://www.w3.org/2000/svg" width="239.81" height="244.42" viewBox="0 0 239.81 244.42">
  <defs>
    <style>
      .cls-1 {
        fill: #357e6e;
      }

      .cls-1, .cls-2, .cls-3, .cls-4 {
        stroke-width: 0px;
      }

      .cls-2 {
        fill: #e92424;
      }

      .cls-3 {
        fill: #2d4b5c;
      }

      .cls-4 {
        fill: #ffae00;
      }
    </style>
  </defs>
  <ellipse id="path47069" class="cls-2" cx="120.71" cy="122.23" rx="107.38" ry="107.2"/>
  <g id="layer12">
    <ellipse id="path49270" class="cls-4" cx="120.04" cy="122.47" rx="90.59" ry="89.52"/>
  </g>
  <g id="layer11">
    <path id="path48161" class="cls-3" d="m28,37.05l60.74,66.44L1.06,83.32l26.94-46.27Z"/>
    <path id="path48163" class="cls-3" d="m92.83.26l26.67,85.17L146.45.66l-53.61-.4Z"/>
    <path id="path48165" class="cls-3" d="m212.21,38.5l26.94,46.67-88.34,18.98,61.4-65.65Z"/>
    <path id="path48167" class="cls-3" d="m149.88,140.4c.66.26,89,19.78,89,19.78l-27.2,45.75-61.8-65.52Z"/>
    <path id="path48169" class="cls-3" d="m119.38,158.07l27.86,86.35-55.07-.13,27.2-86.22Z"/>
    <path id="path48171" class="cls-3" d="m87.82,141.06L.4,160.97l26.94,46.8,60.48-66.71Z"/>
    <path id="path49124" class="cls-1" d="m15.58,145.71l3.04,10.94-18.62,3.26,15.58-14.21Z"/>
    <path id="path49126" class="cls-1" d="m40.14,194.06l7.53,6.33-18.62,5.8,11.09-12.13Z"/>
    <path id="path49128" class="cls-1" d="m.26,85.17l15.05,12.92,3.17-10.28L.26,84.24v.92Z"/>
    <path id="path49130" class="cls-1" d="m29.45,38.1l18.62,5.54-6.87,6.59-11.75-12.13Z"/>
    <path id="path49132" class="cls-1" d="m92.17,0l6.21,17.8-10.7,3.16L92.17,0Z"/>
    <path id="path49134" class="cls-1" d="m147.11.92l-6.21,17.53,11.36,3.16-5.15-20.7Z"/>
    <path id="path49136" class="cls-1" d="m191.35,43.9l20.07-6.33s-11.75,13.71-12.41,13.97-7.66-7.65-7.66-7.65Z"/>
    <path id="path49138" class="cls-1" d="m222.77,99.01l16.37-13.71-18.49,4.61,2.11,9.1Z"/>
    <path id="path49140" class="cls-1" d="m223.43,144.75l-3.04,10.81,19.41,4.61-16.37-15.42Z"/>
    <path id="path49142" class="cls-1" d="m211.15,205.93c-.53-.4-12.94-13.05-12.94-13.05l-8.06,7.65,21,5.41Z"/>
    <path id="path49144" class="cls-1" d="m87.55,223.72l3.83,20.43,6.73-17.93-10.56-2.5Z"/>
    <path id="path49146" class="cls-1" d="m141.56,226.49l5.41,17.53,5.41-21.09-10.83,3.56Z"/>
  </g>
</svg>